<svg width="205" height="42" viewBox="0 0 205 42" fill="none" xmlns="http://www.w3.org/2000/svg">
<g clip-path="url(#clip0_622_54419)">
<path d="M42.8829 38.7921H7.61328L7.75791 36.7746L8.13957 31.3623L8.29224 29.1797L8.42482 27.287L8.73818 22.8291H41.758L42.0714 27.287L42.7504 36.8994L42.8829 38.7921Z" fill="#712D1A"/>
<path d="M20.2656 22.8291H18.0078V38.784H20.2656V22.8291Z" fill="#390C08"/>
<path d="M32.9336 22.8291H30.6758V38.784H32.9336V22.8291Z" fill="#390C08"/>
<path opacity="0.5" d="M42.0686 27.283H8.41797L8.73535 22.8291H41.7512L42.0686 27.283Z" fill="#7D4A00"/>
<path d="M43.5528 38.792H6.94531V41.3894H43.5528V38.792Z" fill="#FFB726"/>
<path d="M43.5528 22.459H6.94531V25.0564H43.5528V22.459Z" fill="#DD6819"/>
<path d="M47.3282 1.33691L47.2399 2.10204L47.1394 2.97993L46.0547 12.5038L45.9743 13.2246L44.6606 24.7982H5.8395L4.72263 14.9643L4.63826 14.2112L4.14411 9.90635L4.08787 9.40298L3.79459 6.84584L3.71826 6.15722L3.44105 3.74103L3.3607 3.01214L3.17188 1.33691H4.88333C9.26839 2.37919 13.7326 3.05269 18.2295 3.35041C18.6835 3.38665 19.1414 3.41082 19.5994 3.439C20.81 3.51149 22.0381 3.55713 23.2835 3.57592C23.9343 3.57592 24.5892 3.60008 25.248 3.60008C26.1105 3.60008 26.9662 3.588 27.8152 3.56384C28.8517 3.53968 29.8842 3.49538 30.8967 3.439C31.3547 3.41082 31.8126 3.38665 32.2666 3.35041C36.7661 3.0523 41.2329 2.3788 45.6208 1.33691H47.3282Z" fill="#712D1A"/>
<path d="M47.3282 7.42578L47.1153 9.32249H45.6208C41.2326 10.3626 36.7659 11.036 32.2666 11.336C31.8167 11.3722 31.3587 11.3964 30.9007 11.4246C29.0607 11.5293 27.1684 11.5857 25.248 11.5857C23.3277 11.5857 21.4395 11.5293 19.5994 11.4246C19.1414 11.3964 18.6835 11.3722 18.2295 11.336C13.7328 11.0363 9.26877 10.3628 4.88333 9.32249H3.3848L3.17188 7.42578H4.88333C9.26801 8.47002 13.7324 9.14355 18.2295 9.43928C18.6835 9.47552 19.1414 9.50371 19.5994 9.5319C21.4395 9.6366 23.3277 9.68895 25.248 9.68895C27.1684 9.68895 29.0607 9.6366 30.9007 9.5319C31.3587 9.50371 31.8167 9.47552 32.2666 9.43928C36.7663 9.1432 41.2333 8.46968 45.6208 7.42578H47.3282Z" fill="#44160F"/>
<path d="M48.8212 0L48.6524 1.48596L45.9848 24.9512L45.8482 26.1352H4.64873L4.51616 24.9512L1.85255 1.48596L1.67578 0H10.213L10.3214 1.21212L11.9325 18.2664H38.5685L40.1715 1.21212L40.288 0H48.8212Z" fill="#DD6819"/>
<path d="M47.3779 0.893555L44.6098 24.3588H5.88514L3.12109 0.893555H9.40045L11.0476 18.3546L11.1199 19.8285H39.3791L39.4554 18.3546L41.0945 0.893555H47.3779Z" fill="#FFB726"/>
<path d="M10.213 0L9.40144 0.889965H3.12208L1.67578 0H10.213Z" fill="#FFDE8E"/>
<path d="M48.8183 0L47.376 0.889965H41.0927L40.2852 0H48.8183Z" fill="#FFDE8E"/>
<path d="M39.3802 19.825H11.1211L11.9326 18.2666H38.5687L39.3802 19.825Z" fill="#FFDE8E"/>
<path d="M31.5814 17.7472V26.1395C31.5793 27.0042 31.235 27.8329 30.6242 28.4436C30.0134 29.0543 29.1859 29.3973 28.3232 29.3973H22.1724C21.3083 29.3973 20.4795 29.0532 19.8685 28.4407C19.2575 27.8283 18.9142 26.9976 18.9142 26.1314V17.7472C18.9124 17.573 18.9272 17.3991 18.9584 17.2277C19.0808 16.462 19.4717 15.7651 20.0609 15.2624C20.65 14.7598 21.3987 14.4842 22.1724 14.4854H28.3232C29.0969 14.4842 29.8456 14.7598 30.4347 15.2624C31.0239 15.7651 31.4148 16.462 31.5372 17.2277C31.5683 17.3991 31.5831 17.573 31.5814 17.7472Z" fill="#DD6819"/>
<path d="M31.5358 17.2229C31.4279 17.7376 31.1466 18.1995 30.7392 18.5309C30.3317 18.8624 29.8228 19.0432 29.2981 19.0431H21.1908C20.6667 19.0423 20.1588 18.861 19.7522 18.5297C19.3455 18.1983 19.0648 17.7369 18.957 17.2229C19.0794 16.4571 19.4704 15.7603 20.0595 15.2576C20.6486 14.7549 21.3973 14.4793 22.171 14.4805H28.3218C29.0955 14.4793 29.8442 14.7549 30.4334 15.2576C31.0225 15.7603 31.4134 16.4571 31.5358 17.2229Z" fill="#FFDE8E"/>
<path d="M27.1644 16.2129H23.3276C21.7013 16.2129 20.3828 17.5345 20.3828 19.1647V24.7179C20.3828 26.3481 21.7013 27.6697 23.3276 27.6697H27.1644C28.7907 27.6697 30.1092 26.3481 30.1092 24.7179V19.1647C30.1092 17.5345 28.7907 16.2129 27.1644 16.2129Z" fill="#FFB726"/>
<path d="M27.6198 20.7189C27.6214 20.2822 27.5031 19.8535 27.2779 19.4797C27.0526 19.1058 26.7292 18.8014 26.3428 18.5995C25.9565 18.3977 25.5222 18.3063 25.0875 18.3354C24.6528 18.3644 24.2344 18.5128 23.8782 18.7643C23.522 19.0157 23.2417 19.3606 23.068 19.761C22.8943 20.1615 22.8339 20.6022 22.8933 21.0348C22.9528 21.4674 23.1298 21.8753 23.4051 22.2138C23.6803 22.5523 24.0432 22.8083 24.454 22.9539L23.5822 25.1687H26.9167L26.0489 22.9539C26.5088 22.7893 26.9067 22.4862 27.1879 22.0861C27.4691 21.6859 27.62 21.2084 27.6198 20.7189Z" fill="#170300"/>
<path d="M20.6441 17.8996C20.2423 18.705 20.8851 20.493 20.8851 20.493C20.8851 20.493 20.1499 18.7453 19.3504 18.3708C18.551 17.9963 16.8516 18.5842 16.8516 18.5842C16.8516 18.5842 18.5188 17.8513 18.8884 17.0701C19.258 16.2889 18.7559 14.5371 18.7559 14.5371C18.7559 14.5371 19.3786 16.2325 20.1781 16.611C20.9775 16.9895 22.7894 16.4459 22.7894 16.4459C22.7894 16.4459 21.0298 17.0781 20.6441 17.8996Z" fill="#E1E1E1"/>
<path d="M21.0142 18.0368C20.454 19.1843 21.3502 21.7317 21.3502 21.7317C21.3502 21.7317 20.3252 19.2417 19.2106 18.7081C18.0959 18.1745 15.7266 19.0122 15.7266 19.0122C15.7266 19.0122 18.0511 17.968 18.5664 16.8549C19.0817 15.7419 18.3816 13.2461 18.3816 13.2461C18.3816 13.2461 19.2498 15.6616 20.3644 16.2009C21.4791 16.7402 24.0053 15.9656 24.0053 15.9656C24.0053 15.9656 21.5519 16.8664 21.0142 18.0368Z" fill="white"/>
</g>
<mask id="path-20-inside-1_622_54419" fill="white">
<path fill-rule="evenodd" clip-rule="evenodd" d="M81.4758 0.0758898C79.3339 0.6601 78.9855 3.79474 80.9497 4.80791C82.9965 5.86366 85.0785 4.25785 84.6461 1.95738C84.405 0.675848 82.7901 -0.282532 81.4758 0.0758898ZM58.808 1.47076C58.7228 1.6919 58.8454 2.03568 59.1137 2.32778C59.3599 2.59594 59.8828 3.39019 60.2755 4.09239C60.9801 5.35197 61.0024 5.36838 61.9127 5.31227L62.8356 5.25527L63.0115 8.02772C63.2768 12.205 63.0197 18.3186 62.4925 20.3749C62.2531 21.3082 62.0574 22.1058 62.0574 22.1473C62.0574 22.1887 63.5583 22.2227 65.3926 22.2227C68.1484 22.2227 68.7279 22.1672 68.7279 21.9031C68.7279 21.7272 68.6445 21.532 68.5427 21.4692C68.2992 21.3193 67.7698 16.5926 67.8709 15.471L67.9497 14.5969L68.5911 15.7779L69.2326 16.9588L70.761 16.831C74.7073 16.501 76.9441 13.4719 76.6835 8.81088C76.5036 5.59129 74.9616 3.35226 72.1629 2.24727C70.9458 1.76664 70.4057 1.71385 65.3926 1.58543C62.3965 1.50869 59.7212 1.36852 59.4475 1.27381C59.0799 1.14672 58.9127 1.19818 58.808 1.47076ZM118.285 1.61183C118.166 1.68569 118.216 2.06562 118.405 2.5172C118.768 3.38265 119.111 6.47559 118.905 7.01278C118.804 7.27361 118.646 7.30954 118.252 7.16027C117.326 6.80895 117.043 7.19133 117.079 8.74523C117.119 10.5134 117.26 10.7367 118.278 10.6487L119.09 10.5784L119.214 14.238C119.367 18.7238 119.725 20.1014 121.027 21.2135C121.505 21.6211 122.334 22.065 122.87 22.1996C123.964 22.4744 127.843 22.5272 128.244 22.2726C128.428 22.1557 128.247 21.5905 127.623 20.3354C127.138 19.3606 126.636 18.5264 126.507 18.4819C126.378 18.437 126.039 18.5253 125.753 18.6777C124.437 19.3803 124.058 18.4215 123.921 14.0395L123.815 10.6247L124.992 10.7804C125.639 10.866 126.502 11.0752 126.909 11.2451C127.317 11.4148 127.65 11.5217 127.65 11.4824C127.65 11.3329 125.561 7.89908 125.245 7.52868C125.062 7.31509 124.714 7.14053 124.47 7.14053C124.048 7.14053 124.033 7.03895 124.171 5.11199C124.25 3.99636 124.465 2.78247 124.65 2.41451C124.833 2.04655 124.937 1.69855 124.88 1.64155C124.728 1.48962 118.528 1.46189 118.285 1.61183ZM149.885 1.77751C149.885 1.93853 150.191 2.51343 150.565 3.05527C150.938 3.59712 151.389 4.38649 151.566 4.80968C151.88 5.55824 151.915 5.57554 152.864 5.44579L153.84 5.31227L154.006 7.94543C154.282 12.3141 153.909 19.8594 153.325 21.7236L153.169 22.2227H158.146C163.726 22.2227 165.517 21.9208 167.334 20.6741C168.582 19.8177 169 19.1268 169.276 17.4698C169.61 15.4572 169.149 14.0229 167.718 12.6173L166.631 11.5509L167.353 10.8312C168.051 10.1348 168.785 8.30031 168.785 7.25143C168.785 6.09632 168.097 4.51181 167.273 3.76924C165.279 1.97202 163.439 1.63977 154.943 1.54263C150.873 1.49605 149.885 1.54196 149.885 1.77751ZM70.6463 5.61147C71.6015 6.50176 71.923 7.34858 71.9137 8.95017C71.9001 11.3048 70.7735 12.7376 68.9051 12.7764L67.9497 12.7963L67.8887 8.83084L67.828 4.86513L68.9522 4.97292C69.7267 5.047 70.2539 5.24595 70.6463 5.61147ZM162.93 5.43736C163.847 5.91267 164.278 7.08154 163.853 7.9461C163.385 8.89782 162.485 9.4206 161.119 9.53371C160.439 9.58983 159.831 9.71936 159.768 9.82138C159.705 9.92341 160.12 10.8093 160.691 11.7898C161.514 13.202 161.836 13.5726 162.241 13.5726C163.736 13.5726 164.701 14.7364 164.492 16.2874C164.279 17.8708 163.203 18.5699 160.606 18.8106L159.07 18.9529L158.927 17.7599C158.739 16.202 158.738 8.80001 158.925 6.59248L159.071 4.86868L160.648 4.97071C161.516 5.02682 162.542 5.23686 162.93 5.43736ZM79.1056 7.10128C78.6558 7.188 78.6529 7.22526 79.0373 7.98336C80.0679 10.0157 80.0775 19.8769 79.0506 21.4404C78.8754 21.7072 78.7992 21.9922 78.881 22.0741C79.0695 22.2621 85.2813 22.2712 85.4692 22.0836C85.5459 22.0071 85.4543 21.6467 85.2655 21.2827C84.3688 19.5531 84.3812 9.78634 85.2822 8.04834C85.5993 7.43663 85.6024 7.33926 85.3078 7.22637C84.9471 7.08841 79.7197 6.98306 79.1056 7.10128ZM88.8202 7.18955C88.7642 7.2796 88.8785 7.82322 89.0741 8.39767C89.833 10.6278 89.727 19.6824 88.9209 21.4466C88.7813 21.7525 88.711 22.0468 88.7651 22.1005C88.9098 22.2451 95.1787 22.3052 95.321 22.1634C95.3877 22.0967 95.2879 21.7438 95.0989 21.3794C94.5944 20.4062 94.2475 16.1044 94.4267 13.0439L94.5811 10.408L96.2 10.5302C97.0903 10.5972 98.2774 10.8545 98.8377 11.1018C99.3982 11.3491 99.8567 11.4951 99.8567 11.4263C99.8567 11.3207 97.6979 7.45171 97.4716 7.15185C97.3424 6.9804 88.9269 7.01699 88.8202 7.18955ZM105.971 7.13011C103.615 7.50495 102.303 7.89486 102.303 8.22046C102.303 8.39812 102.592 9.00118 102.946 9.56077C103.3 10.1206 103.656 10.8031 103.739 11.0774C103.916 11.6667 104.351 11.722 104.777 11.2094C105.536 10.2967 108.174 9.91165 109.123 10.5748C109.61 10.9151 110.148 12.105 109.918 12.3339C109.847 12.4053 109.38 12.4654 108.88 12.4674C107.583 12.473 105.164 13.021 104.161 13.5367C102.401 14.4412 101.191 16.2466 101.191 17.9684C101.191 21.5706 104.323 23.4523 108.284 22.2295C109.729 21.7833 109.865 21.6921 109.729 21.259C109.647 20.9961 109.393 20.543 109.165 20.252C108.937 19.961 108.85 19.7128 108.751 19.4475C108.581 18.9938 108.404 18.4877 107.667 18.9297C107.344 19.131 107.04 19.1492 106.594 18.9938C106.07 18.811 105.961 18.6351 105.905 17.8814C105.791 16.3366 107.094 15.347 109.243 15.347H110.018L110.167 17.6148C110.296 19.5718 110.397 19.9994 110.908 20.7353C111.653 21.8072 112.319 22.1517 114.017 22.3433C115.591 22.521 115.826 22.3309 115.297 21.3102C115.027 20.7896 114.882 19.5897 114.74 16.7013C114.455 10.9179 114.273 10.1144 112.915 8.65651C111.598 7.24212 108.94 6.65813 105.971 7.13011ZM136.1 7.06024C132.965 7.66353 130.621 9.72024 129.873 12.5249C129.456 14.0896 129.685 17.2582 130.309 18.5442C131.951 21.9277 135.431 23.1799 140.991 22.3883C142.731 22.1406 143.092 22.0235 143.041 21.7234C142.978 21.3572 141.815 19.468 141.039 18.4703L140.621 17.9342L140.139 18.4149C139.479 19.0732 137.501 19.0865 136.348 18.4404C134.977 17.6712 134.444 16.6571 134.446 14.8178C134.448 12.7793 135.073 11.5678 136.471 10.8929C137.279 10.5025 137.544 10.4692 138.176 10.6775C139.092 10.9792 139.794 11.6967 140.006 12.5504L140.166 13.1914L137.91 13.0831C136.67 13.0235 135.655 13.0454 135.655 13.1315C135.655 13.2177 136.004 13.7265 136.431 14.2622C136.858 14.7978 137.208 15.3536 137.209 15.4976C137.21 15.6413 137.369 15.9157 137.561 16.1075C137.845 16.3905 138.486 16.456 140.978 16.456H144.046L144.171 15.6888C144.478 13.798 143.509 10.4903 142.189 8.92511C141.244 7.80548 139.724 7.09751 138.101 7.02121C137.306 6.98395 136.405 7.00147 136.1 7.06024ZM176.011 7.13943C175.4 7.2419 174.349 7.46813 173.677 7.64246C172.264 8.0082 172.234 8.1568 173.244 9.74664C173.604 10.3129 173.899 10.9004 173.899 11.0524C173.899 11.6102 174.34 11.5691 175.373 10.9153C176.213 10.3841 176.679 10.2457 177.628 10.2457C178.654 10.2457 178.917 10.3382 179.475 10.894C179.832 11.2506 180.125 11.7497 180.125 12.003C180.125 12.3964 179.987 12.4643 179.18 12.4674C177.641 12.4738 175.259 13.0716 174.044 13.7563C173.35 14.1475 172.628 14.804 172.182 15.4499C171.543 16.3739 171.453 16.6813 171.453 17.9329C171.453 20.2167 172.501 21.7671 174.431 22.3389C175.886 22.7698 176.84 22.7477 178.457 22.2448C179.963 21.7766 180.161 21.4342 179.479 20.4785C179.229 20.1278 178.92 19.5682 178.793 19.2348C178.618 18.7757 178.468 18.6688 178.176 18.7937C177.964 18.8842 177.524 19.0042 177.198 19.0603C176.417 19.1947 175.811 18.345 176.03 17.4221C176.344 16.1026 177.606 15.351 179.513 15.3483L180.347 15.347V17.0936C180.347 19.5112 180.506 20.1003 181.432 21.1221C182.11 21.87 182.444 22.0477 183.545 22.2442C184.264 22.3726 185.084 22.4201 185.366 22.3493L185.88 22.2207L185.433 21.2133C185.063 20.3789 184.953 19.4475 184.794 15.7906C184.546 10.1044 184.164 9.09301 181.721 7.66508C180.919 7.19621 180.395 7.0751 178.928 7.02054C177.935 6.98372 176.623 7.03718 176.011 7.13943ZM187.45 7.10815C187.304 7.1565 187.346 7.33327 187.56 7.56927C188.194 8.26881 190.262 13.1803 191.895 17.8661L193.506 22.4924L192.763 23.2718C191.406 24.6959 189.707 25.1619 187.629 24.6804C186.985 24.5313 186.795 24.5548 186.795 24.7835C186.795 24.9465 186.897 25.1428 187.022 25.22C187.148 25.297 187.54 25.9326 187.894 26.6326C188.248 27.3324 188.671 28.0095 188.834 28.1371C189.274 28.4824 192.337 28.1156 193.576 27.5691C196.903 26.1012 198.702 23.2631 201.465 15.1252C202.476 12.148 203.815 9.10387 204.594 8.01197C204.859 7.64068 205.04 7.30156 204.996 7.25831C204.925 7.18844 199.283 7.06402 198.667 7.1188C198.531 7.13078 198.36 7.72053 198.286 8.42917C198.148 9.73888 196.705 15.604 196.376 16.1914C196.145 16.6028 196.061 16.4515 195.478 14.5707C194.735 12.176 193.952 8.35176 194.075 7.71388C194.167 7.23081 194.102 7.1381 193.658 7.12479C191.304 7.05426 187.643 7.04428 187.45 7.10815Z"/>
</mask>
<path fill-rule="evenodd" clip-rule="evenodd" d="M81.4758 0.0758898C79.3339 0.6601 78.9855 3.79474 80.9497 4.80791C82.9965 5.86366 85.0785 4.25785 84.6461 1.95738C84.405 0.675848 82.7901 -0.282532 81.4758 0.0758898ZM58.808 1.47076C58.7228 1.6919 58.8454 2.03568 59.1137 2.32778C59.3599 2.59594 59.8828 3.39019 60.2755 4.09239C60.9801 5.35197 61.0024 5.36838 61.9127 5.31227L62.8356 5.25527L63.0115 8.02772C63.2768 12.205 63.0197 18.3186 62.4925 20.3749C62.2531 21.3082 62.0574 22.1058 62.0574 22.1473C62.0574 22.1887 63.5583 22.2227 65.3926 22.2227C68.1484 22.2227 68.7279 22.1672 68.7279 21.9031C68.7279 21.7272 68.6445 21.532 68.5427 21.4692C68.2992 21.3193 67.7698 16.5926 67.8709 15.471L67.9497 14.5969L68.5911 15.7779L69.2326 16.9588L70.761 16.831C74.7073 16.501 76.9441 13.4719 76.6835 8.81088C76.5036 5.59129 74.9616 3.35226 72.1629 2.24727C70.9458 1.76664 70.4057 1.71385 65.3926 1.58543C62.3965 1.50869 59.7212 1.36852 59.4475 1.27381C59.0799 1.14672 58.9127 1.19818 58.808 1.47076ZM118.285 1.61183C118.166 1.68569 118.216 2.06562 118.405 2.5172C118.768 3.38265 119.111 6.47559 118.905 7.01278C118.804 7.27361 118.646 7.30954 118.252 7.16027C117.326 6.80895 117.043 7.19133 117.079 8.74523C117.119 10.5134 117.26 10.7367 118.278 10.6487L119.09 10.5784L119.214 14.238C119.367 18.7238 119.725 20.1014 121.027 21.2135C121.505 21.6211 122.334 22.065 122.87 22.1996C123.964 22.4744 127.843 22.5272 128.244 22.2726C128.428 22.1557 128.247 21.5905 127.623 20.3354C127.138 19.3606 126.636 18.5264 126.507 18.4819C126.378 18.437 126.039 18.5253 125.753 18.6777C124.437 19.3803 124.058 18.4215 123.921 14.0395L123.815 10.6247L124.992 10.7804C125.639 10.866 126.502 11.0752 126.909 11.2451C127.317 11.4148 127.65 11.5217 127.65 11.4824C127.65 11.3329 125.561 7.89908 125.245 7.52868C125.062 7.31509 124.714 7.14053 124.47 7.14053C124.048 7.14053 124.033 7.03895 124.171 5.11199C124.25 3.99636 124.465 2.78247 124.65 2.41451C124.833 2.04655 124.937 1.69855 124.88 1.64155C124.728 1.48962 118.528 1.46189 118.285 1.61183ZM149.885 1.77751C149.885 1.93853 150.191 2.51343 150.565 3.05527C150.938 3.59712 151.389 4.38649 151.566 4.80968C151.88 5.55824 151.915 5.57554 152.864 5.44579L153.84 5.31227L154.006 7.94543C154.282 12.3141 153.909 19.8594 153.325 21.7236L153.169 22.2227H158.146C163.726 22.2227 165.517 21.9208 167.334 20.6741C168.582 19.8177 169 19.1268 169.276 17.4698C169.61 15.4572 169.149 14.0229 167.718 12.6173L166.631 11.5509L167.353 10.8312C168.051 10.1348 168.785 8.30031 168.785 7.25143C168.785 6.09632 168.097 4.51181 167.273 3.76924C165.279 1.97202 163.439 1.63977 154.943 1.54263C150.873 1.49605 149.885 1.54196 149.885 1.77751ZM70.6463 5.61147C71.6015 6.50176 71.923 7.34858 71.9137 8.95017C71.9001 11.3048 70.7735 12.7376 68.9051 12.7764L67.9497 12.7963L67.8887 8.83084L67.828 4.86513L68.9522 4.97292C69.7267 5.047 70.2539 5.24595 70.6463 5.61147ZM162.93 5.43736C163.847 5.91267 164.278 7.08154 163.853 7.9461C163.385 8.89782 162.485 9.4206 161.119 9.53371C160.439 9.58983 159.831 9.71936 159.768 9.82138C159.705 9.92341 160.12 10.8093 160.691 11.7898C161.514 13.202 161.836 13.5726 162.241 13.5726C163.736 13.5726 164.701 14.7364 164.492 16.2874C164.279 17.8708 163.203 18.5699 160.606 18.8106L159.07 18.9529L158.927 17.7599C158.739 16.202 158.738 8.80001 158.925 6.59248L159.071 4.86868L160.648 4.97071C161.516 5.02682 162.542 5.23686 162.93 5.43736ZM79.1056 7.10128C78.6558 7.188 78.6529 7.22526 79.0373 7.98336C80.0679 10.0157 80.0775 19.8769 79.0506 21.4404C78.8754 21.7072 78.7992 21.9922 78.881 22.0741C79.0695 22.2621 85.2813 22.2712 85.4692 22.0836C85.5459 22.0071 85.4543 21.6467 85.2655 21.2827C84.3688 19.5531 84.3812 9.78634 85.2822 8.04834C85.5993 7.43663 85.6024 7.33926 85.3078 7.22637C84.9471 7.08841 79.7197 6.98306 79.1056 7.10128ZM88.8202 7.18955C88.7642 7.2796 88.8785 7.82322 89.0741 8.39767C89.833 10.6278 89.727 19.6824 88.9209 21.4466C88.7813 21.7525 88.711 22.0468 88.7651 22.1005C88.9098 22.2451 95.1787 22.3052 95.321 22.1634C95.3877 22.0967 95.2879 21.7438 95.0989 21.3794C94.5944 20.4062 94.2475 16.1044 94.4267 13.0439L94.5811 10.408L96.2 10.5302C97.0903 10.5972 98.2774 10.8545 98.8377 11.1018C99.3982 11.3491 99.8567 11.4951 99.8567 11.4263C99.8567 11.3207 97.6979 7.45171 97.4716 7.15185C97.3424 6.9804 88.9269 7.01699 88.8202 7.18955ZM105.971 7.13011C103.615 7.50495 102.303 7.89486 102.303 8.22046C102.303 8.39812 102.592 9.00118 102.946 9.56077C103.3 10.1206 103.656 10.8031 103.739 11.0774C103.916 11.6667 104.351 11.722 104.777 11.2094C105.536 10.2967 108.174 9.91165 109.123 10.5748C109.61 10.9151 110.148 12.105 109.918 12.3339C109.847 12.4053 109.38 12.4654 108.88 12.4674C107.583 12.473 105.164 13.021 104.161 13.5367C102.401 14.4412 101.191 16.2466 101.191 17.9684C101.191 21.5706 104.323 23.4523 108.284 22.2295C109.729 21.7833 109.865 21.6921 109.729 21.259C109.647 20.9961 109.393 20.543 109.165 20.252C108.937 19.961 108.85 19.7128 108.751 19.4475C108.581 18.9938 108.404 18.4877 107.667 18.9297C107.344 19.131 107.04 19.1492 106.594 18.9938C106.07 18.811 105.961 18.6351 105.905 17.8814C105.791 16.3366 107.094 15.347 109.243 15.347H110.018L110.167 17.6148C110.296 19.5718 110.397 19.9994 110.908 20.7353C111.653 21.8072 112.319 22.1517 114.017 22.3433C115.591 22.521 115.826 22.3309 115.297 21.3102C115.027 20.7896 114.882 19.5897 114.74 16.7013C114.455 10.9179 114.273 10.1144 112.915 8.65651C111.598 7.24212 108.94 6.65813 105.971 7.13011ZM136.1 7.06024C132.965 7.66353 130.621 9.72024 129.873 12.5249C129.456 14.0896 129.685 17.2582 130.309 18.5442C131.951 21.9277 135.431 23.1799 140.991 22.3883C142.731 22.1406 143.092 22.0235 143.041 21.7234C142.978 21.3572 141.815 19.468 141.039 18.4703L140.621 17.9342L140.139 18.4149C139.479 19.0732 137.501 19.0865 136.348 18.4404C134.977 17.6712 134.444 16.6571 134.446 14.8178C134.448 12.7793 135.073 11.5678 136.471 10.8929C137.279 10.5025 137.544 10.4692 138.176 10.6775C139.092 10.9792 139.794 11.6967 140.006 12.5504L140.166 13.1914L137.91 13.0831C136.67 13.0235 135.655 13.0454 135.655 13.1315C135.655 13.2177 136.004 13.7265 136.431 14.2622C136.858 14.7978 137.208 15.3536 137.209 15.4976C137.21 15.6413 137.369 15.9157 137.561 16.1075C137.845 16.3905 138.486 16.456 140.978 16.456H144.046L144.171 15.6888C144.478 13.798 143.509 10.4903 142.189 8.92511C141.244 7.80548 139.724 7.09751 138.101 7.02121C137.306 6.98395 136.405 7.00147 136.1 7.06024ZM176.011 7.13943C175.4 7.2419 174.349 7.46813 173.677 7.64246C172.264 8.0082 172.234 8.1568 173.244 9.74664C173.604 10.3129 173.899 10.9004 173.899 11.0524C173.899 11.6102 174.34 11.5691 175.373 10.9153C176.213 10.3841 176.679 10.2457 177.628 10.2457C178.654 10.2457 178.917 10.3382 179.475 10.894C179.832 11.2506 180.125 11.7497 180.125 12.003C180.125 12.3964 179.987 12.4643 179.18 12.4674C177.641 12.4738 175.259 13.0716 174.044 13.7563C173.35 14.1475 172.628 14.804 172.182 15.4499C171.543 16.3739 171.453 16.6813 171.453 17.9329C171.453 20.2167 172.501 21.7671 174.431 22.3389C175.886 22.7698 176.84 22.7477 178.457 22.2448C179.963 21.7766 180.161 21.4342 179.479 20.4785C179.229 20.1278 178.92 19.5682 178.793 19.2348C178.618 18.7757 178.468 18.6688 178.176 18.7937C177.964 18.8842 177.524 19.0042 177.198 19.0603C176.417 19.1947 175.811 18.345 176.03 17.4221C176.344 16.1026 177.606 15.351 179.513 15.3483L180.347 15.347V17.0936C180.347 19.5112 180.506 20.1003 181.432 21.1221C182.11 21.87 182.444 22.0477 183.545 22.2442C184.264 22.3726 185.084 22.4201 185.366 22.3493L185.88 22.2207L185.433 21.2133C185.063 20.3789 184.953 19.4475 184.794 15.7906C184.546 10.1044 184.164 9.09301 181.721 7.66508C180.919 7.19621 180.395 7.0751 178.928 7.02054C177.935 6.98372 176.623 7.03718 176.011 7.13943ZM187.45 7.10815C187.304 7.1565 187.346 7.33327 187.56 7.56927C188.194 8.26881 190.262 13.1803 191.895 17.8661L193.506 22.4924L192.763 23.2718C191.406 24.6959 189.707 25.1619 187.629 24.6804C186.985 24.5313 186.795 24.5548 186.795 24.7835C186.795 24.9465 186.897 25.1428 187.022 25.22C187.148 25.297 187.54 25.9326 187.894 26.6326C188.248 27.3324 188.671 28.0095 188.834 28.1371C189.274 28.4824 192.337 28.1156 193.576 27.5691C196.903 26.1012 198.702 23.2631 201.465 15.1252C202.476 12.148 203.815 9.10387 204.594 8.01197C204.859 7.64068 205.04 7.30156 204.996 7.25831C204.925 7.18844 199.283 7.06402 198.667 7.1188C198.531 7.13078 198.36 7.72053 198.286 8.42917C198.148 9.73888 196.705 15.604 196.376 16.1914C196.145 16.6028 196.061 16.4515 195.478 14.5707C194.735 12.176 193.952 8.35176 194.075 7.71388C194.167 7.23081 194.102 7.1381 193.658 7.12479C191.304 7.05426 187.643 7.04428 187.45 7.10815Z" fill="url(#paint0_linear_622_54419)" stroke="#E8ECEF" stroke-width="1.2418" mask="url(#path-20-inside-1_622_54419)"/>
<mask id="path-21-inside-2_622_54419" fill="white">
<path fill-rule="evenodd" clip-rule="evenodd" d="M62.7698 31.4235C61.1914 32.3904 61.1914 33.621 61.1914 33.9878C61.1914 34.4601 61.188 35.7571 63.7374 37.0039C65.3019 37.7687 65.5798 37.9898 65.6405 38.5156C65.6982 39.0146 65.5917 39.1779 65.0792 39.3765C64.4676 39.6139 62.34 39.5232 61.5657 39.2269C61.0264 39.0204 61.1014 39.4533 61.7826 40.48C62.373 41.3702 62.3753 41.3711 63.8594 41.3689C65.9952 41.3657 67.4974 40.6408 68.0087 39.3664C68.3095 38.6162 68.338 38.2547 68.1506 37.5602C67.8607 36.487 67.2303 35.9784 65.2087 35.1871C63.3782 34.4709 62.979 33.9889 63.6559 33.3137C64.2282 32.7428 65.2213 32.7321 66.8818 33.2785C67.5801 33.5083 68.1515 33.6624 68.1515 33.621C68.1515 33.4716 66.6869 31.4011 66.4676 31.2403C66.0727 30.9509 63.8057 30.7889 62.7698 31.4235ZM68.825 31.2024C68.825 31.2575 69.0911 31.7034 69.4162 32.1934C69.8398 32.8324 70.1643 33.0846 70.5614 33.0846H71.1156L71.0217 36.8359C70.9701 38.8993 70.8841 40.7384 70.8306 40.9232C70.7473 41.2112 71.301 41.2676 74.7186 41.3187C77.0581 41.3539 78.7038 41.2927 78.7038 41.1709C78.7038 41.0567 78.4292 40.5451 78.0938 40.0341C77.6138 39.3026 77.3866 39.134 77.0273 39.2426C76.7763 39.3185 75.9396 39.439 75.1677 39.5107L73.7644 39.6408V38.3506V37.0603L74.9993 37.1624C75.6784 37.2187 76.2341 37.2332 76.2341 37.1947C76.2341 37.1562 75.8765 36.5669 75.4393 35.8852C74.7431 34.7995 74.5902 34.6751 74.2045 34.881C73.7945 35.1 73.7644 35.0391 73.7644 33.9883V32.8606L74.8309 32.862C75.4173 32.8626 76.4973 32.9612 77.2305 33.081C77.964 33.2008 78.605 33.2577 78.6556 33.2075C78.7058 33.1571 78.4274 32.6526 78.0366 32.086L77.3262 31.056L73.0756 31.079C70.7377 31.0918 68.825 31.1473 68.825 31.2024ZM79.3774 31.2387C79.3774 31.3536 79.577 31.6275 79.8206 31.8477C80.0644 32.0678 80.3271 32.4459 80.4041 32.6882C80.5063 33.0096 80.6897 33.1007 81.0833 33.0255C81.5393 32.9386 81.6244 33.0131 81.6347 33.5077C81.6414 33.8293 81.6924 34.6971 81.7481 35.4362C81.8399 36.6527 81.6071 40.1004 81.3781 40.9156C81.3037 41.1796 81.6311 41.2585 83.053 41.3187L84.8201 41.3935L84.6778 40.8282C84.5997 40.5171 84.4782 39.6303 84.4082 38.8572L84.2809 37.4518L85.5409 39.3414L86.8011 41.2309L88.7023 41.3026C89.7479 41.342 90.6033 41.3339 90.6033 41.2844C90.6033 41.2352 89.9219 40.5348 89.0894 39.7284L87.5752 38.2621L88.2092 37.6019C90.0168 35.7199 89.1895 32.2615 86.7575 31.5348C85.5941 31.187 79.3774 30.9377 79.3774 31.2387ZM90.9909 31.2676C90.9233 31.3767 91.0145 31.5874 91.1938 31.7359C91.8108 32.2468 93.9595 38.1797 94.1867 40.0007L94.3438 41.2591L96.5026 41.323L98.6611 41.3866L98.8106 40.2632C99.0329 38.5913 100.918 33.3249 102.033 31.2589C102.076 31.1785 101.273 31.1292 100.248 31.1493L98.3849 31.1863L98.3218 32.3034C98.2612 33.38 97.0017 38.3915 96.7035 38.7434C96.5199 38.9602 95.254 34.9938 94.8937 33.0723C94.7446 32.2783 94.5883 31.503 94.5461 31.3489C94.4561 31.0208 91.19 30.946 90.9909 31.2676ZM102.588 31.2649C103.127 32.3574 103.781 33.1054 104.119 33.0172C104.412 32.9406 104.548 33.0866 104.648 33.5874C104.928 34.982 104.724 39.4244 104.312 40.9115C104.239 41.1745 104.562 41.2381 106.018 41.2475C107.506 41.2571 107.799 41.2016 107.729 40.9232C107.327 39.3445 107.192 36.6487 107.401 34.3836C107.529 32.9916 107.674 31.7016 107.724 31.5169C107.8 31.2333 107.402 31.1767 105.167 31.1529C103.711 31.1377 102.55 31.1881 102.588 31.2649ZM113.024 31.3919C110.553 32.2709 109.402 33.8057 109.402 36.22C109.402 38.1273 110.03 39.3575 111.465 40.2656C112.726 41.0634 113.745 41.3682 115.156 41.3698C116.347 41.3713 118.481 40.9639 118.474 40.7366C118.471 40.6544 118.271 40.3353 118.03 40.0273C117.788 39.7194 117.588 39.3416 117.586 39.1875C117.579 38.8077 117.226 38.8357 116.563 39.269C115.878 39.7163 114.424 39.5476 113.35 38.8961C111.972 38.0601 111.535 35.8126 112.477 34.4055C113.267 33.2264 114.27 32.8111 116.009 32.9442C116.812 33.0055 117.696 33.1244 117.974 33.2084C118.45 33.3522 118.438 33.2962 117.749 32.2199L117.019 31.0788L115.448 31.0837C114.583 31.0864 113.492 31.225 113.024 31.3919ZM119.22 31.597C119.392 31.8609 119.674 32.3092 119.848 32.5934C120.063 32.9464 120.319 33.081 120.656 33.0187C121.101 32.9363 121.164 33.0465 121.302 34.1504C121.447 35.3105 121.297 38.7246 121.022 40.5207L120.894 41.3498L124.85 41.3595C127.383 41.3655 128.806 41.2871 128.806 41.1415C128.806 41.0166 128.548 40.5064 128.233 40.0079C127.698 39.1626 127.611 39.1134 126.942 39.2798C126.547 39.3779 125.719 39.4603 125.102 39.4627L123.979 39.4674L123.91 38.2639L123.842 37.0601L125.172 37.1562L126.503 37.2523L125.814 36.1201C125.03 34.8335 124.748 34.5797 124.441 34.8857C124.002 35.324 123.844 35.0716 123.911 34.0364L123.979 32.9726H125.326C126.067 32.9726 127.207 33.0521 127.86 33.1493L129.046 33.326L128.309 32.1946L127.572 31.0634L123.24 31.0902L118.908 31.1173L119.22 31.597ZM85.9872 33.1589C86.2546 33.354 86.4335 33.8454 86.504 34.5788C86.6021 35.5972 86.5555 35.7446 85.9955 36.184C85.6563 36.4503 85.1399 36.6679 84.8478 36.6679C84.3311 36.6679 84.3168 36.6167 84.3168 34.7643V32.8606H84.9475C85.2943 32.8606 85.7622 32.9948 85.9872 33.1589Z"/>
</mask>
<path fill-rule="evenodd" clip-rule="evenodd" d="M62.7698 31.4235C61.1914 32.3904 61.1914 33.621 61.1914 33.9878C61.1914 34.4601 61.188 35.7571 63.7374 37.0039C65.3019 37.7687 65.5798 37.9898 65.6405 38.5156C65.6982 39.0146 65.5917 39.1779 65.0792 39.3765C64.4676 39.6139 62.34 39.5232 61.5657 39.2269C61.0264 39.0204 61.1014 39.4533 61.7826 40.48C62.373 41.3702 62.3753 41.3711 63.8594 41.3689C65.9952 41.3657 67.4974 40.6408 68.0087 39.3664C68.3095 38.6162 68.338 38.2547 68.1506 37.5602C67.8607 36.487 67.2303 35.9784 65.2087 35.1871C63.3782 34.4709 62.979 33.9889 63.6559 33.3137C64.2282 32.7428 65.2213 32.7321 66.8818 33.2785C67.5801 33.5083 68.1515 33.6624 68.1515 33.621C68.1515 33.4716 66.6869 31.4011 66.4676 31.2403C66.0727 30.9509 63.8057 30.7889 62.7698 31.4235ZM68.825 31.2024C68.825 31.2575 69.0911 31.7034 69.4162 32.1934C69.8398 32.8324 70.1643 33.0846 70.5614 33.0846H71.1156L71.0217 36.8359C70.9701 38.8993 70.8841 40.7384 70.8306 40.9232C70.7473 41.2112 71.301 41.2676 74.7186 41.3187C77.0581 41.3539 78.7038 41.2927 78.7038 41.1709C78.7038 41.0567 78.4292 40.5451 78.0938 40.0341C77.6138 39.3026 77.3866 39.134 77.0273 39.2426C76.7763 39.3185 75.9396 39.439 75.1677 39.5107L73.7644 39.6408V38.3506V37.0603L74.9993 37.1624C75.6784 37.2187 76.2341 37.2332 76.2341 37.1947C76.2341 37.1562 75.8765 36.5669 75.4393 35.8852C74.7431 34.7995 74.5902 34.6751 74.2045 34.881C73.7945 35.1 73.7644 35.0391 73.7644 33.9883V32.8606L74.8309 32.862C75.4173 32.8626 76.4973 32.9612 77.2305 33.081C77.964 33.2008 78.605 33.2577 78.6556 33.2075C78.7058 33.1571 78.4274 32.6526 78.0366 32.086L77.3262 31.056L73.0756 31.079C70.7377 31.0918 68.825 31.1473 68.825 31.2024ZM79.3774 31.2387C79.3774 31.3536 79.577 31.6275 79.8206 31.8477C80.0644 32.0678 80.3271 32.4459 80.4041 32.6882C80.5063 33.0096 80.6897 33.1007 81.0833 33.0255C81.5393 32.9386 81.6244 33.0131 81.6347 33.5077C81.6414 33.8293 81.6924 34.6971 81.7481 35.4362C81.8399 36.6527 81.6071 40.1004 81.3781 40.9156C81.3037 41.1796 81.6311 41.2585 83.053 41.3187L84.8201 41.3935L84.6778 40.8282C84.5997 40.5171 84.4782 39.6303 84.4082 38.8572L84.2809 37.4518L85.5409 39.3414L86.8011 41.2309L88.7023 41.3026C89.7479 41.342 90.6033 41.3339 90.6033 41.2844C90.6033 41.2352 89.9219 40.5348 89.0894 39.7284L87.5752 38.2621L88.2092 37.6019C90.0168 35.7199 89.1895 32.2615 86.7575 31.5348C85.5941 31.187 79.3774 30.9377 79.3774 31.2387ZM90.9909 31.2676C90.9233 31.3767 91.0145 31.5874 91.1938 31.7359C91.8108 32.2468 93.9595 38.1797 94.1867 40.0007L94.3438 41.2591L96.5026 41.323L98.6611 41.3866L98.8106 40.2632C99.0329 38.5913 100.918 33.3249 102.033 31.2589C102.076 31.1785 101.273 31.1292 100.248 31.1493L98.3849 31.1863L98.3218 32.3034C98.2612 33.38 97.0017 38.3915 96.7035 38.7434C96.5199 38.9602 95.254 34.9938 94.8937 33.0723C94.7446 32.2783 94.5883 31.503 94.5461 31.3489C94.4561 31.0208 91.19 30.946 90.9909 31.2676ZM102.588 31.2649C103.127 32.3574 103.781 33.1054 104.119 33.0172C104.412 32.9406 104.548 33.0866 104.648 33.5874C104.928 34.982 104.724 39.4244 104.312 40.9115C104.239 41.1745 104.562 41.2381 106.018 41.2475C107.506 41.2571 107.799 41.2016 107.729 40.9232C107.327 39.3445 107.192 36.6487 107.401 34.3836C107.529 32.9916 107.674 31.7016 107.724 31.5169C107.8 31.2333 107.402 31.1767 105.167 31.1529C103.711 31.1377 102.55 31.1881 102.588 31.2649ZM113.024 31.3919C110.553 32.2709 109.402 33.8057 109.402 36.22C109.402 38.1273 110.03 39.3575 111.465 40.2656C112.726 41.0634 113.745 41.3682 115.156 41.3698C116.347 41.3713 118.481 40.9639 118.474 40.7366C118.471 40.6544 118.271 40.3353 118.03 40.0273C117.788 39.7194 117.588 39.3416 117.586 39.1875C117.579 38.8077 117.226 38.8357 116.563 39.269C115.878 39.7163 114.424 39.5476 113.35 38.8961C111.972 38.0601 111.535 35.8126 112.477 34.4055C113.267 33.2264 114.27 32.8111 116.009 32.9442C116.812 33.0055 117.696 33.1244 117.974 33.2084C118.45 33.3522 118.438 33.2962 117.749 32.2199L117.019 31.0788L115.448 31.0837C114.583 31.0864 113.492 31.225 113.024 31.3919ZM119.22 31.597C119.392 31.8609 119.674 32.3092 119.848 32.5934C120.063 32.9464 120.319 33.081 120.656 33.0187C121.101 32.9363 121.164 33.0465 121.302 34.1504C121.447 35.3105 121.297 38.7246 121.022 40.5207L120.894 41.3498L124.85 41.3595C127.383 41.3655 128.806 41.2871 128.806 41.1415C128.806 41.0166 128.548 40.5064 128.233 40.0079C127.698 39.1626 127.611 39.1134 126.942 39.2798C126.547 39.3779 125.719 39.4603 125.102 39.4627L123.979 39.4674L123.91 38.2639L123.842 37.0601L125.172 37.1562L126.503 37.2523L125.814 36.1201C125.03 34.8335 124.748 34.5797 124.441 34.8857C124.002 35.324 123.844 35.0716 123.911 34.0364L123.979 32.9726H125.326C126.067 32.9726 127.207 33.0521 127.86 33.1493L129.046 33.326L128.309 32.1946L127.572 31.0634L123.24 31.0902L118.908 31.1173L119.22 31.597ZM85.9872 33.1589C86.2546 33.354 86.4335 33.8454 86.504 34.5788C86.6021 35.5972 86.5555 35.7446 85.9955 36.184C85.6563 36.4503 85.1399 36.6679 84.8478 36.6679C84.3311 36.6679 84.3168 36.6167 84.3168 34.7643V32.8606H84.9475C85.2943 32.8606 85.7622 32.9948 85.9872 33.1589Z" fill="url(#paint1_linear_622_54419)" stroke="#E8ECEF" stroke-width="0.827869" stroke-miterlimit="16" mask="url(#path-21-inside-2_622_54419)"/>
<defs>
<linearGradient id="paint0_linear_622_54419" x1="131.892" y1="0.191878" x2="131.892" y2="28.2716" gradientUnits="userSpaceOnUse">
<stop stop-color="#E8ECEF"/>
<stop offset="0.442708" stop-color="white"/>
<stop offset="0.588542" stop-color="#899CB0"/>
<stop offset="1" stop-color="#4B5B68"/>
</linearGradient>
<linearGradient id="paint1_linear_622_54419" x1="95.1187" y1="31.056" x2="95.1187" y2="41.3935" gradientUnits="userSpaceOnUse">
<stop stop-color="#E8ECEF"/>
<stop offset="0.442708" stop-color="white"/>
<stop offset="0.588542" stop-color="#899CB0"/>
<stop offset="1" stop-color="#4B5B68"/>
</linearGradient>
<clipPath id="clip0_622_54419">
<rect width="50.5" height="41.3934" fill="white"/>
</clipPath>
</defs>
</svg>
