<svg width="144" height="29" viewBox="0 0 144 29" fill="none" xmlns="http://www.w3.org/2000/svg">
<g clip-path="url(#clip0_622_57541)">
<path d="M30.0455 27.1777H5.33594L5.43726 25.7642L5.70465 21.9724L5.81161 20.4433L5.90449 19.1173L6.12403 15.9941H29.2574L29.477 19.1173L29.9526 25.8517L30.0455 27.1777Z" fill="#712D1A"/>
<path d="M14.199 15.9941H12.6172V27.172H14.199V15.9941Z" fill="#390C08"/>
<path d="M23.074 15.9941H21.4922V27.172H23.074V15.9941Z" fill="#390C08"/>
<path opacity="0.5" d="M29.4776 19.1145H5.90234L6.1247 15.9941H29.2553L29.4776 19.1145Z" fill="#7D4A00"/>
<path d="M30.514 27.1768H4.86719V28.9965H30.514V27.1768Z" fill="#FFB726"/>
<path d="M30.514 15.7344H4.86719V17.5541H30.514V15.7344Z" fill="#DD6819"/>
<path d="M33.1582 0.936523L33.0963 1.47257L33.0259 2.0876L32.266 8.75991L32.2097 9.26492L31.2893 17.3733H4.09157L3.3091 10.4837L3.24999 9.95613L2.9038 6.94019L2.86439 6.58753L2.65892 4.79602L2.60545 4.31359L2.41124 2.62082L2.35494 2.11017L2.22266 0.936523H3.42169C6.49382 1.66673 9.62141 2.13858 12.7719 2.34716C13.0899 2.37255 13.4108 2.38948 13.7317 2.40923C14.5798 2.46001 15.4401 2.49199 16.3127 2.50515C16.7686 2.50515 17.2274 2.52208 17.689 2.52208C18.2932 2.52208 18.8927 2.51362 19.4876 2.49669C20.2137 2.47976 20.9371 2.44873 21.6464 2.40923C21.9673 2.38948 22.2881 2.37255 22.6062 2.34716C25.7585 2.13831 28.8879 1.66646 31.962 0.936523H33.1582Z" fill="#712D1A"/>
<path d="M33.1582 5.20312L33.009 6.53194H31.962C28.8876 7.2606 25.7583 7.73243 22.6062 7.94258C22.2909 7.96797 21.9701 7.9849 21.6492 8.00465C20.3601 8.078 19.0344 8.1175 17.689 8.1175C16.3436 8.1175 15.0208 8.078 13.7317 8.00465C13.4108 7.9849 13.0899 7.96797 12.7719 7.94258C9.62156 7.73261 6.49409 7.26078 3.42169 6.53194H2.37183L2.22266 5.20312H3.42169C6.49356 5.93471 9.62126 6.40657 12.7719 6.61376C13.0899 6.63915 13.4108 6.6589 13.7317 6.67865C15.0208 6.752 16.3436 6.78868 17.689 6.78868C19.0344 6.78868 20.3601 6.752 21.6492 6.67865C21.9701 6.6589 22.2909 6.63915 22.6062 6.61376C25.7586 6.40633 28.8882 5.93447 31.962 5.20312H33.1582Z" fill="#44160F"/>
<path d="M34.2054 0L34.0872 1.04105L32.2183 17.4806L32.1226 18.3101H3.2586L3.16572 17.4806L1.29962 1.04105L1.17578 0H7.15686L7.23285 0.849203L8.36152 12.7973H27.0225L28.1455 0.849203L28.2271 0H34.2054Z" fill="#DD6819"/>
<path d="M33.1934 0.625977L31.2541 17.0655H4.12396L2.1875 0.625977H6.58676L7.74075 12.859L7.79142 13.8916H27.5895L27.643 12.859L28.7913 0.625977H33.1934Z" fill="#FFB726"/>
<path d="M7.15686 0L6.5883 0.623501H2.18905L1.17578 0H7.15686Z" fill="#FFDE8E"/>
<path d="M34.2048 0L33.1944 0.623501H28.7923L28.2266 0H34.2048Z" fill="#FFDE8E"/>
<path d="M27.591 13.8897H7.79297L8.36152 12.7979H27.0225L27.591 13.8897Z" fill="#FFDE8E"/>
<path d="M22.1285 12.4337V18.3132C22.127 18.9191 21.8859 19.4996 21.458 19.9275C21.03 20.3553 20.4503 20.5956 19.8459 20.5956H15.5367C14.9313 20.5956 14.3507 20.3546 13.9226 19.9255C13.4945 19.4964 13.254 18.9144 13.254 18.3076V12.4337C13.2528 12.3116 13.2631 12.1898 13.285 12.0697C13.3707 11.5333 13.6446 11.045 14.0573 10.6929C14.4701 10.3407 14.9946 10.1476 15.5367 10.1484H19.8459C20.3879 10.1476 20.9124 10.3407 21.3252 10.6929C21.7379 11.045 22.0118 11.5333 22.0976 12.0697C22.1194 12.1898 22.1297 12.3116 22.1285 12.4337Z" fill="#DD6819"/>
<path d="M22.0977 12.0668C22.0222 12.4274 21.8251 12.751 21.5396 12.9832C21.2541 13.2154 20.8976 13.3421 20.53 13.342H14.8501C14.4829 13.3415 14.1271 13.2145 13.8422 12.9823C13.5573 12.7502 13.3607 12.427 13.2852 12.0668C13.3709 11.5303 13.6448 11.0421 14.0575 10.6899C14.4703 10.3378 14.9948 10.1447 15.5369 10.1455H19.846C20.3881 10.1447 20.9126 10.3378 21.3254 10.6899C21.7381 11.0421 22.012 11.5303 22.0977 12.0668Z" fill="#FFDE8E"/>
<path d="M19.0323 11.3584H16.3444C15.2049 11.3584 14.2812 12.2843 14.2812 13.4264V17.3169C14.2812 18.459 15.2049 19.3849 16.3444 19.3849H19.0323C20.1718 19.3849 21.0955 18.459 21.0955 17.3169V13.4264C21.0955 12.2843 20.1718 11.3584 19.0323 11.3584Z" fill="#FFB726"/>
<path d="M19.3542 14.5154C19.3554 14.2094 19.2725 13.9091 19.1147 13.6472C18.9569 13.3853 18.7303 13.172 18.4596 13.0306C18.1889 12.8892 17.8847 12.8251 17.5801 12.8455C17.2756 12.8658 16.9825 12.9698 16.7329 13.146C16.4834 13.3221 16.287 13.5637 16.1653 13.8443C16.0436 14.1249 16.0013 14.4336 16.0429 14.7367C16.0846 15.0398 16.2086 15.3255 16.4014 15.5627C16.5943 15.7998 16.8485 15.9792 17.1363 16.0812L16.5255 17.6329H18.8617L18.2537 16.0812C18.5759 15.9659 18.8546 15.7535 19.0517 15.4732C19.2487 15.1929 19.3544 14.8583 19.3542 14.5154Z" fill="#170300"/>
<path d="M14.4656 12.5403C14.1841 13.1046 14.6345 14.3572 14.6345 14.3572C14.6345 14.3572 14.1194 13.1328 13.5593 12.8704C12.9992 12.608 11.8086 13.02 11.8086 13.02C11.8086 13.02 12.9767 12.5065 13.2356 11.9592C13.4946 11.4118 13.1427 10.1846 13.1427 10.1846C13.1427 10.1846 13.579 11.3723 14.1391 11.6375C14.6992 11.9027 15.9686 11.5219 15.9686 11.5219C15.9686 11.5219 14.7358 11.9648 14.4656 12.5403Z" fill="#E1E1E1"/>
<path d="M14.724 12.6366C14.3316 13.4405 14.9594 15.2252 14.9594 15.2252C14.9594 15.2252 14.2413 13.4807 13.4604 13.1069C12.6795 12.7331 11.0195 13.32 11.0195 13.32C11.0195 13.32 12.6481 12.5884 13.0091 11.8086C13.3701 11.0288 12.8796 9.28027 12.8796 9.28027C12.8796 9.28027 13.4879 10.9725 14.2688 11.3504C15.0497 11.7282 16.8195 11.1856 16.8195 11.1856C16.8195 11.1856 15.1007 11.8166 14.724 12.6366Z" fill="white"/>
</g>
<mask id="path-20-inside-1_622_57541" fill="white">
<path fill-rule="evenodd" clip-rule="evenodd" d="M57.0793 0.0531677C55.5787 0.46246 55.3346 2.65856 56.7107 3.36837C58.1446 4.10802 59.6033 2.98301 59.3003 1.37133C59.1315 0.473493 58.0001 -0.19794 57.0793 0.0531677ZM41.1984 1.0304C41.1388 1.18533 41.2246 1.42618 41.4126 1.63082C41.5851 1.81869 41.9514 2.37513 42.2265 2.86709C42.7202 3.74954 42.7358 3.76104 43.3735 3.72173L44.0201 3.68179L44.1434 5.62415C44.3292 8.55073 44.1491 12.8338 43.7798 14.2745C43.612 14.9283 43.4749 15.4871 43.4749 15.5162C43.4749 15.5452 44.5264 15.569 45.8116 15.569C47.7422 15.569 48.1482 15.5301 48.1482 15.3451C48.1482 15.2219 48.0898 15.0851 48.0184 15.0411C47.8479 14.9361 47.477 11.6246 47.5478 10.8388L47.603 10.2264L48.0524 11.0539L48.5018 11.8812L49.5726 11.7917C52.3373 11.5604 53.9044 9.4383 53.7219 6.17282C53.5958 3.91721 52.5155 2.34856 50.5548 1.57442C49.7021 1.23769 49.3237 1.20071 45.8116 1.11074C43.7125 1.05698 41.8382 0.95877 41.6464 0.892419C41.3889 0.803382 41.2718 0.839432 41.1984 1.0304ZM82.8676 1.12923C82.7838 1.18098 82.8192 1.44716 82.9516 1.76353C83.2057 2.36985 83.4465 4.53674 83.3018 4.91309C83.2314 5.09583 83.1203 5.121 82.8446 5.01642C82.1956 4.77029 81.9972 5.03818 82.0222 6.12683C82.0509 7.36558 82.1495 7.52206 82.8628 7.46037L83.4314 7.41111L83.5185 9.97501C83.6253 13.1177 83.8761 14.0829 84.7885 14.862C85.1231 15.1476 85.7041 15.4585 86.0797 15.5528C86.8461 15.7454 89.5636 15.7823 89.8447 15.604C89.9736 15.5221 89.8467 15.1261 89.4094 14.2468C89.0698 13.5639 88.7181 12.9794 88.6277 12.9482C88.5374 12.9168 88.2998 12.9787 88.0998 13.0854C87.1775 13.5777 86.912 12.9059 86.8162 9.83594L86.7415 7.44359L87.566 7.55267C88.0196 7.61265 88.6242 7.75918 88.9097 7.87821C89.1952 7.99708 89.4287 8.07198 89.4287 8.04447C89.4287 7.93974 87.9648 5.53402 87.7434 5.27452C87.6157 5.12488 87.3713 5.00259 87.2004 5.00259C86.9052 5.00259 86.8947 4.93143 86.9908 3.58141C87.0465 2.79981 87.1974 1.94937 87.3264 1.69158C87.4552 1.43379 87.528 1.18999 87.4878 1.15005C87.3811 1.04361 83.0379 1.02419 82.8676 1.12923ZM105.006 1.24531C105.006 1.35812 105.22 1.76088 105.482 2.1405C105.744 2.52011 106.06 3.07314 106.184 3.36962C106.404 3.89405 106.429 3.90617 107.094 3.81527L107.777 3.72173L107.894 5.5665C108.087 8.62718 107.825 13.9133 107.416 15.2194L107.307 15.569H110.794C114.703 15.569 115.958 15.3575 117.23 14.4841C118.105 13.8841 118.398 13.4001 118.591 12.2392C118.825 10.8292 118.503 9.82429 117.5 8.83959L116.739 8.09249L117.244 7.58825C117.733 7.10033 118.247 5.81512 118.247 5.08029C118.247 4.27103 117.765 3.16093 117.188 2.64069C115.791 1.38158 114.502 1.14881 108.55 1.08075C105.698 1.04812 105.006 1.08028 105.006 1.24531ZM49.4922 3.93135C50.1614 4.55508 50.3867 5.14835 50.3802 6.2704C50.3707 7.92001 49.5813 8.92381 48.2724 8.95101L47.603 8.96499L47.5603 6.18681L47.5178 3.40847L48.3054 3.48398C48.8479 3.53588 49.2173 3.67527 49.4922 3.93135ZM114.145 3.80937C114.788 4.14236 115.089 4.96126 114.792 5.56696C114.464 6.23373 113.833 6.59998 112.877 6.67923C112.4 6.71854 111.974 6.80929 111.93 6.88077C111.886 6.95225 112.177 7.57287 112.577 8.25984C113.153 9.2492 113.379 9.50885 113.663 9.50885C114.71 9.50885 115.386 10.3242 115.24 11.4108C115.091 12.5201 114.336 13.0099 112.517 13.1785L111.441 13.2783L111.341 12.4424C111.209 11.351 111.209 6.16521 111.34 4.61863L111.442 3.41095L112.547 3.48243C113.155 3.52174 113.874 3.6689 114.145 3.80937ZM55.4187 4.97509C55.1036 5.03585 55.1016 5.06195 55.3709 5.59307C56.0929 7.01689 56.0996 13.9256 55.3802 15.0209C55.2575 15.2079 55.2041 15.4075 55.2614 15.4649C55.3935 15.5967 59.7454 15.603 59.877 15.4716C59.9308 15.418 59.8666 15.1654 59.7343 14.9105C59.1061 13.6987 59.1148 6.85622 59.746 5.6386C59.9681 5.21004 59.9703 5.14182 59.7639 5.06273C59.5113 4.96608 55.849 4.89227 55.4187 4.97509ZM62.2247 5.03693C62.1854 5.10002 62.2655 5.48088 62.4026 5.88333C62.9343 7.44576 62.86 13.7893 62.2953 15.0253C62.1974 15.2396 62.1482 15.4458 62.1861 15.4834C62.2875 15.5847 66.6794 15.6268 66.7791 15.5275C66.8258 15.4807 66.7559 15.2335 66.6235 14.9782C66.27 14.2964 66.027 11.2826 66.1526 9.13841L66.2607 7.29177L67.3949 7.37739C68.0186 7.42432 68.8503 7.60457 69.2429 7.77783C69.6356 7.95108 69.9568 8.05333 69.9568 8.00516C69.9568 7.93119 68.4444 5.2206 68.2858 5.01052C68.1953 4.8904 62.2995 4.91604 62.2247 5.03693ZM74.2406 4.99529C72.5895 5.2579 71.6703 5.53107 71.6703 5.75918C71.6703 5.88364 71.8731 6.30614 72.121 6.69819C72.3688 7.09039 72.6188 7.56852 72.6766 7.76073C72.8008 8.1736 73.1052 8.21229 73.4038 7.85319C73.9353 7.21377 75.7836 6.94401 76.4486 7.40862C76.7897 7.64699 77.1667 8.48065 77.0059 8.64101C76.9558 8.69104 76.6285 8.73315 76.2786 8.73455C75.3698 8.73844 73.6748 9.1224 72.972 9.48368C71.739 10.1174 70.8914 11.3822 70.8914 12.5885C70.8914 15.1121 73.0858 16.4305 75.8607 15.5738C76.8731 15.2612 76.9684 15.1973 76.8732 14.8938C76.8154 14.7097 76.6375 14.3922 76.4779 14.1884C76.3183 13.9845 76.2573 13.8106 76.1878 13.6248C76.0689 13.3068 75.9452 12.9523 75.4287 13.2619C75.2021 13.403 74.9891 13.4158 74.6766 13.3068C74.3096 13.1788 74.2333 13.0556 74.1942 12.5276C74.1141 11.4453 75.0273 10.752 76.533 10.752H77.0756L77.1799 12.3408C77.2701 13.7118 77.3413 14.0114 77.6995 14.527C78.2211 15.2779 78.6875 15.5193 79.8772 15.6535C80.9798 15.778 81.1447 15.6448 80.774 14.9297C80.5849 14.565 80.4833 13.7244 80.3838 11.7008C80.1844 7.64901 80.0568 7.08604 79.1053 6.06467C78.1824 5.07376 76.3207 4.66462 74.2406 4.99529ZM95.3482 4.94634C93.1521 5.369 91.5102 6.80991 90.986 8.7748C90.6935 9.87106 90.8544 12.0909 91.2917 12.9919C92.4421 15.3623 94.8796 16.2396 98.7753 15.6851C99.9942 15.5115 100.247 15.4295 100.211 15.2192C100.167 14.9627 99.3524 13.6391 98.8085 12.9401L98.5159 12.5646L98.1783 12.9013C97.716 13.3625 96.3299 13.3718 95.5225 12.9192C94.5614 12.3803 94.1883 11.6698 94.1897 10.3812C94.1913 8.95303 94.6292 8.1043 95.6084 7.63145C96.1744 7.35797 96.3598 7.33466 96.803 7.48057C97.4449 7.6919 97.9363 8.19458 98.0852 8.79267L98.1969 9.24174L96.6169 9.16591C95.7478 9.12411 95.0367 9.13949 95.0367 9.19978C95.0367 9.26023 95.2814 9.61669 95.5803 9.99195C95.8794 10.3672 96.1248 10.7566 96.1255 10.8575C96.1265 10.9582 96.2372 11.1504 96.3718 11.2848C96.5707 11.4831 97.0198 11.5289 98.7661 11.5289H100.915L101.003 10.9914C101.218 9.66673 100.539 7.34942 99.6141 6.25285C98.9526 5.46845 97.8875 4.97245 96.7502 4.91899C96.1933 4.89289 95.5624 4.90516 95.3482 4.94634ZM123.31 5.00182C122.882 5.07361 122.146 5.2321 121.674 5.35424C120.685 5.61047 120.663 5.71458 121.371 6.8284C121.624 7.22511 121.83 7.63673 121.83 7.74317C121.83 8.13398 122.139 8.10523 122.863 7.64714C123.451 7.27499 123.778 7.17803 124.443 7.17803C125.162 7.17803 125.346 7.24282 125.736 7.63223C125.987 7.88209 126.192 8.23172 126.192 8.40917C126.192 8.68483 126.095 8.73238 125.53 8.73455C124.452 8.73906 122.783 9.15783 121.932 9.63751C121.445 9.91162 120.939 10.3716 120.627 10.8241C120.18 11.4714 120.117 11.6868 120.117 12.5636C120.117 14.1637 120.851 15.2498 122.203 15.6504C123.222 15.9523 123.891 15.9368 125.023 15.5845C126.079 15.2565 126.217 15.0166 125.74 14.347C125.564 14.1013 125.348 13.7093 125.259 13.4758C125.136 13.1541 125.031 13.0792 124.827 13.1667C124.678 13.2301 124.37 13.3142 124.142 13.3535C123.594 13.4476 123.17 12.8523 123.323 12.2058C123.543 11.2814 124.427 10.7548 125.763 10.7529L126.348 10.752V11.9756C126.348 13.6694 126.459 14.0821 127.107 14.798C127.582 15.3219 127.817 15.4464 128.588 15.5841C129.092 15.674 129.666 15.7073 129.864 15.6577L130.224 15.5676L129.911 14.8618C129.652 14.2772 129.575 13.6248 129.463 11.0627C129.29 7.07904 129.022 6.37048 127.31 5.37009C126.748 5.0416 126.381 4.95675 125.354 4.91853C124.658 4.89273 123.738 4.93018 123.31 5.00182ZM131.324 4.97991C131.221 5.01378 131.251 5.13762 131.401 5.30296C131.845 5.79305 133.294 9.23397 134.438 12.5169L135.567 15.7579L135.046 16.304C134.095 17.3017 132.905 17.6282 131.449 17.2908C130.998 17.1864 130.865 17.2029 130.865 17.3631C130.865 17.4773 130.937 17.6148 131.024 17.6689C131.112 17.7228 131.387 18.1682 131.635 18.6586C131.883 19.1488 132.179 19.6232 132.293 19.7126C132.602 19.9545 134.748 19.6975 135.615 19.3146C137.946 18.2863 139.207 16.2979 141.143 10.5966C141.851 8.51079 142.789 6.37809 143.335 5.61311C143.521 5.35299 143.648 5.1154 143.617 5.0851C143.567 5.03616 139.614 4.94898 139.182 4.98736C139.087 4.99576 138.967 5.40893 138.915 5.9054C138.819 6.82297 137.808 10.9321 137.577 11.3435C137.415 11.6318 137.357 11.5258 136.948 10.2081C136.428 8.53037 135.879 5.85117 135.965 5.40427C136.03 5.06584 135.984 5.00088 135.673 4.99156C134.024 4.94215 131.459 4.93515 131.324 4.97991Z"/>
</mask>
<path fill-rule="evenodd" clip-rule="evenodd" d="M57.0793 0.0531677C55.5787 0.46246 55.3346 2.65856 56.7107 3.36837C58.1446 4.10802 59.6033 2.98301 59.3003 1.37133C59.1315 0.473493 58.0001 -0.19794 57.0793 0.0531677ZM41.1984 1.0304C41.1388 1.18533 41.2246 1.42618 41.4126 1.63082C41.5851 1.81869 41.9514 2.37513 42.2265 2.86709C42.7202 3.74954 42.7358 3.76104 43.3735 3.72173L44.0201 3.68179L44.1434 5.62415C44.3292 8.55073 44.1491 12.8338 43.7798 14.2745C43.612 14.9283 43.4749 15.4871 43.4749 15.5162C43.4749 15.5452 44.5264 15.569 45.8116 15.569C47.7422 15.569 48.1482 15.5301 48.1482 15.3451C48.1482 15.2219 48.0898 15.0851 48.0184 15.0411C47.8479 14.9361 47.477 11.6246 47.5478 10.8388L47.603 10.2264L48.0524 11.0539L48.5018 11.8812L49.5726 11.7917C52.3373 11.5604 53.9044 9.4383 53.7219 6.17282C53.5958 3.91721 52.5155 2.34856 50.5548 1.57442C49.7021 1.23769 49.3237 1.20071 45.8116 1.11074C43.7125 1.05698 41.8382 0.95877 41.6464 0.892419C41.3889 0.803382 41.2718 0.839432 41.1984 1.0304ZM82.8676 1.12923C82.7838 1.18098 82.8192 1.44716 82.9516 1.76353C83.2057 2.36985 83.4465 4.53674 83.3018 4.91309C83.2314 5.09583 83.1203 5.121 82.8446 5.01642C82.1956 4.77029 81.9972 5.03818 82.0222 6.12683C82.0509 7.36558 82.1495 7.52206 82.8628 7.46037L83.4314 7.41111L83.5185 9.97501C83.6253 13.1177 83.8761 14.0829 84.7885 14.862C85.1231 15.1476 85.7041 15.4585 86.0797 15.5528C86.8461 15.7454 89.5636 15.7823 89.8447 15.604C89.9736 15.5221 89.8467 15.1261 89.4094 14.2468C89.0698 13.5639 88.7181 12.9794 88.6277 12.9482C88.5374 12.9168 88.2998 12.9787 88.0998 13.0854C87.1775 13.5777 86.912 12.9059 86.8162 9.83594L86.7415 7.44359L87.566 7.55267C88.0196 7.61265 88.6242 7.75918 88.9097 7.87821C89.1952 7.99708 89.4287 8.07198 89.4287 8.04447C89.4287 7.93974 87.9648 5.53402 87.7434 5.27452C87.6157 5.12488 87.3713 5.00259 87.2004 5.00259C86.9052 5.00259 86.8947 4.93143 86.9908 3.58141C87.0465 2.79981 87.1974 1.94937 87.3264 1.69158C87.4552 1.43379 87.528 1.18999 87.4878 1.15005C87.3811 1.04361 83.0379 1.02419 82.8676 1.12923ZM105.006 1.24531C105.006 1.35812 105.22 1.76088 105.482 2.1405C105.744 2.52011 106.06 3.07314 106.184 3.36962C106.404 3.89405 106.429 3.90617 107.094 3.81527L107.777 3.72173L107.894 5.5665C108.087 8.62718 107.825 13.9133 107.416 15.2194L107.307 15.569H110.794C114.703 15.569 115.958 15.3575 117.23 14.4841C118.105 13.8841 118.398 13.4001 118.591 12.2392C118.825 10.8292 118.503 9.82429 117.5 8.83959L116.739 8.09249L117.244 7.58825C117.733 7.10033 118.247 5.81512 118.247 5.08029C118.247 4.27103 117.765 3.16093 117.188 2.64069C115.791 1.38158 114.502 1.14881 108.55 1.08075C105.698 1.04812 105.006 1.08028 105.006 1.24531ZM49.4922 3.93135C50.1614 4.55508 50.3867 5.14835 50.3802 6.2704C50.3707 7.92001 49.5813 8.92381 48.2724 8.95101L47.603 8.96499L47.5603 6.18681L47.5178 3.40847L48.3054 3.48398C48.8479 3.53588 49.2173 3.67527 49.4922 3.93135ZM114.145 3.80937C114.788 4.14236 115.089 4.96126 114.792 5.56696C114.464 6.23373 113.833 6.59998 112.877 6.67923C112.4 6.71854 111.974 6.80929 111.93 6.88077C111.886 6.95225 112.177 7.57287 112.577 8.25984C113.153 9.2492 113.379 9.50885 113.663 9.50885C114.71 9.50885 115.386 10.3242 115.24 11.4108C115.091 12.5201 114.336 13.0099 112.517 13.1785L111.441 13.2783L111.341 12.4424C111.209 11.351 111.209 6.16521 111.34 4.61863L111.442 3.41095L112.547 3.48243C113.155 3.52174 113.874 3.6689 114.145 3.80937ZM55.4187 4.97509C55.1036 5.03585 55.1016 5.06195 55.3709 5.59307C56.0929 7.01689 56.0996 13.9256 55.3802 15.0209C55.2575 15.2079 55.2041 15.4075 55.2614 15.4649C55.3935 15.5967 59.7454 15.603 59.877 15.4716C59.9308 15.418 59.8666 15.1654 59.7343 14.9105C59.1061 13.6987 59.1148 6.85622 59.746 5.6386C59.9681 5.21004 59.9703 5.14182 59.7639 5.06273C59.5113 4.96608 55.849 4.89227 55.4187 4.97509ZM62.2247 5.03693C62.1854 5.10002 62.2655 5.48088 62.4026 5.88333C62.9343 7.44576 62.86 13.7893 62.2953 15.0253C62.1974 15.2396 62.1482 15.4458 62.1861 15.4834C62.2875 15.5847 66.6794 15.6268 66.7791 15.5275C66.8258 15.4807 66.7559 15.2335 66.6235 14.9782C66.27 14.2964 66.027 11.2826 66.1526 9.13841L66.2607 7.29177L67.3949 7.37739C68.0186 7.42432 68.8503 7.60457 69.2429 7.77783C69.6356 7.95108 69.9568 8.05333 69.9568 8.00516C69.9568 7.93119 68.4444 5.2206 68.2858 5.01052C68.1953 4.8904 62.2995 4.91604 62.2247 5.03693ZM74.2406 4.99529C72.5895 5.2579 71.6703 5.53107 71.6703 5.75918C71.6703 5.88364 71.8731 6.30614 72.121 6.69819C72.3688 7.09039 72.6188 7.56852 72.6766 7.76073C72.8008 8.1736 73.1052 8.21229 73.4038 7.85319C73.9353 7.21377 75.7836 6.94401 76.4486 7.40862C76.7897 7.64699 77.1667 8.48065 77.0059 8.64101C76.9558 8.69104 76.6285 8.73315 76.2786 8.73455C75.3698 8.73844 73.6748 9.1224 72.972 9.48368C71.739 10.1174 70.8914 11.3822 70.8914 12.5885C70.8914 15.1121 73.0858 16.4305 75.8607 15.5738C76.8731 15.2612 76.9684 15.1973 76.8732 14.8938C76.8154 14.7097 76.6375 14.3922 76.4779 14.1884C76.3183 13.9845 76.2573 13.8106 76.1878 13.6248C76.0689 13.3068 75.9452 12.9523 75.4287 13.2619C75.2021 13.403 74.9891 13.4158 74.6766 13.3068C74.3096 13.1788 74.2333 13.0556 74.1942 12.5276C74.1141 11.4453 75.0273 10.752 76.533 10.752H77.0756L77.1799 12.3408C77.2701 13.7118 77.3413 14.0114 77.6995 14.527C78.2211 15.2779 78.6875 15.5193 79.8772 15.6535C80.9798 15.778 81.1447 15.6448 80.774 14.9297C80.5849 14.565 80.4833 13.7244 80.3838 11.7008C80.1844 7.64901 80.0568 7.08604 79.1053 6.06467C78.1824 5.07376 76.3207 4.66462 74.2406 4.99529ZM95.3482 4.94634C93.1521 5.369 91.5102 6.80991 90.986 8.7748C90.6935 9.87106 90.8544 12.0909 91.2917 12.9919C92.4421 15.3623 94.8796 16.2396 98.7753 15.6851C99.9942 15.5115 100.247 15.4295 100.211 15.2192C100.167 14.9627 99.3524 13.6391 98.8085 12.9401L98.5159 12.5646L98.1783 12.9013C97.716 13.3625 96.3299 13.3718 95.5225 12.9192C94.5614 12.3803 94.1883 11.6698 94.1897 10.3812C94.1913 8.95303 94.6292 8.1043 95.6084 7.63145C96.1744 7.35797 96.3598 7.33466 96.803 7.48057C97.4449 7.6919 97.9363 8.19458 98.0852 8.79267L98.1969 9.24174L96.6169 9.16591C95.7478 9.12411 95.0367 9.13949 95.0367 9.19978C95.0367 9.26023 95.2814 9.61669 95.5803 9.99195C95.8794 10.3672 96.1248 10.7566 96.1255 10.8575C96.1265 10.9582 96.2372 11.1504 96.3718 11.2848C96.5707 11.4831 97.0198 11.5289 98.7661 11.5289H100.915L101.003 10.9914C101.218 9.66673 100.539 7.34942 99.6141 6.25285C98.9526 5.46845 97.8875 4.97245 96.7502 4.91899C96.1933 4.89289 95.5624 4.90516 95.3482 4.94634ZM123.31 5.00182C122.882 5.07361 122.146 5.2321 121.674 5.35424C120.685 5.61047 120.663 5.71458 121.371 6.8284C121.624 7.22511 121.83 7.63673 121.83 7.74317C121.83 8.13398 122.139 8.10523 122.863 7.64714C123.451 7.27499 123.778 7.17803 124.443 7.17803C125.162 7.17803 125.346 7.24282 125.736 7.63223C125.987 7.88209 126.192 8.23172 126.192 8.40917C126.192 8.68483 126.095 8.73238 125.53 8.73455C124.452 8.73906 122.783 9.15783 121.932 9.63751C121.445 9.91162 120.939 10.3716 120.627 10.8241C120.18 11.4714 120.117 11.6868 120.117 12.5636C120.117 14.1637 120.851 15.2498 122.203 15.6504C123.222 15.9523 123.891 15.9368 125.023 15.5845C126.079 15.2565 126.217 15.0166 125.74 14.347C125.564 14.1013 125.348 13.7093 125.259 13.4758C125.136 13.1541 125.031 13.0792 124.827 13.1667C124.678 13.2301 124.37 13.3142 124.142 13.3535C123.594 13.4476 123.17 12.8523 123.323 12.2058C123.543 11.2814 124.427 10.7548 125.763 10.7529L126.348 10.752V11.9756C126.348 13.6694 126.459 14.0821 127.107 14.798C127.582 15.3219 127.817 15.4464 128.588 15.5841C129.092 15.674 129.666 15.7073 129.864 15.6577L130.224 15.5676L129.911 14.8618C129.652 14.2772 129.575 13.6248 129.463 11.0627C129.29 7.07904 129.022 6.37048 127.31 5.37009C126.748 5.0416 126.381 4.95675 125.354 4.91853C124.658 4.89273 123.738 4.93018 123.31 5.00182ZM131.324 4.97991C131.221 5.01378 131.251 5.13762 131.401 5.30296C131.845 5.79305 133.294 9.23397 134.438 12.5169L135.567 15.7579L135.046 16.304C134.095 17.3017 132.905 17.6282 131.449 17.2908C130.998 17.1864 130.865 17.2029 130.865 17.3631C130.865 17.4773 130.937 17.6148 131.024 17.6689C131.112 17.7228 131.387 18.1682 131.635 18.6586C131.883 19.1488 132.179 19.6232 132.293 19.7126C132.602 19.9545 134.748 19.6975 135.615 19.3146C137.946 18.2863 139.207 16.2979 141.143 10.5966C141.851 8.51079 142.789 6.37809 143.335 5.61311C143.521 5.35299 143.648 5.1154 143.617 5.0851C143.567 5.03616 139.614 4.94898 139.182 4.98736C139.087 4.99576 138.967 5.40893 138.915 5.9054C138.819 6.82297 137.808 10.9321 137.577 11.3435C137.415 11.6318 137.357 11.5258 136.948 10.2081C136.428 8.53037 135.879 5.85117 135.965 5.40427C136.03 5.06584 135.984 5.00088 135.673 4.99156C134.024 4.94215 131.459 4.93515 131.324 4.97991Z" fill="url(#paint0_linear_622_57541)" stroke="#E8ECEF" stroke-width="0.869996" mask="url(#path-20-inside-1_622_57541)"/>
<mask id="path-21-inside-2_622_57541" fill="white">
<path fill-rule="evenodd" clip-rule="evenodd" d="M43.973 22.015C42.8672 22.6924 42.8672 23.5545 42.8672 23.8115C42.8672 24.1424 42.8648 25.0511 44.6509 25.9245C45.747 26.4604 45.9417 26.6152 45.9842 26.9836C46.0246 27.3332 45.95 27.4476 45.5909 27.5868C45.1624 27.7531 43.6719 27.6896 43.1294 27.482C42.7516 27.3373 42.8041 27.6406 43.2813 28.3598C43.695 28.9835 43.6966 28.9842 44.7363 28.9826C46.2327 28.9804 47.2851 28.4725 47.6433 27.5797C47.8541 27.0541 47.8741 26.8008 47.7427 26.3143C47.5396 25.5624 47.098 25.2061 45.6817 24.6517C44.3992 24.1499 44.1196 23.8123 44.5938 23.3392C44.9948 22.9393 45.6905 22.9317 46.8538 23.3146C47.343 23.4756 47.7433 23.5835 47.7433 23.5545C47.7433 23.4498 46.7173 21.9993 46.5636 21.8866C46.2869 21.6839 44.6987 21.5704 43.973 22.015ZM48.2152 21.8601C48.2152 21.8987 48.4016 22.2111 48.6294 22.5544C48.9262 23.002 49.1535 23.1787 49.4318 23.1787H49.82L49.7542 25.8069C49.718 27.2524 49.6578 28.5409 49.6203 28.6704C49.562 28.8721 49.9499 28.9117 52.3442 28.9475C53.9833 28.9721 55.1362 28.9293 55.1362 28.8439C55.1362 28.7639 54.9439 28.4055 54.7089 28.0475C54.3726 27.535 54.2134 27.4169 53.9617 27.493C53.7858 27.5461 53.1996 27.6306 52.6588 27.6808L51.6757 27.7719V26.868V25.9641L52.5409 26.0356C53.0167 26.075 53.406 26.0852 53.406 26.0582C53.406 26.0312 53.1554 25.6184 52.8491 25.1408C52.3614 24.3801 52.2543 24.293 51.984 24.4372C51.6968 24.5907 51.6757 24.548 51.6757 23.8118V23.0218L52.4229 23.0228C52.8337 23.0232 53.5903 23.0923 54.1041 23.1762C54.6179 23.2601 55.067 23.3 55.1024 23.2649C55.1376 23.2295 54.9426 22.876 54.6687 22.4791L54.1711 21.7575L51.1931 21.7736C49.5552 21.7826 48.2152 21.8215 48.2152 21.8601ZM55.6081 21.8855C55.6081 21.966 55.7479 22.1579 55.9186 22.3121C56.0894 22.4664 56.2735 22.7312 56.3274 22.901C56.399 23.1261 56.5275 23.19 56.8032 23.1373C57.1227 23.0764 57.1823 23.1287 57.1896 23.4751C57.1943 23.7004 57.23 24.3084 57.269 24.8262C57.3333 25.6785 57.1702 28.0939 57.0098 28.665C56.9577 28.85 57.187 28.9052 58.1832 28.9475L59.4213 28.9999L59.3215 28.6038C59.2668 28.3859 59.1817 27.7646 59.1326 27.2229L59.0434 26.2383L59.9262 27.5621L60.8091 28.8859L62.1411 28.9362C62.8736 28.9638 63.4729 28.9581 63.4729 28.9234C63.4729 28.8889 62.9955 28.3983 62.4122 27.8333L61.3514 26.806L61.7956 26.3435C63.062 25.025 62.4824 22.6021 60.7786 22.0929C59.9635 21.8493 55.6081 21.6746 55.6081 21.8855ZM63.7444 21.9057C63.6971 21.9822 63.7609 22.1298 63.8866 22.2338C64.3189 22.5917 65.8242 26.7483 65.9834 28.0241L66.0935 28.9057L67.6059 28.9504L69.1181 28.995L69.2229 28.208C69.3786 27.0367 70.6989 23.3471 71.4802 21.8996C71.5106 21.8433 70.9481 21.8088 70.23 21.8229L68.9246 21.8488L68.8804 22.6314C68.838 23.3857 67.9555 26.8967 67.7466 27.1432C67.618 27.2951 66.7311 24.5163 66.4787 23.1701C66.3742 22.6139 66.2648 22.0707 66.2352 21.9627C66.1721 21.7328 63.8839 21.6804 63.7444 21.9057ZM71.8694 21.9039C72.247 22.6692 72.7049 23.1933 72.9421 23.1315C73.1474 23.0778 73.2422 23.1801 73.3125 23.531C73.5084 24.508 73.3654 27.6204 73.0768 28.6622C73.0258 28.8464 73.2523 28.891 74.2722 28.8976C75.3151 28.9043 75.5203 28.8654 75.4708 28.6704C75.1897 27.5643 75.095 25.6757 75.2411 24.0888C75.3308 23.1136 75.4327 22.2098 75.4675 22.0804C75.5207 21.8817 75.2416 21.842 73.6757 21.8254C72.6557 21.8147 71.8428 21.85 71.8694 21.9039ZM79.1803 21.9928C77.4497 22.6087 76.6433 23.6839 76.6433 25.3754C76.6433 26.7116 77.0828 27.5734 78.0885 28.2097C78.972 28.7686 79.6857 28.9821 80.6743 28.9832C81.5086 28.9843 83.004 28.6989 82.9986 28.5397C82.9967 28.4821 82.8568 28.2585 82.6875 28.0427C82.5182 27.827 82.3783 27.5623 82.3764 27.4544C82.3717 27.1882 82.1242 27.2079 81.6599 27.5115C81.1803 27.8248 80.1613 27.7067 79.409 27.2502C78.4434 26.6645 78.1374 25.09 78.7976 24.1041C79.3508 23.278 80.0539 22.9871 81.2718 23.0803C81.8342 23.1233 82.4536 23.2066 82.6483 23.2655C82.9823 23.3662 82.9735 23.327 82.491 22.5729L81.9797 21.7735L80.8786 21.7769C80.273 21.7788 79.5087 21.8759 79.1803 21.9928ZM83.5216 22.1366C83.642 22.3214 83.8398 22.6355 83.9611 22.8346C84.112 23.0819 84.2913 23.1762 84.5274 23.1326C84.8391 23.0748 84.8833 23.152 84.9802 23.9254C85.082 24.7382 84.9766 27.13 84.7836 28.3884L84.6946 28.9693L87.4661 28.976C89.2406 28.9802 90.2377 28.9253 90.2377 28.8233C90.2377 28.7358 90.0568 28.3784 89.8358 28.0291C89.4611 27.4369 89.3999 27.4024 88.9313 27.519C88.655 27.5877 88.0749 27.6455 87.6423 27.6472L86.8558 27.6505L86.8075 26.8073L86.7594 25.9639L87.6917 26.0312L88.624 26.0985L88.1411 25.3054C87.5921 24.404 87.3944 24.2262 87.1795 24.4405C86.8717 24.7476 86.7613 24.5708 86.8078 23.8456L86.8558 23.1003H87.7996C88.3187 23.1003 89.1174 23.156 89.5744 23.2241L90.4055 23.3479L89.889 22.5552L89.3726 21.7627L86.3377 21.7815L83.3027 21.8005L83.5216 22.1366ZM60.2389 23.2308C60.4262 23.3675 60.5516 23.7117 60.601 24.2256C60.6697 24.939 60.637 25.0423 60.2447 25.3501C60.007 25.5367 59.6453 25.6892 59.4406 25.6892C59.0787 25.6892 59.0686 25.6533 59.0686 24.3555V23.0218H59.5105C59.7535 23.0218 60.0813 23.1158 60.2389 23.2308Z"/>
</mask>
<path fill-rule="evenodd" clip-rule="evenodd" d="M43.973 22.015C42.8672 22.6924 42.8672 23.5545 42.8672 23.8115C42.8672 24.1424 42.8648 25.0511 44.6509 25.9245C45.747 26.4604 45.9417 26.6152 45.9842 26.9836C46.0246 27.3332 45.95 27.4476 45.5909 27.5868C45.1624 27.7531 43.6719 27.6896 43.1294 27.482C42.7516 27.3373 42.8041 27.6406 43.2813 28.3598C43.695 28.9835 43.6966 28.9842 44.7363 28.9826C46.2327 28.9804 47.2851 28.4725 47.6433 27.5797C47.8541 27.0541 47.8741 26.8008 47.7427 26.3143C47.5396 25.5624 47.098 25.2061 45.6817 24.6517C44.3992 24.1499 44.1196 23.8123 44.5938 23.3392C44.9948 22.9393 45.6905 22.9317 46.8538 23.3146C47.343 23.4756 47.7433 23.5835 47.7433 23.5545C47.7433 23.4498 46.7173 21.9993 46.5636 21.8866C46.2869 21.6839 44.6987 21.5704 43.973 22.015ZM48.2152 21.8601C48.2152 21.8987 48.4016 22.2111 48.6294 22.5544C48.9262 23.002 49.1535 23.1787 49.4318 23.1787H49.82L49.7542 25.8069C49.718 27.2524 49.6578 28.5409 49.6203 28.6704C49.562 28.8721 49.9499 28.9117 52.3442 28.9475C53.9833 28.9721 55.1362 28.9293 55.1362 28.8439C55.1362 28.7639 54.9439 28.4055 54.7089 28.0475C54.3726 27.535 54.2134 27.4169 53.9617 27.493C53.7858 27.5461 53.1996 27.6306 52.6588 27.6808L51.6757 27.7719V26.868V25.9641L52.5409 26.0356C53.0167 26.075 53.406 26.0852 53.406 26.0582C53.406 26.0312 53.1554 25.6184 52.8491 25.1408C52.3614 24.3801 52.2543 24.293 51.984 24.4372C51.6968 24.5907 51.6757 24.548 51.6757 23.8118V23.0218L52.4229 23.0228C52.8337 23.0232 53.5903 23.0923 54.1041 23.1762C54.6179 23.2601 55.067 23.3 55.1024 23.2649C55.1376 23.2295 54.9426 22.876 54.6687 22.4791L54.1711 21.7575L51.1931 21.7736C49.5552 21.7826 48.2152 21.8215 48.2152 21.8601ZM55.6081 21.8855C55.6081 21.966 55.7479 22.1579 55.9186 22.3121C56.0894 22.4664 56.2735 22.7312 56.3274 22.901C56.399 23.1261 56.5275 23.19 56.8032 23.1373C57.1227 23.0764 57.1823 23.1287 57.1896 23.4751C57.1943 23.7004 57.23 24.3084 57.269 24.8262C57.3333 25.6785 57.1702 28.0939 57.0098 28.665C56.9577 28.85 57.187 28.9052 58.1832 28.9475L59.4213 28.9999L59.3215 28.6038C59.2668 28.3859 59.1817 27.7646 59.1326 27.2229L59.0434 26.2383L59.9262 27.5621L60.8091 28.8859L62.1411 28.9362C62.8736 28.9638 63.4729 28.9581 63.4729 28.9234C63.4729 28.8889 62.9955 28.3983 62.4122 27.8333L61.3514 26.806L61.7956 26.3435C63.062 25.025 62.4824 22.6021 60.7786 22.0929C59.9635 21.8493 55.6081 21.6746 55.6081 21.8855ZM63.7444 21.9057C63.6971 21.9822 63.7609 22.1298 63.8866 22.2338C64.3189 22.5917 65.8242 26.7483 65.9834 28.0241L66.0935 28.9057L67.6059 28.9504L69.1181 28.995L69.2229 28.208C69.3786 27.0367 70.6989 23.3471 71.4802 21.8996C71.5106 21.8433 70.9481 21.8088 70.23 21.8229L68.9246 21.8488L68.8804 22.6314C68.838 23.3857 67.9555 26.8967 67.7466 27.1432C67.618 27.2951 66.7311 24.5163 66.4787 23.1701C66.3742 22.6139 66.2648 22.0707 66.2352 21.9627C66.1721 21.7328 63.8839 21.6804 63.7444 21.9057ZM71.8694 21.9039C72.247 22.6692 72.7049 23.1933 72.9421 23.1315C73.1474 23.0778 73.2422 23.1801 73.3125 23.531C73.5084 24.508 73.3654 27.6204 73.0768 28.6622C73.0258 28.8464 73.2523 28.891 74.2722 28.8976C75.3151 28.9043 75.5203 28.8654 75.4708 28.6704C75.1897 27.5643 75.095 25.6757 75.2411 24.0888C75.3308 23.1136 75.4327 22.2098 75.4675 22.0804C75.5207 21.8817 75.2416 21.842 73.6757 21.8254C72.6557 21.8147 71.8428 21.85 71.8694 21.9039ZM79.1803 21.9928C77.4497 22.6087 76.6433 23.6839 76.6433 25.3754C76.6433 26.7116 77.0828 27.5734 78.0885 28.2097C78.972 28.7686 79.6857 28.9821 80.6743 28.9832C81.5086 28.9843 83.004 28.6989 82.9986 28.5397C82.9967 28.4821 82.8568 28.2585 82.6875 28.0427C82.5182 27.827 82.3783 27.5623 82.3764 27.4544C82.3717 27.1882 82.1242 27.2079 81.6599 27.5115C81.1803 27.8248 80.1613 27.7067 79.409 27.2502C78.4434 26.6645 78.1374 25.09 78.7976 24.1041C79.3508 23.278 80.0539 22.9871 81.2718 23.0803C81.8342 23.1233 82.4536 23.2066 82.6483 23.2655C82.9823 23.3662 82.9735 23.327 82.491 22.5729L81.9797 21.7735L80.8786 21.7769C80.273 21.7788 79.5087 21.8759 79.1803 21.9928ZM83.5216 22.1366C83.642 22.3214 83.8398 22.6355 83.9611 22.8346C84.112 23.0819 84.2913 23.1762 84.5274 23.1326C84.8391 23.0748 84.8833 23.152 84.9802 23.9254C85.082 24.7382 84.9766 27.13 84.7836 28.3884L84.6946 28.9693L87.4661 28.976C89.2406 28.9802 90.2377 28.9253 90.2377 28.8233C90.2377 28.7358 90.0568 28.3784 89.8358 28.0291C89.4611 27.4369 89.3999 27.4024 88.9313 27.519C88.655 27.5877 88.0749 27.6455 87.6423 27.6472L86.8558 27.6505L86.8075 26.8073L86.7594 25.9639L87.6917 26.0312L88.624 26.0985L88.1411 25.3054C87.5921 24.404 87.3944 24.2262 87.1795 24.4405C86.8717 24.7476 86.7613 24.5708 86.8078 23.8456L86.8558 23.1003H87.7996C88.3187 23.1003 89.1174 23.156 89.5744 23.2241L90.4055 23.3479L89.889 22.5552L89.3726 21.7627L86.3377 21.7815L83.3027 21.8005L83.5216 22.1366ZM60.2389 23.2308C60.4262 23.3675 60.5516 23.7117 60.601 24.2256C60.6697 24.939 60.637 25.0423 60.2447 25.3501C60.007 25.5367 59.6453 25.6892 59.4406 25.6892C59.0787 25.6892 59.0686 25.6533 59.0686 24.3555V23.0218H59.5105C59.7535 23.0218 60.0813 23.1158 60.2389 23.2308Z" fill="url(#paint1_linear_622_57541)" stroke="#E8ECEF" stroke-width="0.579997" stroke-miterlimit="16" mask="url(#path-21-inside-2_622_57541)"/>
<defs>
<linearGradient id="paint0_linear_622_57541" x1="92.4005" y1="0.134428" x2="92.4005" y2="19.8068" gradientUnits="userSpaceOnUse">
<stop stop-color="#E8ECEF"/>
<stop offset="0.442708" stop-color="white"/>
<stop offset="0.588542" stop-color="#899CB0"/>
<stop offset="1" stop-color="#4B5B68"/>
</linearGradient>
<linearGradient id="paint1_linear_622_57541" x1="66.6364" y1="21.7575" x2="66.6364" y2="28.9999" gradientUnits="userSpaceOnUse">
<stop stop-color="#E8ECEF"/>
<stop offset="0.442708" stop-color="white"/>
<stop offset="0.588542" stop-color="#899CB0"/>
<stop offset="1" stop-color="#4B5B68"/>
</linearGradient>
<clipPath id="clip0_622_57541">
<rect width="35.3798" height="28.9999" fill="white"/>
</clipPath>
</defs>
</svg>
