<svg width="120" height="120" viewBox="0 0 120 120" fill="none" xmlns="http://www.w3.org/2000/svg">
<g clip-path="url(#clip0_622_55523)">
<path d="M103.449 49.6553H115.863C118.145 49.6621 119.994 51.5107 120.001 53.7932V74.4829C119.994 76.7653 118.145 78.614 115.863 78.6208H103.449V49.6553Z" fill="#0B2239"/>
<path d="M14.5862 49.6553L14.4828 78.6208H4.13793C1.85261 78.6208 0 76.7682 0 74.4829V53.7932C0 51.5079 1.85261 49.6553 4.13793 49.6553H14.5862Z" fill="#0B2239"/>
<path d="M39.3109 111.724H26.8971C25.7544 111.724 24.8281 112.65 24.8281 113.793V117.931C24.8281 119.073 25.7544 119.999 26.8971 119.999H39.3109C40.4535 119.999 41.3798 119.073 41.3798 117.931V113.793C41.3798 112.65 40.4535 111.724 39.3109 111.724Z" fill="#0B2239"/>
<path d="M41.3807 4.1383C41.3819 4.86505 41.5746 5.57863 41.9393 6.20727H41.3807C21.9668 6.23462 6.23559 21.9658 6.20824 41.3797V49.6555H4.13928C3.41253 49.6568 2.69895 49.8495 2.07031 50.2142V41.3797C2.0897 19.6772 19.6782 2.08873 41.3807 2.06934H41.9393C41.5746 2.69797 41.3819 3.41156 41.3807 4.1383Z" fill="#CED7DD"/>
<path d="M77.5586 4.06897C77.5573 4.79571 77.3647 5.5093 77 6.13793H77.5586C96.9725 6.16528 112.704 21.8965 112.731 41.3103V49.5862H114.8C115.527 49.5875 116.24 49.7802 116.869 50.1448V41.3103C116.85 19.6079 99.2611 2.01939 77.5586 2H77C77.3647 2.62863 77.5573 3.34222 77.5586 4.06897Z" fill="#CED7DD"/>
<path d="M24.8289 117.931H10.3462C5.77554 117.931 2.07031 114.226 2.07031 109.656V78.0625C2.69895 78.4272 3.41253 78.6198 4.13928 78.6211H6.20824V109.656C6.21506 111.938 8.06369 113.787 10.3462 113.794H24.8289V117.931Z" fill="#CED7DD"/>
<path d="M74.4824 0H45.5168C43.2315 0 41.3789 1.85261 41.3789 4.13793C41.3789 6.42325 43.2315 8.27586 45.5168 8.27586H74.4824C76.7677 8.27586 78.6203 6.42325 78.6203 4.13793C78.6203 1.85261 76.7677 0 74.4824 0Z" fill="#0B2239"/>
<g clip-path="url(#clip1_622_55523)">
<path d="M60 104C82.0914 104 100 86.0914 100 64C100 41.9086 82.0914 24 60 24C37.9086 24 20 41.9086 20 64C20 86.0914 37.9086 104 60 104Z" fill="#FFC850"/>
<path d="M60.0008 100.13C79.9547 100.13 96.1305 83.9537 96.1305 63.9998C96.1305 44.0459 79.9547 27.8701 60.0008 27.8701C40.0469 27.8701 23.8711 44.0459 23.8711 63.9998C23.8711 83.9537 40.0469 100.13 60.0008 100.13Z" fill="#E1A546"/>
<path d="M60.0016 97.5485C78.5299 97.5485 93.55 82.5284 93.55 64.0001C93.55 45.4718 78.5299 30.4517 60.0016 30.4517C41.4733 30.4517 26.4531 45.4718 26.4531 64.0001C26.4531 82.5284 41.4733 97.5485 60.0016 97.5485Z" fill="#FFD65A"/>
<path d="M59.9995 47.2256C51.448 47.2256 44.5156 54.1579 44.5156 62.7095V71.7417C44.5156 73.1668 45.6711 74.3223 47.0963 74.3223H50.9672V79.4836C50.9672 80.1961 51.5448 80.7739 52.2575 80.7739H67.7414C68.4541 80.7739 69.0317 80.1961 69.0317 79.4836V74.3223H72.9027C74.3278 74.3223 75.4833 73.1668 75.4833 71.7417V62.7095C75.4834 54.1579 68.5511 47.2256 59.9995 47.2256Z" fill="#FFC850"/>
<path d="M50.9673 60.1289C50.9673 53.6314 55.7747 48.2711 62.0234 47.3728C61.3595 47.2859 60.6873 47.2256 59.9995 47.2256C51.448 47.2256 44.5156 54.1579 44.5156 62.7095V71.7417C44.5156 73.1668 45.6711 74.3223 47.0963 74.3223H50.9672L50.9673 60.1289Z" fill="#E1A546"/>
<path d="M56.13 75.6126C56.13 74.8999 55.5523 74.3223 54.8397 74.3223H50.9688V79.4835C50.9688 80.1962 51.5464 80.7738 52.2591 80.7738H53.5494V78.1932C53.5494 77.4805 54.127 76.9029 54.8397 76.9029C55.5523 76.9029 56.13 76.3251 56.13 75.6126Z" fill="#E1A546"/>
<path d="M63.8711 75.6126C63.8711 74.8999 64.4488 74.3223 65.1614 74.3223H69.0323V79.4835C69.0323 80.1962 68.4547 80.7738 67.742 80.7738H66.4517V78.1932C66.4517 77.4805 65.8741 76.9029 65.1614 76.9029C64.4488 76.9029 63.8711 76.3251 63.8711 75.6126Z" fill="#E1A546"/>
<path d="M56.1302 78.1934C55.4175 78.1934 54.8398 78.771 54.8398 79.4837V80.774H57.4205V79.4837C57.4205 78.771 56.8428 78.1934 56.1302 78.1934Z" fill="#E1A546"/>
<path d="M63.8723 78.1934C63.1597 78.1934 62.582 78.771 62.582 79.4837V80.774H65.1627V79.4837C65.1627 78.771 64.585 78.1934 63.8723 78.1934Z" fill="#E1A546"/>
<path d="M60.0012 78.1934C59.2886 78.1934 58.7109 78.771 58.7109 79.4837V80.774H61.2916V79.4837C61.2916 78.771 60.7139 78.1934 60.0012 78.1934Z" fill="#E1A546"/>
<path d="M59.9998 95.6133C59.5386 95.6133 59.0812 95.5981 58.6239 95.5792C57.5566 95.5314 56.7287 94.6278 56.7753 93.5594C56.8231 92.492 57.7216 91.6605 58.7952 91.7108C59.5941 91.7461 60.4055 91.7461 61.2044 91.7108C62.2755 91.6591 63.1751 92.492 63.2242 93.5594C63.2708 94.628 62.443 95.5314 61.3756 95.5792C60.9184 95.5981 60.4611 95.6133 59.9998 95.6133Z" fill="#E1A546"/>
<path d="M61.2913 36.2909C61.2636 36.2909 61.2358 36.2903 61.2082 36.2891C60.4043 36.255 59.5952 36.255 58.7913 36.2891C57.7304 36.3281 56.8218 35.5059 56.7752 34.438C56.7299 33.37 57.559 32.4672 58.6276 32.4219C59.5374 32.3828 60.4622 32.3828 61.3721 32.4219C62.4407 32.4672 63.2697 33.3702 63.2244 34.438C63.179 35.4777 62.3221 36.2909 61.2913 36.2909Z" fill="#E1A546"/>
<path d="M30.3538 67.2261C29.3242 67.2261 28.4673 66.4146 28.4208 65.3763C28.4019 64.919 28.3867 64.4615 28.3867 64.0004C28.3867 63.5391 28.4019 63.0818 28.4208 62.6244C28.4686 61.5571 29.3734 60.7355 30.4406 60.7758C31.508 60.8236 32.3358 61.7272 32.2892 62.7957C32.2716 63.1951 32.2577 63.5971 32.2577 64.0004C32.2577 64.4036 32.2716 64.8055 32.2892 65.2051C32.3358 66.2736 31.508 67.1771 30.4406 67.2249C30.4117 67.2261 30.3828 67.2261 30.3538 67.2261Z" fill="#E1A546"/>
<path d="M89.6444 67.2258C89.6155 67.2258 89.5864 67.2258 89.5575 67.2246C88.4902 67.1768 87.6623 66.2732 87.7089 65.2047C87.7266 64.8054 87.7405 64.4033 87.7405 64.0001C87.7405 63.5968 87.7266 63.1949 87.7089 62.7954C87.6623 61.7268 88.4902 60.8233 89.5575 60.7755C90.6236 60.7327 91.5295 61.5568 91.5773 62.6241C91.5963 63.0815 91.6114 63.539 91.6114 64.0001C91.6114 64.4613 91.5963 64.9186 91.5773 65.376C91.5306 66.4144 90.6739 67.2258 89.6444 67.2258Z" fill="#E1A546"/>
<path d="M39.949 87.8108C39.4815 87.8108 39.0128 87.6431 38.641 87.3017C38.3046 86.993 37.9707 86.6805 37.6443 86.3541C37.3179 86.0277 37.0054 85.6938 36.6967 85.3574C35.9734 84.5686 36.0276 83.345 36.8151 82.623C37.6039 81.8997 38.8262 81.9552 39.5495 82.7414C39.8204 83.0375 40.0951 83.3311 40.3812 83.6172C40.6673 83.9033 40.9609 84.178 41.257 84.4489C42.0445 85.171 42.0987 86.3946 41.3754 87.1833C40.995 87.5991 40.472 87.8108 39.949 87.8108Z" fill="#E1A546"/>
<path d="M81.8748 45.8861C81.3518 45.8861 80.8303 45.675 80.4496 45.2598C80.1775 44.9644 79.9028 44.6701 79.6167 44.3834C79.3318 44.0986 79.037 43.8245 78.7409 43.553C77.9534 42.8309 77.8992 41.6061 78.6225 40.8186C79.3432 40.028 80.5693 39.9787 81.3568 40.6989C81.6932 41.007 82.0259 41.3201 82.3523 41.6451C82.68 41.9722 82.9925 42.3055 83.3 42.6412C84.0232 43.4287 83.9715 44.653 83.184 45.3762C82.8123 45.7178 82.3435 45.8861 81.8748 45.8861Z" fill="#E1A546"/>
<path d="M38.123 45.8859C37.6542 45.8859 37.1855 45.7176 36.8138 45.3762C36.0263 44.6529 35.9745 43.4287 36.6978 42.6412C37.0053 42.3054 37.3178 41.9721 37.6441 41.6464C37.9717 41.3199 38.3044 41.0068 38.6408 40.6987C39.4295 39.9792 40.6519 40.029 41.3752 40.8184C42.0984 41.6059 42.0442 42.8307 41.2567 43.5528C40.9606 43.8243 40.6658 44.0984 40.3797 44.3845C40.0948 44.6699 39.8202 44.9642 39.548 45.2596C39.1675 45.6748 38.6459 45.8859 38.123 45.8859Z" fill="#E1A546"/>
<path d="M80.0489 87.8108C79.5259 87.8108 79.0043 87.599 78.6225 87.1833C77.8992 86.3945 77.9534 85.1709 78.7409 84.4489C79.037 84.1779 79.3306 83.9033 79.6167 83.6172C79.9028 83.3311 80.1775 83.0375 80.4484 82.7414C81.1692 81.9539 82.3953 81.8997 83.1828 82.6229C83.9703 83.345 84.0245 84.5686 83.3012 85.3573C82.9925 85.6937 82.68 86.0276 82.3535 86.354C82.0271 86.6804 81.6932 86.9929 81.3568 87.3017C80.985 87.6433 80.5162 87.8108 80.0489 87.8108Z" fill="#E1A546"/>
<path d="M70.1507 93.8176C69.3593 93.8176 68.6159 93.3287 68.3312 92.5412C67.967 91.537 68.4862 90.4268 69.4917 90.0626C69.8659 89.9265 70.2401 89.7866 70.6118 89.6316C70.9886 89.4754 71.3528 89.3104 71.7143 89.1415C72.6846 88.6841 73.8351 89.1049 74.2875 90.074C74.7411 91.0431 74.3228 92.1948 73.355 92.6471C72.9404 92.8412 72.5207 93.0315 72.0948 93.2079C71.6714 93.383 71.2417 93.5455 70.8095 93.7018C70.5929 93.781 70.37 93.8176 70.1507 93.8176Z" fill="#E1A546"/>
<path d="M47.4647 39.0417C46.7352 39.0417 46.0371 38.6278 45.7094 37.9228C45.2571 36.9537 45.6766 35.8026 46.6457 35.3509C47.0602 35.1581 47.4774 34.9691 47.9032 34.7933C48.3266 34.6175 48.7551 34.4562 49.186 34.2994C50.1865 33.9351 51.3004 34.4512 51.6658 35.4561C52.0326 36.4603 51.5146 37.5711 50.5091 37.9372C50.1337 38.0739 49.7582 38.215 49.3851 38.37C49.0096 38.525 48.6429 38.6912 48.2812 38.8601C48.0166 38.9831 47.7382 39.0417 47.4647 39.0417Z" fill="#E1A546"/>
<path d="M33.1087 78.4724C32.3804 78.4724 31.6823 78.0604 31.3546 77.3572C31.1606 76.9427 30.9703 76.523 30.7939 76.0971C30.6187 75.6736 30.4562 75.244 30.3 74.8118C29.9357 73.8075 30.455 72.6974 31.4604 72.3332C32.4596 71.9677 33.5761 72.4882 33.939 73.4936C34.0751 73.8679 34.215 74.2421 34.37 74.6138C34.5262 74.9905 34.6912 75.3547 34.8601 75.7163C35.3137 76.6854 34.8954 77.8371 33.9276 78.2894C33.6618 78.4144 33.3834 78.4724 33.1087 78.4724Z" fill="#E1A546"/>
<path d="M87.8808 55.7833C87.0894 55.7833 86.3459 55.2944 86.0612 54.5069C85.9251 54.1327 85.7853 53.7585 85.6303 53.3867C85.4741 53.01 85.3091 52.6458 85.1401 52.2842C84.6866 51.3152 85.1048 50.1635 86.0726 49.7105C87.043 49.2557 88.1934 49.6752 88.6458 50.6436C88.8398 51.0582 89.0301 51.4778 89.2066 51.9038C89.3817 52.3272 89.5442 52.7569 89.7005 53.1891C90.0647 54.1933 89.5455 55.3035 88.54 55.6677C88.323 55.7467 88.1 55.7833 87.8808 55.7833Z" fill="#E1A546"/>
<path d="M49.8473 93.8175C49.6281 93.8175 49.405 93.7809 49.1883 93.7015C48.7561 93.5453 48.3264 93.3828 47.8992 93.2051C47.477 93.0312 47.0575 92.8409 46.643 92.6469C45.6751 92.1945 45.2569 91.0428 45.7105 90.0737C46.1616 89.1059 47.312 88.6851 48.2836 89.1412C48.6453 89.3101 49.0094 89.4751 49.3823 89.6289C49.7578 89.7864 50.132 89.9262 50.5064 90.0623C51.5119 90.4265 52.0311 91.5365 51.6669 92.5409C51.3822 93.3286 50.6387 93.8175 49.8473 93.8175Z" fill="#E1A546"/>
<path d="M72.5338 39.0418C72.2603 39.0418 71.9819 38.9832 71.7172 38.8604C71.3555 38.6915 70.9889 38.5252 70.6159 38.3709C70.2405 38.2152 69.865 38.0741 69.4894 37.9374C68.4839 37.5713 67.9659 36.4606 68.3327 35.4563C68.6981 34.4515 69.812 33.9348 70.8125 34.2996C71.2434 34.4565 71.6719 34.6177 72.0978 34.7941C72.5213 34.9693 72.9383 35.1584 73.3528 35.3512C74.3219 35.8029 74.7414 36.954 74.2891 37.9231C73.9614 38.6273 73.2633 39.0418 72.5338 39.0418Z" fill="#E1A546"/>
<path d="M32.1195 55.7833C31.9003 55.7833 31.6771 55.7467 31.4604 55.6674C30.455 55.3032 29.9357 54.1932 30.3 53.1888C30.4562 52.7566 30.6187 52.3269 30.7964 51.8997C30.9703 51.4775 31.1606 51.058 31.3546 50.6435C31.807 49.6757 32.9562 49.2567 33.9278 49.7103C34.8956 50.1633 35.3139 51.315 34.8603 52.2841C34.6914 52.6458 34.5264 53.0099 34.3726 53.3828C34.2151 53.7583 34.0753 54.1325 33.9392 54.5069C33.6543 55.2944 32.9109 55.7833 32.1195 55.7833Z" fill="#E1A546"/>
<path d="M86.8917 78.4722C86.617 78.4722 86.3386 78.4143 86.0726 78.2896C85.1048 77.8372 84.6866 76.6855 85.1401 75.7165C85.3091 75.3547 85.474 74.9907 85.6278 74.6177C85.7853 74.2422 85.9251 73.868 86.0612 73.4937C86.4255 72.4882 87.5394 71.9665 88.5398 72.3332C89.5453 72.6974 90.0645 73.8074 89.7003 74.8118C89.5441 75.244 89.3816 75.6737 89.2039 76.1008C89.03 76.523 88.8397 76.9426 88.6456 77.3571C88.3181 78.0602 87.62 78.4722 86.8917 78.4722Z" fill="#E1A546"/>
<path d="M70.22 73.3593C69.5484 73.926 68.926 74.5484 68.3593 75.22L63.1048 69.9655C63.0629 69.9279 63.0275 69.8836 63 69.8345C63.7586 69.3904 64.3904 68.7586 64.8345 68C64.8836 68.0275 64.9279 68.0629 64.9655 68.1048L70.1807 73.32L70.22 73.3593Z" fill="#DB2936"/>
<path d="M65.8078 58.8383C67.5894 58.8383 69.0336 57.3941 69.0336 55.6125C69.0336 53.831 67.5894 52.3867 65.8078 52.3867C64.0263 52.3867 62.582 53.831 62.582 55.6125C62.582 57.3941 64.0263 58.8383 65.8078 58.8383Z" fill="#FFD65A"/>
<path d="M58.6016 62.4818V43.4343C58.6054 42.1349 59.6578 41.0825 60.9572 41.0786C62.2542 41.0882 63.3033 42.1373 63.3129 43.4343V62.4818H58.6016Z" fill="#0B2239"/>
<path d="M57.9336 70.1648L51.0197 72.6818C50.432 72.8951 49.7836 72.866 49.2174 72.6008C48.6511 72.3357 48.2135 71.8564 48.0009 71.2684C47.5659 70.0449 48.196 68.6991 49.4143 68.2496L56.3282 65.7373L57.9336 70.1648Z" fill="#0B2239"/>
<path d="M65.6689 66.5572C65.6657 67.4024 65.4381 68.2316 65.0093 68.96C64.6101 69.6419 64.0423 70.2097 63.3604 70.609C62.632 71.0377 61.8028 71.2653 60.9576 71.2685C59.052 71.2685 57.3341 70.1207 56.6049 68.3601C55.8756 66.5996 56.2787 64.5732 57.6262 63.2258C58.9736 61.8783 61 61.4752 62.7605 62.2045C64.5211 62.9337 65.6689 64.6516 65.6689 66.5572Z" fill="#0B2239"/>
</g>
<path d="M101.069 87.0344V87.0359C101.075 94.1427 96.402 100.405 89.5878 102.423C82.7735 104.442 75.4439 101.733 71.5788 95.7695C67.7137 89.8057 68.2355 82.0091 72.8607 76.6135L72.8607 76.6135L72.8657 76.6076C73.3961 75.9791 73.9786 75.3965 74.6071 74.8662L74.6071 74.8662L74.6132 74.861C79.3653 70.7853 86.0559 69.8504 91.7433 72.4674C97.4306 75.0843 101.073 80.7739 101.069 87.0344Z" fill="#539415" stroke="#448308" stroke-width="2"/>
<path d="M74.558 90.192C76.202 88.98 77.516 87.87 78.5 86.862C79.484 85.842 79.976 84.924 79.976 84.108C79.976 83.316 79.658 82.92 79.022 82.92C78.662 82.92 78.398 83.058 78.23 83.334C78.074 83.61 77.99 84.066 77.978 84.702H74.54C74.612 83.106 75.092 81.918 75.98 81.138C76.868 80.346 77.978 79.95 79.31 79.95C80.762 79.95 81.836 80.31 82.532 81.03C83.228 81.75 83.576 82.662 83.576 83.766C83.576 84.954 83.15 86.094 82.298 87.186C81.458 88.278 80.42 89.208 79.184 89.976H83.756V92.838H74.558V90.192ZM85.0593 90.84V87.888L90.6393 80.076H94.4553V87.78H95.8593V90.84H94.4553V93H90.8913V90.84H85.0593ZM91.1613 84.126L88.6233 87.78H91.1613V84.126Z" fill="white"/>
</g>
<defs>
<clipPath id="clip0_622_55523">
<rect width="120" height="120" fill="white"/>
</clipPath>
<clipPath id="clip1_622_55523">
<rect width="80" height="80" fill="white" transform="translate(20 24)"/>
</clipPath>
</defs>
</svg>
