<svg width="122" height="122" viewBox="0 0 122 122" fill="none" xmlns="http://www.w3.org/2000/svg">
<g clip-path="url(#clip0_622_55482)">
<path d="M48.4517 76.2502L38.4343 44.5283C37.1907 45.0185 36.0643 45.7655 35.1289 46.7205L44.4543 76.2502H48.4517Z" fill="#CED7DD"/>
<path d="M13.3438 53.375V51.4688C13.3438 38.8295 18.3647 26.708 27.3019 17.7707C36.2392 8.83341 48.3608 3.8125 61 3.8125C67.2583 3.8125 73.4553 5.04517 79.2373 7.44012C85.0192 9.83507 90.2728 13.3454 94.6981 17.7707C99.1234 22.196 102.634 27.4496 105.029 33.2315C107.424 39.0134 108.656 45.2104 108.656 51.4688V53.375C108.656 50.8472 107.652 48.4228 105.865 46.6354C104.077 44.8479 101.653 43.8438 99.125 43.8438C96.5972 43.8438 94.1728 44.8479 92.3854 46.6354C90.5979 48.4228 89.5938 50.8472 89.5938 53.375C89.5938 50.8472 88.5896 48.4228 86.8021 46.6354C85.0147 44.8479 82.5903 43.8438 80.0625 43.8438C77.5347 43.8438 75.1103 44.8479 73.3229 46.6354C71.5354 48.4228 70.5312 50.8472 70.5312 53.375C70.5312 50.8472 69.5271 48.4228 67.7396 46.6354C65.9522 44.8479 63.5278 43.8438 61 43.8438C58.4722 43.8438 56.0478 44.8479 54.2604 46.6354C52.4729 48.4228 51.4688 50.8472 51.4688 53.375C51.4688 50.8472 50.4646 48.4228 48.6771 46.6354C46.8897 44.8479 44.4653 43.8438 41.9375 43.8438C39.4097 43.8438 36.9853 44.8479 35.1979 46.6354C33.4104 48.4228 32.4062 50.8472 32.4062 53.375C32.4062 50.8472 31.4021 48.4228 29.6146 46.6354C27.8272 44.8479 25.4028 43.8438 22.875 43.8438C20.3472 43.8438 17.9228 44.8479 16.1354 46.6354C14.3479 48.4228 13.3438 50.8472 13.3438 53.375Z" fill="#CED7DD"/>
<path d="M61 43.8438C60.3598 43.843 59.7211 43.9068 59.0938 44.0344V76.25H62.9062V44.0344C62.2789 43.9068 61.6402 43.843 61 43.8438Z" fill="#CED7DD"/>
<path d="M83.6249 44.5474L75.2812 76.2502H79.2253L86.9647 46.8349C86.0287 45.8412 84.8896 45.061 83.6249 44.5474Z" fill="#CED7DD"/>
<path d="M60.3652 5.46522L61 3.8125L53.2454 10.0154C46.7427 15.2175 41.4934 21.8156 37.8862 29.3212C34.2789 36.8267 32.406 45.0476 32.4063 53.375C32.4063 50.8472 33.4104 48.4228 35.1979 46.6354C36.9853 44.8479 39.4097 43.8438 41.9375 43.8438C44.4653 43.8438 46.8897 44.8479 48.6771 46.6354C50.4646 48.4228 51.4688 50.8472 51.4688 53.375C51.4687 36.9944 54.4844 20.7538 60.3652 5.46522Z" fill="#0B2239"/>
<path d="M68.7546 10.0154L61 3.8125L61.6348 5.46522C67.5156 20.7538 70.5313 36.9944 70.5312 53.375C70.5312 50.8472 71.5354 48.4228 73.3229 46.6354C75.1103 44.8479 77.5347 43.8438 80.0625 43.8438C82.5903 43.8438 85.0147 44.8479 86.8021 46.6354C88.5896 48.4228 89.5938 50.8472 89.5938 53.375C89.594 45.0476 87.7211 36.8267 84.1138 29.3212C80.5066 21.8156 75.2573 15.2175 68.7546 10.0154Z" fill="#0B2239"/>
<g clip-path="url(#clip1_622_55482)">
<path d="M92.6075 122.103H28.3925C27.6234 122.103 27 121.48 27 120.71V90.6128H94V120.71C94 121.48 93.3766 122.103 92.6075 122.103Z" fill="#FFC926"/>
<path d="M29.7445 98.4175C28.2288 98.4175 27 99.6463 27 101.162V116.465C27 117.98 28.2288 119.209 29.7445 119.209C31.2603 119.209 32.489 117.98 32.489 116.465V101.162C32.489 99.6463 31.2603 98.4175 29.7445 98.4175Z" fill="#FFC926"/>
<path d="M32.489 107.785V104.997C32.489 103.482 31.2603 102.253 29.7445 102.253C28.2288 102.253 27 103.482 27 104.997V107.785C27 109.3 28.2288 110.529 29.7445 110.529C31.2603 110.529 32.489 109.3 32.489 107.785Z" fill="#FFC926"/>
<path d="M27 90.6123H94V96.1102H27V90.6123Z" fill="#FFC926"/>
<path d="M94.0011 93.5479V120.71C94.0011 121.479 93.3773 122.102 92.6086 122.102H62.1875C76.3795 122.102 86.8631 105.723 91.0184 93.5479H94.0011Z" fill="#FFC926"/>
<path d="M93.9983 106.189V120.71C93.9983 121.479 93.3745 122.103 92.6058 122.103H77.2539C85.2815 122.102 91.3123 113.276 93.9983 106.189Z" fill="#FFC926"/>
<path d="M83.8369 70.8975H37.1631C37.1631 70.8975 27 71.0572 27 85.3894V93.5479H94V85.3894C94 71.0574 83.8369 70.8975 83.8369 70.8975Z" fill="#FFC926"/>
<path d="M77.3611 70.8975H43.6357C43.6357 70.8975 33.4727 71.0572 33.4727 85.3894V87.0808C33.4727 87.8499 34.0961 88.4733 34.8651 88.4733H86.1318C86.9008 88.4733 87.5243 87.8499 87.5243 87.0808V85.3894C87.5241 71.0574 77.3611 70.8975 77.3611 70.8975Z" fill="#0B2239"/>
<path d="M87.5259 85.389V87.0809C87.5259 87.8495 86.9021 88.4733 86.1334 88.4733H68.1094C74.3197 86.8609 78.9051 81.2186 78.9051 74.5028C78.9051 73.3095 78.7603 72.151 78.4874 71.0425C81.133 71.5701 87.5259 74.0223 87.5259 85.389Z" fill="#0B2239"/>
<path d="M84.7018 75.001H36.2969C36.9903 74.0694 37.7548 73.3496 38.5207 72.7939H82.4779C83.2439 73.3496 84.0083 74.0696 84.7018 75.001Z" fill="#0B2239"/>
<path d="M87.0043 80.2505H33.9961C34.1771 79.4471 34.3985 78.7146 34.6533 78.0435H86.347C86.602 78.7148 86.8234 79.4472 87.0043 80.2505Z" fill="#0B2239"/>
<path d="M87.5254 85.3887V85.5001H33.4727V85.3887C33.4727 84.6535 33.4991 83.9559 33.5506 83.2944H87.4473C87.4989 83.9558 87.5254 84.6534 87.5254 85.3887Z" fill="#0B2239"/>
<path d="M47.111 122.103H33.4727V99.1039C33.4727 98.3348 34.0961 97.7114 34.8651 97.7114H45.7186C46.4877 97.7114 47.1111 98.3348 47.1111 99.1039V122.103H47.111Z" fill="#0B2239"/>
<path d="M67.3176 99.1029V122.102H53.6797V99.1029C53.6797 98.3343 54.3021 97.7104 55.0722 97.7104H65.925C66.6951 97.7104 67.3176 98.3343 67.3176 99.1029Z" fill="#0B2239"/>
<path d="M67.3175 99.1029V103.268C66.7758 104.354 65.652 105.1 64.3543 105.1C64.0396 105.1 63.7347 105.056 63.4464 104.974C63.2778 106.644 61.8673 107.949 60.1519 107.949C58.4364 107.949 57.0258 106.644 56.8559 104.974C56.5676 105.056 56.2642 105.1 55.9494 105.1C55.0709 105.1 54.2716 104.759 53.6797 104.198V99.1029C53.6797 98.3343 54.3021 97.7104 55.0722 97.7104H65.925C66.695 97.7104 67.3175 98.3343 67.3175 99.1029Z" fill="#0B2239"/>
<path d="M67.3 99.1029V122.102H56.2383C61.1454 117.71 64.2338 111.329 64.2338 104.226C64.2338 101.967 63.9218 99.7825 63.3385 97.7104H65.9075C66.676 97.7104 67.3 98.3343 67.3 99.1029Z" fill="#0B2239"/>
<path d="M87.525 122.103H73.8867V99.1039C73.8867 98.3348 74.5101 97.7114 75.2792 97.7114H86.1327C86.9017 97.7114 87.5251 98.3348 87.5251 99.1039V122.103H87.525Z" fill="#0B2239"/>
<path d="M64.5513 96.1581V91.8041C66.2886 91.7021 67.6662 90.2613 67.6662 88.4984C67.6662 86.6691 66.1833 85.1863 64.3541 85.1863C64.0393 85.1863 63.7352 85.2312 63.4466 85.3132C63.2779 83.6422 61.867 82.3379 60.1514 82.3379C58.4359 82.3379 57.025 83.6422 56.8563 85.3132C56.5677 85.2312 56.2636 85.1863 55.9488 85.1863C54.1196 85.1863 52.6367 86.6692 52.6367 88.4984C52.6367 90.2613 54.0143 91.7019 55.7516 91.8041V96.1581C54.0143 96.2602 52.6367 97.7009 52.6367 99.4639C52.6367 101.293 54.1196 102.776 55.9488 102.776C56.2636 102.776 56.5677 102.731 56.8563 102.649C57.025 104.32 58.4359 105.624 60.1514 105.624C61.867 105.624 63.2779 104.32 63.4466 102.649C63.7352 102.731 64.0393 102.776 64.3541 102.776C66.1833 102.776 67.6662 101.293 67.6662 99.4639C67.6662 97.7009 66.2887 96.2602 64.5513 96.1581Z" fill="white"/>
<path d="M60.154 97.177C59.2621 97.177 58.5391 96.454 58.5391 95.5621V92.3996C58.5391 91.5077 59.2621 90.7847 60.154 90.7847C61.0459 90.7847 61.7689 91.5077 61.7689 92.3996V95.5621C61.7689 96.454 61.0459 97.177 60.154 97.177Z" fill="#0B2239"/>
<path d="M67.6673 99.4637C67.6673 101.293 66.1843 102.776 64.3546 102.776C64.0399 102.776 63.735 102.73 63.4467 102.648C63.2781 104.319 61.8676 105.624 60.1522 105.624C58.9964 105.624 57.9786 105.032 57.3867 104.134C61.4681 103.558 64.7083 100.365 65.3544 96.3057C66.6954 96.7289 67.6673 97.9835 67.6673 99.4637Z" fill="#CED7DD"/>
<path d="M47.1125 99.1029V122.102H36.0508C40.9579 117.71 44.0463 111.329 44.0463 104.226C44.0463 101.967 43.7343 99.7825 43.1509 97.7104H45.72C46.4886 97.7104 47.1125 98.3343 47.1125 99.1029Z" fill="#0B2239"/>
<path d="M87.5265 99.1029V122.102H76.4648C81.3719 117.71 84.4604 111.329 84.4604 104.226C84.4604 101.967 84.1484 99.7825 83.565 97.7104H86.134C86.9027 97.7104 87.5265 98.3343 87.5265 99.1029Z" fill="#0B2239"/>
<path d="M47.1119 99.1029V102.357C47.1119 101.588 46.4881 100.965 45.7194 100.965H34.8651C34.0965 100.965 33.4727 101.588 33.4727 102.357V99.1029C33.4727 98.3343 34.0965 97.7104 34.8651 97.7104H45.7194C46.4881 97.7104 47.1119 98.3343 47.1119 99.1029Z" fill="#0B2239"/>
<path d="M87.5259 99.1029V102.357C87.5259 101.588 86.9021 100.965 86.1335 100.965H75.2792C74.5105 100.965 73.8867 101.588 73.8867 102.357V99.1029C73.8867 98.3343 74.5105 97.7104 75.2792 97.7104H86.1335C86.902 97.7104 87.5259 98.3343 87.5259 99.1029Z" fill="#0B2239"/>
<path d="M78.8991 75.001C78.9061 74.8354 78.9088 74.6696 78.9088 74.5024C78.9088 73.9246 78.8755 73.3536 78.8086 72.7939H82.4833C83.2477 73.3509 84.0122 74.0694 84.7042 75.001H78.8991Z" fill="#0B2239"/>
<path d="M87.004 80.2505H77.7148C78.0239 79.5431 78.276 78.8052 78.4682 78.0435H86.3467C86.6016 78.7148 86.823 79.4472 87.004 80.2505Z" fill="#0B2239"/>
<path d="M87.5278 85.3887V85.5001H73.8203C74.5959 84.8415 75.3005 84.1021 75.9201 83.2944H87.4497C87.5013 83.9558 87.5278 84.6534 87.5278 85.3887Z" fill="#0B2239"/>
<path d="M47.0792 88.4729H34.8661C34.097 88.4729 33.4736 87.8495 33.4736 87.0804V85.3887C33.4736 84.7752 33.4923 84.1881 33.5282 83.6258C33.6469 81.7619 32.1754 80.1831 30.3077 80.1831C28.6279 80.1831 27.229 81.4706 27.0899 83.1447C27.0311 83.851 27 84.5982 27 85.3888V88.8109C27 91.4268 29.1206 93.5473 31.7363 93.5473H47.0182C48.3939 93.5473 49.5655 92.4775 49.6145 91.1027C49.6659 89.6592 48.5111 88.4729 47.0792 88.4729Z" fill="#FFC926"/>
<path d="M85.5249 88.4731H72.084C70.6827 88.4731 69.5469 89.609 69.5469 91.0102C69.5469 92.4115 70.6827 93.5473 72.084 93.5473H85.5249C86.9262 93.5473 88.062 92.4115 88.062 91.0102C88.062 89.609 86.926 88.4731 85.5249 88.4731Z" fill="#FFC926"/>
</g>
</g>
<defs>
<clipPath id="clip0_622_55482">
<rect width="122" height="122" fill="white"/>
</clipPath>
<clipPath id="clip1_622_55482">
<rect width="67" height="67" fill="white" transform="translate(27 63)"/>
</clipPath>
</defs>
</svg>
