<svg width="120" height="120" viewBox="0 0 120 120" fill="none" xmlns="http://www.w3.org/2000/svg">
<g clip-path="url(#clip0_622_55429)">
<path d="M86 2H34C29.5817 2 26 5.58172 26 10V110C26 114.418 29.5817 118 34 118H86C90.4183 118 94 114.418 94 110V10C94 5.58172 90.4183 2 86 2Z" fill="#CED7DD"/>
<path d="M42 2H78V8C78 9.06087 77.5786 10.0783 76.8284 10.8284C76.0783 11.5786 75.0609 12 74 12H46C44.9391 12 43.9217 11.5786 43.1716 10.8284C42.4214 10.0783 42 9.06087 42 8V2Z" fill="#373644"/>
<path d="M86 120H34C31.3488 119.997 28.8071 118.942 26.9324 117.068C25.0578 115.193 24.0032 112.651 24 110V10C24.0032 7.34881 25.0578 4.80712 26.9324 2.93244C28.8071 1.05776 31.3488 0.00317572 34 0L86 0C88.6512 0.00317572 91.1929 1.05776 93.0676 2.93244C94.9422 4.80712 95.9968 7.34881 96 10V110C95.9968 112.651 94.9422 115.193 93.0676 117.068C91.1929 118.942 88.6512 119.997 86 120ZM34 4C32.4087 4 30.8826 4.63214 29.7574 5.75736C28.6321 6.88258 28 8.4087 28 10V110C28 111.591 28.6321 113.117 29.7574 114.243C30.8826 115.368 32.4087 116 34 116H86C87.5913 116 89.1174 115.368 90.2426 114.243C91.3679 113.117 92 111.591 92 110V10C92 8.4087 91.3679 6.88258 90.2426 5.75736C89.1174 4.63214 87.5913 4 86 4H34Z" fill="#0B2239"/>
<path d="M116 38.8125V93.1875C116 93.6682 115.809 94.1292 115.47 94.4691C115.13 94.809 114.67 95 114.19 95H103.147C102.723 94.9936 102.314 94.8405 101.99 94.5665C101.667 94.2926 101.448 93.9148 101.371 93.4974C101.028 91.87 100.137 90.4101 98.8468 89.3623C97.5568 88.3145 95.9461 87.7427 94.2849 87.7427C92.6237 87.7427 91.0131 88.3145 89.723 89.3623C88.4329 90.4101 87.5418 91.87 87.1992 93.4974C87.1223 93.9148 86.9033 94.2926 86.5795 94.5665C86.2557 94.8405 85.8471 94.9936 85.4233 95H12.8103C12.3302 95 11.8697 94.809 11.5302 94.4691C11.1907 94.1292 11 93.6682 11 93.1875V38.8125C11 38.3318 11.1907 37.8708 11.5302 37.5309C11.8697 37.191 12.3302 37 12.8103 37H85.4052C85.829 37.0064 86.2376 37.1595 86.5614 37.4335C86.8852 37.7074 87.1042 38.0852 87.1811 38.5026C87.5237 40.13 88.4148 41.5899 89.7049 42.6377C90.995 43.6855 92.6056 44.2573 94.2668 44.2573C95.928 44.2573 97.5387 43.6855 98.8287 42.6377C100.119 41.5899 101.01 40.13 101.353 38.5026C101.43 38.0822 101.652 37.702 101.979 37.4278C102.307 37.1535 102.72 37.0022 103.147 37H114.19C114.67 37 115.13 37.191 115.47 37.5309C115.809 37.8708 116 38.3318 116 38.8125Z" fill="#539415"/>
<path d="M118 30V90C118 90.5304 117.789 91.0391 117.414 91.4142C117.039 91.7893 116.53 92 116 92H103.8C103.332 91.993 102.88 91.824 102.523 91.5217C102.165 91.2194 101.923 90.8025 101.838 90.342C101.459 88.5463 100.475 86.9352 99.0499 85.7791C97.6246 84.6229 95.8452 83.992 94.01 83.992C92.1748 83.992 90.3954 84.6229 88.9701 85.7791C87.5449 86.9352 86.5605 88.5463 86.182 90.342C86.097 90.8025 85.855 91.2194 85.4973 91.5217C85.1396 91.824 84.6883 91.993 84.22 92H4C3.46957 92 2.96086 91.7893 2.58579 91.4142C2.21071 91.0391 2 90.5304 2 90V30C2 29.4696 2.21071 28.9609 2.58579 28.5858C2.96086 28.2107 3.46957 28 4 28H84.2C84.6683 28.007 85.1196 28.176 85.4773 28.4783C85.8351 28.7806 86.077 29.1975 86.162 29.658C86.5405 31.4537 87.5249 33.0648 88.9501 34.2209C90.3754 35.3771 92.1548 36.008 93.99 36.008C95.8252 36.008 97.6046 35.3771 99.0299 34.2209C100.455 33.0648 101.439 31.4537 101.818 29.658C101.904 29.1941 102.149 28.7747 102.51 28.472C102.872 28.1693 103.328 28.0024 103.8 28H116C116.53 28 117.039 28.2107 117.414 28.5858C117.789 28.9609 118 29.4696 118 30Z" fill="#FFC926"/>
<path d="M68 8H60C59.4696 8 58.9609 7.78929 58.5858 7.41421C58.2107 7.03914 58 6.53043 58 6C58 5.46957 58.2107 4.96086 58.5858 4.58579C58.9609 4.21071 59.4696 4 60 4H68C68.5304 4 69.0391 4.21071 69.4142 4.58579C69.7893 4.96086 70 5.46957 70 6C70 6.53043 69.7893 7.03914 69.4142 7.41421C69.0391 7.78929 68.5304 8 68 8Z" fill="#0B2239"/>
<path d="M52 8C51.4696 8 50.9609 7.78929 50.5858 7.41421C50.2107 7.03914 50 6.53043 50 6C50 5.46957 50.2107 4.96086 50.5858 4.58579C50.9609 4.21071 51.4696 4 52 4C52.5304 4 53.0391 4.21071 53.4142 4.58579C53.7893 4.96086 54 5.46957 54 6C54 6.53043 53.7893 7.03914 53.4142 7.41421C53.0391 7.78929 52.5304 8 52 8Z" fill="#0B2239"/>
<path d="M34 14C33.4696 14 32.9609 13.7893 32.5858 13.4142C32.2107 13.0391 32 12.5304 32 12V10C32 9.46957 32.2107 8.96086 32.5858 8.58579C32.9609 8.21071 33.4696 8 34 8C34.5304 8 35.0391 8.21071 35.4142 8.58579C35.7893 8.96086 36 9.46957 36 10V12C36 12.5304 35.7893 13.0391 35.4142 13.4142C35.0391 13.7893 34.5304 14 34 14Z" fill="white"/>
<path d="M86 14C85.4696 14 84.9609 13.7893 84.5858 13.4142C84.2107 13.0391 84 12.5304 84 12V10C84 9.46957 84.2107 8.96086 84.5858 8.58579C84.9609 8.21071 85.4696 8 86 8C86.5304 8 87.0391 8.21071 87.4142 8.58579C87.7893 8.96086 88 9.46957 88 10V12C88 12.5304 87.7893 13.0391 87.4142 13.4142C87.0391 13.7893 86.5304 14 86 14Z" fill="white"/>
<path d="M72 112H48C47.4696 112 46.9609 111.789 46.5858 111.414C46.2107 111.039 46 110.53 46 110C46 109.47 46.2107 108.961 46.5858 108.586C46.9609 108.211 47.4696 108 48 108H72C72.5304 108 73.0391 108.211 73.4142 108.586C73.7893 108.961 74 109.47 74 110C74 110.53 73.7893 111.039 73.4142 111.414C73.0391 111.789 72.5304 112 72 112Z" fill="#8EADC1"/>
<path d="M94 48C93.4696 48 92.9609 47.7893 92.5858 47.4142C92.2107 47.0391 92 46.5304 92 46V44C92 43.4696 92.2107 42.9609 92.5858 42.5858C92.9609 42.2107 93.4696 42 94 42C94.5304 42 95.0391 42.2107 95.4142 42.5858C95.7893 42.9609 96 43.4696 96 44V46C96 46.5304 95.7893 47.0391 95.4142 47.4142C95.0391 47.7893 94.5304 48 94 48Z" fill="white"/>
<path d="M94 58C93.4696 58 92.9609 57.7893 92.5858 57.4142C92.2107 57.0391 92 56.5304 92 56V54C92 53.4696 92.2107 52.9609 92.5858 52.5858C92.9609 52.2107 93.4696 52 94 52C94.5304 52 95.0391 52.2107 95.4142 52.5858C95.7893 52.9609 96 53.4696 96 54V56C96 56.5304 95.7893 57.0391 95.4142 57.4142C95.0391 57.7893 94.5304 58 94 58Z" fill="white"/>
<path d="M94 68C93.4696 68 92.9609 67.7893 92.5858 67.4142C92.2107 67.0391 92 66.5304 92 66V64C92 63.4696 92.2107 62.9609 92.5858 62.5858C92.9609 62.2107 93.4696 62 94 62C94.5304 62 95.0391 62.2107 95.4142 62.5858C95.7893 62.9609 96 63.4696 96 64V66C96 66.5304 95.7893 67.0391 95.4142 67.4142C95.0391 67.7893 94.5304 68 94 68Z" fill="white"/>
<path d="M94 78C93.4696 78 92.9609 77.7893 92.5858 77.4142C92.2107 77.0391 92 76.5304 92 76V74C92 73.4696 92.2107 72.9609 92.5858 72.5858C92.9609 72.2107 93.4696 72 94 72C94.5304 72 95.0391 72.2107 95.4142 72.5858C95.7893 72.9609 96 73.4696 96 74V76C96 76.5304 95.7893 77.0391 95.4142 77.4142C95.0391 77.7893 94.5304 78 94 78Z" fill="white"/>
<path d="M80 86H12C10.9391 86 9.92172 85.5786 9.17157 84.8284C8.42143 84.0783 8 83.0609 8 82V38C8 36.9391 8.42143 35.9217 9.17157 35.1716C9.92172 34.4214 10.9391 34 12 34H80C80.5304 34 81.0391 34.2107 81.4142 34.5858C81.7893 34.9609 82 35.4696 82 36C82 36.5304 81.7893 37.0391 81.4142 37.4142C81.0391 37.7893 80.5304 38 80 38H12V82H80C80.5304 82 81.0391 82.2107 81.4142 82.5858C81.7893 82.9609 82 83.4696 82 84C82 84.5304 81.7893 85.0392 81.4142 85.4142C81.0391 85.7893 80.5304 86 80 86Z" fill="white"/>
<path d="M61.9989 77.9998C61.4685 77.9997 60.9598 77.7889 60.5849 77.4138L28.5849 45.4138C28.2205 45.0366 28.019 44.5314 28.0235 44.007C28.0281 43.4826 28.2384 42.981 28.6092 42.6102C28.98 42.2394 29.4817 42.029 30.0061 42.0245C30.5305 42.0199 31.0357 42.2215 31.4129 42.5858L63.4129 74.5858C63.6925 74.8655 63.8829 75.2219 63.96 75.6098C64.0372 75.9977 63.9976 76.3998 63.8462 76.7652C63.6949 77.1306 63.4386 77.4429 63.1098 77.6626C62.781 77.8824 62.3944 77.9998 61.9989 77.9998Z" fill="#F0F2F5"/>
<path d="M57 56C55.6155 56 54.2622 55.5895 53.111 54.8203C51.9599 54.0511 51.0627 52.9579 50.5328 51.6788C50.003 50.3997 49.8644 48.9922 50.1345 47.6344C50.4046 46.2765 51.0713 45.0292 52.0503 44.0503C53.0292 43.0713 54.2765 42.4046 55.6344 42.1345C56.9922 41.8644 58.3997 42.003 59.6788 42.5328C60.9579 43.0627 62.0511 43.9599 62.8203 45.111C63.5895 46.2622 64 47.6155 64 49C64 50.8565 63.2625 52.637 61.9498 53.9498C60.637 55.2625 58.8565 56 57 56ZM57 46C56.4067 46 55.8266 46.176 55.3333 46.5056C54.8399 46.8352 54.4554 47.3038 54.2284 47.852C54.0013 48.4001 53.9419 49.0033 54.0576 49.5853C54.1734 50.1672 54.4591 50.7018 54.8787 51.1213C55.2982 51.5409 55.8328 51.8266 56.4147 51.9424C56.9967 52.0581 57.5999 51.9987 58.1481 51.7716C58.6962 51.5446 59.1648 51.1601 59.4944 50.6667C59.8241 50.1734 60 49.5933 60 49C60 48.2044 59.6839 47.4413 59.1213 46.8787C58.5587 46.3161 57.7957 46 57 46Z" fill="#F0F2F5"/>
<path d="M35 78C33.6155 78 32.2622 77.5895 31.111 76.8203C29.9599 76.0511 29.0627 74.9579 28.5328 73.6788C28.003 72.3997 27.8644 70.9922 28.1345 69.6344C28.4046 68.2765 29.0713 67.0292 30.0503 66.0503C31.0292 65.0713 32.2765 64.4046 33.6344 64.1345C34.9922 63.8644 36.3997 64.003 37.6788 64.5328C38.9579 65.0627 40.0511 65.9599 40.8203 67.111C41.5895 68.2622 42 69.6155 42 71C42 72.8565 41.2625 74.637 39.9498 75.9497C38.637 77.2625 36.8565 78 35 78ZM35 68C34.4067 68 33.8266 68.1759 33.3333 68.5056C32.8399 68.8352 32.4554 69.3038 32.2284 69.852C32.0013 70.4001 31.9419 71.0033 32.0576 71.5853C32.1734 72.1672 32.4591 72.7018 32.8787 73.1213C33.2982 73.5409 33.8328 73.8266 34.4147 73.9424C34.9967 74.0581 35.5999 73.9987 36.1481 73.7716C36.6962 73.5446 37.1648 73.1601 37.4944 72.6667C37.8241 72.1734 38 71.5933 38 71C38 70.2044 37.6839 69.4413 37.1213 68.8787C36.5587 68.3161 35.7957 68 35 68Z" fill="#F0F2F5"/>
</g>
<defs>
<clipPath id="clip0_622_55429">
<rect width="120" height="120" fill="white"/>
</clipPath>
</defs>
</svg>
