<svg width="120" height="120" viewBox="0 0 120 120" fill="none" xmlns="http://www.w3.org/2000/svg">
<path d="M62.7272 117.273H2.72719C1.09102 117.273 0 116.182 0 114.546V109.091C0 107.455 1.09102 106.364 2.72719 106.364H62.7272C64.3636 106.364 65.4544 107.455 65.4544 109.091V114.546C65.4546 116.182 64.3636 117.273 62.7272 117.273Z" fill="#FFC926"/>
<path d="M51.8182 109.091H0C0 107.455 1.09102 106.364 2.72719 106.364H51.8182V109.091Z" fill="#FFC926"/>
<path d="M51.8182 109.091V111.818C51.8182 113.455 50.7272 114.545 49.091 114.545H0C0 116.182 1.09102 117.273 2.72719 117.273H49.0908H62.7272C64.3636 117.273 65.4544 116.182 65.4544 114.545V109.091L51.8182 109.091Z" fill="#F19920"/>
<path d="M8.18031 114.545V110.454C8.18031 109.636 7.63492 109.091 6.81672 109.091C5.99852 109.091 5.45312 109.636 5.45312 110.454V114.545" fill="#F19920"/>
<path d="M16.3639 114.545V110.454C16.3639 109.636 15.8185 109.091 15.0003 109.091C14.1821 109.091 13.6367 109.636 13.6367 110.454V114.545" fill="#F19920"/>
<path d="M24.5436 114.545V110.454C24.5436 109.636 23.9982 109.091 23.18 109.091C22.3618 109.091 21.8164 109.636 21.8164 110.454V114.545" fill="#F19920"/>
<path d="M32.7272 114.545V110.454C32.7272 109.636 32.1818 109.091 31.3636 109.091C30.5454 109.091 30 109.636 30 110.454V114.545" fill="#F19920"/>
<path d="M40.9108 114.545V110.454C40.9108 109.636 40.3654 109.091 39.5472 109.091C38.729 109.091 38.1836 109.636 38.1836 110.454V114.545" fill="#F19920"/>
<path d="M49.0905 114.545V110.454C49.0905 109.636 48.5451 109.091 47.7269 109.091C46.9087 109.091 46.3633 109.636 46.3633 110.454V114.545" fill="#F19920"/>
<path d="M68.1803 106.364H8.18031C6.54391 106.364 5.45312 105.273 5.45312 103.636V98.1818C5.45312 96.5454 6.54414 95.4546 8.18031 95.4546H68.1803C69.8167 95.4546 70.9075 96.5456 70.9075 98.1818V103.636C70.9075 105.273 69.8167 106.364 68.1803 106.364Z" fill="#FFC926"/>
<path d="M57.2713 98.1818H5.45312C5.45312 96.5454 6.54414 95.4546 8.18031 95.4546H57.2713V98.1818Z" fill="#FFC926"/>
<path d="M57.2713 98.1819V100.909C57.2713 102.545 56.1803 103.636 54.5441 103.636H5.45312C5.45312 105.273 6.54414 106.363 8.18031 106.363H54.5439H68.1803C69.8167 106.363 70.9075 105.272 70.9075 103.636V98.1816H57.2713V98.1819Z" fill="#F19920"/>
<path d="M13.6334 103.636V99.5452C13.6334 98.727 13.088 98.1816 12.2698 98.1816C11.4516 98.1816 10.9062 98.727 10.9062 99.5452V103.636" fill="#F19920"/>
<path d="M21.817 103.636V99.5452C21.817 98.727 21.2716 98.1816 20.4534 98.1816C19.6352 98.1816 19.0898 98.727 19.0898 99.5452V103.636" fill="#F19920"/>
<path d="M29.9967 103.636V99.5452C29.9967 98.727 29.4513 98.1816 28.6331 98.1816C27.8149 98.1816 27.2695 98.727 27.2695 99.5452V103.636" fill="#F19920"/>
<path d="M38.1803 103.636V99.5452C38.1803 98.727 37.6349 98.1816 36.8167 98.1816C35.9985 98.1816 35.4531 98.727 35.4531 99.5452V103.636" fill="#F19920"/>
<path d="M46.3639 103.636V99.5452C46.3639 98.727 45.8185 98.1816 45.0003 98.1816C44.1821 98.1816 43.6367 98.727 43.6367 99.5452V103.636" fill="#F19920"/>
<path d="M54.5436 103.636V99.5452C54.5436 98.727 53.9982 98.1816 53.18 98.1816C52.3618 98.1816 51.8164 98.727 51.8164 99.5452V103.636" fill="#F19920"/>
<path d="M73.6373 84.5452H13.6373C12.0009 84.5452 10.9102 83.4542 10.9102 81.818V76.3634C10.9102 74.727 12.0012 73.6362 13.6373 73.6362H73.6373C75.2738 73.6362 76.3645 74.7272 76.3645 76.3634V81.818C76.3645 83.4544 75.2738 84.5452 73.6373 84.5452Z" fill="#FFC926"/>
<path d="M62.7284 76.3634H10.9102C10.9102 74.727 12.0012 73.6362 13.6373 73.6362H62.7284V76.3634Z" fill="#FFC926"/>
<path d="M62.7284 76.3635V79.0907C62.7284 80.7271 61.6373 81.8179 60.0012 81.8179H10.9102C10.9102 83.4543 12.0012 84.5451 13.6373 84.5451H60.0012H73.6376C75.274 84.5451 76.3648 83.4541 76.3648 81.8179V76.3633H62.7284V76.3635Z" fill="#F19920"/>
<path d="M19.0905 81.8179V77.7269C19.0905 76.9087 18.5451 76.3633 17.7269 76.3633C16.9087 76.3633 16.3633 76.9087 16.3633 77.7269V81.8179" fill="#F19920"/>
<path d="M27.2741 81.8179V77.7269C27.2741 76.9087 26.7287 76.3633 25.9105 76.3633C25.0923 76.3633 24.5469 76.9087 24.5469 77.7269V81.8179" fill="#F19920"/>
<path d="M35.4577 81.8179V77.7269C35.4577 76.9087 34.9123 76.3633 34.0941 76.3633C33.2759 76.3633 32.7305 76.9087 32.7305 77.7269V81.8179" fill="#F19920"/>
<path d="M43.6373 81.8179V77.7269C43.6373 76.9087 43.092 76.3633 42.2737 76.3633C41.4555 76.3633 40.9102 76.9087 40.9102 77.7269V81.8179" fill="#F19920"/>
<path d="M51.8209 81.8179V77.7269C51.8209 76.9087 51.2755 76.3633 50.4573 76.3633C49.6391 76.3633 49.0938 76.9087 49.0938 77.7269V81.8179" fill="#F19920"/>
<path d="M60.0006 81.8179V77.7269C60.0006 76.9087 59.4552 76.3633 58.637 76.3633C57.8188 76.3633 57.2734 76.9087 57.2734 77.7269V81.8179" fill="#F19920"/>
<path d="M68.1803 73.6365H8.18031C6.54391 73.6365 5.45312 72.5455 5.45312 70.9093V65.4547C5.45312 63.8183 6.54414 62.7275 8.18031 62.7275H68.1803C69.8167 62.7275 70.9075 63.8186 70.9075 65.4547V70.9093C70.9075 72.5455 69.8167 73.6365 68.1803 73.6365Z" fill="#FFC926"/>
<path d="M57.2713 65.4547H5.45312C5.45312 63.8183 6.54414 62.7275 8.18031 62.7275H57.2713V65.4547Z" fill="#FFC926"/>
<path d="M57.2713 65.4548V68.182C57.2713 69.8184 56.1803 70.9092 54.5441 70.9092H5.45312C5.45312 72.5456 6.54414 73.6364 8.18031 73.6364H54.5439H68.1803C69.8167 73.6364 70.9075 72.5454 70.9075 70.9092V65.4546H57.2713V65.4548Z" fill="#F19920"/>
<path d="M13.6334 70.9092V66.8182C13.6334 66 13.088 65.4546 12.2698 65.4546C11.4516 65.4546 10.9062 66 10.9062 66.8182V70.9092" fill="#F19920"/>
<path d="M21.817 70.9092V66.8182C21.817 66 21.2716 65.4546 20.4534 65.4546C19.6352 65.4546 19.0898 66 19.0898 66.8182V70.9092" fill="#F19920"/>
<path d="M29.9967 70.9092V66.8182C29.9967 66 29.4513 65.4546 28.6331 65.4546C27.8149 65.4546 27.2695 66 27.2695 66.8182V70.9092" fill="#F19920"/>
<path d="M38.1803 70.9092V66.8182C38.1803 66 37.6349 65.4546 36.8167 65.4546C35.9985 65.4546 35.4531 66 35.4531 66.8182V70.9092" fill="#F19920"/>
<path d="M46.3639 70.9092V66.8182C46.3639 66 45.8185 65.4546 45.0003 65.4546C44.1821 65.4546 43.6367 66 43.6367 66.8182V70.9092" fill="#F19920"/>
<path d="M54.5436 70.9092V66.8182C54.5436 66 53.9982 65.4546 53.18 65.4546C52.3618 65.4546 51.8164 66 51.8164 66.8182V70.9092" fill="#F19920"/>
<path d="M62.7272 95.4546H2.72719C1.09102 95.4546 0 94.3636 0 92.7272V87.2726C0 85.6362 1.09102 84.5454 2.72719 84.5454H62.7272C64.3636 84.5454 65.4544 85.6364 65.4544 87.2726V92.7272C65.4546 94.3636 64.3636 95.4546 62.7272 95.4546Z" fill="#FFC926"/>
<path d="M51.8182 87.2726H0C0 85.6362 1.09102 84.5454 2.72719 84.5454H51.8182V87.2726Z" fill="#FFC926"/>
<path d="M51.8182 87.2727V89.9999C51.8182 91.6363 50.7272 92.7271 49.091 92.7271H0C0 94.3635 1.09102 95.4543 2.72719 95.4543H49.0908H62.7272C64.3636 95.4543 65.4544 94.3632 65.4544 92.7271V87.2725H51.8182V87.2727Z" fill="#F19920"/>
<path d="M8.18031 92.7271V88.6361C8.18031 87.8178 7.63492 87.2725 6.81672 87.2725C5.99852 87.2725 5.45312 87.8178 5.45312 88.6361V92.7271" fill="#F19920"/>
<path d="M16.3639 92.7271V88.6361C16.3639 87.8178 15.8185 87.2725 15.0003 87.2725C14.1821 87.2725 13.6367 87.8178 13.6367 88.6361V92.7271" fill="#F19920"/>
<path d="M24.5436 92.7271V88.6361C24.5436 87.8178 23.9982 87.2725 23.18 87.2725C22.3618 87.2725 21.8164 87.8178 21.8164 88.6361V92.7271" fill="#F19920"/>
<path d="M32.7272 92.7271V88.6361C32.7272 87.8178 32.1818 87.2725 31.3636 87.2725C30.5454 87.2725 30 87.8178 30 88.6361V92.7271" fill="#F19920"/>
<path d="M40.9108 92.7271V88.6361C40.9108 87.8178 40.3654 87.2725 39.5472 87.2725C38.729 87.2725 38.1836 87.8178 38.1836 88.6361V92.7271" fill="#F19920"/>
<path d="M49.0905 92.7271V88.6361C49.0905 87.8178 48.5451 87.2725 47.7269 87.2725C46.9087 87.2725 46.3633 87.8178 46.3633 88.6361V92.7271" fill="#F19920"/>
<path d="M114.545 99.5453C111 97.0906 109.091 92.9999 109.091 88.6363C109.091 71.9999 102.545 56.1817 90.8179 44.4545L79.0907 32.7273V24.5455L88.6361 12.5455C89.4545 11.4545 89.9999 10.0909 89.9999 8.72705C89.9999 5.45424 87.2727 2.72705 83.9999 2.72705H73.6363L70.9091 8.18166L65.4545 2.72705H52.3635C49.0907 2.72705 46.3635 5.45424 46.3635 8.72705C46.3635 10.0906 46.9089 11.4542 47.7271 12.5453L57.2725 24.5453V32.7271L45.5453 44.4542C33.8181 56.1814 27.2725 71.9996 27.2725 88.636C27.2725 92.9996 25.3635 97.0907 21.8179 99.545C18.2723 101.999 16.3633 106.09 16.3633 110.454C16.3633 114.272 19.3633 117.272 23.1815 117.272H113.181C117 117.272 120 114.272 120 110.454C120 106.091 118.091 102 114.545 99.5453Z" fill="#384D63"/>
<path d="M114.546 99.5453C111 96.8181 109.091 92.7271 109.091 88.3635C109.364 71.1817 101.455 55.0906 89.4547 42.8181L79.0911 32.7271V24.5453L88.6365 12.5453C90.2729 10.6363 90.5455 7.90885 89.1819 5.45424C88.0909 3.54525 85.9091 2.72705 83.7273 2.72705C81.8183 2.72705 80.7273 4.90885 81.2727 6.54525C81.5455 7.09064 81.818 7.90885 81.818 8.72705C81.818 10.0906 81.2727 11.4542 80.4545 12.5453L70.9091 24.5453V32.7271H57.2727L54.5455 35.4542H73.6365L83.7275 45.5453C94.9093 56.7271 99.2729 71.9999 98.1821 87.5453C97.9093 92.1817 99.8185 96.5453 103.364 99.2724C103.637 99.5453 103.909 99.8178 104.182 99.8178C108.273 104.181 104.728 111.545 98.4549 111.545H16.6367C17.1821 114.545 19.9095 117 23.1821 117H102.273H109.091H113.182C117 117 120 114 120 110.182V109.636C120 105.545 117.819 102 114.546 99.5453Z" fill="#0B2239"/>
<path d="M80.4531 32.727H55.9074C53.7256 32.727 51.8164 30.818 51.8164 28.6359C51.8164 26.4541 53.7254 24.5449 55.9074 24.5449H80.4528C82.6346 24.5449 84.5438 26.4539 84.5438 28.6359C84.5438 30.818 82.6348 32.727 80.4531 32.727Z" fill="#539415"/>
<path d="M80.4534 24.5454H79.0898V27.2726C79.0898 28.909 77.9988 29.9998 76.3627 29.9998H52.0898C52.6352 31.6362 54.2716 32.727 55.908 32.727H80.4534C82.6352 32.727 84.5445 30.818 84.5445 28.636C84.5445 26.4539 82.6352 24.5454 80.4534 24.5454Z" fill="#448308"/>
<path d="M70.9077 32.7271H65.4531V54.5453H70.9077V32.7271Z" fill="#539415"/>
<path d="M65.4531 32.7271V35.4545H68.1803V54.5453H70.9075V35.4545V32.7271H65.4531Z" fill="#448308"/>
<path d="M68.1815 95.4548C80.2313 95.4548 89.9997 85.6864 89.9997 73.6366C89.9997 61.5867 80.2313 51.8184 68.1815 51.8184C56.1316 51.8184 46.3633 61.5867 46.3633 73.6366C46.3633 85.6864 56.1316 95.4548 68.1815 95.4548Z" fill="#448308"/>
<path d="M84.8188 59.7271C88.0916 63.5453 90.0006 68.1817 90.0006 73.6363C90.0006 85.6363 80.1824 95.4545 68.1824 95.4545C62.7278 95.4545 58.0914 93.5455 54.2734 90.2727C58.3645 95.1817 64.3645 98.1817 70.9098 98.1817C82.9098 98.1817 92.728 88.3635 92.728 76.3635C92.7278 69.5453 89.7278 63.5453 84.8188 59.7271Z" fill="#0B2239"/>
<path d="M68.1809 92.7274C78.7245 92.7274 87.2719 84.1801 87.2719 73.6364C87.2719 63.0927 78.7245 54.5454 68.1809 54.5454C57.6372 54.5454 49.0898 63.0927 49.0898 73.6364C49.0898 84.1801 57.6372 92.7274 68.1809 92.7274Z" fill="#539415"/>
<path d="M77.11 78.73C77.11 79.93 76.77 81.02 76.09 82C75.43 82.98 74.46 83.76 73.18 84.34C71.92 84.92 70.41 85.21 68.65 85.21V87.61H67.12V85.15C64.76 84.95 62.84 84.26 61.36 83.08C59.9 81.9 59.1 80.27 58.96 78.19H66.04C66.1 79.07 66.46 79.66 67.12 79.96V76.99L66.43 76.81C64.91 76.39 63.64 75.96 62.62 75.52C61.62 75.08 60.75 74.41 60.01 73.51C59.27 72.59 58.9 71.38 58.9 69.88C58.9 68.56 59.27 67.43 60.01 66.49C60.75 65.53 61.74 64.79 62.98 64.27C64.22 63.75 65.6 63.46 67.12 63.4V61H68.65V63.43C71.07 63.57 72.99 64.23 74.41 65.41C75.83 66.57 76.61 68.19 76.75 70.27H69.58C69.5 69.45 69.19 68.9 68.65 68.62V71.59L69.82 71.95C71.32 72.41 72.55 72.87 73.51 73.33C74.49 73.77 75.33 74.43 76.03 75.31C76.75 76.19 77.11 77.33 77.11 78.73ZM66.04 69.58C66.04 70.12 66.4 70.59 67.12 70.99V68.47C66.4 68.59 66.04 68.96 66.04 69.58ZM68.65 80.14C69.05 80.1 69.37 79.98 69.61 79.78C69.87 79.56 70 79.26 70 78.88C70 78.34 69.55 77.87 68.65 77.47V80.14Z" fill="white"/>
</svg>
