<svg width="120" height="120" viewBox="0 0 120 120" fill="none" xmlns="http://www.w3.org/2000/svg">
<path d="M60.0016 0C60.0016 0 46.2078 16.5517 14.4844 16.5517V56.0379C14.4844 76.6572 23.4389 96.5421 39.6513 109.283C45.3885 113.793 52.1561 117.672 60.0016 120C67.8471 117.672 74.6127 113.793 80.352 109.283C96.5644 96.5421 105.519 76.6572 105.519 56.0379V16.5517C73.7954 16.5517 60.0016 0 60.0016 0Z" fill="#0B2239"/>
<path d="M60.0019 106.885C55.6095 105.162 51.3577 102.695 47.3233 99.5236C34.5329 89.4726 26.8984 73.2167 26.8984 56.0381V28.1961C42.1902 26.245 53.0481 20.9257 60.0019 16.2002V106.885Z" fill="#384D63"/>
<g clip-path="url(#clip0_622_55571)">
<path d="M81.9262 74.8599L42.1332 35.0642C41.5526 34.4837 41.4332 33.5913 41.8279 32.8714C42.7162 31.2516 42.4366 29.3562 41.0857 28.1672C40.8637 27.9717 40.6234 27.8067 40.3707 27.6723C38.9839 26.9341 37.5757 27.7499 37.1819 28.2068C36.2573 29.2797 35.7449 30.5455 36.0151 31.8199C34.7973 31.5616 32.0503 32.8617 31.3694 34.0133C30.8214 34.9399 31.3733 37.2639 32.5314 38.2328C32.7403 38.4076 34.2927 39.5653 35.7791 38.8409C35.8337 38.8143 35.8881 38.7864 35.9419 38.7574C36.6464 38.3769 37.5202 38.5233 38.0862 39.0895L79.0441 78.8881C79.622 79.4659 79.7421 80.3526 79.3544 81.072C78.457 82.7376 78.3333 83.7998 79.089 84.755C80.0324 85.9476 81.384 86.7225 83.2299 86.276C83.4925 86.2124 83.6955 85.9947 83.9065 85.8134C85.0173 84.8597 85.434 83.4344 85.1566 82.1267C86.4684 82.405 87.8989 81.9846 88.8525 80.8655C89.9109 79.6234 90.045 77.8113 89.1951 76.4183C88.098 74.62 85.8627 74.2494 84.0973 75.1773C83.3786 75.5548 82.5002 75.434 81.9262 74.8599Z" fill="white"/>
<path d="M34.4648 37.6174C33.523 36.1463 33.685 34.1912 34.8876 32.9241C35.6158 32.1568 36.5824 31.7615 37.5564 31.7379C37.9944 31.7273 38.3507 31.3833 38.36 30.9453C38.3813 29.9413 38.7976 28.9441 39.609 28.2069C39.8433 27.9941 40.0987 27.8158 40.3685 27.6723C38.9816 26.9342 37.2197 27.1147 36.0177 28.2069C34.9695 29.1593 34.5806 30.5456 34.8509 31.82C33.6013 31.5549 32.2443 31.9236 31.2941 32.9263C30.0961 34.1906 29.9324 36.1392 30.8678 37.6086C31.9472 39.3041 34.0538 39.6807 35.7769 38.841C35.2651 38.5667 34.8122 38.16 34.4648 37.6174Z" fill="#CED7DD"/>
<path d="M82.6802 85.9169C81.1923 84.7465 80.8861 82.7375 81.7835 81.0719C82.1712 80.3525 82.0512 79.4658 81.4733 78.888L41.6774 39.0894C41.1113 38.5232 40.2375 38.3768 39.5331 38.7573C39.1116 38.9849 38.6637 39.1377 38.2109 39.2142L77.8819 78.8879C78.4598 79.4657 78.5798 80.3524 78.1922 81.0718C77.2948 82.7374 77.601 84.7464 79.0888 85.9168C80.284 86.857 81.9259 86.9709 83.2296 86.2758C83.0385 86.1739 82.8546 86.0542 82.6802 85.9169Z" fill="#CED7DD"/>
<path d="M38.0797 74.8602L60.2673 54.9952L79.0347 35.0645C79.6153 34.484 79.7347 33.5915 79.34 32.8717C78.4517 31.2519 77.5693 30.5184 78.9201 29.3295C80.1238 28.2701 81.8592 26.9452 83.2265 27.6725C83.4963 27.816 83.7517 27.9943 83.986 28.2071C85.0341 29.1595 85.4231 30.5458 85.1528 31.8201C86.3706 31.5618 87.6906 31.9056 88.6365 32.8516C90.1225 34.3377 90.1225 36.747 88.6365 38.2331C87.4425 39.4272 85.582 39.5776 84.0639 38.7577C83.3595 38.3772 82.4857 38.5236 81.9197 39.0898L42.1238 78.8882C41.5459 79.4661 41.4258 80.3527 41.8135 81.0721C42.7109 82.7378 42.4047 84.7468 40.9169 85.9172C40.7425 86.0544 40.5584 86.1741 40.3674 86.2761C39.0101 87.0012 38.4578 86.8408 37.2614 85.8135C36.1506 84.8599 35.7339 83.4345 36.0113 82.1269C34.6995 82.4052 31.123 78.9736 31.9728 77.5805C33.0699 75.7821 34.1432 74.2495 35.9086 75.1774C36.6273 75.5551 37.5056 75.4342 38.0797 74.8602Z" fill="white"/>
<path d="M77.8724 35.0643L38.1992 74.7401C38.6447 74.813 39.0851 74.9593 39.4996 75.1772C40.2182 75.5549 41.0966 75.434 41.6708 74.86L81.4636 35.0643C82.0442 34.4838 82.1637 33.5913 81.7689 32.8714C80.8807 31.2516 81.1602 29.3561 82.5111 28.1672C82.7332 27.9717 82.9735 27.8068 83.2261 27.6723C81.8589 26.945 80.1234 27.1078 78.9198 28.1672C77.5689 29.3562 77.2892 31.2517 78.1776 32.8714C78.5724 33.5913 78.453 34.4838 77.8724 35.0643Z" fill="#CED7DD"/>
<path d="M39.6896 85.8138C38.822 85.069 38.3779 84.0365 38.3571 82.9969C38.3485 82.5673 37.9999 82.218 37.5703 82.2094C36.5264 82.1888 35.4894 81.7409 34.7438 80.8661C33.6908 79.6308 33.5516 77.8303 34.3883 76.4394C34.7465 75.8437 35.229 75.4029 35.778 75.1122C34.0254 74.2644 31.8587 74.6679 30.7938 76.4446C29.9605 77.8349 30.1009 79.6322 31.1522 80.8658C32.1058 81.9849 33.5362 82.4052 34.848 82.1269C34.5706 83.4346 34.9873 84.8599 36.0981 85.8136C37.2945 86.8407 39.0089 87.0013 40.3661 86.2761C40.1278 86.1492 39.9006 85.995 39.6896 85.8138Z" fill="#CED7DD"/>
<path d="M80.6887 64.4902C80.6467 67.4087 78.31 69.8351 75.3951 69.9789C73.7371 70.0603 72.2288 69.4186 71.1574 68.3412V74.6416C71.1574 76.333 70.0154 77.8234 68.3742 78.234C67.7421 78.392 67.1088 78.532 66.4768 78.6542C66.4768 78.6542 65.8781 77.6045 65.579 77.6543C65.2839 77.7034 64.6932 78.9521 64.6932 78.9521C63.4279 79.1293 62.1637 79.2359 60.8997 79.2682C60.8997 79.2682 60.3011 78.1196 60.0019 78.1196C59.7027 78.1196 59.1041 79.2682 59.1041 79.2682C57.8399 79.2359 56.5759 79.1293 55.3106 78.9521C55.3106 78.9521 54.72 77.7034 54.4249 77.6543C54.1257 77.6044 53.751 78.5316 53.4516 78.4731C52.8195 78.351 52.2617 77.23 51.6296 77.072C49.9884 76.6614 50.0084 76.333 50.0084 74.6416L48.8464 69.9741V68.3412C48.2477 68.9431 47.558 69.6478 46.6914 69.6889C43.6088 69.8352 40.5121 66.9241 40.4771 64.4902C40.4591 63.2033 40.877 62.0146 41.5916 61.0617C41.0206 59.1787 40.7129 57.182 40.7129 55.1122C40.7129 43.8164 48.7075 34.7772 60.002 34.7772C60.6085 34.7772 61.2088 34.6872 61.8016 34.7384C72.2237 35.6395 80.3739 44.2959 80.4531 54.9566C80.4687 57.0814 80.1598 59.1321 79.5744 61.0617C80.2888 62.0145 80.7067 63.2032 80.6887 64.4902Z" fill="white"/>
<path d="M42.9083 64.4899C42.8899 63.2029 43.3075 62.0142 44.0227 61.0619C43.4511 59.1792 43.1436 57.1816 43.1436 55.1121C43.1436 44.4208 51.3475 35.6457 61.8034 34.7382C61.2105 34.6869 60.6102 34.6606 60.0037 34.6606C48.7087 34.6606 39.5523 43.8172 39.5523 55.1121C39.5523 57.1816 39.8598 59.1792 40.4314 61.0619C39.7161 62.0143 39.2986 63.2029 39.317 64.4899C39.3588 67.4087 41.6954 69.8347 44.6109 69.9788C45.3422 70.0149 46.0445 69.9101 46.6932 69.6892C44.5195 68.9447 42.9426 66.883 42.9083 64.4899Z" fill="#CED7DD"/>
<path d="M55.2217 78.2348C53.5802 77.8242 52.4389 76.3338 52.4389 74.6417V68.3418C51.5085 69.2772 50.2484 69.8843 48.8477 69.9743V74.6416C48.8477 76.3336 49.989 77.8241 51.6305 78.2347C55.0199 79.0826 58.4093 79.4157 61.7987 79.2338C59.6063 79.1162 57.414 78.7833 55.2217 78.2348Z" fill="#CED7DD"/>
<path d="M50.7066 62.4997C53.7871 62.4997 56.2844 60.0025 56.2844 56.922C56.2844 53.8415 53.7871 51.3442 50.7066 51.3442C47.6261 51.3442 45.1289 53.8415 45.1289 56.922C45.1289 60.0025 47.6261 62.4997 50.7066 62.4997Z" fill="#384D63"/>
<path d="M69.2965 62.4997C72.377 62.4997 74.8742 60.0025 74.8742 56.922C74.8742 53.8415 72.377 51.3442 69.2965 51.3442C66.216 51.3442 63.7188 53.8415 63.7188 56.922C63.7188 60.0025 66.216 62.4997 69.2965 62.4997Z" fill="#0B2239"/>
<path d="M60.9011 73.7044V79.2686C60.3026 79.2865 59.704 79.2865 59.1055 79.2686V73.7044C59.1055 73.2088 59.5076 72.8066 60.0033 72.8066C60.499 72.8065 60.9011 73.2087 60.9011 73.7044Z" fill="#0B2239"/>
<path d="M55.323 73.2254V78.8099C55.323 78.859 55.3194 78.9056 55.3111 78.9524C54.7161 78.8686 54.1223 78.7704 53.5273 78.6543V73.2254C53.5273 72.7298 53.9284 72.3276 54.4251 72.3276C54.9207 72.3275 55.323 72.7298 55.323 73.2254Z" fill="#0B2239"/>
<path d="M60.9011 79.2698V79.1736C60.3026 79.1254 59.704 79.0613 59.1055 78.981V79.27C59.704 79.286 60.3026 79.2859 60.9011 79.2698Z" fill="#1F384A"/>
<path d="M55.323 78.2597C55.2892 78.2513 55.2554 78.2429 55.2216 78.2345C54.5624 78.0694 53.9838 77.7304 53.5273 77.2739V78.6552C54.1221 78.7703 54.7169 78.8695 55.3116 78.9528C55.3191 78.9063 55.3229 78.8587 55.3229 78.8101L55.323 78.2597Z" fill="#1F384A"/>
<path d="M66.4754 73.2254V78.6543C65.8804 78.7704 65.2866 78.8686 64.6917 78.9524C64.6833 78.9056 64.6797 78.859 64.6797 78.8099V73.2254C64.6797 72.7298 65.0819 72.3276 65.5775 72.3276C66.0744 72.3275 66.4754 72.7298 66.4754 73.2254Z" fill="#0B2239"/>
<path d="M62.1565 68.1267H57.8511C57.1818 68.1267 56.7826 67.3807 57.1539 66.8239L59.3065 63.5949C59.6382 63.0973 60.3693 63.0973 60.701 63.5949L62.8536 66.8239C63.225 67.3807 62.8259 68.1267 62.1565 68.1267Z" fill="#0B2239"/>
</g>
<defs>
<clipPath id="clip0_622_55571">
<rect width="59.4958" height="59.4958" fill="white" transform="translate(30.2539 27.2271)"/>
</clipPath>
</defs>
</svg>
