<svg width="132" height="120" viewBox="0 0 132 120" fill="none" xmlns="http://www.w3.org/2000/svg">
<g clip-path="url(#clip0_622_55452)">
<path d="M68.8075 80.4286V101.184C68.8075 102.975 67.358 104.428 65.572 104.428H44.8645C43.0784 104.428 41.6289 102.975 41.6289 101.184V80.4286C41.6289 78.6385 43.0784 77.1855 44.8645 77.1855H65.572C67.358 77.1855 68.8075 78.6385 68.8075 80.4286Z" fill="#0B2239"/>
<path d="M68.8081 80.4286V101.184C68.8081 102.975 67.3585 104.428 65.5725 104.428H55.2188V77.1855H65.5725C67.3585 77.1855 68.8081 78.6385 68.8081 80.4286Z" fill="#0B2239"/>
<path d="M100.733 6.27002H9.70665C4.35505 6.27002 0 10.6352 0 15.9993V73.9426C0 79.3067 4.35505 83.6719 9.70665 83.6719H100.733C106.085 83.6719 110.44 79.3067 110.44 73.9426V15.9993C110.44 10.6352 106.085 6.27002 100.733 6.27002Z" fill="#2E4862"/>
<path d="M110.439 15.9993V73.9426C110.439 79.3067 106.084 83.6719 100.732 83.6719H55.2188V6.27002H100.732C106.084 6.27002 110.439 10.6352 110.439 15.9993Z" fill="#0B2239"/>
<path d="M103.971 15.9994V73.9428C103.971 75.7308 102.519 77.1859 100.735 77.1859H9.70821C7.92434 77.1859 6.47266 75.7308 6.47266 73.9428V15.9994C6.47266 14.2114 7.92434 12.7563 9.70821 12.7563H100.735C102.519 12.7563 103.971 14.2114 103.971 15.9994Z" fill="#F9F9F9"/>
<path d="M103.968 15.9994V73.9428C103.968 75.7308 102.516 77.1859 100.732 77.1859H55.2188V12.7563H100.732C102.516 12.7563 103.968 14.2114 103.968 15.9994Z" fill="#CED7DD"/>
<path d="M92.9688 101.185C92.9688 102.975 91.5193 104.428 89.7333 104.428H20.7082C18.9222 104.428 17.4727 102.975 17.4727 101.185C17.4727 99.3943 18.9222 97.9414 20.7082 97.9414H89.7333C91.5193 97.9414 92.9688 99.3943 92.9688 101.185Z" fill="#2E4862"/>
<path d="M92.9668 101.185C92.9668 102.975 91.5173 104.428 89.7313 104.428H55.2188V97.9414H89.7313C91.5173 97.9414 92.9668 99.3943 92.9668 101.185Z" fill="#0B2239"/>
<path d="M117.256 67.9551C113.258 67.9546 109.428 69.5675 106.63 72.4298H89.1898C84.9574 68.1036 78.5346 66.7736 72.9384 69.0644C67.3421 71.3553 63.6845 76.8118 63.6836 82.8709V108.496C63.6863 112.267 66.5951 115.395 70.3475 115.662C74.1 115.93 77.421 113.246 77.9561 109.513L79.6361 97.73C83.2512 97.4725 86.6482 95.9016 89.1898 93.3119H106.63C109.172 95.9021 112.569 97.4736 116.184 97.7315L117.864 109.515C118.399 113.248 121.721 115.932 125.473 115.664C129.226 115.396 132.135 112.267 132.137 108.496V82.8709C132.137 78.915 130.569 75.1211 127.778 72.3238C124.987 69.5266 121.202 67.9551 117.256 67.9551Z" fill="#0B2239"/>
<path d="M83.03 81.379H80.0538V78.3959C80.0538 77.5721 79.3876 76.9043 78.5657 76.9043C77.7439 76.9043 77.0776 77.5721 77.0776 78.3959V81.379H74.1014C73.2795 81.379 72.6133 82.0468 72.6133 82.8706C72.6133 83.6944 73.2795 84.3622 74.1014 84.3622H77.0776V87.3454C77.0776 88.1691 77.7439 88.8369 78.5657 88.8369C79.3876 88.8369 80.0538 88.1691 80.0538 87.3454V84.3622H83.03C83.8519 84.3622 84.5182 83.6944 84.5182 82.8706C84.5182 82.0468 83.8519 81.379 83.03 81.379Z" fill="#E0E8EE"/>
<path d="M117.258 90.3283C116.436 90.3283 115.77 89.6605 115.77 88.8367V87.3451C115.77 86.5213 116.436 85.8535 117.258 85.8535C118.08 85.8535 118.746 86.5213 118.746 87.3451V88.8367C118.746 89.6605 118.08 90.3283 117.258 90.3283Z" fill="#539415"/>
<path d="M117.258 79.8873C116.436 79.8873 115.77 79.2195 115.77 78.3958V76.9042C115.77 76.0804 116.436 75.4126 117.258 75.4126C118.08 75.4126 118.746 76.0804 118.746 76.9042V78.3958C118.746 79.2195 118.08 79.8873 117.258 79.8873Z" fill="#539415"/>
<path d="M123.211 84.3616H121.722C120.901 84.3616 120.234 83.6938 120.234 82.87C120.234 82.0462 120.901 81.3784 121.722 81.3784H123.211C124.032 81.3784 124.699 82.0462 124.699 82.87C124.699 83.6938 124.032 84.3616 123.211 84.3616Z" fill="#539415"/>
<path d="M112.793 84.3616H111.305C110.483 84.3616 109.816 83.6938 109.816 82.87C109.816 82.0462 110.483 81.3784 111.305 81.3784H112.793C113.614 81.3784 114.281 82.0462 114.281 82.87C114.281 83.6938 113.614 84.3616 112.793 84.3616Z" fill="#539415"/>
<path d="M94.9331 79.8875H91.9569C91.135 79.8875 90.4688 79.2197 90.4688 78.3959C90.4688 77.5721 91.135 76.9043 91.9569 76.9043H94.9331C95.7549 76.9043 96.4212 77.5721 96.4212 78.3959C96.4212 79.2197 95.7549 79.8875 94.9331 79.8875Z" fill="#FFCD36"/>
<path d="M103.863 79.8875H100.887C100.065 79.8875 99.3984 79.2197 99.3984 78.3959C99.3984 77.5721 100.065 76.9043 100.887 76.9043H103.863C104.685 76.9043 105.351 77.5721 105.351 78.3959C105.351 79.2197 104.685 79.8875 103.863 79.8875Z" fill="#FFCD36"/>
<path d="M78.5673 60.0932H31.2514C27.9466 60.0932 25.2578 57.4044 25.2578 54.0991V33.4492C25.2578 30.1443 27.9466 27.4556 31.2514 27.4556H78.5673C81.8726 27.4556 84.5614 30.1443 84.5614 33.4492V54.0991C84.5614 57.4044 81.8726 60.0932 78.5673 60.0932Z" fill="#0B2239"/>
<path d="M31.2514 27.4556C27.9466 27.4556 25.2578 30.1443 25.2578 33.4492V54.0991C25.2578 57.4044 27.9466 60.0932 31.2514 60.0932H54.9094V27.4556H31.2514Z" fill="#193856"/>
<path d="M40.8616 49.3202H36.0431V36.4332C36.0431 35.4417 35.2391 34.6382 34.2481 34.6382C33.2567 34.6382 32.4531 35.4417 32.4531 36.4332V51.1152C32.4531 52.1067 33.2567 52.9102 34.2481 52.9102H40.8616C41.8525 52.9102 42.6566 52.1067 42.6566 51.1152C42.6566 50.1242 41.8525 49.3202 40.8616 49.3202Z" fill="#FFCD36"/>
<path d="M46.4239 34.6382C45.4329 34.6382 44.6289 35.4417 44.6289 36.4332V51.1152C44.6289 52.1067 45.4329 52.9102 46.4239 52.9102C47.4154 52.9102 48.2189 52.1067 48.2189 51.1152V36.4332C48.2189 35.4417 47.4154 34.6382 46.4239 34.6382Z" fill="#FFCD36"/>
<path d="M58.8875 51.6342L63.3203 36.9522C63.6068 36.0028 63.0697 35.0015 62.1208 34.715C61.1719 34.4279 60.1702 34.9655 59.8836 35.9144L57.1696 44.9048L54.4552 35.9144C54.1686 34.965 53.1664 34.4284 52.218 34.715C51.269 35.0015 50.732 36.0028 51.0185 36.9522L55.4513 51.6342C55.9473 53.0576 58.4102 53.1674 58.8875 51.6342Z" fill="#FFCD36"/>
<path d="M75.3306 49.3202H69.2697V44.6448H74.3634C75.3549 44.6448 76.1584 43.8408 76.1584 42.8498C76.1584 41.8584 75.3549 41.0548 74.3634 41.0548H69.2697V38.2282H75.5723C76.5637 38.2282 77.3673 37.4242 77.3673 36.4332C77.3673 35.4417 76.5637 34.6382 75.5723 34.6382H67.4747C66.4832 34.6382 65.6797 35.4417 65.6797 36.4332V51.1152C65.6797 52.1067 66.4832 52.9102 67.4747 52.9102H75.3306C76.3216 52.9102 77.1256 52.1067 77.1256 51.1152C77.1256 50.1242 76.322 49.3202 75.3306 49.3202Z" fill="#FFCD36"/>
<path d="M54.4552 35.9143C54.1686 34.9649 53.1664 34.4283 52.218 34.7148C51.269 35.0014 50.732 36.0026 51.0185 36.952L54.91 49.8428V37.4218L54.4552 35.9143Z" fill="#FFCD36"/>
</g>
<defs>
<clipPath id="clip0_622_55452">
<rect width="131.786" height="120" fill="white"/>
</clipPath>
</defs>
</svg>
