<svg width="76" height="37" viewBox="0 0 76 37" fill="none" xmlns="http://www.w3.org/2000/svg">
<path d="M30.4328 9.57153L26.5703 32.1011H32.7477L36.6133 9.57153H30.4328Z" fill="white"/>
<path d="M21.3895 9.59654L15.3392 24.961L14.6941 22.6411C13.5009 19.8458 10.1136 15.8314 6.13672 13.3014L11.669 32.0897L18.2055 32.0787L27.9338 9.5918L21.3895 9.59654Z" fill="white"/>
<path d="M12.3484 11.209C11.9893 9.83664 10.9486 9.42762 9.6569 9.37866H0.0794414L0 9.82717C7.45319 11.6244 12.3849 15.9546 14.4313 21.1614L12.3484 11.209Z" fill="white"/>
<path d="M49.1293 13.8907C51.1503 13.8591 52.6152 14.2982 53.7528 14.753L54.3105 15.0136L55.1462 10.1305C53.9228 9.67414 52.0051 9.18457 49.6123 9.18457C43.5081 9.18457 39.2055 12.2404 39.1722 16.6197C39.1324 19.8555 42.237 21.6622 44.5821 22.7408C46.9892 23.8463 47.7963 24.5491 47.7852 25.5361C47.7661 27.0443 45.8659 27.736 44.0912 27.736C41.6174 27.736 40.3034 27.3964 38.2745 26.5563L37.4785 26.1962L36.6094 31.2387C38.0552 31.8689 40.7229 32.4105 43.4922 32.439C49.9857 32.439 54.2056 29.4195 54.2501 24.7401C54.2771 22.1802 52.6295 20.2267 49.0594 18.6237C46.8986 17.5783 45.5767 16.8834 45.5894 15.8285C45.5894 14.892 46.7111 13.8907 49.1293 13.8907Z" fill="white"/>
<path d="M71.0019 9.59668H66.2291C64.7467 9.59668 63.644 9.99781 62.9926 11.4665L53.8203 32.1136H60.3075C60.3075 32.1136 61.3657 29.3373 61.6056 28.7292C62.3158 28.7292 68.6187 28.7387 69.5163 28.7387C69.7006 29.5252 70.2695 32.1136 70.2695 32.1136H76.0004L71.0019 9.59668ZM63.3835 24.1178C63.8919 22.8244 65.8446 17.8214 65.8446 17.8214C65.8112 17.883 66.3482 16.5185 66.6676 15.6705L67.0838 17.6129C67.0838 17.6129 68.2675 22.9918 68.5154 24.1178H63.3835Z" fill="white"/>
</svg>
