<svg width="24" height="24" viewBox="0 0 24 24" fill="none" xmlns="http://www.w3.org/2000/svg">
<g clip-path="url(#clip0_622_52008)">
<path d="M23.9876 12.4996C23.9265 14.0313 23.6027 15.5402 23.031 16.958C22.8572 17.393 22.657 17.8165 22.4315 18.2261H22.4278C21.9865 19.0493 21.4488 19.8148 20.8265 20.5058L20.8029 20.5284C20.5393 20.8208 20.2597 21.0977 19.9653 21.3577L19.9343 21.3864C19.5229 21.7462 19.0844 22.0724 18.6228 22.3619C18.6099 22.3713 18.5963 22.3796 18.5822 22.3868H18.5785C17.2225 23.2327 15.674 23.7042 14.0853 23.7551H14.0557C13.9818 23.7551 13.9078 23.7551 13.8339 23.7551C13.7215 23.7551 13.6055 23.7551 13.4931 23.7491L13.3112 23.7393C13.258 23.7393 13.2018 23.7332 13.1494 23.7272C13.0969 23.7212 13.0266 23.7181 12.9638 23.7114C12.9276 23.7114 12.8899 23.7023 12.8544 23.6993C12.3239 23.6411 11.7998 23.5333 11.2886 23.3774C10.9569 23.2768 10.6309 23.1575 10.3121 23.02C6.66754 21.4278 3.97295 17.3832 3.83397 12.4996C3.80921 11.6554 3.86318 10.8108 3.99512 9.97704C4.63976 5.89097 7.10001 2.48717 10.4392 1.0367C11.1892 0.707576 11.9796 0.483888 12.7886 0.371767L12.8751 0.361213C12.8938 0.356851 12.9128 0.354327 12.932 0.353674C13.2623 0.313591 13.5945 0.291697 13.9271 0.288086H13.9951C14.0564 0.288086 14.1215 0.288086 14.1821 0.291855C17.0142 0.349905 19.5417 1.76721 21.3189 3.99495C21.3536 4.03415 21.3802 4.07034 21.398 4.09069C21.4157 4.11105 21.432 4.13366 21.432 4.13366C23.1471 6.34632 24.1207 9.30684 23.9876 12.4996Z" fill="url(#paint0_linear_622_52008)"/>
<path d="M14.4849 23.7248L14.0871 23.7527H14.0576L11.9559 23.8922H11.91L10.9771 23.954H10.9638L10.3524 23.994H10.3125V23.9472V23.7588V23.4399V23.0147L10.3864 9.70102L10.4352 1.03132L10.4389 0.439516V0.0165855V0L11.8051 0.105544L14.1707 0.287985V0.301555V0.476457V0.527721L14.1759 0.767457V0.883556V0.912957L14.2498 7.08202L14.4472 22.3595L14.4568 23.1134V23.1888V23.2167L14.4612 23.5085V23.6449L14.4849 23.7248Z" fill="url(#paint1_linear_622_52008)"/>
<path d="M20.8145 12.4995C20.7706 14.0749 20.4519 15.6298 19.8734 17.0914C19.8732 17.0959 19.872 17.1003 19.8697 17.1042C19.866 17.1042 19.866 17.1042 19.8697 17.108C19.852 17.1562 19.7958 17.3055 19.6923 17.5256C19.6487 17.6357 19.5984 17.742 19.5489 17.8453C19.0842 18.8329 18.4871 19.7499 17.7747 20.5698C17.6761 20.6834 17.5775 20.794 17.479 20.9015C16.6205 21.8159 15.6053 22.5625 14.4835 23.1044C13.964 23.3539 13.4224 23.5523 12.866 23.6969C12.7137 23.7369 12.5614 23.7723 12.4062 23.8085H12.4025C12.2738 23.8364 12.1445 23.8613 12.0122 23.8794L11.9626 23.8892C11.5021 23.9623 11.0367 23.9993 10.5706 24C10.4967 24 10.4227 24 10.3525 24H10.3126C9.39187 23.9708 8.48082 23.7993 7.61061 23.4911C7.49529 23.4534 7.38292 23.4157 7.27351 23.3743C7.24834 23.3677 7.22364 23.3594 7.19958 23.3494C6.21672 22.9499 5.30184 22.3948 4.48873 21.7044C4.48873 21.6984 4.47912 21.6954 4.47542 21.6924C3.82402 21.1376 3.23604 20.5096 2.72264 19.8204V19.8167C1.26187 17.852 0.322269 15.3145 0.209163 12.4995C0.118619 10.4962 0.472913 8.49791 1.2456 6.65381C1.2456 6.65381 1.27148 6.58747 1.33062 6.46835C2.58662 3.62469 4.79552 1.43239 7.50785 0.495304C7.51543 0.4948 7.52277 0.492475 7.52929 0.488519C7.68971 0.43047 7.85457 0.379205 8.01868 0.337742C8.10813 0.312109 8.19388 0.290247 8.28038 0.268384C8.43784 0.228428 8.59161 0.192995 8.74611 0.166609C8.83556 0.148516 8.92871 0.133438 9.01816 0.119114C9.4896 0.0405131 9.96648 0.000680086 10.4442 2.458e-08C10.9015 -3.39965e-05 11.3582 0.0352483 11.8103 0.105544C12.1876 0.162052 12.5605 0.244924 12.9266 0.353573C12.9428 0.353209 12.9589 0.357103 12.9732 0.364881C13.1136 0.404837 13.2534 0.448563 13.3931 0.499073C13.4013 0.502204 13.4097 0.504724 13.4182 0.506612C13.6755 0.597833 13.9357 0.699607 14.1834 0.811937C18.2286 2.63861 20.9757 7.25993 20.8145 12.4995Z" fill="url(#paint2_linear_622_52008)"/>
<g style="mix-blend-mode:multiply" opacity="0.2">
<path d="M16.786 3.36738C16.7121 3.85967 15.8132 5.51445 14.2659 7.07877C13.2435 8.11235 11.9395 9.10748 10.3885 9.70682C9.71268 9.97198 9.0068 10.1493 8.28753 10.2345C6.5 10.4456 5.08137 10.2926 3.99318 9.97596C1.94987 9.37285 1.04798 8.16663 1.08716 7.63061C1.64834 6.23379 2.40155 4.9255 3.32415 3.74508C4.35172 2.43709 5.743 1.14191 7.50983 0.495072C7.5174 0.494569 7.52475 0.492243 7.53127 0.488287C7.69169 0.430238 7.85654 0.378974 8.02066 0.33751C8.07832 0.319417 8.13894 0.301323 8.19956 0.286246C8.22509 0.278186 8.251 0.271393 8.27718 0.265891C8.43464 0.225935 8.58841 0.190502 8.74291 0.164116C8.83236 0.146023 8.92551 0.130945 9.01496 0.116621C9.4875 0.0457118 9.9649 0.0139448 10.4425 0.0216312C11.2176 0.0294641 11.9882 0.142278 12.7342 0.357111C12.7528 0.358667 12.7711 0.363513 12.7881 0.371435C13.2705 0.509805 13.7404 0.689883 14.1927 0.90971C14.3968 1.00395 14.589 1.10949 14.7708 1.21127C14.9734 1.33038 15.19 1.47136 15.4177 1.63043C16.3351 2.30365 16.8422 3.00326 16.786 3.36738Z" fill="#F42774"/>
</g>
<g style="mix-blend-mode:soft-light">
<path d="M1.31234 16.9791C1.76847 17.7111 8.54894 14.6526 11.73 13.7419C14.9309 12.8252 19.8988 13.7977 20.3423 13.4268C20.7859 13.0559 20.4547 7.63392 18.642 4.98325C16.8005 2.28057 16.8124 5.128 14.8903 6.45333C12.9889 7.7651 5.29177 10.0637 3.64692 9.89181C2.00207 9.71993 1.44615 8.98338 0.832565 9.07007C0.218982 9.15677 -0.899515 13.4268 1.31234 16.9791Z" fill="white"/>
</g>
<path d="M17.1159 12.4995C17.0419 16.5938 14.3281 19.8619 10.9549 20.1492C10.7915 20.1627 10.6289 20.171 10.4625 20.171C6.86087 20.171 3.8447 16.7891 3.72272 12.4995C3.59483 8.08095 6.57034 4.39746 10.376 4.39746C10.5512 4.39746 10.7235 4.40726 10.8935 4.42234C14.4545 4.74199 17.1905 8.28827 17.1159 12.4995Z" fill="url(#paint3_linear_622_52008)"/>
<path d="M17.1136 12.499C17.0397 16.5934 14.3259 19.8615 10.9527 20.1487C7.57721 19.8645 4.83234 16.5964 4.72959 12.499C4.62313 8.28479 7.33917 4.73851 10.8957 4.42188C14.4523 4.74152 17.1883 8.28781 17.1136 12.499Z" fill="#FF6B04"/>
<path d="M0.661467 15.3933C0.356154 13.9798 3.54014 15.7702 1.40738 17.4408C1.07298 16.7941 0.82225 16.1058 0.661467 15.3933Z" fill="white"/>
<g style="mix-blend-mode:soft-light">
<path d="M13.9948 0.287521C13.1336 0.206855 18.2943 2.19259 19.554 5.7909C20.7834 9.301 23.3013 8.17771 23.3013 8.17771C23.3013 8.17771 21.1442 0.594353 13.9948 0.287521Z" fill="white"/>
</g>
<g style="mix-blend-mode:multiply" opacity="0.7">
<path d="M23.0292 16.9579C22.9494 17.2633 22.7335 17.7118 22.4297 18.226H22.426C21.9048 19.1033 21.2993 19.9256 20.6185 20.6806L20.6082 20.6897C20.3967 20.9204 20.1831 21.142 19.9635 21.3493L19.9325 21.378C19.5368 21.7575 19.0963 22.0852 18.621 22.3535C18.6082 22.3629 18.5946 22.3712 18.5804 22.3784H18.5767C17.1396 23.136 15.5169 23.4806 14.4782 23.6321C14.0081 23.6999 13.6569 23.7309 13.4943 23.7437C13.4285 23.7437 13.3915 23.7497 13.3915 23.7497C13.3649 23.746 13.3385 23.7407 13.3124 23.7339C13.287 23.7302 13.2621 23.7231 13.2385 23.7128C13.1394 23.6442 13.6665 23.5514 14.4738 23.2039C15.885 22.6008 18.1701 21.2264 19.5421 17.8422C19.5421 17.8422 22.3114 16.4182 22.9723 16.5418C23.0854 16.5674 23.1002 16.7174 23.0292 16.9579Z" fill="#DE376D"/>
</g>
<path d="M13.3828 0.494141C13.3828 0.494141 19.3508 1.87074 20.9232 9.1563C22.418 16.0921 17.0791 21.4545 17.0791 21.4545C17.0791 21.4545 20.9506 16.5896 20.317 9.88984C19.651 2.86436 13.3828 0.494141 13.3828 0.494141Z" fill="#FFE016"/>
<path d="M20.7912 9.26498C20.3772 8.64076 19.4125 12.0227 20.5828 12.6575C21.152 12.9711 21.5874 10.4667 20.7912 9.26498Z" fill="white"/>
<g style="mix-blend-mode:soft-light" opacity="0.5">
<path d="M19.8637 17.1133C19.846 17.1615 19.7898 17.3108 19.6863 17.5309C19.1807 18.628 18.5343 19.6517 17.7642 20.5751C16.9377 21.5612 15.8503 22.5413 14.4716 23.1821C13.9871 23.4073 13.4822 23.5841 12.9642 23.7098C12.8452 23.7377 12.7262 23.7656 12.6035 23.7852C12.5982 23.7869 12.5925 23.7869 12.5872 23.7852C12.398 23.8221 12.2028 23.8538 12.001 23.8749C11.9694 23.8808 11.9376 23.8851 11.9056 23.8877L11.8258 23.8968C11.5352 23.9247 11.2469 23.9427 10.9727 23.9495H10.9594C10.7376 23.9556 10.5195 23.9495 10.3081 23.9495C9.2716 23.9198 8.24611 23.7244 7.26899 23.3705C7.24382 23.364 7.21912 23.3557 7.19506 23.3457C5.56426 22.7373 4.64758 21.8628 4.48642 21.7045C4.48642 21.6984 4.47681 21.6954 4.47312 21.6924C4.47021 21.6877 4.46673 21.6834 4.46277 21.6796C4.2336 21.4783 5.58496 22.4779 7.63566 23.0637C8.50602 23.317 9.40668 23.4456 10.3118 23.4459C10.6386 23.4429 10.9649 23.4202 11.2891 23.3781C11.3748 23.3653 11.4643 23.3532 11.5508 23.3374C12.5648 23.1643 13.5469 22.8338 14.4627 22.3573C17.8285 20.6136 19.7077 17.3832 19.8637 17.1133Z" fill="white"/>
</g>
<path d="M5.96094 18.1328C5.96094 18.1328 10.8733 21.909 14.7418 18.3424C14.7418 18.3424 10.5059 22.767 5.96094 18.1328Z" fill="#FFE016"/>
<g style="mix-blend-mode:multiply" opacity="0.5">
<path d="M3.94531 9.95837C4.1937 11.3078 5.2915 6.97449 9.52893 5.62578C13.8048 4.26426 16.872 10.2185 16.872 10.2185C16.872 10.2185 16.1246 4.37207 10.2098 4.37207C5.58499 4.37207 3.94531 9.95837 3.94531 9.95837Z" fill="#D42F55"/>
</g>
<g style="mix-blend-mode:soft-light">
<path d="M15.2736 22.8548C14.8751 23.0945 17.1129 23.1367 18.0369 22.6459C18.961 22.1552 20.2909 21.1713 20.4846 20.5682C20.6783 19.9651 19.4075 20.0805 18.6365 20.2667C17.8654 20.4529 17.1491 21.7292 15.2736 22.8548Z" fill="white"/>
</g>
<path d="M20.6416 15.5977C19.9023 15.3617 18.8895 16.8793 19.4373 18.1458C19.9851 19.4124 22.3367 16.133 20.6416 15.5977Z" fill="url(#paint4_linear_622_52008)"/>
<g style="mix-blend-mode:multiply" opacity="0.7">
<path d="M19.4942 16.6708C19.4381 17.5928 20.5521 17.6509 20.9728 17.1684C21.3934 16.6859 21.3623 15.6003 20.541 15.5784C19.7197 15.5566 19.4942 16.6708 19.4942 16.6708Z" fill="#DE376D"/>
</g>
<path d="M19.2812 17.4666C19.5156 16.9125 20.1758 17.5925 20.5772 17.6235C20.9786 17.6544 20.3022 18.5636 19.8379 18.4294C19.3737 18.2952 19.2812 17.4666 19.2812 17.4666Z" fill="#FF9500"/>
<path d="M18.1896 15.9903C17.4429 15.7596 16.7111 16.855 17.0297 17.5923C17.3483 18.3296 19.4899 16.3929 18.1896 15.9903Z" fill="url(#paint5_linear_622_52008)"/>
<g style="mix-blend-mode:multiply" opacity="0.7">
<path d="M17.8555 15.9594C17.3425 16.1049 17.1776 16.8641 17.3824 17.0902C17.5872 17.3164 18.5652 17.0405 18.597 16.5233C18.6288 16.0061 18.0588 15.9021 17.8555 15.9594Z" fill="#DE376D"/>
</g>
<path d="M16.9453 17.333C17.0754 16.6545 17.36 17.333 17.7585 17.4084C18.157 17.4838 16.9764 18.2354 16.9453 17.333Z" fill="#FF9500"/>
<path d="M5.66398 6.4978C5.07257 6.30481 4.52774 7.18535 4.79757 7.78544C5.0674 8.38554 6.69302 6.83328 5.66398 6.4978Z" fill="url(#paint6_linear_622_52008)"/>
<g style="mix-blend-mode:multiply" opacity="0.7">
<path d="M5.40815 6.47C5.01043 6.58308 4.90102 7.19825 5.06661 7.3822C5.23221 7.56615 5.99216 7.35204 6.00325 6.92987C6.01434 6.50769 5.56561 6.42476 5.40815 6.47Z" fill="#DE376D"/>
</g>
<path d="M4.73438 7.57313C4.81939 7.02731 5.05891 7.57313 5.37531 7.64173C5.69171 7.71033 4.77947 8.30515 4.73438 7.57313Z" fill="#FF9500"/>
<g style="mix-blend-mode:multiply" opacity="0.8">
<path d="M21.3987 4.09086C21.3728 4.05844 21.3454 4.02753 21.3203 3.99512L21.3987 4.09086Z" fill="#D42F55"/>
</g>
<g style="mix-blend-mode:multiply" opacity="0.8">
<path d="M21.3162 3.9956C21.0885 3.72646 20.503 3.09546 19.5183 2.43053C19.5146 2.43053 19.5109 2.43053 19.5079 2.42299C18.3251 1.62387 16.5664 0.783289 14.1809 0.474949C14.1476 0.468028 14.1141 0.462995 14.0803 0.459872C13.7255 0.416146 13.3558 0.384483 12.9751 0.365636C12.9407 0.363754 12.9061 0.363754 12.8716 0.365636C12.8243 0.365636 12.7777 0.365636 12.7312 0.365636C12.1123 0.344342 11.4928 0.358941 10.8756 0.409361C10.7278 0.419916 10.5844 0.434993 10.441 0.453087C7.03445 0.83003 4.74867 2.33027 3.32042 3.7536C2.14131 4.9161 1.53512 6.03788 1.32812 6.46835C2.58486 3.62469 4.79376 1.43239 7.5061 0.495304C7.51367 0.4948 7.52102 0.492475 7.52754 0.488519C7.68796 0.43047 7.85281 0.379206 8.01693 0.337742C8.07459 0.319649 8.13521 0.301555 8.19583 0.286478C8.22258 0.278297 8.24972 0.271503 8.27715 0.266123C8.43461 0.226167 8.58837 0.190734 8.74288 0.164348C8.83233 0.146255 8.92548 0.131177 9.01493 0.116853C9.48692 0.0389288 9.96429 -0.000148093 10.4424 4.21732e-07C10.8998 -3.35993e-05 11.3565 0.0352487 11.8086 0.105545L14.1742 0.287985V0.291755C17.013 0.34905 19.5375 1.76711 21.3162 3.9956Z" fill="#D42F55"/>
</g>
<g style="mix-blend-mode:multiply" opacity="0.8">
<path d="M20.8066 20.5252C20.543 20.8176 20.2634 21.0944 19.969 21.3545L19.938 21.3831C19.5423 21.7627 19.1017 22.0904 18.6265 22.3586C18.6136 22.368 18.6 22.3764 18.5859 22.3835H18.5822C17.2262 23.2294 15.6777 23.701 14.089 23.7518H14.0594L11.9577 23.8913C11.5 23.9632 11.0376 23.9995 10.5745 23.9999C10.5006 23.9999 10.4267 23.9999 10.3564 23.9999H10.3165C9.39579 23.9707 8.48474 23.7991 7.61453 23.491C7.49921 23.4533 7.38684 23.4156 7.27743 23.3741C7.25226 23.3676 7.22756 23.3593 7.20351 23.3493C5.57049 22.7371 4.65381 21.8626 4.49265 21.7043C4.49265 21.6982 4.48304 21.6952 4.47934 21.6922C3.82794 21.1374 3.23997 20.5095 2.72656 19.8203C2.82045 19.9123 4.75509 21.9244 7.64189 23.062C8.50135 23.4083 9.39984 23.6438 10.3165 23.7631C11.0066 23.8535 11.7042 23.8692 12.3975 23.8099H12.4012L12.5934 23.791C12.5987 23.7928 12.6044 23.7928 12.6097 23.791C12.7953 23.776 12.9793 23.7541 13.156 23.7292L13.2455 23.7202C13.6757 23.6614 14.0904 23.5867 14.4852 23.5031C17.8592 22.7884 19.9557 21.2414 20.6136 20.6941L20.624 20.685C20.7097 20.6104 20.7718 20.5569 20.8066 20.5252Z" fill="#D42F55"/>
</g>
<path d="M15.9248 0.81458C14.6762 0.7603 17.2887 2.72267 18.317 3.56928C19.3453 4.4159 21.0345 3.81882 21.0877 3.73589C21.141 3.65297 18.4479 0.92314 15.9248 0.81458Z" fill="white"/>
<path d="M9.90975 6.29002C5.21177 6.84564 4.91015 13.9797 6.0937 14.8889C7.30091 15.8124 7.98473 14.8308 8.12223 15.4007C8.25973 15.9707 7.28908 17.0209 7.28908 17.0209C7.36745 17.719 10.4679 18.2421 10.5618 18.0853C10.6557 17.9285 11.0053 16.8754 11.0053 16.8754C11.0053 16.8754 10.354 18.068 10.4664 18.1472C10.5788 18.2263 14.1487 17.6368 14.1339 17.44C14.1191 17.2432 12.8291 15.7611 12.8823 15.0856C12.9355 14.4101 16.3191 15.734 16.6089 14.3958C16.9046 13.0373 16.7545 5.48035 9.90975 6.29002ZM6.36132 12.2759C6.32361 10.3459 7.28761 9.27466 8.57909 9.53325C9.90458 9.79334 10.1522 11.9185 9.69833 12.5865C9.08992 13.4768 6.40198 14.184 6.36427 12.2759H6.36132ZM9.44772 14.8082C9.08992 14.5964 9.90236 13.6163 10.2557 13.3321C10.6091 13.0479 11.4637 14.4561 11.5731 14.8655C11.6825 15.2748 9.66432 14.9371 9.45067 14.8082H9.44772ZM10.992 12.5895C10.5226 11.9163 10.7525 9.76997 12.1342 9.42318C13.5639 9.06357 14.7001 10.1612 14.6802 12.2714C14.6602 14.3581 11.633 13.5092 10.992 12.5895Z" fill="url(#paint7_linear_622_52008)"/>
<path d="M13.3469 6.99886C12.2876 6.20577 10.8889 5.83788 9.15533 6.26231C7.15934 6.74782 5.94178 8.27444 5.31119 9.9149C4.48101 12.0559 4.64586 14.3839 5.32376 14.9026C6.54723 15.8291 7.23548 14.8431 7.37446 15.416C7.44026 15.6754 7.27614 16.035 7.07358 16.3486C6.91475 16.5951 6.73649 16.8281 6.54058 17.0452C6.6145 17.7448 9.74674 18.271 9.84654 18.1127C9.94634 17.9543 10.2901 16.8959 10.2901 16.8959C10.2901 16.8959 10.3574 18.0674 10.4697 18.1481C10.5821 18.2288 13.0719 17.5314 13.0571 17.3339C13.0423 17.1364 12.1774 15.8457 12.1782 15.1529C12.1782 15.1333 12.1782 15.1197 12.1819 15.1001C12.1952 14.889 12.4857 14.8566 12.8886 14.8792C13.7757 14.9222 15.215 15.2019 15.5499 14.3146C15.6416 14.0705 15.7101 13.8181 15.7547 13.5607C16.1258 11.5033 15.3555 8.49834 13.3469 6.99886ZM10.8578 14.8792C10.9761 15.2946 8.92912 14.9486 8.714 14.8204C8.3525 14.6086 9.17012 13.621 9.52718 13.3383C9.88868 13.042 10.747 14.4669 10.8578 14.8792ZM5.59063 12.2776C5.54776 10.3378 6.51618 9.26203 7.81949 9.51835C9.15829 9.78221 9.41407 11.918 8.95499 12.5897C8.34659 13.4815 5.63351 14.1955 5.59063 12.2776ZM10.2635 12.5935C9.78666 11.915 10.0136 9.75809 11.4071 9.41281C12.8501 9.05245 13.9997 10.1569 13.9849 12.2776C13.9716 14.3674 10.9111 13.5147 10.2635 12.5935Z" fill="url(#paint8_linear_622_52008)"/>
<g style="mix-blend-mode:multiply" opacity="0.5">
<path d="M6.07031 10.3332C6.10654 11.0939 6.87462 10.3423 7.53256 9.99927C8.1905 9.65625 8.83218 10.3287 8.83218 10.3287C8.83218 10.3287 7.55326 8.3754 6.07031 10.3332Z" fill="#D42F55"/>
</g>
<g style="mix-blend-mode:multiply" opacity="0.5">
<path d="M10.2344 10.6625C10.2736 12.0949 10.8561 10.8186 11.7964 10.0655C12.7368 9.31233 13.4324 10.1409 13.4324 10.1409C13.4324 10.1409 12.7671 9.05149 11.5798 9.37867C10.3926 9.70586 10.2344 10.6625 10.2344 10.6625Z" fill="#D42F55"/>
</g>
<g style="mix-blend-mode:soft-light">
<path d="M13.3491 6.99902C11.0168 7.43025 6.70987 9.6218 5.31119 9.91506C4.48101 12.0561 4.64586 14.3841 5.32376 14.9028C6.54723 15.8293 7.23548 14.8432 7.37446 15.4162C7.44026 15.6755 7.27614 16.0351 7.07358 16.3487C8.57871 16.3231 10.483 15.7833 12.1789 15.1531C12.4214 15.0611 12.6572 14.9684 12.8893 14.8794C13.8676 14.4926 14.8244 14.0514 15.7554 13.5578C16.128 11.5035 15.3577 8.49851 13.3491 6.99902ZM5.59285 12.2762C5.54997 10.3365 6.5184 9.26069 7.82171 9.51701C9.16051 9.78087 9.41629 11.9166 8.95721 12.5883C8.3488 13.4817 5.63573 14.1956 5.59285 12.2777V12.2762ZM8.71474 14.8191C8.35324 14.6073 9.17086 13.6197 9.52792 13.337C9.89016 13.0429 10.7484 14.4678 10.8586 14.8779C10.9687 15.288 8.93134 14.9488 8.71474 14.8206V14.8191ZM10.2672 12.5921C9.79036 11.9136 10.0173 9.75674 11.4108 9.41146C12.8538 9.0511 14.0034 10.1555 13.9886 12.2762C13.9738 14.3675 10.9133 13.5149 10.2657 12.5936L10.2672 12.5921Z" fill="white"/>
</g>
<path d="M13.8547 7.48318C13.5997 7.22535 13.8347 8.75499 14.2983 9.18923C14.7618 9.62347 15.09 9.18923 15.09 9.18923C15.09 9.18923 14.5733 8.20616 13.8547 7.48318Z" fill="white"/>
</g>
<defs>
<linearGradient id="paint0_linear_622_52008" x1="13.9137" y1="23.7558" x2="13.9137" y2="0.288086" gradientUnits="userSpaceOnUse">
<stop offset="0.05" stop-color="#FF3F00"/>
<stop offset="0.72" stop-color="#FF6A03"/>
<stop offset="1" stop-color="#FFFF04"/>
</linearGradient>
<linearGradient id="paint1_linear_622_52008" x1="12.3987" y1="24" x2="12.3987" y2="0" gradientUnits="userSpaceOnUse">
<stop offset="0.05" stop-color="#FF3F00"/>
<stop offset="0.72" stop-color="#FF6A03"/>
<stop offset="1" stop-color="#FFFF04"/>
</linearGradient>
<linearGradient id="paint2_linear_622_52008" x1="10.5078" y1="24" x2="10.5078" y2="0" gradientUnits="userSpaceOnUse">
<stop stop-color="#FFA900"/>
<stop offset="1" stop-color="#FF9600"/>
</linearGradient>
<linearGradient id="paint3_linear_622_52008" x1="10.4182" y1="20.171" x2="10.4182" y2="4.39746" gradientUnits="userSpaceOnUse">
<stop stop-color="#FF7C04"/>
<stop offset="1" stop-color="#D92000"/>
</linearGradient>
<linearGradient id="paint4_linear_622_52008" x1="20.2631" y1="18.4301" x2="20.2631" y2="15.5728" gradientUnits="userSpaceOnUse">
<stop offset="0.04" stop-color="#EF6300"/>
<stop offset="1" stop-color="#E13E00"/>
</linearGradient>
<linearGradient id="paint5_linear_622_52008" x1="17.7771" y1="17.7574" x2="17.7771" y2="15.9586" gradientUnits="userSpaceOnUse">
<stop offset="0.04" stop-color="#EF6300"/>
<stop offset="1" stop-color="#E13E00"/>
</linearGradient>
<linearGradient id="paint6_linear_622_52008" x1="5.3568" y1="7.92488" x2="5.37234" y2="6.46921" gradientUnits="userSpaceOnUse">
<stop offset="0.04" stop-color="#EF6300"/>
<stop offset="1" stop-color="#E13E00"/>
</linearGradient>
<linearGradient id="paint7_linear_622_52008" x1="12.9814" y1="17.9037" x2="8.77644" y2="6.57595" gradientUnits="userSpaceOnUse">
<stop stop-color="#EA5104"/>
<stop offset="1" stop-color="#D92000"/>
</linearGradient>
<linearGradient id="paint8_linear_622_52008" x1="12.1782" y1="17.7402" x2="8.05587" y2="6.63313" gradientUnits="userSpaceOnUse">
<stop stop-color="#FF9600"/>
<stop offset="1" stop-color="#FFA900"/>
</linearGradient>
<clipPath id="clip0_622_52008">
<rect width="24" height="24" fill="white"/>
</clipPath>
</defs>
</svg>
