<svg width="55" height="70" viewBox="0 0 55 70" fill="none" xmlns="http://www.w3.org/2000/svg">
<g clip-path="url(#clip0_622_54553)">
<path d="M54.1058 27.5125L53.1443 21.0016C52.9559 19.7304 51.8374 18.7731 50.5383 18.7731C50.4127 18.7731 50.2832 18.7809 50.1576 18.8002L49.043 18.9591C48.9017 18.8739 48.7525 18.8002 48.6034 18.7344C47.9637 13.7039 45.5343 9.06876 41.7077 5.61566C37.6928 1.9959 32.4925 0 27.0647 0C21.6368 0 16.4405 1.9959 12.4256 5.62341C8.60291 9.07651 6.17352 13.7078 5.52987 18.7421C5.38073 18.808 5.23159 18.8855 5.0903 18.9669L3.97569 18.808C3.8501 18.7886 3.72059 18.7809 3.595 18.7809C2.29592 18.7809 1.17738 19.7381 0.988997 21.0054L0.0274464 27.5163C-0.180563 28.9348 0.81631 30.2602 2.25275 30.4656L2.46861 30.4966L1.77001 42.724C1.70329 43.9137 2.11539 45.0532 2.93565 45.929C3.75591 46.8049 4.87052 47.3048 6.07933 47.332C10.8753 47.4405 22.5199 47.6963 27.0647 47.6963C31.6095 47.6963 43.2541 47.4405 48.05 47.332C49.2588 47.3048 50.3734 46.8049 51.1937 45.929C52.014 45.0532 52.4261 43.9137 52.3593 42.724L51.6607 30.4966L51.8805 30.4656C53.317 30.2563 54.3138 28.9348 54.1058 27.5125Z" fill="#0B2239"/>
<path d="M27.0659 41.0264C38.0229 41.0264 46.9052 32.2553 46.9052 21.4356C46.9052 10.6158 38.0229 1.84473 27.0659 1.84473C16.1089 1.84473 7.22656 10.6158 7.22656 21.4356C7.22656 32.2553 16.1089 41.0264 27.0659 41.0264Z" fill="#0B2239"/>
<path d="M49.2656 22.5784C49.191 21.284 48.1392 20.257 46.8284 20.2027C42.0756 20.0089 31.2826 19.1641 27.0283 19.1641C22.7739 19.1641 11.981 20.0089 7.22818 20.2027C5.91733 20.257 4.86551 21.284 4.79094 22.5784L3.63316 42.4018C3.55074 43.8241 4.67713 45.0294 6.11749 45.0604C11.2628 45.1767 22.5502 45.4247 27.0283 45.4247C31.5063 45.4247 42.7899 45.1767 47.9391 45.0604C49.3794 45.0255 50.5019 43.8202 50.4234 42.4018L49.2656 22.5784Z" fill="white"/>
<path d="M49.3323 22.5789C49.2577 21.2844 48.202 20.2574 46.8911 20.2032C42.1305 20.0094 31.3219 19.5908 27.0636 19.5908C22.8053 19.5908 11.9927 20.0094 7.23601 20.2032C5.92516 20.2574 4.86942 21.2844 4.79485 22.5789L3.63706 42.8286C3.55464 44.2509 4.68103 45.4562 6.12532 45.4872C11.2784 45.6034 22.5816 45.8515 27.0675 45.8515C31.5495 45.8515 42.8526 45.6034 48.0097 45.4872C49.45 45.4523 50.5764 44.247 50.4979 42.8286L49.3323 22.5789Z" fill="#0B2239"/>
<path d="M47.6639 28.7451H6.46634C6.28973 28.7451 6.14844 28.6056 6.14844 28.4312V27.2143C6.14844 27.0399 6.28973 26.9004 6.46634 26.9004H47.66C47.8366 26.9004 47.9779 27.0399 47.9779 27.2143V28.4312C47.9818 28.6056 47.8405 28.7451 47.6639 28.7451Z" fill="white"/>
<path d="M47.6639 34.1397H6.46634C6.28973 34.1397 6.14844 34.0002 6.14844 33.8258V32.6088C6.14844 32.4344 6.28973 32.2949 6.46634 32.2949H47.66C47.8366 32.2949 47.9779 32.4344 47.9779 32.6088V33.8258C47.9818 34.0002 47.8405 34.1397 47.6639 34.1397Z" fill="white"/>
<path d="M4.62018 28.9385L2.32424 28.6091C2.01418 28.5664 1.80225 28.2796 1.84542 27.9773L2.86584 21.075C2.90901 20.7688 3.19944 20.5596 3.50557 20.6022L5.80152 20.9316C6.11157 20.9742 6.3235 21.261 6.28033 21.5633L5.25991 28.4657C5.21674 28.7718 4.93023 28.985 4.62018 28.9385Z" fill="#0B2239"/>
<path d="M49.5095 28.9385L51.8054 28.6091C52.1155 28.5664 52.3274 28.2796 52.2842 27.9773L51.2638 21.075C51.2206 20.7688 50.9302 20.5596 50.6241 20.6022L48.3281 20.9316C48.0181 20.9742 47.8062 21.261 47.8493 21.5633L48.8697 28.4657C48.9168 28.7718 49.2034 28.985 49.5095 28.9385Z" fill="#0B2239"/>
<path d="M27.064 36.3409C22.5702 36.3409 9.03003 36.2014 8.89659 36.1975C7.74273 36.1975 6.79688 35.2635 6.79688 34.1163V26.0746C6.79688 24.9313 7.73095 24.0012 8.88481 23.9934C9.44212 23.9663 22.6291 23.2842 27.0679 23.2842C31.5068 23.2842 44.6937 23.9663 45.251 23.9934C46.4049 24.005 47.339 24.9352 47.339 26.0746V34.1163C47.339 35.2635 46.3931 36.1975 45.2314 36.1975C45.098 36.2014 31.5578 36.3409 27.064 36.3409Z" fill="white"/>
<path d="M26.993 18.0985C27.5479 18.0985 27.9977 17.6543 27.9977 17.1064C27.9977 16.5585 27.5479 16.1143 26.993 16.1143C26.4381 16.1143 25.9883 16.5585 25.9883 17.1064C25.9883 17.6543 26.4381 18.0985 26.993 18.0985Z" fill="#0B2239"/>
<path d="M26.993 17.955C27.5479 17.955 27.9977 17.5108 27.9977 16.9628C27.9977 16.4149 27.5479 15.9707 26.993 15.9707C26.4381 15.9707 25.9883 16.4149 25.9883 16.9628C25.9883 17.5108 26.4381 17.955 26.993 17.955Z" fill="white"/>
<path d="M11.0313 18.771C11.1114 18.2288 10.8582 17.7434 10.4657 17.6868C10.0732 17.6303 9.69005 18.0239 9.60993 18.5661C9.5298 19.1083 9.78303 19.5937 10.1755 19.6503C10.568 19.7068 10.9512 19.3131 11.0313 18.771Z" fill="#0B2239"/>
<path d="M10.8867 18.6264C10.9669 18.0842 10.7137 17.5989 10.3212 17.5423C9.92866 17.4857 9.54552 17.8794 9.46539 18.4216C9.38527 18.9638 9.63849 19.4492 10.031 19.5057C10.4235 19.5623 10.8066 19.1686 10.8867 18.6264Z" fill="white"/>
<path d="M44.5321 19.6491C44.9246 19.5926 45.1778 19.1072 45.0977 18.565C45.0176 18.0228 44.6344 17.6291 44.2419 17.6857C43.8494 17.7422 43.5962 18.2276 43.6763 18.7698C43.7565 19.312 44.1396 19.7057 44.5321 19.6491Z" fill="#0B2239"/>
<path d="M44.6766 19.5056C45.0691 19.449 45.3223 18.9636 45.2422 18.4214C45.1621 17.8792 44.779 17.4856 44.3865 17.5421C43.994 17.5987 43.7407 18.0841 43.8209 18.6263C43.901 19.1684 44.2841 19.5621 44.6766 19.5056Z" fill="white"/>
<path d="M45.4752 15.8234C43.0459 8.0646 35.7106 2.41406 27.0684 2.41406C18.9757 2.41406 12.0368 7.367 9.1875 14.3624C9.43868 14.2693 9.67416 14.1453 9.89002 13.9864C11.6169 12.7075 13.1946 9.72721 15.7849 9.8706C18.3674 10.0062 22.8258 8.02197 23.3988 7.16935C23.9758 6.31673 30.4437 4.89828 31.1619 7.45226C31.8801 10.0062 37.6298 11.1418 38.7797 11.0023C39.9296 10.8589 42.3747 13.843 43.8112 14.9786C44.3999 15.4398 44.9847 15.6878 45.4752 15.8234Z" fill="#0B2239"/>
<path d="M48.8884 24.8922L48.7589 22.6095C48.7 21.6019 47.8876 20.8112 46.8711 20.7725C42.342 20.5865 31.345 20.1602 27.0671 20.1602C22.7892 20.1602 11.7922 20.5903 7.26309 20.7725C6.24267 20.8151 5.43026 21.6057 5.37531 22.6095L5.30859 23.807C5.94047 23.5086 6.59197 23.1288 6.72933 22.7839C7.01584 22.0747 9.31571 21.2221 9.89264 21.3654C10.4696 21.5088 10.4696 21.3654 10.4696 21.3654C10.4696 21.3654 11.6195 21.7918 12.9147 21.3654C14.2098 20.9391 14.7828 20.5128 16.651 20.9391C18.5191 21.3654 20.819 21.0825 21.9689 20.7957C23.1189 20.5128 25.2735 20.5128 26.2822 20.7957C27.2869 21.0787 31.3136 20.9391 31.6001 20.7957C31.8866 20.6523 34.4769 20.9391 34.7634 21.0787C35.0499 21.2182 40.2266 21.2221 40.6583 20.9353C41.09 20.6523 43.1034 20.6523 45.5446 21.7879C47.9897 22.9234 48.7079 24.2023 48.8492 24.7682C48.857 24.8147 48.8727 24.8573 48.8884 24.8922Z" fill="#0B2239"/>
<path d="M27.0639 24.1328C22.574 24.1328 9.04559 24.8343 8.9043 24.842C8.21748 24.842 7.65625 25.3924 7.65625 26.0745V28.6672C7.76222 28.5548 7.84071 28.4385 7.87211 28.3223C8.01732 27.7526 8.30382 26.1946 8.30382 26.0512C8.30382 25.9078 8.15861 24.9157 9.16726 25.1986C10.1759 25.4815 11.8988 24.9157 12.1853 24.9157C12.4719 24.9157 12.4719 24.9157 12.4719 24.9157C12.4719 24.9157 13.1901 25.1986 14.0535 25.1986C14.9169 25.1986 17.5033 25.0552 17.7898 24.9157C18.0763 24.7723 20.8079 24.7723 20.8079 24.7723C20.8079 24.7723 23.5395 24.346 23.6847 24.346C23.8299 24.346 25.5529 24.4894 25.5529 24.4894C25.5529 24.4894 29.1479 24.0631 29.8661 24.346C30.5843 24.6289 30.5843 24.7723 30.5843 24.7723C30.5843 24.7723 31.8795 24.9157 32.4525 24.7723C33.0294 24.6289 33.4572 24.7723 33.4572 24.7723H34.8936C34.8936 24.7723 36.6205 24.9157 37.3387 24.7723C38.057 24.6289 38.6339 24.9157 38.7752 24.7723C38.9165 24.6289 41.2203 25.0552 41.652 24.9157C42.0837 24.7723 42.6567 25.0591 43.2336 25.1986C43.8106 25.342 44.2383 25.1986 44.2383 25.1986H45.5335L45.8043 24.9893C45.6277 24.8963 45.4275 24.842 45.2117 24.842C45.0822 24.8343 31.5537 24.1328 27.0639 24.1328Z" fill="#0B2239"/>
<path d="M46.3773 34.229C46.2085 33.8919 45.3961 34.1399 44.8977 34.353C44.3993 34.5662 43.0963 35.132 42.3741 34.5662C41.6559 33.9965 39.929 34.5662 39.6425 34.7096C39.356 34.853 36.4792 34.7096 35.0428 34.7096C33.6063 34.7096 32.8881 34.7096 32.3112 34.7096C31.7343 34.7096 32.3112 34.7096 31.4478 35.1359C30.5843 35.5622 29.0027 34.853 27.2797 34.7096C25.5529 34.5662 24.9799 34.7096 23.6847 34.853C22.3896 34.9964 20.9531 34.9964 19.9484 35.1359C18.9437 35.2754 17.7937 34.853 16.9303 34.7096C16.0669 34.5662 14.6304 34.7096 13.767 34.7096C12.9036 34.7096 9.31247 34.853 8.73554 34.7096C8.15861 34.5662 8.30382 34.1399 8.30382 33.1477C8.30382 32.7873 8.01732 32.4657 7.65625 32.1982V34.1166C7.65625 34.7949 8.21356 35.3491 8.9043 35.3491C9.04167 35.3491 22.574 35.4925 27.0639 35.4925C31.5537 35.4925 45.0861 35.3529 45.2234 35.3491C45.82 35.3491 46.3184 34.9344 46.4401 34.384C46.4126 34.3104 46.3891 34.26 46.3773 34.229Z" fill="#0B2239"/>
<path d="M3.59403 20.9082C3.35855 20.9082 3.15447 21.0826 3.12307 21.3113L2.16152 27.8222C2.12227 28.0818 2.30673 28.3221 2.56576 28.357L3.11522 28.4345C3.0485 27.9384 2.95431 27.3377 3.13092 26.8998C3.41742 26.1906 3.13092 25.9076 3.13092 25.1945C3.13092 24.4815 2.84442 24.4853 3.70785 23.7761C4.57128 23.0669 4.85779 22.4972 4.85779 22.4972C4.85779 22.4972 4.57128 21.9275 4.71257 21.3616C4.74397 21.2415 4.75182 21.1446 4.74789 21.0671L3.66468 20.9121C3.64113 20.9082 3.61758 20.9082 3.59403 20.9082Z" fill="#0B2239"/>
<path d="M51.0076 21.3113C50.9723 21.0826 50.7722 20.9082 50.5367 20.9082C50.5131 20.9082 50.4896 20.9082 50.466 20.9121L48.5665 21.1872C48.5626 21.1872 48.5586 21.1911 48.5508 21.1911C48.6136 21.4469 48.7078 21.7104 48.8412 21.9352C49.2729 22.6444 49.1277 22.0786 49.8459 22.5049C50.5642 22.9312 50.7094 22.3615 50.8507 23.7839C50.9959 25.2023 50.9959 25.772 50.8507 26.3378C50.7054 26.9075 51.2824 28.0431 51.2824 28.0431C51.2824 28.0431 50.7054 28.0431 50.4189 28.4694C50.4032 28.4926 50.3915 28.512 50.3797 28.5353L51.5571 28.3647C51.8201 28.326 52.0006 28.0857 51.9613 27.8299L51.0076 21.3113Z" fill="#0B2239"/>
<mask id="mask0_622_54553" style="mask-type:luminance" maskUnits="userSpaceOnUse" x="47" y="20" width="6" height="9">
<path d="M49.5095 28.9385L51.8054 28.6091C52.1155 28.5664 52.3274 28.2796 52.2842 27.9773L51.2638 21.075C51.2206 20.7688 50.9302 20.5596 50.6241 20.6022L48.3281 20.9316C48.0181 20.9742 47.8062 21.261 47.8493 21.5633L48.8697 28.4657C48.9168 28.7718 49.2034 28.985 49.5095 28.9385Z" fill="white"/>
</mask>
<g mask="url(#mask0_622_54553)">
<path d="M51.9372 20.8033L50.7755 20.501L49.5156 23.5665L51.9372 20.8033Z" fill="white"/>
</g>
<mask id="mask1_622_54553" style="mask-type:luminance" maskUnits="userSpaceOnUse" x="1" y="20" width="6" height="9">
<path d="M4.62018 28.9385L2.32424 28.6091C2.01418 28.5664 1.80225 28.2796 1.84542 27.9773L2.86584 21.075C2.90901 20.7688 3.19944 20.5596 3.50557 20.6022L5.80152 20.9316C6.11157 20.9742 6.3235 21.261 6.28033 21.5633L5.25991 28.4657C5.21674 28.7718 4.93023 28.985 4.62018 28.9385Z" fill="white"/>
</mask>
<g mask="url(#mask1_622_54553)">
<path d="M0.644679 26.7139L0.613281 27.9347L4.03169 28.454L0.644679 26.7139Z" fill="white"/>
</g>
<path d="M9.16797 29.3145V26.3342L24.6941 25.625C24.6941 25.625 18.0378 27.0551 16.2599 26.9814C14.4859 26.9039 12.1861 26.621 11.8996 27.1868C11.6131 27.7565 11.566 28.5743 11.0871 28.7332C10.6044 28.8882 9.16797 29.3145 9.16797 29.3145Z" fill="#0B2239"/>
<path d="M44.7478 32.3332L44.8184 33.8563L36.9102 34.1314C36.9102 34.1314 38.637 33.7129 39.4965 33.7129C40.356 33.7129 40.2148 33.1432 40.7917 33.0037C41.3686 32.8603 41.9416 33.147 42.5185 33.0037C43.0955 32.8603 43.8215 32.3681 43.9589 32.3293C44.0963 32.2906 44.3867 32.151 44.3867 32.151L44.8184 30.3838L44.7478 32.3332Z" fill="#0B2239"/>
<path d="M5.98393 57.7842C5.94468 59.1988 5.90544 60.6134 5.86619 62.0279C4.79082 61.3032 3.739 60.501 2.75391 59.6639C2.75391 55.8775 2.75391 52.0911 2.75391 48.3008C6.08205 48.3008 9.41412 48.3008 12.7423 48.3008C13.2211 49.0565 13.4566 49.4441 13.9354 50.2463C13.8333 53.0251 13.7313 55.8038 13.6332 58.5826C13.0955 59.2453 12.8286 59.5592 12.2948 60.1638C10.1363 59.4817 8.05225 58.695 5.98393 57.7842ZM9.889 55.5984C10.0185 55.4511 10.0852 55.3775 10.2187 55.2302C10.2579 54.2304 10.2736 53.7304 10.3129 52.7305C10.1951 52.5367 10.1363 52.4399 10.0146 52.25C8.72337 52.0872 7.43214 51.905 6.14877 51.6996C6.11737 52.8545 6.10167 53.432 6.07027 54.583C7.3301 54.959 8.60955 55.3 9.889 55.5984Z" fill="#0B2239"/>
<path d="M18.9528 48.3008C18.8272 52.9669 18.7055 57.6331 18.5799 62.2992C18.7055 62.5356 18.7683 62.6519 18.8939 62.8883C20.0949 63.1053 21.3154 63.272 22.5282 63.3921C22.6655 63.1867 22.7323 63.0821 22.8657 62.8728C22.9363 58.0168 23.007 53.1568 23.0776 48.3008C24.4866 48.3008 25.193 48.3008 26.602 48.3008C26.5824 54.3427 26.5667 60.3886 26.5471 66.4306C26.0094 67.3142 25.7386 67.7521 25.1891 68.6125C22.0611 68.3645 19.1058 67.8258 16.0956 66.9615C15.6011 65.981 15.3578 65.4927 14.8711 64.5315C15.0556 59.1213 15.2439 53.711 15.4284 48.3008C16.8413 48.3008 17.5438 48.3008 18.9528 48.3008Z" fill="#0B2239"/>
<path d="M39.8282 58.416C39.8988 60.4661 39.9695 62.5163 40.0401 64.5665C39.5534 65.5276 39.3062 66.0159 38.8117 66.9964C35.3187 67.9886 31.861 68.5389 28.2307 68.6784C28.215 61.8885 28.1993 55.0946 28.1836 48.3047C31.5274 48.3047 34.8752 48.3047 38.219 48.3047C38.7489 49.1263 39.0158 49.5294 39.5534 50.3122C39.6241 52.3624 39.6947 54.4125 39.7654 56.4627C39.4789 56.9006 39.3337 57.1215 39.0472 57.5672C39.3572 57.9122 39.5142 58.0827 39.8282 58.416ZM31.7865 56.3464C33.1366 56.2844 34.4945 56.1875 35.8407 56.0596C35.9623 55.8349 36.0251 55.7225 36.1468 55.4977C36.1272 54.742 36.1154 54.366 36.0958 53.6142C35.9623 53.4088 35.8956 53.308 35.7622 53.1026C34.4239 53.184 33.0816 53.2421 31.7394 53.2809C31.7629 54.5056 31.7708 55.1179 31.7865 56.3464ZM31.8846 63.4503C33.2739 63.3069 34.6358 63.1286 36.0173 62.9116C36.1429 62.6752 36.2057 62.5589 36.3313 62.3225C36.3116 61.5668 36.2999 61.1909 36.2802 60.439C36.1429 60.2452 36.0762 60.1483 35.9427 59.9546C34.5887 60.1483 33.2111 60.2917 31.8453 60.3847C31.8571 61.6094 31.8689 62.2217 31.8846 63.4503Z" fill="#0B2239"/>
<path d="M47.1886 57.3424C47.1415 55.9472 47.118 55.2496 47.067 53.8506C48.8095 53.4552 50.5442 53.0367 52.2672 52.5445C52.2672 54.9163 52.2672 57.2882 52.2672 59.66C49.3825 61.9931 46.3527 63.8882 42.9735 65.45C42.4437 64.9152 42.1729 64.6323 41.6352 64.0355C41.4664 59.4391 41.2976 54.8388 41.1328 50.2424C41.6116 49.4441 41.8471 49.0526 42.3259 48.3008C45.4304 48.3008 48.5309 48.3008 51.6353 48.3008C51.6431 49.4712 51.6471 50.0525 51.6549 51.2229C49.4492 51.6105 47.2396 51.9477 45.0183 52.2422C44.9005 52.4321 44.8417 52.529 44.72 52.7228C44.8103 55.1411 44.9044 57.5594 44.9947 59.9778C45.1242 60.1095 45.191 60.1716 45.3205 60.2995C46.6078 59.7685 47.8519 59.2143 49.1039 58.6058C49.0803 57.8152 49.0725 57.4199 49.0489 56.6293C48.3111 56.9316 47.9422 57.075 47.1886 57.3424Z" fill="#0B2239"/>
<path d="M12.4572 48.8086H3.26953V53.1686C3.58743 52.967 3.88178 52.7578 4.12511 52.5369C5.67144 51.1378 3.48146 49.9906 6.83315 49.9906C10.1848 49.9906 10.3144 49.607 11.8646 49.9906C12.6064 50.1728 12.9361 50.9324 13.3717 51.5796L13.4149 50.3782C13.0499 49.7659 12.8222 49.3938 12.4572 48.8086Z" fill="#0B2239"/>
<path d="M18.3675 50.8975L18.4225 48.8125H15.9264L15.8047 52.3896C17.2058 51.9284 17.8259 51.2463 18.3675 50.8975Z" fill="#0B2239"/>
<path d="M23.5862 48.8086L23.5352 52.2927C24.6929 52.4012 25.6977 52.2229 25.9881 51.692C26.0116 51.6455 26.043 51.6028 26.0784 51.5602L26.0862 48.8047H23.5862V48.8086Z" fill="#0B2239"/>
<path d="M37.9379 48.8086H28.7031L28.7071 50.7541C29.6647 50.7231 30.6655 50.8588 31.3444 51.1378C32.8908 51.7734 35.3437 50.1185 36.89 49.8627C38.3343 49.6263 36.8626 50.3627 39.0761 51.4595L39.0408 50.4712C38.6169 49.8434 38.3579 49.4558 37.9379 48.8086Z" fill="#0B2239"/>
<path d="M42.6139 48.8086C42.2685 49.355 42.0409 49.7271 41.6562 50.3743L41.719 52.0912C42.9789 51.9284 43.6578 50.9053 45.2709 50.3743C46.8211 49.8627 49.3997 50.3162 51.1383 50.7154L51.1265 48.8125H42.6139V48.8086Z" fill="#0B2239"/>
<path d="M4.25463 58.0132C4.51366 58.9046 4.15651 59.1332 5.30252 59.4006C5.3457 59.4123 5.38494 59.4162 5.42419 59.4239L5.49091 57.0094L6.19735 57.3195C7.69659 57.9783 9.1919 58.5674 10.7343 59.1061C11.4486 58.9511 11.1896 58.393 12.5122 59.1371C12.7006 58.9162 12.885 58.6914 13.1244 58.3969L13.3717 51.5798C12.94 50.9365 12.6103 50.1769 11.8646 49.9908C10.3183 49.6072 10.1888 49.9908 6.83316 49.9908C3.48146 49.9908 5.67145 51.138 4.12511 52.5371C3.88178 52.758 3.58743 52.9711 3.26953 53.1688V57.3272C3.80721 57.552 4.19183 57.7884 4.25463 58.0132ZM5.65575 51.0992L6.2366 51.1923C7.50428 51.3938 8.79943 51.5798 10.0828 51.7387L10.3301 51.7697L10.4596 51.979C10.5773 52.1728 10.6401 52.2697 10.7579 52.4634L10.8363 52.5952L10.7304 55.4282L10.6126 55.5639C10.4792 55.715 10.4125 55.7886 10.279 55.9398L10.075 56.1684L9.77668 56.0987C8.48153 55.7964 7.18638 55.4515 5.92655 55.0717L5.54978 54.9593L5.65575 51.0992Z" fill="#0B2239"/>
<path d="M23.0904 66.2911C24.1422 66.2911 25.2254 66.2252 26.0378 66.1593L26.081 51.564C26.0457 51.6067 26.0143 51.6493 25.9907 51.6958C25.7003 52.2267 24.6995 52.405 23.5378 52.2965L23.3808 63.024L23.3023 63.148C23.165 63.3573 23.0982 63.4619 22.9609 63.6712L22.7921 63.9309L22.4781 63.8999C21.2497 63.7797 20.0134 63.6092 18.8007 63.3922L18.5534 63.3457L18.0628 62.4194L18.369 50.8936C17.8234 51.2424 17.2033 51.9244 15.8061 52.3856L15.4961 61.3885C16.0024 61.9543 16.4184 62.5783 17.1523 63.4891C18.7026 65.3997 21.026 66.2911 23.0904 66.2911Z" fill="#0B2239"/>
<path d="M35.4654 66.2911C36.6232 66.0624 38.6051 65.5663 39.0015 65.4694C39.1585 65.1594 39.3155 64.8455 39.5157 64.4541L39.3155 58.6252C39.0839 58.3772 38.923 58.2028 38.6562 57.9044L38.3971 57.6176L38.6051 57.2921C38.8642 56.8929 39.0055 56.672 39.237 56.3193L39.0722 51.4632C36.8586 50.3665 38.3304 49.6301 36.8861 49.8665C35.3398 50.1223 32.8868 51.7772 31.3405 51.1416C30.6615 50.8625 29.6608 50.7308 28.7031 50.7579L28.7384 65.7214C29.1623 65.7562 29.6568 65.9113 30.1788 66.2988C31.7251 67.4382 34.1781 66.5468 35.4654 66.2911ZM36.788 60.2723L36.8469 62.4426L36.3524 63.3767L36.0973 63.4154C34.704 63.6363 33.3421 63.8146 31.9371 63.958L31.3758 64.0161L31.3209 59.9081L31.8076 59.877C33.1616 59.7879 34.5274 59.6406 35.8657 59.4507L36.1836 59.4042L36.3641 59.6678C36.4976 59.8615 36.5643 59.9584 36.7017 60.1483L36.788 60.2723ZM31.7291 52.7693C33.0595 52.7305 34.4057 52.6724 35.7323 52.591L36.0345 52.5717L36.1993 52.8236C36.3327 53.029 36.3995 53.1297 36.5329 53.3351L36.6114 53.4553L36.6663 55.6217L36.164 56.5402L35.8892 56.5673C34.5391 56.6991 33.1655 56.796 31.8076 56.858L31.2738 56.8812L31.2189 52.7848L31.7291 52.7693Z" fill="#0B2239"/>
<path d="M47.335 60.4349C47.9786 59.6715 49.3994 59.6715 50.5611 59.5436C51.7228 59.4157 50.7573 59.1366 51.7542 57.3035V53.2226C50.5375 53.5597 49.2188 53.8853 47.6019 54.2573L47.6843 56.6253C48.0611 56.4858 48.379 56.3617 48.8578 56.168L49.5485 55.8889L49.6309 58.9274L49.3327 59.0707C48.0689 59.6831 46.8209 60.2412 45.5218 60.776L45.2039 60.9078L44.9605 60.6713C44.8271 60.5435 44.7604 60.4776 44.6309 60.3419L44.4896 60.2024L44.2031 52.5986L44.2816 52.4668C44.3993 52.2692 44.4621 52.1723 44.5799 51.9824L44.7094 51.777L44.9527 51.746C47.0249 51.4708 49.105 51.153 51.138 50.8042V50.7228C49.3994 50.3275 46.8209 49.8741 45.2706 50.3818C43.6575 50.9127 42.9786 51.9359 41.7188 52.0987L42.1465 63.8454C42.1662 63.8687 42.1858 63.888 42.2054 63.9113C42.5115 63.7834 42.8412 63.6478 43.2062 63.5005C46.6913 62.0898 46.6913 61.1984 47.335 60.4349Z" fill="#0B2239"/>
<path d="M10.7305 59.1055C11.1936 59.2683 11.6606 59.4233 12.1316 59.5745C12.269 59.4156 12.3906 59.2761 12.5123 59.1365C11.1857 58.3924 11.4448 58.9505 10.7305 59.1055Z" fill="#0B2239"/>
<path d="M5.37709 61.0632L5.42419 59.4238C5.38494 59.4199 5.3457 59.4122 5.30252 59.4006C4.15651 59.1331 4.51366 58.9045 4.25463 58.0131C4.18791 57.7845 3.80329 57.5519 3.26953 57.3271V59.4277C3.9485 60.0013 4.65495 60.5477 5.37709 61.0632Z" fill="#0B2239"/>
<path d="M16.4503 66.516L16.4581 66.5315C19.2525 67.3221 22.0273 67.8298 24.9198 68.0779C25.324 67.4345 25.5831 67.0198 26.0305 66.2874V66.1595C25.2181 66.2253 24.1348 66.2912 23.083 66.2912C21.0186 66.2912 18.6991 65.3999 17.1489 63.4892C16.411 62.5785 15.995 61.9584 15.4927 61.3887L15.3906 64.4155C15.8027 65.2332 16.0421 65.7138 16.4503 66.516Z" fill="#0B2239"/>
<path d="M38.4519 66.5665C38.6677 66.1402 38.8326 65.8069 39.0053 65.4697C38.6089 65.5705 36.6269 66.0627 35.4691 66.2913C34.1779 66.5471 31.7289 67.4385 30.1826 66.2913C29.6606 65.9038 29.1661 65.7488 28.7422 65.7139L28.7461 68.14C32.0664 67.9772 35.2493 67.4618 38.4519 66.5665Z" fill="#0B2239"/>
<path d="M51.7558 59.4197V57.2998C50.7589 59.1329 51.7205 59.412 50.5627 59.5399C49.401 59.6678 47.9842 59.6678 47.3366 60.4312C46.693 61.1947 46.693 62.0861 43.2078 63.489C42.8428 63.6363 42.5132 63.772 42.207 63.8999C42.5406 64.2719 42.7761 64.5161 43.0862 64.8339C46.2024 63.365 49.0438 61.59 51.7558 59.4197Z" fill="#0B2239"/>
<path d="M3.53792 47.3789L2.94922 48.3013L5.4885 50.6421L3.53792 47.3789Z" fill="white"/>
<path d="M20.0995 60.4201L19.0045 60.3232L18.0547 63.6213L20.0995 60.4201Z" fill="white"/>
<path d="M32.6562 53.4362L33.4844 54.1532L36.2238 52.0449L32.6562 53.4362Z" fill="white"/>
<path d="M24.4409 46.8936L23.7109 47.7074L25.8303 50.4242L24.4409 46.8936Z" fill="white"/>
<path d="M39.552 67.8804L39.8738 66.8418L36.8047 65.2373L39.552 67.8804Z" fill="white"/>
<path d="M52.6471 47.7541L51.6502 47.2891L49.6055 50.0601L52.6471 47.7541Z" fill="white"/>
<path d="M40.7508 61.4463L40.582 62.5237L43.8513 63.6747L40.7508 61.4463Z" fill="white"/>
</g>
<defs>
<clipPath id="clip0_622_54553">
<rect width="54.1333" height="70" fill="white"/>
</clipPath>
</defs>
</svg>
