<svg width="195" height="46" viewBox="0 0 195 46" fill="none" xmlns="http://www.w3.org/2000/svg">
<g filter="url(#filter0_i_622_54491)">
<path d="M50.0055 15.874H69.8048V19.3998H62.0197V39.2199H57.7387V19.3998H49.9883V15.874H50.0055ZM68.9589 22.316H72.6185V25.5782H72.6874C72.8082 25.1168 73.0327 24.6721 73.3607 24.2437C73.6887 23.8153 74.0856 23.4035 74.5517 23.0574C75.0178 22.695 75.5356 22.4149 76.1053 22.1843C76.675 21.9701 77.2618 21.8548 77.8488 21.8548C78.2975 21.8548 78.6255 21.8712 78.7981 21.8878C78.9708 21.9042 79.1434 21.9371 79.3333 21.9535V25.5452C79.0571 25.4959 78.7809 25.4629 78.4874 25.4299C78.1939 25.397 77.9178 25.3806 77.6416 25.3806C76.9856 25.3806 76.3643 25.5123 75.7773 25.7594C75.1905 26.0066 74.6898 26.3856 74.2582 26.8633C73.8268 27.3576 73.4815 27.9507 73.2226 28.6756C72.9636 29.4005 72.8428 30.2243 72.8428 31.1634V39.2035H68.9416V22.316H68.9589ZM97.2681 39.2199H93.436V36.864H93.367C92.8838 37.7208 92.1759 38.3961 91.2266 38.907C90.2772 39.4177 89.3105 39.6813 88.3266 39.6813C85.9963 39.6813 84.3046 39.1376 83.269 38.0337C82.2331 36.9299 81.7154 35.2658 81.7154 33.0417V22.316H85.6165V32.6791C85.6165 34.162 85.91 35.2164 86.514 35.826C87.101 36.4356 87.9468 36.7487 89.0172 36.7487C89.8456 36.7487 90.5188 36.6332 91.0712 36.3861C91.6237 36.1391 92.0723 35.826 92.4004 35.414C92.7456 35.0186 92.9873 34.5245 93.1425 33.9642C93.2979 33.4042 93.367 32.7946 93.367 32.1354V22.3325H97.2681V39.2199ZM103.914 33.7996C104.035 34.8869 104.466 35.6448 105.209 36.0896C105.968 36.518 106.866 36.7487 107.919 36.7487C108.281 36.7487 108.695 36.7157 109.162 36.6662C109.627 36.6169 110.076 36.5016 110.473 36.3533C110.888 36.2049 111.216 35.9743 111.492 35.6778C111.751 35.3812 111.872 35.0022 111.854 34.5245C111.837 34.0466 111.647 33.6511 111.302 33.3546C110.957 33.0417 110.525 32.811 109.99 32.6133C109.455 32.4321 108.851 32.2673 108.16 32.1354C107.47 32.0037 106.779 31.8555 106.072 31.707C105.347 31.5588 104.639 31.3612 103.966 31.147C103.293 30.9328 102.688 30.6363 102.153 30.2572C101.618 29.8948 101.187 29.417 100.876 28.8404C100.548 28.2638 100.393 27.5553 100.393 26.6985C100.393 25.776 100.634 25.0181 101.1 24.3919C101.566 23.7659 102.171 23.2716 102.878 22.8926C103.603 22.5138 104.397 22.2502 105.278 22.0854C106.158 21.9371 107.004 21.8548 107.798 21.8548C108.713 21.8548 109.593 21.9535 110.422 22.1347C111.25 22.316 112.01 22.6127 112.683 23.041C113.356 23.4528 113.908 23.9965 114.357 24.6555C114.806 25.3146 115.082 26.1219 115.203 27.061H111.129C110.939 26.1714 110.525 25.5618 109.852 25.2651C109.179 24.9522 108.402 24.8039 107.539 24.8039C107.263 24.8039 106.935 24.8203 106.555 24.8697C106.175 24.9192 105.83 25.0015 105.485 25.1168C105.157 25.2323 104.881 25.4135 104.639 25.6441C104.414 25.8747 104.294 26.1714 104.294 26.5502C104.294 27.0116 104.466 27.374 104.794 27.6542C105.122 27.9343 105.554 28.1649 106.089 28.3625C106.624 28.5439 107.228 28.7085 107.919 28.8404C108.609 28.9721 109.317 29.1205 110.042 29.2688C110.75 29.417 111.44 29.6147 112.131 29.8289C112.821 30.043 113.425 30.3396 113.96 30.7186C114.495 31.0976 114.927 31.5588 115.255 32.119C115.583 32.6791 115.755 33.3876 115.755 34.2114C115.755 35.2164 115.514 36.0566 115.03 36.7651C114.547 37.457 113.926 38.0337 113.166 38.4621C112.407 38.8904 111.544 39.2199 110.612 39.4177C109.679 39.6153 108.747 39.7142 107.832 39.7142C106.71 39.7142 105.675 39.599 104.725 39.3518C103.776 39.1046 102.947 38.7422 102.257 38.2644C101.566 37.7701 101.014 37.1605 100.617 36.4356C100.22 35.7107 100.013 34.8374 99.9782 33.8326H103.914V33.7996ZM116.791 22.316H119.743V17.2415H123.644V22.316H127.166V25.1004H123.644V34.1291C123.644 34.5245 123.661 34.854 123.696 35.1505C123.73 35.4306 123.817 35.6778 123.938 35.8754C124.058 36.0732 124.248 36.2214 124.507 36.3203C124.766 36.4191 125.094 36.4686 125.543 36.4686C125.819 36.4686 126.095 36.4686 126.371 36.452C126.648 36.4356 126.924 36.4027 127.2 36.3367V39.2199C126.768 39.2695 126.337 39.3024 125.94 39.3518C125.526 39.4012 125.111 39.4177 124.68 39.4177C123.644 39.4177 122.816 39.3188 122.194 39.1376C121.573 38.9564 121.072 38.6763 120.727 38.3138C120.364 37.9514 120.14 37.5066 120.002 36.9629C119.881 36.4191 119.795 35.7931 119.777 35.1011V25.1334H116.826V22.316H116.791ZM129.927 22.316H133.621V24.6061H133.69C134.243 23.6177 135.002 22.9256 135.986 22.4974C136.97 22.069 138.023 21.8548 139.18 21.8548C140.578 21.8548 141.786 22.0854 142.822 22.5631C143.858 23.0245 144.721 23.667 145.411 24.4908C146.102 25.3146 146.602 26.2701 146.947 27.3576C147.293 28.445 147.465 29.6147 147.465 30.8504C147.465 31.9872 147.31 33.0911 146.999 34.1455C146.688 35.2164 146.222 36.1555 145.601 36.9793C144.98 37.8031 144.186 38.4457 143.219 38.9398C142.252 39.4341 141.13 39.6813 139.818 39.6813C139.249 39.6813 138.679 39.6319 138.109 39.533C137.54 39.4341 136.987 39.2695 136.47 39.0553C135.952 38.8411 135.451 38.561 135.02 38.2149C134.571 37.869 134.208 37.4736 133.898 37.0287H133.829V45.4643H129.927V22.316ZM143.564 30.7845C143.564 30.0267 143.461 29.2852 143.253 28.5603C143.046 27.8354 142.736 27.2092 142.321 26.6491C141.907 26.0889 141.389 25.6441 140.785 25.3146C140.164 24.9852 139.456 24.8039 138.662 24.8039C137.022 24.8039 135.779 25.3476 134.951 26.4349C134.122 27.5223 133.708 28.9721 133.708 30.7845C133.708 31.6413 133.811 32.4321 134.036 33.157C134.26 33.8819 134.571 34.5079 135.02 35.0352C135.451 35.5625 135.969 35.9743 136.573 36.2708C137.177 36.5839 137.885 36.7321 138.679 36.7321C139.577 36.7321 140.319 36.5509 140.94 36.2049C141.562 35.859 142.062 35.3976 142.459 34.854C142.856 34.2937 143.15 33.6677 143.323 32.9592C143.478 32.2509 143.564 31.5258 143.564 30.7845ZM150.452 15.874H154.353V19.3998H150.452V15.874ZM150.452 22.316H154.353V39.2199H150.452V22.316ZM157.84 15.874H161.74V39.2199H157.84V15.874ZM173.704 39.6813C172.287 39.6813 171.028 39.4507 169.923 39.0057C168.819 38.561 167.885 37.935 167.108 37.1605C166.349 36.3697 165.762 35.4306 165.366 34.3433C164.968 33.2557 164.762 32.0531 164.762 30.7516C164.762 29.4664 164.968 28.2802 165.366 27.1928C165.762 26.1055 166.349 25.1664 167.108 24.3755C167.869 23.5847 168.819 22.9751 169.923 22.5302C171.028 22.0854 172.287 21.8548 173.704 21.8548C175.118 21.8548 176.378 22.0854 177.482 22.5302C178.589 22.9751 179.521 23.6011 180.297 24.3755C181.057 25.1664 181.643 26.1055 182.04 27.1928C182.438 28.2802 182.644 29.4664 182.644 30.7516C182.644 32.0531 182.438 33.2557 182.04 34.3433C181.643 35.4306 181.057 36.3697 180.297 37.1605C179.538 37.9514 178.589 38.561 177.482 39.0057C176.378 39.4507 175.118 39.6813 173.704 39.6813ZM173.704 36.7321C174.565 36.7321 175.326 36.5509 175.964 36.2049C176.603 35.859 177.121 35.3976 177.535 34.8374C177.949 34.2773 178.243 33.6348 178.45 32.9262C178.64 32.2179 178.744 31.4928 178.744 30.7516C178.744 30.0267 178.64 29.3181 178.45 28.5933C178.259 27.8684 177.949 27.2422 177.535 26.6821C177.121 26.1219 176.603 25.6771 175.964 25.331C175.326 24.9852 174.565 24.8039 173.704 24.8039C172.841 24.8039 172.08 24.9852 171.442 25.331C170.802 25.6771 170.284 26.1384 169.87 26.6821C169.456 27.2422 169.162 27.8684 168.956 28.5933C168.766 29.3181 168.662 30.0267 168.662 30.7516C168.662 31.4928 168.766 32.2179 168.956 32.9262C169.146 33.6348 169.456 34.2773 169.87 34.8374C170.284 35.3976 170.802 35.859 171.442 36.2049C172.08 36.5675 172.841 36.7321 173.704 36.7321ZM183.784 22.316H186.736V17.2415H190.636V22.316H194.158V25.1004H190.636V34.1291C190.636 34.5245 190.654 34.854 190.689 35.1505C190.723 35.4306 190.809 35.6778 190.931 35.8754C191.05 36.0732 191.241 36.2214 191.5 36.3203C191.759 36.4191 192.086 36.4686 192.536 36.4686C192.812 36.4686 193.089 36.4686 193.363 36.452C193.64 36.4356 193.917 36.4027 194.193 36.3367V39.2199C193.762 39.2695 193.33 39.3024 192.932 39.3518C192.518 39.4012 192.104 39.4177 191.672 39.4177C190.636 39.4177 189.809 39.3188 189.187 39.1376C188.565 38.9564 188.064 38.6763 187.719 38.3138C187.356 37.9514 187.133 37.5066 186.995 36.9629C186.874 36.4191 186.787 35.7931 186.77 35.1011V25.1334H183.819V22.316H183.784Z" fill="white"/>
<path d="M45.4481 15.8739H27.5651L22.0414 -0.371094L16.5004 15.8739L-1.38281 15.8573L13.0997 25.9074L7.55868 42.1358L22.0414 32.1023L36.5066 42.1358L30.9829 25.9074L45.4481 15.8739Z" fill="#00B67A"/>
<path d="M32.2273 29.5814L30.9845 25.9072L22.043 32.102L32.2273 29.5814Z" fill="#005128"/>
</g>
<defs>
<filter id="filter0_i_622_54491" x="-1.38281" y="-0.371094" width="195.574" height="45.835" filterUnits="userSpaceOnUse" color-interpolation-filters="sRGB">
<feFlood flood-opacity="0" result="BackgroundImageFix"/>
<feBlend mode="normal" in="SourceGraphic" in2="BackgroundImageFix" result="shape"/>
<feColorMatrix in="SourceAlpha" type="matrix" values="0 0 0 0 0 0 0 0 0 0 0 0 0 0 0 0 0 0 127 0" result="hardAlpha"/>
<feOffset/>
<feGaussianBlur stdDeviation="5"/>
<feComposite in2="hardAlpha" operator="arithmetic" k2="-1" k3="1"/>
<feColorMatrix type="matrix" values="0 0 0 0 0 0 0 0 0 0 0 0 0 0 0 0 0 0 0.1 0"/>
<feBlend mode="normal" in2="shape" result="effect1_innerShadow_622_54491"/>
</filter>
</defs>
</svg>
