<svg width="49" height="24" viewBox="0 0 49 24" fill="none" xmlns="http://www.w3.org/2000/svg">
<g opacity="0.5">
<path d="M19.6192 6.20898L17.1289 20.8227H21.1117L23.604 6.20898H19.6192Z" fill="white"/>
<path d="M13.791 6.22475L9.89022 16.1909L9.47432 14.6861C8.70501 12.873 6.52104 10.269 3.95703 8.62794L7.52391 20.8149L11.7382 20.8078L18.0104 6.22168L13.791 6.22475Z" fill="white"/>
<path d="M7.96145 7.27124C7.72994 6.38105 7.05897 6.11574 6.22616 6.08398H0.0512188L0 6.37491C4.80535 7.54065 7.98501 10.3495 9.30441 13.7269L7.96145 7.27124Z" fill="white"/>
<path d="M31.6776 9.00967C32.9806 8.98918 33.925 9.27396 34.6585 9.56898L35.018 9.738L35.5569 6.57063C34.7681 6.27459 33.5317 5.95703 31.989 5.95703C28.0533 5.95703 25.2793 7.9392 25.2578 10.7798C25.2322 12.8787 27.2338 14.0506 28.7458 14.7503C30.2977 15.4673 30.8181 15.9232 30.8109 16.5634C30.7986 17.5417 29.5735 17.9904 28.4293 17.9904C26.8343 17.9904 25.9871 17.7701 24.679 17.2252L24.1658 16.9916L23.6055 20.2624C24.5377 20.6712 26.2576 21.0225 28.0431 21.041C32.2297 21.041 34.9504 19.0824 34.9791 16.0471C34.9965 14.3866 33.9343 13.1195 31.6325 12.0797C30.2393 11.4016 29.387 10.9509 29.3952 10.2666C29.3952 9.65912 30.1185 9.00967 31.6776 9.00967Z" fill="white"/>
<path d="M45.7768 6.22461H42.6996C41.7439 6.22461 41.0329 6.4848 40.6129 7.43747L34.6992 20.8302H38.8817C38.8817 20.8302 39.564 19.0293 39.7187 18.6349C40.1766 18.6349 44.2403 18.6411 44.819 18.6411C44.9379 19.1512 45.3046 20.8302 45.3046 20.8302H48.9995L45.7768 6.22461ZM40.8649 15.6437C41.1927 14.8048 42.4517 11.5596 42.4517 11.5596C42.4302 11.5995 42.7764 10.7144 42.9823 10.1644L43.2507 11.4243C43.2507 11.4243 44.0139 14.9134 44.1737 15.6437H40.8649Z" fill="white"/>
</g>
</svg>
