<svg width="56" height="84" viewBox="0 0 56 84" fill="none" xmlns="http://www.w3.org/2000/svg">
<path d="M41.3359 5.33301H6.66927C3.72375 5.33301 1.33594 7.72082 1.33594 10.6663V77.333C1.33594 80.2785 3.72375 82.6663 6.66927 82.6663H41.3359C44.2815 82.6663 46.6693 80.2785 46.6693 77.333V10.6663C46.6693 7.72082 44.2815 5.33301 41.3359 5.33301Z" fill="#EEF4F8"/>
<path d="M12 5.33301H36V9.33301C36 10.0403 35.7191 10.7185 35.219 11.2186C34.7189 11.7187 34.0406 11.9997 33.3333 11.9997H14.6667C13.9594 11.9997 13.2811 11.7187 12.781 11.2186C12.281 10.7185 12 10.0403 12 9.33301V5.33301Z" fill="#7F93A7"/>
<path d="M41.3333 84H6.66667C4.89921 83.9979 3.20474 83.2948 1.95496 82.045C0.705176 80.7953 0.00211714 79.1008 0 77.3333V10.6667C0.00211714 8.89921 0.705176 7.20474 1.95496 5.95496C3.20474 4.70518 4.89921 4.00212 6.66667 4L41.3333 4C43.1008 4.00212 44.7953 4.70518 46.045 5.95496C47.2948 7.20474 47.9979 8.89921 48 10.6667V77.3333C47.9979 79.1008 47.2948 80.7953 46.045 82.045C44.7953 83.2948 43.1008 83.9979 41.3333 84ZM6.66667 6.66667C5.6058 6.66667 4.58838 7.08809 3.83824 7.83824C3.08809 8.58839 2.66667 9.6058 2.66667 10.6667V77.3333C2.66667 78.3942 3.08809 79.4116 3.83824 80.1618C4.58838 80.9119 5.6058 81.3333 6.66667 81.3333H41.3333C42.3942 81.3333 43.4116 80.9119 44.1618 80.1618C44.9119 79.4116 45.3333 78.3942 45.3333 77.3333V10.6667C45.3333 9.6058 44.9119 8.58839 44.1618 7.83824C43.4116 7.08809 42.3942 6.66667 41.3333 6.66667H6.66667Z" fill="#7F93A7"/>
<path d="M29.3307 9.33366H23.9974C23.6438 9.33366 23.3046 9.19318 23.0546 8.94313C22.8045 8.69309 22.6641 8.35395 22.6641 8.00033C22.6641 7.6467 22.8045 7.30756 23.0546 7.05752C23.3046 6.80747 23.6438 6.66699 23.9974 6.66699H29.3307C29.6844 6.66699 30.0235 6.80747 30.2735 7.05752C30.5236 7.30756 30.6641 7.6467 30.6641 8.00033C30.6641 8.35395 30.5236 8.69309 30.2735 8.94313C30.0235 9.19318 29.6844 9.33366 29.3307 9.33366Z" fill="#EEF4F8"/>
<path d="M18.6693 9.33366C18.3156 9.33366 17.9765 9.19318 17.7265 8.94313C17.4764 8.69309 17.3359 8.35395 17.3359 8.00033C17.3359 7.6467 17.4764 7.30756 17.7265 7.05752C17.9765 6.80747 18.3156 6.66699 18.6693 6.66699C19.0229 6.66699 19.362 6.80747 19.6121 7.05752C19.8621 7.30756 20.0026 7.6467 20.0026 8.00033C20.0026 8.35395 19.8621 8.69309 19.6121 8.94313C19.362 9.19318 19.0229 9.33366 18.6693 9.33366Z" fill="#EEF4F8"/>
<path d="M31.9974 78.6667H15.9974C15.6438 78.6667 15.3046 78.5262 15.0546 78.2761C14.8045 78.0261 14.6641 77.687 14.6641 77.3333C14.6641 76.9797 14.8045 76.6406 15.0546 76.3905C15.3046 76.1405 15.6438 76 15.9974 76H31.9974C32.351 76 32.6902 76.1405 32.9402 76.3905C33.1903 76.6406 33.3307 76.9797 33.3307 77.3333C33.3307 77.687 33.1903 78.0261 32.9402 78.2761C32.6902 78.5262 32.351 78.6667 31.9974 78.6667Z" fill="#8EADC1"/>
<path d="M55.9838 13.0201C55.9201 14.6156 55.5829 16.1875 54.9874 17.6643C54.8064 18.1175 54.5978 18.5586 54.3629 18.9852H54.359C53.8994 19.8428 53.3393 20.6402 52.6911 21.36L52.6664 21.3835C52.3919 21.6881 52.1006 21.9765 51.7939 22.2473L51.7616 22.2772C51.3331 22.652 50.8764 22.9918 50.3955 23.2934C50.3821 23.3031 50.3679 23.3118 50.3532 23.3193H50.3493C48.9368 24.2004 47.3239 24.6916 45.6689 24.7446H45.6381C45.5611 24.7446 45.4841 24.7446 45.4071 24.7446C45.29 24.7446 45.1691 24.7446 45.0521 24.7383L44.8626 24.7281C44.8072 24.7281 44.7487 24.7218 44.694 24.7155C44.6393 24.7093 44.5662 24.7061 44.5007 24.6991C44.463 24.6991 44.4237 24.6896 44.3867 24.6865C43.8342 24.6258 43.2882 24.5136 42.7557 24.3512C42.4102 24.2463 42.0706 24.1221 41.7385 23.9789C37.9421 22.3204 35.1352 18.1073 34.9905 13.0201C34.9647 12.1408 35.0209 11.2609 35.1583 10.3925C35.8298 6.13615 38.3926 2.59052 41.8709 1.07961C42.6522 0.736774 43.4755 0.503765 44.3182 0.386973L44.4083 0.375979C44.4278 0.371435 44.4476 0.368806 44.4676 0.368126C44.8116 0.326373 45.1576 0.303566 45.5041 0.299805H45.5749C45.6388 0.299805 45.7066 0.299805 45.7698 0.303731C48.7199 0.364199 51.3527 1.84056 53.2039 4.16112C53.2401 4.20196 53.2678 4.23965 53.2863 4.26085C53.3048 4.28206 53.3217 4.30562 53.3217 4.30562C55.1083 6.61047 56.1224 9.69434 55.9838 13.0201Z" fill="url(#paint0_linear_1452_615)"/>
<path d="M46.0884 24.7134L45.6741 24.7424H45.6433L43.454 24.8877H43.4063L42.4345 24.9521H42.4206L41.7838 24.9937H41.7422V24.945V24.7487V24.4165V23.9736L41.8192 10.1052L41.87 1.07429L41.8739 0.457829V0.0172766V0L43.2969 0.109942L45.7611 0.299984V0.31412V0.496309V0.549709L45.7665 0.799435V0.920371V0.950997L45.8435 7.3771L46.0491 23.2912L46.0591 24.0765V24.155V24.1841L46.0638 24.488V24.6301L46.0884 24.7134Z" fill="url(#paint1_linear_1452_615)"/>
<path d="M52.6814 13.0203C52.6357 14.6614 52.3038 16.2811 51.7011 17.8035C51.7009 17.8082 51.6996 17.8128 51.6973 17.8169C51.6934 17.8169 51.6934 17.8169 51.6973 17.8208C51.6788 17.8711 51.6203 18.0265 51.5125 18.2558C51.4671 18.3705 51.4147 18.4812 51.3631 18.5888C50.8791 19.6177 50.2571 20.5728 49.5149 21.4269C49.4123 21.5452 49.3096 21.6604 49.2069 21.7724C48.3127 22.7249 47.2552 23.5026 46.0866 24.0671C45.5455 24.327 44.9814 24.5337 44.4018 24.6843C44.2431 24.7259 44.0845 24.7628 43.9228 24.8005H43.9189C43.7849 24.8296 43.6502 24.8555 43.5123 24.8744L43.4607 24.8846C42.981 24.9607 42.4962 24.9993 42.0107 25C41.9337 25 41.8567 25 41.7835 25H41.742C40.7829 24.9696 39.8339 24.7909 38.9274 24.4699C38.8073 24.4307 38.6902 24.3914 38.5762 24.3482C38.55 24.3414 38.5243 24.3327 38.4992 24.3223C37.4754 23.9062 36.5224 23.3279 35.6754 22.6088C35.6754 22.6025 35.6654 22.5993 35.6616 22.5962C34.983 22.0183 34.3706 21.3642 33.8358 20.6463V20.6424C32.3141 18.5959 31.3354 15.9526 31.2176 13.0203C31.1232 10.9335 31.4923 8.85199 32.2972 6.93105C32.2972 6.93105 32.3241 6.86194 32.3857 6.73787C33.6941 3.77572 35.995 1.49207 38.8204 0.515942C38.8282 0.515417 38.8359 0.512995 38.8427 0.508874C39.0098 0.448406 39.1815 0.395006 39.3525 0.351814C39.4456 0.325114 39.535 0.30234 39.6251 0.279567C39.7891 0.237946 39.9493 0.201037 40.1102 0.173551C40.2034 0.154704 40.3004 0.138998 40.3936 0.124077C40.8847 0.0422011 41.3814 0.000708423 41.879 2.56042e-08C42.3554 -3.5413e-05 42.8311 0.0367169 43.3021 0.109942C43.695 0.168804 44.0836 0.255129 44.4649 0.368305C44.4818 0.367926 44.4985 0.371982 44.5134 0.380085C44.6597 0.421706 44.8053 0.467253 44.9508 0.519868C44.9593 0.523129 44.9681 0.525754 44.977 0.527721C45.245 0.622742 45.516 0.728758 45.774 0.845767C49.9878 2.74855 52.8493 7.56243 52.6814 13.0203Z" fill="url(#paint2_linear_1452_615)"/>
<g style="mix-blend-mode:multiply" opacity="0.2">
<path d="M48.4871 3.50781C48.4101 4.02061 47.4737 5.74434 45.8619 7.37384C44.797 8.45049 43.4386 9.48708 41.823 10.1114C41.119 10.3876 40.3837 10.5723 39.6345 10.6611C37.7725 10.881 36.2947 10.7216 35.1612 10.3917C33.0327 9.7635 32.0933 8.50703 32.1341 7.94868C32.7186 6.49366 33.5032 5.13085 34.4643 3.90125C35.5347 2.53875 36.9839 1.18961 38.8244 0.515822C38.8323 0.515298 38.8399 0.512876 38.8467 0.508755C39.0138 0.448287 39.1855 0.394886 39.3565 0.351695C39.4165 0.332848 39.4797 0.314001 39.5428 0.298295C39.5694 0.289899 39.5964 0.282823 39.6237 0.277092C39.7877 0.235471 39.9479 0.198562 40.1088 0.171076C40.202 0.152229 40.299 0.136523 40.3922 0.121602C40.8844 0.0477386 41.3817 0.0146479 41.8792 0.0226546C42.6866 0.0308138 43.4893 0.148328 44.2664 0.372113C44.2858 0.373733 44.3048 0.378782 44.3226 0.387033C44.825 0.531169 45.3145 0.71875 45.7857 0.947737C45.9982 1.0459 46.1985 1.15584 46.3879 1.26186C46.5989 1.38593 46.8245 1.53278 47.0617 1.69848C48.0173 2.39976 48.5456 3.12851 48.4871 3.50781Z" fill="#F42774"/>
</g>
<g style="mix-blend-mode:soft-light">
<path d="M32.367 17.6869C32.8422 18.4495 39.9051 15.2635 43.2187 14.3149C46.5531 13.3599 51.7279 14.373 52.1899 13.9866C52.6519 13.6002 52.307 7.95237 50.4188 5.19125C48.5006 2.37596 48.5129 5.34203 46.5107 6.72259C44.5301 8.08901 36.5123 10.4834 34.7989 10.3043C33.0855 10.1253 32.5064 9.35805 31.8673 9.44836C31.2281 9.53867 30.063 13.9866 32.367 17.6869Z" fill="white"/>
</g>
<path d="M48.8303 13.0207C48.7533 17.2856 45.9264 20.6899 42.4126 20.9891C42.2425 21.0032 42.073 21.0119 41.8998 21.0119C38.148 21.0119 35.0062 17.489 34.8791 13.0207C34.7459 8.41803 37.8454 4.58105 41.8097 4.58105C41.9922 4.58105 42.1716 4.59126 42.3487 4.60697C46.0581 4.93994 48.9081 8.63398 48.8303 13.0207Z" fill="url(#paint3_linear_1452_615)"/>
<path d="M48.8251 13.0201C48.7481 17.2851 45.9212 20.6894 42.4074 20.9886C38.8913 20.6925 36.0321 17.2882 35.925 13.0201C35.8141 8.63032 38.6433 4.93627 42.3481 4.60645C46.0529 4.93941 48.9028 8.63346 48.8251 13.0201Z" fill="#FF6B04"/>
<path d="M31.6858 16.0347C31.3677 14.5623 34.6844 16.4274 32.4628 18.1676C32.1144 17.4939 31.8533 16.7769 31.6858 16.0347Z" fill="white"/>
<g style="mix-blend-mode:soft-light">
<path d="M45.5769 0.299339C44.6798 0.215312 50.0556 2.28379 51.3678 6.03202C52.6484 9.68838 55.2712 8.51828 55.2712 8.51828C55.2712 8.51828 53.0242 0.618955 45.5769 0.299339Z" fill="white"/>
</g>
<g style="mix-blend-mode:multiply" opacity="0.7">
<path d="M54.9924 17.6641C54.9092 17.9821 54.6843 18.4494 54.3678 18.9849H54.364C53.8211 19.8988 53.1904 20.7553 52.4812 21.5419L52.4704 21.5513C52.2502 21.7916 52.0276 22.0225 51.7989 22.2384L51.7666 22.2683C51.3544 22.6636 50.8955 23.005 50.4005 23.2845C50.3871 23.2942 50.3729 23.3029 50.3581 23.3104H50.3543C48.8573 24.0996 47.167 24.4585 46.0851 24.6163C45.5953 24.687 45.2295 24.7192 45.0601 24.7325C44.9916 24.7325 44.9531 24.7388 44.9531 24.7388C44.9253 24.735 44.8978 24.7295 44.8707 24.7223C44.8442 24.7186 44.8183 24.7112 44.7937 24.7003C44.6905 24.6289 45.2395 24.5323 46.0804 24.1703C47.5505 23.542 49.9307 22.1104 51.36 18.5852C51.36 18.5852 54.2446 17.1018 54.9331 17.2306C55.0509 17.2573 55.0663 17.4136 54.9924 17.6641Z" fill="#DE376D"/>
</g>
<path d="M44.9375 0.515625C44.9375 0.515625 51.1542 1.94958 52.7921 9.53871C54.3492 16.7635 48.7878 22.3493 48.7878 22.3493C48.7878 22.3493 52.8206 17.2818 52.1607 10.3028C51.4668 2.98461 44.9375 0.515625 44.9375 0.515625Z" fill="#FFE016"/>
<path d="M52.6592 9.65098C52.2279 9.00075 51.223 12.5236 52.442 13.1848C53.0349 13.5115 53.4885 10.9027 52.6592 9.65098Z" fill="white"/>
<g style="mix-blend-mode:soft-light" opacity="0.5">
<path d="M51.694 17.8262C51.6755 17.8764 51.617 18.0319 51.5092 18.2612C50.9825 19.404 50.3092 20.4704 49.507 21.4323C48.6461 22.4594 47.5133 23.4803 46.0772 24.1478C45.5725 24.3825 45.0466 24.5666 44.507 24.6975C44.383 24.7266 44.2591 24.7557 44.1312 24.7761C44.1257 24.7779 44.1198 24.7779 44.1143 24.7761C43.9171 24.8145 43.7139 24.8475 43.5036 24.8695C43.4708 24.8757 43.4376 24.8802 43.4043 24.8829L43.3211 24.8923C43.0185 24.9214 42.7182 24.9402 42.4325 24.9473H42.4186C42.1876 24.9535 41.9604 24.9473 41.7402 24.9473C40.6605 24.9162 39.5923 24.7127 38.5745 24.3442C38.5482 24.3373 38.5225 24.3287 38.4975 24.3182C36.7987 23.6845 35.8438 22.7736 35.676 22.6086C35.676 22.6024 35.666 22.5992 35.6621 22.5961C35.6591 22.5912 35.6554 22.5867 35.6513 22.5827C35.4126 22.3731 36.8203 23.4144 38.9564 24.0245C39.863 24.2883 40.8012 24.4223 41.744 24.4227C42.0844 24.4195 42.4244 24.3959 42.7621 24.352C42.8514 24.3387 42.9446 24.3261 43.0347 24.3096C44.091 24.1294 45.1139 23.7851 46.0679 23.2887C49.574 21.4723 51.5315 18.1073 51.694 17.8262Z" fill="white"/>
</g>
<path d="M37.2109 18.8887C37.2109 18.8887 42.328 22.8222 46.3577 19.107C46.3577 19.107 41.9453 23.7159 37.2109 18.8887Z" fill="#FFE016"/>
<g style="mix-blend-mode:multiply" opacity="0.5">
<path d="M35.1094 10.3738C35.3681 11.7794 36.5117 7.26554 40.9256 5.86064C45.3797 4.44239 48.5746 10.6447 48.5746 10.6447C48.5746 10.6447 47.7961 4.55469 41.6349 4.55469C36.8174 4.55469 35.1094 10.3738 35.1094 10.3738Z" fill="#D42F55"/>
</g>
<g style="mix-blend-mode:soft-light">
<path d="M46.9084 23.8067C46.4933 24.0564 48.8243 24.1004 49.7869 23.5892C50.7494 23.078 52.1348 22.0531 52.3365 21.4249C52.5383 20.7967 51.2145 20.9168 50.4114 21.1108C49.6082 21.3048 48.862 22.6343 46.9084 23.8067Z" fill="white"/>
</g>
<path d="M52.4951 16.2481C51.7251 16.0023 50.6701 17.5831 51.2407 18.9025C51.8113 20.2218 54.2609 16.8057 52.4951 16.2481Z" fill="url(#paint4_linear_1452_615)"/>
<g style="mix-blend-mode:multiply" opacity="0.7">
<path d="M51.3068 17.3658C51.2483 18.3262 52.4088 18.3867 52.8469 17.8841C53.2851 17.3815 53.2528 16.2506 52.3972 16.2279C51.5417 16.2051 51.3068 17.3658 51.3068 17.3658Z" fill="#DE376D"/>
</g>
<path d="M51.0781 18.1944C51.3222 17.6172 52.0099 18.3256 52.428 18.3578C52.8462 18.39 52.1416 19.337 51.658 19.1973C51.1744 19.0575 51.0781 18.1944 51.0781 18.1944Z" fill="#FF9500"/>
<path d="M49.9442 16.6566C49.1665 16.4163 48.4041 17.5574 48.736 18.3254C49.0679 19.0934 51.2988 17.076 49.9442 16.6566Z" fill="url(#paint5_linear_1452_615)"/>
<g style="mix-blend-mode:multiply" opacity="0.7">
<path d="M49.5976 16.624C49.0632 16.7756 48.8914 17.5664 49.1047 17.802C49.318 18.0376 50.3368 17.7502 50.3699 17.2114C50.4031 16.6727 49.8093 16.5644 49.5976 16.624Z" fill="#DE376D"/>
</g>
<path d="M48.6484 18.0545C48.784 17.3477 49.0804 18.0545 49.4955 18.133C49.9106 18.2115 48.6808 18.9945 48.6484 18.0545Z" fill="#FF9500"/>
<path d="M36.8983 6.76846C36.2823 6.56743 35.7148 7.48466 35.9958 8.10975C36.2769 8.73485 37.9703 7.11792 36.8983 6.76846Z" fill="url(#paint6_linear_1452_615)"/>
<g style="mix-blend-mode:multiply" opacity="0.7">
<path d="M36.6364 6.73901C36.2221 6.8568 36.1082 7.49761 36.2807 7.68922C36.4531 7.88083 37.2448 7.65781 37.2563 7.21804C37.2679 6.77827 36.8004 6.69189 36.6364 6.73901Z" fill="#DE376D"/>
</g>
<path d="M35.9297 7.8888C36.0182 7.32024 36.2677 7.8888 36.5973 7.96026C36.9269 8.03172 35.9767 8.65132 35.9297 7.8888Z" fill="#FF9500"/>
<g style="mix-blend-mode:multiply" opacity="0.8">
<path d="M53.2848 4.26087C53.2578 4.2271 53.2293 4.1949 53.2031 4.16113L53.2848 4.26087Z" fill="#D42F55"/>
</g>
<g style="mix-blend-mode:multiply" opacity="0.8">
<path d="M53.2115 4.16209C52.9743 3.88173 52.3644 3.22444 51.3387 2.5318C51.3349 2.5318 51.331 2.5318 51.3279 2.52395C50.0958 1.69153 48.2639 0.815926 45.7789 0.494739C45.7443 0.48753 45.7093 0.482286 45.6742 0.479033C45.3045 0.433486 44.9195 0.400503 44.5229 0.38087C44.487 0.378911 44.451 0.378911 44.4151 0.38087C44.3658 0.38087 44.3173 0.38087 44.2688 0.38087C43.6242 0.358689 42.9789 0.373896 42.3359 0.426418C42.1819 0.437412 42.0325 0.453118 41.8832 0.471965C38.3347 0.864615 35.9537 2.42736 34.4659 3.91C33.2377 5.12094 32.6062 6.28946 32.3906 6.73787C33.6997 3.77572 36.0007 1.49207 38.826 0.515942C38.8339 0.515417 38.8416 0.512995 38.8483 0.508874C39.0155 0.448406 39.1872 0.395006 39.3581 0.351814C39.4182 0.332967 39.4813 0.31412 39.5445 0.298414C39.5723 0.289893 39.6006 0.282816 39.6292 0.277211C39.7932 0.23559 39.9534 0.198681 40.1143 0.171196C40.2075 0.152348 40.3045 0.136642 40.3977 0.121722C40.8894 0.0405508 41.3866 -0.000154264 41.8847 4.39304e-07C42.3611 -3.49993e-05 42.8368 0.0367174 43.3078 0.109942L45.772 0.299985V0.303911C48.729 0.363594 51.3587 1.84074 53.2115 4.16209Z" fill="#D42F55"/>
</g>
<g style="mix-blend-mode:multiply" opacity="0.8">
<path d="M52.6693 21.3807C52.3947 21.6853 52.1034 21.9737 51.7968 22.2446L51.7645 22.2744C51.3523 22.6698 50.8934 23.0111 50.3984 23.2906C50.385 23.3004 50.3708 23.309 50.356 23.3165H50.3522C48.9397 24.1976 47.3267 24.6888 45.6718 24.7418H45.641L43.4517 24.8871C42.9749 24.962 42.4933 24.9998 42.0109 25.0002C41.9339 25.0002 41.8569 25.0002 41.7837 25.0002H41.7421C40.7831 24.9698 39.834 24.7911 38.9276 24.4701C38.8074 24.4308 38.6904 24.3916 38.5764 24.3484C38.5502 24.3416 38.5245 24.3329 38.4994 24.3225C36.7984 23.6848 35.8435 22.7739 35.6756 22.6089C35.6756 22.6027 35.6656 22.5995 35.6617 22.5964C34.9832 22.0185 34.3707 21.3644 33.8359 20.6465C33.9337 20.7423 35.949 22.8383 38.9561 24.0233C39.8513 24.384 40.7873 24.6293 41.7421 24.7536C42.461 24.8477 43.1876 24.8641 43.9099 24.8023H43.9137L44.1139 24.7827C44.1194 24.7845 44.1254 24.7845 44.1309 24.7827C44.3242 24.7669 44.5159 24.7442 44.6999 24.7183L44.7931 24.7088C45.2413 24.6476 45.6733 24.5698 46.0845 24.4827C49.5991 23.7382 51.783 22.1268 52.4683 21.5566L52.4791 21.5472C52.5684 21.4695 52.6331 21.4137 52.6693 21.3807Z" fill="#D42F55"/>
</g>
<path d="M47.587 0.847829C46.2864 0.791288 49.0078 2.83542 50.0789 3.71731C51.1501 4.5992 52.9097 3.97725 52.9651 3.89086C53.0205 3.80448 50.2152 0.960912 47.587 0.847829Z" fill="white"/>
<path d="M41.3275 6.55231C36.4338 7.13108 36.1196 14.5624 37.3525 15.5094C38.61 16.4714 39.3223 15.449 39.4655 16.0426C39.6088 16.6363 38.5977 17.7303 38.5977 17.7303C38.6793 18.4574 41.9089 19.0024 42.0067 18.8391C42.1045 18.6758 42.4688 17.5787 42.4688 17.5787C42.4688 17.5787 41.7903 18.821 41.9074 18.9035C42.0244 18.986 45.7431 18.3718 45.7277 18.1669C45.7123 17.9619 44.3685 16.418 44.424 15.7144C44.4794 15.0108 48.004 16.3898 48.3058 14.9958C48.6139 13.5807 48.4575 5.7089 41.3275 6.55231ZM37.6313 12.7876C37.592 10.7772 38.5961 9.66131 39.9414 9.93067C41.3222 10.2016 41.5801 12.4154 41.1073 13.1111C40.4735 14.0386 37.6736 14.7752 37.6343 12.7876H37.6313ZM40.8463 15.4254C40.4735 15.2047 41.3198 14.1838 41.6879 13.8878C42.056 13.5917 42.9462 15.0587 43.0602 15.4851C43.1741 15.9115 41.0719 15.5597 40.8493 15.4254H40.8463ZM42.4549 13.1143C41.9659 12.413 42.2054 10.1773 43.6447 9.81601C45.1339 9.44143 46.3175 10.5848 46.2967 12.7829C46.2759 14.9566 43.1226 14.0723 42.4549 13.1143Z" fill="url(#paint7_linear_1452_615)"/>
<path d="M44.9004 7.29089C43.7969 6.46475 42.34 6.08153 40.5342 6.52365C38.455 7.02938 37.1867 8.61961 36.5299 10.3284C35.6651 12.5587 35.8368 14.9837 36.543 15.524C37.8174 16.4891 38.5344 15.4619 38.6791 16.0588C38.7477 16.3289 38.5767 16.7035 38.3657 17.0302C38.2003 17.287 38.0146 17.5297 37.8105 17.7558C37.8875 18.4845 41.1502 19.0327 41.2542 18.8678C41.3582 18.7029 41.7162 17.6003 41.7162 17.6003C41.7162 17.6003 41.7863 18.8206 41.9034 18.9047C42.0204 18.9887 44.614 18.2623 44.5986 18.0566C44.5832 17.8508 43.6822 16.5064 43.683 15.7847C43.683 15.7643 43.683 15.7501 43.6868 15.7297C43.7007 15.5098 44.0033 15.4761 44.423 15.4996C45.3471 15.5444 46.8464 15.8357 47.1952 14.9114C47.2907 14.6572 47.3621 14.3942 47.4085 14.1261C47.7951 11.983 46.9927 8.85285 44.9004 7.29089ZM42.3077 15.4996C42.4309 15.9323 40.2986 15.5719 40.0745 15.4384C39.6979 15.2177 40.5496 14.189 40.9215 13.8945C41.2981 13.5858 42.1921 15.0701 42.3077 15.4996ZM36.821 12.7896C36.7763 10.769 37.7851 9.64836 39.1427 9.91536C40.5373 10.1902 40.8037 12.415 40.3255 13.1147C39.6918 14.0437 36.8656 14.7874 36.821 12.7896ZM41.6885 13.1186C41.1918 12.4118 41.4282 10.1651 42.8798 9.80542C44.383 9.43004 45.5804 10.5805 45.565 12.7896C45.5511 14.9664 42.3631 14.0782 41.6885 13.1186Z" fill="url(#paint8_linear_1452_615)"/>
<g style="mix-blend-mode:multiply" opacity="0.5">
<path d="M37.3281 10.7631C37.3659 11.5555 38.166 10.7725 38.8513 10.4152C39.5367 10.0579 40.2051 10.7584 40.2051 10.7584C40.2051 10.7584 38.8729 8.72368 37.3281 10.7631Z" fill="#D42F55"/>
</g>
<g style="mix-blend-mode:multiply" opacity="0.5">
<path d="M41.6562 11.1063C41.6971 12.5984 42.3039 11.2688 43.2834 10.4843C44.2629 9.69982 44.9875 10.5629 44.9875 10.5629C44.9875 10.5629 44.2945 9.4281 43.0578 9.76892C41.821 10.1097 41.6562 11.1063 41.6562 11.1063Z" fill="#D42F55"/>
</g>
<g style="mix-blend-mode:soft-light">
<path d="M44.9028 7.29102C42.4732 7.74021 37.9868 10.0231 36.5299 10.3286C35.6651 12.5588 35.8368 14.9838 36.543 15.5241C37.8174 16.4892 38.5344 15.4621 38.6791 16.0589C38.7477 16.329 38.5767 16.7036 38.3657 17.0303C39.9336 17.0036 41.9172 16.4413 43.6837 15.7848C43.9363 15.689 44.182 15.5924 44.4238 15.4997C45.4429 15.0968 46.4395 14.6373 47.4093 14.1231C47.7974 11.9832 46.995 8.85298 44.9028 7.29102ZM36.8233 12.7881C36.7786 10.7675 37.7874 9.64691 39.145 9.91391C40.5396 10.1888 40.806 12.4135 40.3278 13.1132C39.6941 14.0438 36.8679 14.7875 36.8233 12.7897V12.7881ZM40.0752 15.4369C39.6987 15.2163 40.5504 14.1875 40.9223 13.893C41.2996 13.5868 42.1937 15.071 42.3084 15.4982C42.4232 15.9254 40.3009 15.572 40.0752 15.4385V15.4369ZM41.6924 13.1172C41.1957 12.4104 41.4321 10.1636 42.8837 9.80397C44.3868 9.4286 45.5843 10.5791 45.5689 12.7881C45.5535 14.9665 42.3654 14.0784 41.6908 13.1187L41.6924 13.1172Z" fill="white"/>
</g>
<path d="M45.4294 7.79494C45.1637 7.52637 45.4086 9.11974 45.8914 9.57207C46.3742 10.0244 46.7162 9.57207 46.7162 9.57207C46.7162 9.57207 46.1779 8.54804 45.4294 7.79494Z" fill="white"/>
<path d="M33.6454 56.5223C31.7333 58.0085 29.5131 59.0483 27.1473 59.5657C24.7815 60.0831 22.33 60.0649 19.9721 59.5125C17.6142 58.9601 15.4097 57.8875 13.5199 56.3732C11.6301 54.8588 10.1028 52.9411 9.0498 50.7603C9.0498 50.7603 8.74203 50.0421 8.71638 50.0165C7.61197 47.4277 7.20372 44.595 7.53214 41.7997C7.86056 39.0043 8.91424 36.3435 10.5886 34.0811C10.8451 34.0811 9.66533 34.1324 13.8458 33.8674L12.1958 32.2174C13.7624 30.6402 15.6359 29.4014 17.7006 28.5776C19.7652 27.7537 21.977 27.3625 24.1989 27.428C26.4209 27.4934 28.6058 28.0143 30.6183 28.9583C32.6309 29.9023 34.4282 31.2494 35.8991 32.9161C37.37 34.5828 38.4831 36.5337 39.1696 38.648C39.8561 40.7623 40.1013 42.9949 39.89 45.2078C39.6787 47.4207 39.0155 49.5666 37.9414 51.5128C36.8672 53.459 35.4051 55.164 33.6454 56.5223Z" fill="#FCA601"/>
<path d="M28.7411 58.0354C14.7207 60.224 4.8637 44.6049 12.8143 32.8414C14.8917 29.798 16.4391 28.926 18.8414 28.1908C20.0023 27.8262 21.2014 27.5967 22.4149 27.5068C25.9151 27.7893 29.2295 29.1985 31.8614 31.5232C34.4933 33.8479 36.301 36.9629 37.0136 40.4014C37.7261 43.8399 37.3052 47.4168 35.8138 50.5959C34.3224 53.7751 31.8409 56.3853 28.7411 58.0354Z" fill="#FFB72D"/>
<path d="M24.2938 41.9893H23.1055C20.3527 41.9893 20.6348 38.5697 22.8148 38.5697H27.8502C28.0747 38.5759 28.2983 38.5378 28.5081 38.4575C28.7179 38.3773 28.9098 38.2566 29.073 38.1022C29.2361 37.9477 29.3672 37.7627 29.4589 37.5576C29.5505 37.3526 29.6008 37.1314 29.607 36.9069C29.6132 36.6824 29.5751 36.4588 29.4949 36.249C29.4146 36.0392 29.2939 35.8473 29.1395 35.6841C28.9851 35.521 28.8 35.3899 28.595 35.2982C28.3899 35.2066 28.1688 35.1563 27.9442 35.1501H25.3795V33.4403C25.3795 32.9868 25.1994 32.5519 24.8787 32.2313C24.5581 31.9106 24.1232 31.7305 23.6697 31.7305C23.2162 31.7305 22.7814 31.9106 22.4607 32.2313C22.14 32.5519 21.9599 32.9868 21.9599 33.4403V35.227C20.7224 35.4348 19.604 36.0889 18.8163 37.0657C18.0286 38.0424 17.6262 39.274 17.6854 40.5274C17.7877 41.8713 18.3997 43.1252 19.3961 44.0326C20.3926 44.9401 21.6981 45.4324 23.0456 45.4089H24.234C26.9867 45.4089 26.7046 48.8285 24.5246 48.8285H19.4892C19.2647 48.8224 19.0412 48.8605 18.8313 48.9407C18.6215 49.0209 18.4296 49.1417 18.2665 49.2961C18.1033 49.4505 17.9722 49.6355 17.8806 49.8406C17.7889 50.0457 17.7386 50.2668 17.7324 50.4913C17.7262 50.7159 17.7643 50.9394 17.8446 51.1492C17.9248 51.359 18.0456 51.551 18.2 51.7141C18.3544 51.8772 18.5394 52.0084 18.7445 52.1C18.9495 52.1916 19.1707 52.242 19.3952 52.2481H21.9599V53.958C21.9599 54.4114 22.14 54.8463 22.4607 55.167C22.7814 55.4876 23.2162 55.6678 23.6697 55.6678C24.1232 55.6678 24.5581 55.4876 24.8787 55.167C25.1994 54.8463 25.3795 54.4114 25.3795 53.958V52.1712C26.617 51.9635 27.7354 51.3093 28.5231 50.3326C29.3108 49.3558 29.7132 48.1242 29.654 46.8708C29.5517 45.527 28.9398 44.273 27.9433 43.3656C26.9469 42.4581 25.6413 41.9658 24.2938 41.9893Z" fill="#FF5B02"/>
<path d="M43.3356 44.9555C43.169 50.1704 40.9375 55.1055 37.1322 58.6752C33.3269 62.2448 28.2594 64.1566 23.0445 63.9899C17.8296 63.8233 12.8945 61.5919 9.32483 57.7865C5.75518 53.9812 3.8434 48.9137 4.01005 43.6988H7.42966C7.43154 46.3876 8.10758 49.0329 9.39594 51.3929C10.7199 53.8419 12.6511 55.9095 15.0042 57.3973C17.3572 58.885 20.0532 59.7431 22.8333 59.889C25.6134 60.0349 28.3844 59.4638 30.8803 58.2305C33.3762 56.9973 35.5132 55.1432 37.0863 52.8463C42.2157 45.6907 40.3691 34.8933 32.0936 29.8066C28.9848 27.9239 25.3343 27.1383 21.7263 27.5754C18.1182 28.0124 14.7609 29.6469 12.1915 32.2175L13.8414 33.8674L7.42966 34.2949C8.16488 29.1654 7.59209 33.2348 8.28457 28.3105L9.7721 29.7981C22.4589 17.1113 44.4299 26.8059 43.3356 44.9555Z" fill="#539415"/>
<path d="M43.337 44.9554C43.091 48.5368 41.8739 51.9834 39.8164 54.925C37.7589 57.8667 34.9388 60.1922 31.6591 61.6517C36.0145 59.1561 39.2506 55.0891 40.7041 50.2844C42.1576 45.4796 41.7184 40.3009 39.4766 35.8095C37.2347 31.3182 33.36 27.8543 28.6464 26.1278C23.9329 24.4013 18.7375 24.543 14.125 26.5237C27.3333 19.0176 44.286 29.1653 43.337 44.9554Z" fill="#539415"/>
<defs>
<linearGradient id="paint0_linear_1452_615" x1="45.4902" y1="24.7454" x2="45.4902" y2="0.299805" gradientUnits="userSpaceOnUse">
<stop offset="0.05" stop-color="#FF3F00"/>
<stop offset="0.72" stop-color="#FF6A03"/>
<stop offset="1" stop-color="#FFFF04"/>
</linearGradient>
<linearGradient id="paint1_linear_1452_615" x1="43.9153" y1="25" x2="43.9153" y2="0" gradientUnits="userSpaceOnUse">
<stop offset="0.05" stop-color="#FF3F00"/>
<stop offset="0.72" stop-color="#FF6A03"/>
<stop offset="1" stop-color="#FFFF04"/>
</linearGradient>
<linearGradient id="paint2_linear_1452_615" x1="41.9453" y1="25" x2="41.9453" y2="0" gradientUnits="userSpaceOnUse">
<stop stop-color="#FFA900"/>
<stop offset="1" stop-color="#FF9600"/>
</linearGradient>
<linearGradient id="paint3_linear_1452_615" x1="41.8536" y1="21.0119" x2="41.8536" y2="4.58105" gradientUnits="userSpaceOnUse">
<stop stop-color="#FF7C04"/>
<stop offset="1" stop-color="#D92000"/>
</linearGradient>
<linearGradient id="paint4_linear_1452_615" x1="52.1009" y1="19.1985" x2="52.1009" y2="16.2222" gradientUnits="userSpaceOnUse">
<stop offset="0.04" stop-color="#EF6300"/>
<stop offset="1" stop-color="#E13E00"/>
</linearGradient>
<linearGradient id="paint5_linear_1452_615" x1="49.5145" y1="18.4974" x2="49.5145" y2="16.6237" gradientUnits="userSpaceOnUse">
<stop offset="0.04" stop-color="#EF6300"/>
<stop offset="1" stop-color="#E13E00"/>
</linearGradient>
<linearGradient id="paint6_linear_1452_615" x1="36.5784" y1="8.255" x2="36.5946" y2="6.73868" gradientUnits="userSpaceOnUse">
<stop offset="0.04" stop-color="#EF6300"/>
<stop offset="1" stop-color="#E13E00"/>
</linearGradient>
<linearGradient id="paint7_linear_1452_615" x1="44.5271" y1="18.6498" x2="40.147" y2="6.85015" gradientUnits="userSpaceOnUse">
<stop stop-color="#EA5104"/>
<stop offset="1" stop-color="#D92000"/>
</linearGradient>
<linearGradient id="paint8_linear_1452_615" x1="43.683" y1="18.4798" x2="39.3889" y2="6.90992" gradientUnits="userSpaceOnUse">
<stop stop-color="#FF9600"/>
<stop offset="1" stop-color="#FFA900"/>
</linearGradient>
</defs>
</svg>
