<svg width="101" height="80" viewBox="0 0 101 80" fill="none" xmlns="http://www.w3.org/2000/svg">
<path d="M52.4263 61.2795V77.0935C52.4263 78.4574 51.3219 79.5644 49.9611 79.5644H34.1839C32.8232 79.5644 31.7188 78.4574 31.7188 77.0935V61.2795C31.7188 59.9156 32.8232 58.8086 34.1839 58.8086H49.9611C51.3219 58.8086 52.4263 59.9156 52.4263 61.2795Z" fill="#7F93A7"/>
<path d="M52.4241 61.2795V77.0935C52.4241 78.4574 51.3197 79.5644 49.9589 79.5644H42.0703V58.8086H49.9589C51.3197 58.8086 52.4241 59.9156 52.4241 61.2795Z" fill="#7F93A7"/>
<path d="M76.7493 4.77734H7.39554C3.31813 4.77734 0 8.10322 0 12.1901V56.3374C0 60.4243 3.31813 63.7502 7.39554 63.7502H76.7493C80.8267 63.7502 84.1449 60.4243 84.1449 56.3374V12.1901C84.1449 8.10322 80.8267 4.77734 76.7493 4.77734Z" fill="#7F93A7"/>
<path d="M84.1427 12.1901V56.3374C84.1427 60.4243 80.8246 63.7502 76.7472 63.7502H42.0703V4.77734H76.7472C80.8246 4.77734 84.1427 8.10322 84.1427 12.1901Z" fill="#7F93A7"/>
<path d="M79.2138 12.1897V56.337C79.2138 57.6993 78.1078 58.8079 76.7486 58.8079H7.39487C6.03573 58.8079 4.92969 57.6993 4.92969 56.337V12.1897C4.92969 10.8274 6.03573 9.71875 7.39487 9.71875H76.7486C78.1078 9.71875 79.2138 10.8274 79.2138 12.1897Z" fill="#EEF4F8"/>
<path d="M70.8334 77.093C70.8334 78.457 69.729 79.5639 68.3682 79.5639H15.7777C14.4169 79.5639 13.3125 78.457 13.3125 77.093C13.3125 75.729 14.4169 74.6221 15.7777 74.6221H68.3682C69.729 74.6221 70.8334 75.729 70.8334 77.093Z" fill="#7F93A7"/>
<path d="M70.8308 77.093C70.8308 78.457 69.7264 79.5639 68.3656 79.5639H42.0703V74.6221H68.3656C69.7264 74.6221 70.8308 75.729 70.8308 77.093Z" fill="#7F93A7"/>
<g clip-path="url(#clip0_622_66121)">
<path d="M26.2294 35.6029C26.1905 36.5754 25.985 37.5335 25.622 38.4337C25.5117 38.7099 25.3845 38.9788 25.2413 39.2388H25.239C24.9588 39.7615 24.6174 40.2476 24.2223 40.6863L24.2073 40.7006C24.04 40.8863 23.8624 41.0621 23.6755 41.2272L23.6558 41.2453C23.3947 41.4738 23.1162 41.6809 22.8231 41.8647C22.815 41.8707 22.8063 41.876 22.7973 41.8805H22.795C21.934 42.4176 20.9509 42.717 19.9421 42.7493H19.9234C19.8764 42.7493 19.8295 42.7493 19.7826 42.7493C19.7112 42.7493 19.6375 42.7493 19.5662 42.7455L19.4507 42.7392C19.4169 42.7392 19.3813 42.7354 19.3479 42.7316C19.3146 42.7278 19.27 42.7258 19.2301 42.7215C19.2071 42.7215 19.1832 42.7158 19.1606 42.7139C18.8238 42.6769 18.4911 42.6085 18.1665 42.5095C17.9559 42.4456 17.7489 42.3699 17.5465 42.2826C15.2325 41.2717 13.5216 38.7037 13.4334 35.6029C13.4177 35.067 13.4519 34.5307 13.5357 34.0013C13.945 31.407 15.5071 29.2459 17.6272 28.3249C18.1034 28.116 18.6052 27.9739 19.1189 27.9027L19.1738 27.896C19.1857 27.8933 19.1978 27.8917 19.2099 27.8913C19.4196 27.8658 19.6305 27.8519 19.8417 27.8496H19.8849C19.9238 27.8496 19.9651 27.8496 20.0036 27.852C21.8018 27.8889 23.4066 28.7887 24.5349 30.2032C24.557 30.2281 24.5739 30.251 24.5852 30.264C24.5964 30.2769 24.6067 30.2912 24.6067 30.2912C25.6957 31.6961 26.3138 33.5758 26.2294 35.6029Z" fill="url(#paint0_linear_622_66121)"/>
<path d="M20.196 42.7304L19.9435 42.7481H19.9247L18.5903 42.8366H18.5612L17.9688 42.8759H17.9604L17.5722 42.9013H17.5469V42.8716V42.7519V42.5494V42.2795L17.5938 33.8264L17.6248 28.3218L17.6271 27.9461V27.6775V27.667L18.4945 27.734L19.9965 27.8498V27.8585V27.9695V28.0021L19.9998 28.1543V28.228V28.2466L20.0467 32.1635L20.1721 41.8635L20.1782 42.3422V42.3901V42.4078L20.181 42.593V42.6796L20.196 42.7304Z" fill="url(#paint1_linear_622_66121)"/>
<path d="M24.2165 35.6032C24.1887 36.6035 23.9863 37.5907 23.619 38.5187C23.6189 38.5215 23.6181 38.5243 23.6167 38.5268C23.6143 38.5268 23.6143 38.5268 23.6167 38.5292C23.6054 38.5598 23.5698 38.6546 23.504 38.7944C23.4763 38.8643 23.4444 38.9317 23.413 38.9973C23.118 39.6244 22.7388 40.2066 22.2865 40.7272C22.2239 40.7993 22.1613 40.8695 22.0987 40.9378C21.5537 41.5184 20.9091 41.9924 20.1969 42.3364C19.867 42.4949 19.5232 42.6208 19.1699 42.7127C19.0732 42.738 18.9765 42.7605 18.8779 42.7835H18.8756C18.7939 42.8012 18.7118 42.817 18.6278 42.8285L18.5963 42.8347C18.3039 42.8811 18.0084 42.9047 17.7125 42.9051C17.6655 42.9051 17.6186 42.9051 17.574 42.9051H17.5487C16.9641 42.8866 16.3856 42.7776 15.8331 42.582C15.7599 42.5581 15.6886 42.5341 15.6191 42.5078C15.6031 42.5036 15.5874 42.4984 15.5722 42.492C14.9481 42.2384 14.3672 41.8859 13.851 41.4476C13.851 41.4437 13.8449 41.4418 13.8425 41.4399C13.4289 41.0877 13.0556 40.689 12.7297 40.2514V40.249C11.8022 39.0016 11.2056 37.3905 11.1338 35.6032C11.0763 34.3312 11.3013 33.0625 11.7919 31.8916C11.7919 31.8916 11.8083 31.8495 11.8458 31.7739C12.6433 29.9684 14.0458 28.5764 15.7679 27.9815C15.7727 27.9812 15.7774 27.9797 15.7815 27.9772C15.8833 27.9403 15.988 27.9078 16.0922 27.8814C16.149 27.8652 16.2035 27.8513 16.2584 27.8374C16.3584 27.812 16.456 27.7895 16.5541 27.7728C16.6109 27.7613 16.67 27.7517 16.7268 27.7426C17.0261 27.6927 17.3289 27.6674 17.6322 27.667C17.9226 27.667 18.2126 27.6894 18.4996 27.734C18.7391 27.7699 18.9759 27.8225 19.2084 27.8915C19.2187 27.8913 19.2288 27.8937 19.2379 27.8987C19.3271 27.924 19.4158 27.9518 19.5045 27.9839C19.5097 27.9859 19.5151 27.9875 19.5205 27.9887C19.6838 28.0466 19.8491 28.1112 20.0063 28.1825C22.5747 29.3423 24.3189 32.2765 24.2165 35.6032Z" fill="url(#paint2_linear_622_66121)"/>
<g style="mix-blend-mode:multiply" opacity="0.2">
<path d="M21.6558 29.8047C21.6089 30.1173 21.0381 31.1679 20.0557 32.1611C19.4066 32.8174 18.5786 33.4492 17.5939 33.8297C17.1648 33.9981 16.7166 34.1107 16.2599 34.1648C15.125 34.2988 14.2243 34.2016 13.5334 34.0006C12.236 33.6177 11.6634 32.8518 11.6883 32.5115C12.0446 31.6246 12.5228 30.794 13.1086 30.0445C13.761 29.214 14.6444 28.3917 15.7662 27.981C15.771 27.9807 15.7756 27.9792 15.7798 27.9767C15.8816 27.9398 15.9863 27.9073 16.0905 27.881C16.1271 27.8695 16.1656 27.858 16.2041 27.8484C16.2203 27.8433 16.2367 27.839 16.2534 27.8355C16.3533 27.8101 16.451 27.7876 16.5491 27.7709C16.6059 27.7594 16.665 27.7498 16.7218 27.7407C17.0218 27.6957 17.3249 27.6755 17.6282 27.6804C18.1203 27.6854 18.6096 27.757 19.0832 27.8934C19.095 27.8944 19.1066 27.8975 19.1175 27.9025C19.4237 27.9904 19.7221 28.1047 20.0093 28.2443C20.1388 28.3041 20.2608 28.3711 20.3763 28.4357C20.5049 28.5114 20.6424 28.6009 20.787 28.7019C21.3695 29.1293 21.6915 29.5735 21.6558 29.8047Z" fill="#F42774"/>
</g>
<g style="mix-blend-mode:soft-light">
<path d="M11.8332 38.4478C12.1228 38.9126 16.4279 36.9707 18.4476 36.3924C20.48 35.8104 23.6341 36.4279 23.9158 36.1924C24.1974 35.9569 23.9871 32.5143 22.8362 30.8314C21.667 29.1154 21.6745 30.9233 20.4542 31.7648C19.2469 32.5976 14.3599 34.0571 13.3155 33.9479C12.2712 33.8388 11.9182 33.3711 11.5286 33.4262C11.139 33.4812 10.4289 36.1924 11.8332 38.4478Z" fill="white"/>
</g>
<path d="M21.8655 35.6031C21.8185 38.2027 20.0955 40.2777 17.9537 40.4601C17.85 40.4687 17.7468 40.474 17.6411 40.474C15.3544 40.474 13.4393 38.3267 13.3619 35.6031C13.2807 32.7977 15.1699 30.459 17.5862 30.459C17.6975 30.459 17.8068 30.4652 17.9148 30.4748C20.1757 30.6777 21.9129 32.9293 21.8655 35.6031Z" fill="url(#paint3_linear_622_66121)"/>
<path d="M21.8648 35.603C21.8179 38.2026 20.0948 40.2775 17.9531 40.4599C15.8099 40.2795 14.0672 38.2045 14.0019 35.603C13.9343 32.9273 15.6588 30.6756 17.9169 30.4746C20.1751 30.6776 21.9122 32.9292 21.8648 35.603Z" fill="#FF6B04"/>
<path d="M11.4195 37.44C11.2256 36.5425 13.2472 37.6793 11.8931 38.74C11.6808 38.3294 11.5216 37.8924 11.4195 37.44Z" fill="white"/>
<g style="mix-blend-mode:soft-light">
<path d="M19.8893 27.8492C19.3425 27.7979 22.6192 29.0587 23.419 31.3434C24.1995 33.572 25.7982 32.8588 25.7982 32.8588C25.7982 32.8588 24.4286 28.044 19.8893 27.8492Z" fill="white"/>
</g>
<g style="mix-blend-mode:multiply" opacity="0.7">
<path d="M25.6223 38.4341C25.5717 38.6279 25.4346 38.9127 25.2417 39.2392H25.2393C24.9084 39.7962 24.524 40.3183 24.0917 40.7977L24.0852 40.8034C23.9509 40.9499 23.8153 41.0906 23.6759 41.2223L23.6562 41.2405C23.4049 41.4814 23.1252 41.6895 22.8235 41.8598C22.8153 41.8658 22.8067 41.8711 22.7977 41.8756H22.7953C21.8829 42.3567 20.8526 42.5754 20.1931 42.6717C19.8946 42.7147 19.6717 42.7344 19.5684 42.7425C19.5266 42.7425 19.5032 42.7463 19.5032 42.7463C19.4863 42.744 19.4695 42.7406 19.4529 42.7363C19.4368 42.734 19.421 42.7295 19.406 42.7229C19.3431 42.6793 19.6778 42.6204 20.1903 42.3998C21.0864 42.0168 22.5372 41.1443 23.4083 38.9956C23.4083 38.9956 25.1666 38.0914 25.5862 38.1699C25.658 38.1861 25.6674 38.2814 25.6223 38.4341Z" fill="#DE376D"/>
</g>
<path d="M19.5 27.9814C19.5 27.9814 23.2892 28.8555 24.2876 33.4812C25.2366 37.8849 21.8468 41.2896 21.8468 41.2896C21.8468 41.2896 24.3049 38.2008 23.9027 33.947C23.4798 29.4863 19.5 27.9814 19.5 27.9814Z" fill="#FFE016"/>
<path d="M24.2062 33.5496C23.9434 33.1532 23.3309 35.3005 24.0739 35.7035C24.4353 35.9026 24.7117 34.3125 24.2062 33.5496Z" fill="white"/>
<g style="mix-blend-mode:soft-light" opacity="0.5">
<path d="M23.6147 38.5322C23.6035 38.5629 23.5678 38.6576 23.5021 38.7974C23.1811 39.494 22.7707 40.1439 22.2817 40.7302C21.757 41.3563 21.0665 41.9786 20.1912 42.3854C19.8835 42.5284 19.563 42.6407 19.2341 42.7205C19.1585 42.7382 19.083 42.7559 19.0051 42.7684C19.0017 42.7695 18.9981 42.7695 18.9947 42.7684C18.8746 42.7918 18.7507 42.8119 18.6225 42.8253C18.6025 42.8291 18.5823 42.8318 18.562 42.8335L18.5113 42.8392C18.3268 42.8569 18.1438 42.8684 17.9696 42.8727H17.9612C17.8204 42.8765 17.6819 42.8727 17.5477 42.8727C16.8896 42.8538 16.2385 42.7298 15.6181 42.5051C15.6021 42.5009 15.5864 42.4957 15.5711 42.4893C14.5357 42.103 13.9537 41.5478 13.8514 41.4473C13.8514 41.4434 13.8453 41.4415 13.8429 41.4396C13.8411 41.4366 13.8389 41.4339 13.8364 41.4315C13.6909 41.3037 14.5489 41.9384 15.8509 42.3103C16.4035 42.4711 16.9753 42.5528 17.55 42.553C17.7575 42.551 17.9647 42.5366 18.1705 42.5099C18.225 42.5017 18.2818 42.4941 18.3367 42.484C18.9805 42.3742 19.604 42.1643 20.1855 41.8618C22.3226 40.7546 23.5157 38.7036 23.6147 38.5322Z" fill="white"/>
</g>
<path d="M14.7812 39.1797C14.7812 39.1797 17.9002 41.5773 20.3564 39.3128C20.3564 39.3128 17.6669 42.122 14.7812 39.1797Z" fill="#FFE016"/>
<g style="mix-blend-mode:multiply" opacity="0.5">
<path d="M13.5078 33.9902C13.6655 34.847 14.3625 32.0957 17.053 31.2394C19.7678 30.3749 21.7152 34.1554 21.7152 34.1554C21.7152 34.1554 21.2407 30.4434 17.4853 30.4434C14.5489 30.4434 13.5078 33.9902 13.5078 33.9902Z" fill="#D42F55"/>
</g>
<g style="mix-blend-mode:soft-light">
<path d="M20.7017 42.1776C20.4488 42.3298 21.8695 42.3566 22.4562 42.045C23.043 41.7334 23.8874 41.1088 24.0103 40.7258C24.1333 40.3429 23.3265 40.4161 22.8369 40.5344C22.3474 40.6526 21.8925 41.463 20.7017 42.1776Z" fill="white"/>
</g>
<path d="M24.0981 37.5702C23.6287 37.4204 22.9857 38.3839 23.3335 39.1881C23.6813 39.9922 25.1743 37.9101 24.0981 37.5702Z" fill="url(#paint4_linear_622_66121)"/>
<g style="mix-blend-mode:multiply" opacity="0.7">
<path d="M23.3763 38.2514C23.3406 38.8368 24.048 38.8737 24.315 38.5673C24.5821 38.261 24.5624 37.5717 24.0409 37.5578C23.5195 37.5439 23.3763 38.2514 23.3763 38.2514Z" fill="#DE376D"/>
</g>
<path d="M23.2422 38.7567C23.391 38.4049 23.8101 38.8366 24.065 38.8563C24.3199 38.8759 23.8904 39.4531 23.5956 39.3679C23.3009 39.2827 23.2422 38.7567 23.2422 38.7567Z" fill="#FF9500"/>
<path d="M22.5507 37.8197C22.0766 37.6732 21.6119 38.3687 21.8142 38.8368C22.0165 39.305 23.3763 38.0753 22.5507 37.8197Z" fill="url(#paint5_linear_622_66121)"/>
<g style="mix-blend-mode:multiply" opacity="0.7">
<path d="M22.3391 37.8C22.0133 37.8923 21.9087 38.3743 22.0387 38.5179C22.1687 38.6615 22.7897 38.4864 22.8099 38.158C22.83 37.8296 22.4682 37.7636 22.3391 37.8Z" fill="#DE376D"/>
</g>
<path d="M21.7578 38.6722C21.8404 38.2414 22.0211 38.6722 22.2741 38.72C22.5271 38.7679 21.7775 39.2451 21.7578 38.6722Z" fill="#FF9500"/>
<path d="M14.5952 31.7926C14.2197 31.6701 13.8738 32.2291 14.0451 32.6101C14.2164 32.9912 15.2485 32.0056 14.5952 31.7926Z" fill="url(#paint6_linear_622_66121)"/>
<g style="mix-blend-mode:multiply" opacity="0.7">
<path d="M14.436 31.7746C14.1835 31.8464 14.114 32.237 14.2191 32.3537C14.3243 32.4705 14.8068 32.3346 14.8138 32.0666C14.8209 31.7985 14.536 31.7458 14.436 31.7746Z" fill="#DE376D"/>
</g>
<path d="M14 32.4757C14.054 32.1292 14.2061 32.4757 14.4069 32.5193C14.6078 32.5628 14.0286 32.9405 14 32.4757Z" fill="#FF9500"/>
<g style="mix-blend-mode:multiply" opacity="0.8">
<path d="M24.581 30.2639C24.5646 30.2433 24.5472 30.2237 24.5312 30.2031L24.581 30.2639Z" fill="#D42F55"/>
</g>
<g style="mix-blend-mode:multiply" opacity="0.8">
<path d="M24.5346 30.2039C24.39 30.033 24.0183 29.6324 23.3931 29.2102C23.3907 29.2102 23.3884 29.2102 23.3865 29.2054C22.6355 28.698 21.5189 28.1643 20.0042 27.9685C19.9831 27.9642 19.9618 27.961 19.9404 27.959C19.7151 27.9312 19.4804 27.9111 19.2387 27.8991C19.2168 27.8979 19.1948 27.8979 19.173 27.8991C19.1429 27.8991 19.1134 27.8991 19.0838 27.8991C18.6909 27.8856 18.2975 27.8949 17.9057 27.9269C17.8118 27.9336 17.7207 27.9432 17.6297 27.9547C15.4668 28.194 14.0155 29.1465 13.1087 30.0502C12.3601 30.7883 11.9752 31.5006 11.8438 31.7739C12.6417 29.9684 14.0442 28.5764 15.7663 27.9815C15.7711 27.9812 15.7757 27.9797 15.7799 27.9772C15.8817 27.9403 15.9864 27.9078 16.0906 27.8814C16.1272 27.8699 16.1657 27.8585 16.2042 27.8489C16.2212 27.8437 16.2384 27.8394 16.2558 27.836C16.3558 27.8106 16.4534 27.7881 16.5515 27.7713C16.6083 27.7599 16.6675 27.7503 16.7243 27.7412C17.0239 27.6917 17.327 27.6669 17.6306 27.667C17.921 27.667 18.2109 27.6894 18.498 27.734L20 27.8498V27.8522C21.8024 27.8886 23.4053 28.789 24.5346 30.2039Z" fill="#D42F55"/>
</g>
<g style="mix-blend-mode:multiply" opacity="0.8">
<path d="M24.2138 40.6985C24.0464 40.8841 23.8689 41.0599 23.682 41.225L23.6622 41.2432C23.411 41.4842 23.1313 41.6923 22.8296 41.8626C22.8214 41.8686 22.8128 41.8739 22.8038 41.8784H22.8014C21.9405 42.4155 20.9573 42.7149 19.9486 42.7472H19.9298L18.5954 42.8357C18.3048 42.8814 18.0112 42.9044 17.7172 42.9047C17.6703 42.9047 17.6233 42.9047 17.5787 42.9047H17.5534C16.9688 42.8861 16.3904 42.7772 15.8378 42.5816C15.7646 42.5576 15.6933 42.5337 15.6238 42.5074C15.6078 42.5032 15.5922 42.4979 15.5769 42.4916C14.54 42.1029 13.958 41.5477 13.8557 41.4471C13.8557 41.4433 13.8496 41.4414 13.8473 41.4395C13.4337 41.0872 13.0603 40.6885 12.7344 40.251C12.794 40.3094 14.0223 41.5869 15.8552 42.3092C16.4009 42.5291 16.9714 42.6786 17.5534 42.7544C17.9916 42.8117 18.4345 42.8217 18.8747 42.784H18.877L18.9991 42.7721C19.0024 42.7732 19.006 42.7732 19.0094 42.7721C19.1272 42.7625 19.2441 42.7486 19.3562 42.7328L19.413 42.7271C19.6862 42.6897 19.9495 42.6424 20.2002 42.5892C22.3424 42.1355 23.6735 41.1532 24.0913 40.8057L24.0978 40.8C24.1523 40.7526 24.1917 40.7186 24.2138 40.6985Z" fill="#D42F55"/>
</g>
<path d="M21.1086 28.1843C20.3158 28.1498 21.9746 29.3958 22.6275 29.9333C23.2804 30.4708 24.3529 30.0917 24.3867 30.0391C24.4205 29.9864 22.7106 28.2532 21.1086 28.1843Z" fill="white"/>
<path d="M17.2949 31.6605C14.312 32.0133 14.1205 36.5428 14.872 37.1201C15.6385 37.7064 16.0726 37.0832 16.1599 37.4451C16.2472 37.807 15.631 38.4737 15.631 38.4737C15.6807 38.917 17.6493 39.2492 17.7089 39.1496C17.7685 39.05 17.9905 38.3813 17.9905 38.3813C17.9905 38.3813 17.577 39.1386 17.6483 39.1888C17.7197 39.2391 19.9862 38.8648 19.9769 38.7399C19.9675 38.6149 19.1484 37.6739 19.1822 37.245C19.216 36.8161 21.3643 37.6567 21.5483 36.807C21.7361 35.9445 21.6408 31.1464 17.2949 31.6605ZM15.0419 35.4611C15.018 34.2357 15.63 33.5555 16.45 33.7197C17.2916 33.8848 17.4488 35.2342 17.1606 35.6583C16.7744 36.2236 15.0677 36.6725 15.0438 35.4611H15.0419ZM17.0015 37.0689C16.7744 36.9344 17.2902 36.3121 17.5145 36.1317C17.7389 35.9512 18.2815 36.8453 18.351 37.1052C18.4204 37.3652 17.1391 37.1507 17.0034 37.0689H17.0015ZM17.982 35.6602C17.684 35.2327 17.83 33.87 18.7072 33.6498C19.615 33.4215 20.3364 34.1184 20.3237 35.4582C20.3111 36.7831 18.389 36.2441 17.982 35.6602Z" fill="url(#paint7_linear_622_66121)"/>
<path d="M19.474 32.1111C18.8014 31.6076 17.9133 31.374 16.8127 31.6435C15.5454 31.9518 14.7723 32.921 14.3719 33.9626C13.8448 35.322 13.9495 36.8001 14.3799 37.1294C15.1567 37.7177 15.5937 37.0916 15.6819 37.4554C15.7237 37.62 15.6195 37.8483 15.4909 38.0475C15.3901 38.204 15.2769 38.3519 15.1525 38.4898C15.1994 38.9339 17.1882 39.268 17.2515 39.1675C17.3149 39.067 17.5331 38.395 17.5331 38.395C17.5331 38.395 17.5759 39.1388 17.6472 39.19C17.7185 39.2412 19.2994 38.7985 19.29 38.6731C19.2806 38.5477 18.7314 37.7282 18.7319 37.2883C18.7319 37.2759 18.7319 37.2673 18.7343 37.2548C18.7427 37.1208 18.9272 37.1002 19.183 37.1146C19.7462 37.1418 20.6601 37.3194 20.8727 36.7561C20.9309 36.6011 20.9744 36.4408 21.0027 36.2774C21.2384 34.9711 20.7493 33.0632 19.474 32.1111ZM17.8936 37.1146C17.9687 37.3783 16.669 37.1586 16.5324 37.0772C16.3029 36.9427 16.822 36.3157 17.0488 36.1362C17.2783 35.9481 17.8232 36.8527 17.8936 37.1146ZM14.5494 35.4627C14.5221 34.2311 15.137 33.5481 15.9645 33.7108C16.8145 33.8784 16.9769 35.2344 16.6855 35.6609C16.2992 36.2271 14.5766 36.6804 14.5494 35.4627ZM17.5162 35.6633C17.2135 35.2325 17.3576 33.863 18.2424 33.6438C19.1586 33.415 19.8884 34.1162 19.8791 35.4627C19.8706 36.7896 17.9274 36.2482 17.5162 35.6633Z" fill="url(#paint8_linear_622_66121)"/>
<g style="mix-blend-mode:multiply" opacity="0.5">
<path d="M14.8594 34.2271C14.8824 34.71 15.37 34.2328 15.7878 34.015C16.2055 33.7972 16.6129 34.2242 16.6129 34.2242C16.6129 34.2242 15.8009 32.984 14.8594 34.2271Z" fill="#D42F55"/>
</g>
<g style="mix-blend-mode:multiply" opacity="0.5">
<path d="M17.5 34.4371C17.5249 35.3465 17.8947 34.5362 18.4918 34.058C19.0888 33.5798 19.5305 34.1058 19.5305 34.1058C19.5305 34.1058 19.1081 33.4142 18.3543 33.6219C17.6004 33.8297 17.5 34.4371 17.5 34.4371Z" fill="#D42F55"/>
</g>
<g style="mix-blend-mode:soft-light">
<path d="M19.4754 32.1113C17.9945 32.3851 15.26 33.7766 14.3719 33.9628C13.8448 35.3222 13.9495 36.8003 14.3799 37.1296C15.1567 37.7179 15.5937 37.0918 15.6819 37.4556C15.7237 37.6202 15.6195 37.8485 15.4909 38.0477C16.4466 38.0314 17.6557 37.6887 18.7324 37.2885C18.8863 37.2301 19.0361 37.1712 19.1834 37.1147C19.8046 36.8692 20.4121 36.589 21.0032 36.2757C21.2398 34.9713 20.7507 33.0634 19.4754 32.1113ZM14.5508 35.4619C14.5235 34.2303 15.1384 33.5473 15.9659 33.71C16.8159 33.8776 16.9783 35.2336 16.6869 35.6601C16.3006 36.2273 14.578 36.6806 14.5508 35.4629V35.4619ZM16.5329 37.0765C16.3034 36.942 16.8225 36.3149 17.0492 36.1354C17.2792 35.9487 17.8242 36.8534 17.8941 37.1138C17.964 37.3742 16.6704 37.1588 16.5329 37.0774V37.0765ZM17.5186 35.6625C17.2159 35.2317 17.3599 33.8623 18.2447 33.643C19.1609 33.4142 19.8908 34.1155 19.8814 35.4619C19.872 36.7897 17.9288 36.2484 17.5177 35.6635L17.5186 35.6625Z" fill="white"/>
</g>
<path d="M19.793 32.4179C19.6311 32.2542 19.7804 33.2254 20.0747 33.5011C20.369 33.7768 20.5774 33.5011 20.5774 33.5011C20.5774 33.5011 20.2493 32.8769 19.793 32.4179Z" fill="white"/>
</g>
<path d="M33.894 32.802C33.822 32.37 33.684 32.046 33.48 31.83C33.288 31.614 33.006 31.506 32.634 31.506C32.07 31.506 31.674 31.782 31.446 32.334C31.218 32.886 31.11 33.738 31.122 34.89C31.326 34.482 31.656 34.158 32.112 33.918C32.58 33.678 33.102 33.558 33.678 33.558C34.854 33.558 35.79 33.918 36.486 34.638C37.182 35.358 37.53 36.39 37.53 37.734C37.53 38.61 37.344 39.378 36.972 40.038C36.612 40.698 36.09 41.214 35.406 41.586C34.722 41.946 33.906 42.126 32.958 42.126C31.086 42.126 29.784 41.55 29.052 40.398C28.332 39.234 27.972 37.626 27.972 35.574C27.972 33.966 28.134 32.658 28.458 31.65C28.794 30.642 29.316 29.898 30.024 29.418C30.744 28.926 31.686 28.68 32.85 28.68C34.23 28.68 35.274 29.076 35.982 29.868C36.702 30.648 37.104 31.626 37.188 32.802H33.894ZM31.374 37.644C31.374 38.1 31.5 38.454 31.752 38.706C32.004 38.958 32.364 39.084 32.832 39.084C33.264 39.084 33.6 38.97 33.84 38.742C34.092 38.502 34.218 38.148 34.218 37.68C34.218 37.224 34.092 36.876 33.84 36.636C33.588 36.396 33.246 36.276 32.814 36.276C32.394 36.276 32.046 36.396 31.77 36.636C31.506 36.876 31.374 37.212 31.374 37.644ZM45.2495 32.802C45.1775 32.37 45.0395 32.046 44.8355 31.83C44.6435 31.614 44.3615 31.506 43.9895 31.506C43.4255 31.506 43.0295 31.782 42.8015 32.334C42.5735 32.886 42.4655 33.738 42.4775 34.89C42.6815 34.482 43.0115 34.158 43.4675 33.918C43.9355 33.678 44.4575 33.558 45.0335 33.558C46.2095 33.558 47.1455 33.918 47.8415 34.638C48.5375 35.358 48.8855 36.39 48.8855 37.734C48.8855 38.61 48.6995 39.378 48.3275 40.038C47.9675 40.698 47.4455 41.214 46.7615 41.586C46.0775 41.946 45.2615 42.126 44.3135 42.126C42.4415 42.126 41.1395 41.55 40.4075 40.398C39.6875 39.234 39.3275 37.626 39.3275 35.574C39.3275 33.966 39.4895 32.658 39.8135 31.65C40.1495 30.642 40.6715 29.898 41.3795 29.418C42.0995 28.926 43.0415 28.68 44.2055 28.68C45.5855 28.68 46.6295 29.076 47.3375 29.868C48.0575 30.648 48.4595 31.626 48.5435 32.802H45.2495ZM42.7295 37.644C42.7295 38.1 42.8555 38.454 43.1075 38.706C43.3595 38.958 43.7195 39.084 44.1875 39.084C44.6195 39.084 44.9555 38.97 45.1955 38.742C45.4475 38.502 45.5735 38.148 45.5735 37.68C45.5735 37.224 45.4475 36.876 45.1955 36.636C44.9435 36.396 44.6015 36.276 44.1695 36.276C43.7495 36.276 43.4015 36.396 43.1255 36.636C42.8615 36.876 42.7295 37.212 42.7295 37.644ZM56.6049 32.802C56.5329 32.37 56.3949 32.046 56.1909 31.83C55.9989 31.614 55.7169 31.506 55.3449 31.506C54.7809 31.506 54.3849 31.782 54.1569 32.334C53.9289 32.886 53.8209 33.738 53.8329 34.89C54.0369 34.482 54.3669 34.158 54.8229 33.918C55.2909 33.678 55.8129 33.558 56.3889 33.558C57.5649 33.558 58.5009 33.918 59.1969 34.638C59.8929 35.358 60.2409 36.39 60.2409 37.734C60.2409 38.61 60.0549 39.378 59.6829 40.038C59.3229 40.698 58.8009 41.214 58.1169 41.586C57.4329 41.946 56.6169 42.126 55.6689 42.126C53.7969 42.126 52.4949 41.55 51.7629 40.398C51.0429 39.234 50.6829 37.626 50.6829 35.574C50.6829 33.966 50.8449 32.658 51.1689 31.65C51.5049 30.642 52.0269 29.898 52.7349 29.418C53.4549 28.926 54.3969 28.68 55.5609 28.68C56.9409 28.68 57.9849 29.076 58.6929 29.868C59.4129 30.648 59.8149 31.626 59.8989 32.802H56.6049ZM54.0849 37.644C54.0849 38.1 54.2109 38.454 54.4629 38.706C54.7149 38.958 55.0749 39.084 55.5429 39.084C55.9749 39.084 56.3109 38.97 56.5509 38.742C56.8029 38.502 56.9289 38.148 56.9289 37.68C56.9289 37.224 56.8029 36.876 56.5509 36.636C56.2989 36.396 55.9569 36.276 55.5249 36.276C55.1049 36.276 54.7569 36.396 54.4809 36.636C54.2169 36.876 54.0849 37.212 54.0849 37.644ZM67.9604 32.802C67.8884 32.37 67.7504 32.046 67.5464 31.83C67.3544 31.614 67.0724 31.506 66.7004 31.506C66.1364 31.506 65.7404 31.782 65.5124 32.334C65.2844 32.886 65.1764 33.738 65.1884 34.89C65.3924 34.482 65.7224 34.158 66.1784 33.918C66.6464 33.678 67.1684 33.558 67.7444 33.558C68.9204 33.558 69.8564 33.918 70.5524 34.638C71.2484 35.358 71.5964 36.39 71.5964 37.734C71.5964 38.61 71.4104 39.378 71.0384 40.038C70.6784 40.698 70.1564 41.214 69.4724 41.586C68.7884 41.946 67.9724 42.126 67.0244 42.126C65.1524 42.126 63.8504 41.55 63.1184 40.398C62.3984 39.234 62.0384 37.626 62.0384 35.574C62.0384 33.966 62.2004 32.658 62.5244 31.65C62.8604 30.642 63.3824 29.898 64.0904 29.418C64.8104 28.926 65.7524 28.68 66.9164 28.68C68.2964 28.68 69.3404 29.076 70.0484 29.868C70.7684 30.648 71.1704 31.626 71.2544 32.802H67.9604ZM65.4404 37.644C65.4404 38.1 65.5664 38.454 65.8184 38.706C66.0704 38.958 66.4304 39.084 66.8984 39.084C67.3304 39.084 67.6664 38.97 67.9064 38.742C68.1584 38.502 68.2844 38.148 68.2844 37.68C68.2844 37.224 68.1584 36.876 67.9064 36.636C67.6544 36.396 67.3124 36.276 66.8804 36.276C66.4604 36.276 66.1124 36.396 65.8364 36.636C65.5724 36.876 65.4404 37.212 65.4404 37.644Z" fill="#0B2239"/>
<rect opacity="0.5" x="11" y="15" width="22" height="5" rx="2.5" fill="#7F93A7"/>
<rect opacity="0.5" x="11" y="23" width="36" height="2" rx="1" fill="#7F93A7"/>
<rect x="11" y="47" width="18" height="7" rx="2" fill="#F36B25"/>
<defs>
<linearGradient id="paint0_linear_622_66121" x1="19.8333" y1="42.7498" x2="19.8333" y2="27.8496" gradientUnits="userSpaceOnUse">
<stop offset="0.05" stop-color="#FF3F00"/>
<stop offset="0.72" stop-color="#FF6A03"/>
<stop offset="1" stop-color="#FFFF04"/>
</linearGradient>
<linearGradient id="paint1_linear_622_66121" x1="18.8714" y1="42.9051" x2="18.8714" y2="27.667" gradientUnits="userSpaceOnUse">
<stop offset="0.05" stop-color="#FF3F00"/>
<stop offset="0.72" stop-color="#FF6A03"/>
<stop offset="1" stop-color="#FFFF04"/>
</linearGradient>
<linearGradient id="paint2_linear_622_66121" x1="17.6726" y1="42.9051" x2="17.6726" y2="27.667" gradientUnits="userSpaceOnUse">
<stop stop-color="#FFA900"/>
<stop offset="1" stop-color="#FF9600"/>
</linearGradient>
<linearGradient id="paint3_linear_622_66121" x1="17.613" y1="40.474" x2="17.613" y2="30.459" gradientUnits="userSpaceOnUse">
<stop stop-color="#FF7C04"/>
<stop offset="1" stop-color="#D92000"/>
</linearGradient>
<linearGradient id="paint4_linear_622_66121" x1="23.8578" y1="39.3685" x2="23.8578" y2="37.5544" gradientUnits="userSpaceOnUse">
<stop offset="0.04" stop-color="#EF6300"/>
<stop offset="1" stop-color="#E13E00"/>
</linearGradient>
<linearGradient id="paint5_linear_622_66121" x1="22.2888" y1="38.9417" x2="22.2888" y2="37.7996" gradientUnits="userSpaceOnUse">
<stop offset="0.04" stop-color="#EF6300"/>
<stop offset="1" stop-color="#E13E00"/>
</linearGradient>
<linearGradient id="paint6_linear_622_66121" x1="14.4001" y1="32.6987" x2="14.41" y2="31.7744" gradientUnits="userSpaceOnUse">
<stop offset="0.04" stop-color="#EF6300"/>
<stop offset="1" stop-color="#E13E00"/>
</linearGradient>
<linearGradient id="paint7_linear_622_66121" x1="19.2451" y1="39.0342" x2="16.5753" y2="31.842" gradientUnits="userSpaceOnUse">
<stop stop-color="#EA5104"/>
<stop offset="1" stop-color="#D92000"/>
</linearGradient>
<linearGradient id="paint8_linear_622_66121" x1="18.7319" y1="38.9311" x2="16.1146" y2="31.8789" gradientUnits="userSpaceOnUse">
<stop stop-color="#FF9600"/>
<stop offset="1" stop-color="#FFA900"/>
</linearGradient>
<clipPath id="clip0_622_66121">
<rect width="15.2381" height="15.2381" fill="white" transform="translate(11 27.667)"/>
</clipPath>
</defs>
</svg>
