<svg width="78" height="88" viewBox="0 0 78 88" fill="none" xmlns="http://www.w3.org/2000/svg">
<path d="M56 9.33301H21.3333C18.3878 9.33301 16 11.7208 16 14.6663V81.333C16 84.2785 18.3878 86.6663 21.3333 86.6663H56C58.9455 86.6663 61.3333 84.2785 61.3333 81.333V14.6663C61.3333 11.7208 58.9455 9.33301 56 9.33301Z" fill="#EEF4F8"/>
<path d="M26.6641 9.33301H50.6641V13.333C50.6641 14.0403 50.3831 14.7185 49.883 15.2186C49.3829 15.7187 48.7046 15.9997 47.9974 15.9997H29.3307C28.6235 15.9997 27.9452 15.7187 27.4451 15.2186C26.945 14.7185 26.6641 14.0403 26.6641 13.333V9.33301Z" fill="#7F93A7"/>
<path d="M55.9974 88H21.3307C19.5633 87.9979 17.8688 87.2948 16.619 86.045C15.3692 84.7953 14.6662 83.1008 14.6641 81.3333V14.6667C14.6662 12.8992 15.3692 11.2047 16.619 9.95496C17.8688 8.70518 19.5633 8.00212 21.3307 8L55.9974 8C57.7649 8.00212 59.4593 8.70518 60.7091 9.95496C61.9589 11.2047 62.6619 12.8992 62.6641 14.6667V81.3333C62.6619 83.1008 61.9589 84.7953 60.7091 86.045C59.4593 87.2948 57.7649 87.9979 55.9974 88ZM21.3307 10.6667C20.2699 10.6667 19.2524 11.0881 18.5023 11.8382C17.7522 12.5884 17.3307 13.6058 17.3307 14.6667V81.3333C17.3307 82.3942 17.7522 83.4116 18.5023 84.1618C19.2524 84.9119 20.2699 85.3333 21.3307 85.3333H55.9974C57.0583 85.3333 58.0757 84.9119 58.8258 84.1618C59.576 83.4116 59.9974 82.3942 59.9974 81.3333V14.6667C59.9974 13.6058 59.576 12.5884 58.8258 11.8382C58.0757 11.0881 57.0583 10.6667 55.9974 10.6667H21.3307Z" fill="#7F93A7"/>
<path d="M77.3333 28.0003V68.0003C77.3333 68.354 77.1929 68.6931 76.9428 68.9431C76.6928 69.1932 76.3536 69.3337 76 69.3337H67.8667C67.5545 69.329 67.2536 69.2163 67.0151 69.0148C66.7766 68.8133 66.6153 68.5354 66.5587 68.2283C66.3063 67.0312 65.6501 65.9571 64.6999 65.1864C63.7497 64.4156 62.5635 63.995 61.34 63.995C60.1165 63.995 58.9303 64.4156 57.9801 65.1864C57.0299 65.9571 56.3737 67.0312 56.1213 68.2283C56.0647 68.5354 55.9034 68.8133 55.6649 69.0148C55.4264 69.2163 55.1255 69.329 54.8133 69.3337H1.33333C0.979711 69.3337 0.640573 69.1932 0.390524 68.9431C0.140476 68.6931 0 68.354 0 68.0003V28.0003C0 27.6467 0.140476 27.3076 0.390524 27.0575C0.640573 26.8075 0.979711 26.667 1.33333 26.667H54.8C55.1122 26.6717 55.4131 26.7843 55.6516 26.9859C55.89 27.1874 56.0513 27.4653 56.108 27.7723C56.3603 28.9695 57.0166 30.0435 57.9668 30.8143C58.9169 31.585 60.1032 32.0057 61.3267 32.0057C62.5501 32.0057 63.7364 31.585 64.6866 30.8143C65.6367 30.0435 66.293 28.9695 66.5453 27.7723C66.6025 27.4631 66.7657 27.1834 67.0069 26.9817C67.2481 26.7799 67.5522 26.6686 67.8667 26.667H76C76.3536 26.667 76.6928 26.8075 76.9428 27.0575C77.1929 27.3076 77.3333 27.6467 77.3333 28.0003Z" fill="#F36B25"/>
<path d="M23.4611 36.773C24.9077 36.773 26.0857 37.2173 26.9951 38.106C27.9251 38.974 28.3901 40.183 28.3901 41.733C28.3901 43.283 27.9251 44.5023 26.9951 45.391C26.0857 46.259 24.9077 46.693 23.4611 46.693C22.0144 46.693 20.8261 46.259 19.8961 45.391C18.9867 44.5023 18.5321 43.283 18.5321 41.733C18.5321 40.183 18.9867 38.974 19.8961 38.106C20.8261 37.2173 22.0144 36.773 23.4611 36.773ZM37.4731 37.052L25.2901 59H21.0741L33.2571 37.052H37.4731ZM21.4771 41.733C21.4771 42.4357 21.6527 43.004 22.0041 43.438C22.3554 43.8513 22.8307 44.058 23.4301 44.058C24.0294 44.058 24.5151 43.8513 24.8871 43.438C25.2591 43.004 25.4451 42.4357 25.4451 41.733C25.4451 41.0303 25.2591 40.4723 24.8871 40.059C24.5151 39.625 24.0294 39.408 23.4301 39.408C22.8307 39.408 22.3554 39.625 22.0041 40.059C21.6527 40.4723 21.4771 41.0303 21.4771 41.733ZM35.1171 49.359C36.5637 49.359 37.7417 49.8033 38.6511 50.692C39.5604 51.56 40.0151 52.769 40.0151 54.319C40.0151 55.869 39.5604 57.0883 38.6511 57.977C37.7417 58.845 36.5637 59.279 35.1171 59.279C33.6704 59.279 32.4821 58.845 31.5521 57.977C30.6427 57.0883 30.1881 55.869 30.1881 54.319C30.1881 52.769 30.6427 51.56 31.5521 50.692C32.4821 49.8033 33.6704 49.359 35.1171 49.359ZM33.1331 54.319C33.1331 55.0423 33.3087 55.621 33.6601 56.055C34.0114 56.4683 34.4867 56.675 35.0861 56.675C35.6854 56.675 36.1711 56.4683 36.5431 56.055C36.9151 55.621 37.1011 55.0423 37.1011 54.319C37.1011 53.6163 36.9151 53.048 36.5431 52.614C36.1711 52.18 35.6854 51.963 35.0861 51.963C34.4867 51.963 34.0114 52.18 33.6601 52.614C33.3087 53.0273 33.1331 53.5957 33.1331 54.319Z" fill="white"/>
<path d="M43.9948 13.3337H38.6615C38.3078 13.3337 37.9687 13.1932 37.7186 12.9431C37.4686 12.6931 37.3281 12.3539 37.3281 12.0003C37.3281 11.6467 37.4686 11.3076 37.7186 11.0575C37.9687 10.8075 38.3078 10.667 38.6615 10.667H43.9948C44.3484 10.667 44.6876 10.8075 44.9376 11.0575C45.1877 11.3076 45.3281 11.6467 45.3281 12.0003C45.3281 12.3539 45.1877 12.6931 44.9376 12.9431C44.6876 13.1932 44.3484 13.3337 43.9948 13.3337Z" fill="#EEF4F8"/>
<path d="M33.3333 13.3337C32.9797 13.3337 32.6406 13.1932 32.3905 12.9431C32.1405 12.6931 32 12.3539 32 12.0003C32 11.6467 32.1405 11.3076 32.3905 11.0575C32.6406 10.8075 32.9797 10.667 33.3333 10.667C33.687 10.667 34.0261 10.8075 34.2761 11.0575C34.5262 11.3076 34.6667 11.6467 34.6667 12.0003C34.6667 12.3539 34.5262 12.6931 34.2761 12.9431C34.0261 13.1932 33.687 13.3337 33.3333 13.3337Z" fill="#EEF4F8"/>
<path d="M46.6615 82.6667H30.6615C30.3078 82.6667 29.9687 82.5262 29.7186 82.2761C29.4686 82.0261 29.3281 81.687 29.3281 81.3333C29.3281 80.9797 29.4686 80.6406 29.7186 80.3905C29.9687 80.1405 30.3078 80 30.6615 80H46.6615C47.0151 80 47.3542 80.1405 47.6043 80.3905C47.8543 80.6406 47.9948 80.9797 47.9948 81.3333C47.9948 81.687 47.8543 82.0261 47.6043 82.2761C47.3542 82.5262 47.0151 82.6667 46.6615 82.6667Z" fill="#8EADC1"/>
<path d="M61.3333 40C60.9797 40 60.6406 39.8595 60.3905 39.6095C60.1405 39.3594 60 39.0203 60 38.6667V37.3333C60 36.9797 60.1405 36.6406 60.3905 36.3905C60.6406 36.1405 60.9797 36 61.3333 36C61.687 36 62.0261 36.1405 62.2761 36.3905C62.5262 36.6406 62.6667 36.9797 62.6667 37.3333V38.6667C62.6667 39.0203 62.5262 39.3594 62.2761 39.6095C62.0261 39.8595 61.687 40 61.3333 40Z" fill="white"/>
<path d="M61.3333 46.667C60.9797 46.667 60.6406 46.5265 60.3905 46.2765C60.1405 46.0264 60 45.6873 60 45.3337V44.0003C60 43.6467 60.1405 43.3076 60.3905 43.0575C60.6406 42.8075 60.9797 42.667 61.3333 42.667C61.687 42.667 62.0261 42.8075 62.2761 43.0575C62.5262 43.3076 62.6667 43.6467 62.6667 44.0003V45.3337C62.6667 45.6873 62.5262 46.0264 62.2761 46.2765C62.0261 46.5265 61.687 46.667 61.3333 46.667Z" fill="white"/>
<path d="M61.3333 53.333C60.9797 53.333 60.6406 53.1925 60.3905 52.9425C60.1405 52.6924 60 52.3533 60 51.9997V50.6663C60 50.3127 60.1405 49.9736 60.3905 49.7235C60.6406 49.4735 60.9797 49.333 61.3333 49.333C61.687 49.333 62.0261 49.4735 62.2761 49.7235C62.5262 49.9736 62.6667 50.3127 62.6667 50.6663V51.9997C62.6667 52.3533 62.5262 52.6924 62.2761 52.9425C62.0261 53.1925 61.687 53.333 61.3333 53.333Z" fill="white"/>
<path d="M61.3333 60C60.9797 60 60.6406 59.8595 60.3905 59.6095C60.1405 59.3594 60 59.0203 60 58.6667V57.3333C60 56.9797 60.1405 56.6406 60.3905 56.3905C60.6406 56.1405 60.9797 56 61.3333 56C61.687 56 62.0261 56.1405 62.2761 56.3905C62.5262 56.6406 62.6667 56.9797 62.6667 57.3333V58.6667C62.6667 59.0203 62.5262 59.3594 62.2761 59.6095C62.0261 59.8595 61.687 60 61.3333 60Z" fill="white"/>
<path d="M52 65.3337H6.66667C5.95942 65.3337 5.28115 65.0527 4.78105 64.5526C4.28095 64.0525 4 63.3742 4 62.667V33.3337C4 32.6264 4.28095 31.9481 4.78105 31.448C5.28115 30.9479 5.95942 30.667 6.66667 30.667H52C52.3536 30.667 52.6928 30.8075 52.9428 31.0575C53.1929 31.3076 53.3333 31.6467 53.3333 32.0003C53.3333 32.3539 53.1929 32.6931 52.9428 32.9431C52.6928 33.1932 52.3536 33.3337 52 33.3337H6.66667V62.667H52C52.3536 62.667 52.6928 62.8075 52.9428 63.0575C53.1929 63.3076 53.3333 63.6467 53.3333 64.0003C53.3333 64.3539 53.1929 64.6931 52.9428 64.9431C52.6928 65.1932 52.3536 65.3337 52 65.3337Z" fill="white"/>
<g clip-path="url(#clip0_1452_616)">
<path d="M71.9838 13.0201C71.9201 14.6156 71.5829 16.1875 70.9874 17.6643C70.8064 18.1175 70.5978 18.5586 70.3629 18.9852H70.359C69.8994 19.8428 69.3393 20.6402 68.6911 21.36L68.6664 21.3835C68.3919 21.6881 68.1006 21.9765 67.7939 22.2473L67.7616 22.2772C67.3331 22.652 66.8764 22.9918 66.3955 23.2934C66.3821 23.3031 66.3679 23.3118 66.3532 23.3193H66.3493C64.9368 24.2004 63.3239 24.6916 61.6689 24.7446H61.6381C61.5611 24.7446 61.4841 24.7446 61.4071 24.7446C61.29 24.7446 61.1691 24.7446 61.0521 24.7383L60.8626 24.7281C60.8072 24.7281 60.7487 24.7218 60.694 24.7155C60.6393 24.7093 60.5662 24.7061 60.5007 24.6991C60.463 24.6991 60.4237 24.6896 60.3867 24.6865C59.8342 24.6258 59.2882 24.5136 58.7557 24.3512C58.4102 24.2463 58.0706 24.1221 57.7385 23.9789C53.9421 22.3204 51.1352 18.1073 50.9905 13.0201C50.9647 12.1408 51.0209 11.2609 51.1583 10.3925C51.8298 6.13615 54.3926 2.59052 57.8709 1.07961C58.6522 0.736774 59.4755 0.503765 60.3182 0.386973L60.4083 0.375979C60.4278 0.371435 60.4476 0.368806 60.4676 0.368126C60.8116 0.326373 61.1576 0.303566 61.5041 0.299805H61.5749C61.6388 0.299805 61.7066 0.299805 61.7698 0.303731C64.7199 0.364199 67.3527 1.84056 69.2039 4.16112C69.2401 4.20196 69.2678 4.23965 69.2863 4.26085C69.3048 4.28206 69.3217 4.30562 69.3217 4.30562C71.1083 6.61047 72.1224 9.69434 71.9838 13.0201Z" fill="url(#paint0_linear_1452_616)"/>
<path d="M62.0884 24.7134L61.6741 24.7424H61.6433L59.454 24.8877H59.4063L58.4345 24.9521H58.4206L57.7838 24.9937H57.7422V24.945V24.7487V24.4165V23.9736L57.8192 10.1052L57.87 1.07429L57.8739 0.457829V0.0172766V0L59.2969 0.109942L61.7611 0.299984V0.31412V0.496309V0.549709L61.7665 0.799435V0.920371V0.950997L61.8435 7.3771L62.0491 23.2912L62.0591 24.0765V24.155V24.1841L62.0638 24.488V24.6301L62.0884 24.7134Z" fill="url(#paint1_linear_1452_616)"/>
<path d="M68.6814 13.0203C68.6357 14.6614 68.3038 16.2811 67.7011 17.8035C67.7009 17.8082 67.6996 17.8128 67.6973 17.8169C67.6934 17.8169 67.6934 17.8169 67.6973 17.8208C67.6788 17.8711 67.6203 18.0265 67.5125 18.2558C67.4671 18.3705 67.4147 18.4812 67.3631 18.5888C66.8791 19.6177 66.2571 20.5728 65.5149 21.4269C65.4123 21.5452 65.3096 21.6604 65.2069 21.7724C64.3127 22.7249 63.2552 23.5026 62.0866 24.0671C61.5455 24.327 60.9814 24.5337 60.4018 24.6843C60.2431 24.7259 60.0845 24.7628 59.9228 24.8005H59.9189C59.7849 24.8296 59.6502 24.8555 59.5123 24.8744L59.4607 24.8846C58.981 24.9607 58.4962 24.9993 58.0107 25C57.9337 25 57.8567 25 57.7835 25H57.742C56.7829 24.9696 55.8339 24.7909 54.9274 24.4699C54.8073 24.4307 54.6902 24.3914 54.5762 24.3482C54.55 24.3414 54.5243 24.3327 54.4992 24.3223C53.4754 23.9062 52.5224 23.3279 51.6754 22.6088C51.6754 22.6025 51.6654 22.5993 51.6616 22.5962C50.983 22.0183 50.3706 21.3642 49.8358 20.6463V20.6424C48.3141 18.5959 47.3354 15.9526 47.2176 13.0203C47.1232 10.9335 47.4923 8.85199 48.2972 6.93105C48.2972 6.93105 48.3241 6.86194 48.3857 6.73787C49.6941 3.77572 51.995 1.49207 54.8204 0.515942C54.8282 0.515417 54.8359 0.512995 54.8427 0.508874C55.0098 0.448406 55.1815 0.395006 55.3525 0.351814C55.4456 0.325114 55.535 0.30234 55.6251 0.279567C55.7891 0.237946 55.9493 0.201037 56.1102 0.173551C56.2034 0.154704 56.3004 0.138998 56.3936 0.124077C56.8847 0.0422011 57.3814 0.000708423 57.879 2.56042e-08C58.3554 -3.5413e-05 58.8311 0.0367169 59.3021 0.109942C59.695 0.168804 60.0836 0.255129 60.4649 0.368305C60.4818 0.367926 60.4985 0.371982 60.5134 0.380085C60.6597 0.421706 60.8053 0.467253 60.9508 0.519868C60.9593 0.523129 60.9681 0.525754 60.977 0.527721C61.245 0.622742 61.516 0.728758 61.774 0.845767C65.9878 2.74855 68.8493 7.56243 68.6814 13.0203Z" fill="url(#paint2_linear_1452_616)"/>
<g style="mix-blend-mode:multiply" opacity="0.2">
<path d="M64.4871 3.50781C64.4101 4.02061 63.4737 5.74434 61.8619 7.37384C60.797 8.45049 59.4386 9.48708 57.823 10.1114C57.119 10.3876 56.3837 10.5723 55.6345 10.6611C53.7725 10.881 52.2947 10.7216 51.1612 10.3917C49.0327 9.7635 48.0933 8.50703 48.1341 7.94868C48.7186 6.49366 49.5032 5.13085 50.4643 3.90125C51.5347 2.53875 52.9839 1.18961 54.8244 0.515822C54.8323 0.515298 54.8399 0.512876 54.8467 0.508755C55.0138 0.448287 55.1855 0.394886 55.3565 0.351695C55.4165 0.332848 55.4797 0.314001 55.5428 0.298295C55.5694 0.289899 55.5964 0.282823 55.6237 0.277092C55.7877 0.235471 55.9479 0.198562 56.1088 0.171076C56.202 0.152229 56.299 0.136523 56.3922 0.121602C56.8844 0.0477386 57.3817 0.0146479 57.8792 0.0226546C58.6866 0.0308138 59.4893 0.148328 60.2664 0.372113C60.2858 0.373733 60.3048 0.378782 60.3226 0.387033C60.825 0.531169 61.3145 0.71875 61.7857 0.947737C61.9982 1.0459 62.1985 1.15584 62.3879 1.26186C62.5989 1.38593 62.8245 1.53278 63.0617 1.69848C64.0173 2.39976 64.5456 3.12851 64.4871 3.50781Z" fill="#F42774"/>
</g>
<g style="mix-blend-mode:soft-light">
<path d="M48.367 17.6869C48.8422 18.4495 55.9051 15.2635 59.2187 14.3149C62.5531 13.3599 67.7279 14.373 68.1899 13.9866C68.6519 13.6002 68.307 7.95237 66.4188 5.19125C64.5006 2.37596 64.5129 5.34203 62.5107 6.72259C60.5301 8.08901 52.5123 10.4834 50.7989 10.3043C49.0855 10.1253 48.5064 9.35805 47.8673 9.44836C47.2281 9.53867 46.063 13.9866 48.367 17.6869Z" fill="white"/>
</g>
<path d="M64.8303 13.0207C64.7533 17.2856 61.9264 20.6899 58.4126 20.9891C58.2425 21.0032 58.073 21.0119 57.8998 21.0119C54.148 21.0119 51.0062 17.489 50.8791 13.0207C50.7459 8.41803 53.8454 4.58105 57.8097 4.58105C57.9922 4.58105 58.1716 4.59126 58.3487 4.60697C62.0581 4.93994 64.9081 8.63398 64.8303 13.0207Z" fill="url(#paint3_linear_1452_616)"/>
<path d="M64.8251 13.0201C64.7481 17.2851 61.9212 20.6894 58.4074 20.9886C54.8913 20.6925 52.0321 17.2882 51.925 13.0201C51.8141 8.63032 54.6433 4.93627 58.3481 4.60645C62.0529 4.93941 64.9028 8.63346 64.8251 13.0201Z" fill="#FF6B04"/>
<path d="M47.6858 16.0347C47.3677 14.5623 50.6844 16.4274 48.4628 18.1676C48.1144 17.4939 47.8533 16.7769 47.6858 16.0347Z" fill="white"/>
<g style="mix-blend-mode:soft-light">
<path d="M61.5769 0.299339C60.6798 0.215312 66.0556 2.28379 67.3678 6.03202C68.6484 9.68838 71.2712 8.51828 71.2712 8.51828C71.2712 8.51828 69.0242 0.618955 61.5769 0.299339Z" fill="white"/>
</g>
<g style="mix-blend-mode:multiply" opacity="0.7">
<path d="M70.9924 17.6641C70.9092 17.9821 70.6843 18.4494 70.3678 18.9849H70.364C69.8211 19.8988 69.1904 20.7553 68.4812 21.5419L68.4704 21.5513C68.2502 21.7916 68.0276 22.0225 67.7989 22.2384L67.7666 22.2683C67.3544 22.6636 66.8955 23.005 66.4005 23.2845C66.3871 23.2942 66.3729 23.3029 66.3581 23.3104H66.3543C64.8573 24.0996 63.167 24.4585 62.0851 24.6163C61.5953 24.687 61.2295 24.7192 61.0601 24.7325C60.9916 24.7325 60.9531 24.7388 60.9531 24.7388C60.9253 24.735 60.8978 24.7295 60.8707 24.7223C60.8442 24.7186 60.8183 24.7112 60.7937 24.7003C60.6905 24.6289 61.2395 24.5323 62.0804 24.1703C63.5505 23.542 65.9307 22.1104 67.36 18.5852C67.36 18.5852 70.2446 17.1018 70.9331 17.2306C71.0509 17.2573 71.0663 17.4136 70.9924 17.6641Z" fill="#DE376D"/>
</g>
<path d="M60.9375 0.515625C60.9375 0.515625 67.1542 1.94958 68.7921 9.53871C70.3492 16.7635 64.7878 22.3493 64.7878 22.3493C64.7878 22.3493 68.8206 17.2818 68.1607 10.3028C67.4668 2.98461 60.9375 0.515625 60.9375 0.515625Z" fill="#FFE016"/>
<path d="M68.6592 9.65098C68.2279 9.00075 67.223 12.5236 68.442 13.1848C69.0349 13.5115 69.4885 10.9027 68.6592 9.65098Z" fill="white"/>
<g style="mix-blend-mode:soft-light" opacity="0.5">
<path d="M67.694 17.8262C67.6755 17.8764 67.617 18.0319 67.5092 18.2612C66.9825 19.404 66.3092 20.4704 65.507 21.4323C64.6461 22.4594 63.5133 23.4803 62.0772 24.1478C61.5725 24.3825 61.0466 24.5666 60.507 24.6975C60.383 24.7266 60.2591 24.7557 60.1312 24.7761C60.1257 24.7779 60.1198 24.7779 60.1143 24.7761C59.9171 24.8145 59.7139 24.8475 59.5036 24.8695C59.4708 24.8757 59.4376 24.8802 59.4043 24.8829L59.3211 24.8923C59.0185 24.9214 58.7182 24.9402 58.4325 24.9473H58.4186C58.1876 24.9535 57.9604 24.9473 57.7402 24.9473C56.6605 24.9162 55.5923 24.7127 54.5745 24.3442C54.5482 24.3373 54.5225 24.3287 54.4975 24.3182C52.7987 23.6845 51.8438 22.7736 51.676 22.6086C51.676 22.6024 51.666 22.5992 51.6621 22.5961C51.6591 22.5912 51.6554 22.5867 51.6513 22.5827C51.4126 22.3731 52.8203 23.4144 54.9564 24.0245C55.863 24.2883 56.8012 24.4223 57.744 24.4227C58.0844 24.4195 58.4244 24.3959 58.7621 24.352C58.8514 24.3387 58.9446 24.3261 59.0347 24.3096C60.091 24.1294 61.1139 23.7851 62.0679 23.2887C65.574 21.4723 67.5315 18.1073 67.694 17.8262Z" fill="white"/>
</g>
<path d="M53.2109 18.8887C53.2109 18.8887 58.328 22.8222 62.3577 19.107C62.3577 19.107 57.9453 23.7159 53.2109 18.8887Z" fill="#FFE016"/>
<g style="mix-blend-mode:multiply" opacity="0.5">
<path d="M51.1094 10.3738C51.3681 11.7794 52.5117 7.26554 56.9256 5.86064C61.3797 4.44239 64.5746 10.6447 64.5746 10.6447C64.5746 10.6447 63.7961 4.55469 57.6349 4.55469C52.8174 4.55469 51.1094 10.3738 51.1094 10.3738Z" fill="#D42F55"/>
</g>
<g style="mix-blend-mode:soft-light">
<path d="M62.9084 23.8067C62.4933 24.0564 64.8243 24.1004 65.7869 23.5892C66.7494 23.078 68.1348 22.0531 68.3365 21.4249C68.5383 20.7967 67.2145 20.9168 66.4114 21.1108C65.6082 21.3048 64.862 22.6343 62.9084 23.8067Z" fill="white"/>
</g>
<path d="M68.4951 16.2481C67.7251 16.0023 66.6701 17.5831 67.2407 18.9025C67.8113 20.2218 70.2609 16.8057 68.4951 16.2481Z" fill="url(#paint4_linear_1452_616)"/>
<g style="mix-blend-mode:multiply" opacity="0.7">
<path d="M67.3068 17.3658C67.2483 18.3262 68.4088 18.3867 68.8469 17.8841C69.2851 17.3815 69.2528 16.2506 68.3972 16.2279C67.5417 16.2051 67.3068 17.3658 67.3068 17.3658Z" fill="#DE376D"/>
</g>
<path d="M67.0781 18.1944C67.3222 17.6172 68.0099 18.3256 68.428 18.3578C68.8462 18.39 68.1416 19.337 67.658 19.1973C67.1744 19.0575 67.0781 18.1944 67.0781 18.1944Z" fill="#FF9500"/>
<path d="M65.9442 16.6566C65.1665 16.4163 64.4041 17.5574 64.736 18.3254C65.0679 19.0934 67.2988 17.076 65.9442 16.6566Z" fill="url(#paint5_linear_1452_616)"/>
<g style="mix-blend-mode:multiply" opacity="0.7">
<path d="M65.5976 16.624C65.0632 16.7756 64.8914 17.5664 65.1047 17.802C65.318 18.0376 66.3368 17.7502 66.3699 17.2114C66.4031 16.6727 65.8093 16.5644 65.5976 16.624Z" fill="#DE376D"/>
</g>
<path d="M64.6484 18.0545C64.784 17.3477 65.0804 18.0545 65.4955 18.133C65.9106 18.2115 64.6808 18.9945 64.6484 18.0545Z" fill="#FF9500"/>
<path d="M52.8983 6.76846C52.2823 6.56743 51.7148 7.48466 51.9958 8.10975C52.2769 8.73485 53.9703 7.11792 52.8983 6.76846Z" fill="url(#paint6_linear_1452_616)"/>
<g style="mix-blend-mode:multiply" opacity="0.7">
<path d="M52.6364 6.73901C52.2221 6.8568 52.1082 7.49761 52.2807 7.68922C52.4531 7.88083 53.2448 7.65781 53.2563 7.21804C53.2679 6.77827 52.8004 6.69189 52.6364 6.73901Z" fill="#DE376D"/>
</g>
<path d="M51.9297 7.8888C52.0182 7.32024 52.2677 7.8888 52.5973 7.96026C52.9269 8.03172 51.9767 8.65132 51.9297 7.8888Z" fill="#FF9500"/>
<g style="mix-blend-mode:multiply" opacity="0.8">
<path d="M69.2848 4.26087C69.2578 4.2271 69.2293 4.1949 69.2031 4.16113L69.2848 4.26087Z" fill="#D42F55"/>
</g>
<g style="mix-blend-mode:multiply" opacity="0.8">
<path d="M69.2115 4.16209C68.9743 3.88173 68.3644 3.22444 67.3387 2.5318C67.3349 2.5318 67.331 2.5318 67.3279 2.52395C66.0958 1.69153 64.2639 0.815926 61.7789 0.494739C61.7443 0.48753 61.7093 0.482286 61.6742 0.479033C61.3045 0.433486 60.9195 0.400503 60.5229 0.38087C60.487 0.378911 60.451 0.378911 60.4151 0.38087C60.3658 0.38087 60.3173 0.38087 60.2688 0.38087C59.6242 0.358689 58.9789 0.373896 58.3359 0.426418C58.1819 0.437412 58.0325 0.453118 57.8832 0.471965C54.3347 0.864615 51.9537 2.42736 50.4659 3.91C49.2377 5.12094 48.6062 6.28946 48.3906 6.73787C49.6997 3.77572 52.0007 1.49207 54.826 0.515942C54.8339 0.515417 54.8416 0.512995 54.8483 0.508874C55.0155 0.448406 55.1872 0.395006 55.3581 0.351814C55.4182 0.332967 55.4813 0.31412 55.5445 0.298414C55.5723 0.289893 55.6006 0.282816 55.6292 0.277211C55.7932 0.23559 55.9534 0.198681 56.1143 0.171196C56.2075 0.152348 56.3045 0.136642 56.3977 0.121722C56.8894 0.0405508 57.3866 -0.000154264 57.8847 4.39304e-07C58.3611 -3.49993e-05 58.8368 0.0367174 59.3078 0.109942L61.772 0.299985V0.303911C64.729 0.363594 67.3587 1.84074 69.2115 4.16209Z" fill="#D42F55"/>
</g>
<g style="mix-blend-mode:multiply" opacity="0.8">
<path d="M68.6693 21.3807C68.3947 21.6853 68.1034 21.9737 67.7968 22.2446L67.7645 22.2744C67.3523 22.6698 66.8934 23.0111 66.3984 23.2906C66.385 23.3004 66.3708 23.309 66.356 23.3165H66.3522C64.9397 24.1976 63.3267 24.6888 61.6718 24.7418H61.641L59.4517 24.8871C58.9749 24.962 58.4933 24.9998 58.0109 25.0002C57.9339 25.0002 57.8569 25.0002 57.7837 25.0002H57.7421C56.7831 24.9698 55.834 24.7911 54.9276 24.4701C54.8074 24.4308 54.6904 24.3916 54.5764 24.3484C54.5502 24.3416 54.5245 24.3329 54.4994 24.3225C52.7984 23.6848 51.8435 22.7739 51.6756 22.6089C51.6756 22.6027 51.6656 22.5995 51.6617 22.5964C50.9832 22.0185 50.3707 21.3644 49.8359 20.6465C49.9337 20.7423 51.949 22.8383 54.9561 24.0233C55.8513 24.384 56.7873 24.6293 57.7421 24.7536C58.461 24.8477 59.1876 24.8641 59.9099 24.8023H59.9137L60.1139 24.7827C60.1194 24.7845 60.1254 24.7845 60.1309 24.7827C60.3242 24.7669 60.5159 24.7442 60.6999 24.7183L60.7931 24.7088C61.2413 24.6476 61.6733 24.5698 62.0845 24.4827C65.5991 23.7382 67.783 22.1268 68.4683 21.5566L68.4791 21.5472C68.5684 21.4695 68.6331 21.4137 68.6693 21.3807Z" fill="#D42F55"/>
</g>
<path d="M63.587 0.847829C62.2864 0.791288 65.0078 2.83542 66.0789 3.71731C67.1501 4.5992 68.9097 3.97725 68.9651 3.89086C69.0205 3.80448 66.2152 0.960912 63.587 0.847829Z" fill="white"/>
<path d="M57.3275 6.55231C52.4338 7.13108 52.1196 14.5624 53.3525 15.5094C54.61 16.4714 55.3223 15.449 55.4655 16.0426C55.6088 16.6363 54.5977 17.7303 54.5977 17.7303C54.6793 18.4574 57.9089 19.0024 58.0067 18.8391C58.1045 18.6758 58.4688 17.5787 58.4688 17.5787C58.4688 17.5787 57.7903 18.821 57.9074 18.9035C58.0244 18.986 61.7431 18.3718 61.7277 18.1669C61.7123 17.9619 60.3685 16.418 60.424 15.7144C60.4794 15.0108 64.004 16.3898 64.3058 14.9958C64.6139 13.5807 64.4575 5.7089 57.3275 6.55231ZM53.6313 12.7876C53.592 10.7772 54.5961 9.66131 55.9414 9.93067C57.3222 10.2016 57.5801 12.4154 57.1073 13.1111C56.4735 14.0386 53.6736 14.7752 53.6343 12.7876H53.6313ZM56.8463 15.4254C56.4735 15.2047 57.3198 14.1838 57.6879 13.8878C58.056 13.5917 58.9462 15.0587 59.0602 15.4851C59.1741 15.9115 57.0719 15.5597 56.8493 15.4254H56.8463ZM58.4549 13.1143C57.9659 12.413 58.2054 10.1773 59.6447 9.81601C61.1339 9.44143 62.3175 10.5848 62.2967 12.7829C62.2759 14.9566 59.1226 14.0723 58.4549 13.1143Z" fill="url(#paint7_linear_1452_616)"/>
<path d="M60.9004 7.29089C59.7969 6.46475 58.34 6.08153 56.5342 6.52365C54.455 7.02938 53.1867 8.61961 52.5299 10.3284C51.6651 12.5587 51.8368 14.9837 52.543 15.524C53.8174 16.4891 54.5344 15.4619 54.6791 16.0588C54.7477 16.3289 54.5767 16.7035 54.3657 17.0302C54.2003 17.287 54.0146 17.5297 53.8105 17.7558C53.8875 18.4845 57.1502 19.0327 57.2542 18.8678C57.3582 18.7029 57.7162 17.6003 57.7162 17.6003C57.7162 17.6003 57.7863 18.8206 57.9034 18.9047C58.0204 18.9887 60.614 18.2623 60.5986 18.0566C60.5832 17.8508 59.6822 16.5064 59.683 15.7847C59.683 15.7643 59.683 15.7501 59.6868 15.7297C59.7007 15.5098 60.0033 15.4761 60.423 15.4996C61.3471 15.5444 62.8464 15.8357 63.1952 14.9114C63.2907 14.6572 63.3621 14.3942 63.4085 14.1261C63.7951 11.983 62.9927 8.85285 60.9004 7.29089ZM58.3077 15.4996C58.4309 15.9323 56.2986 15.5719 56.0745 15.4384C55.6979 15.2177 56.5496 14.189 56.9215 13.8945C57.2981 13.5858 58.1921 15.0701 58.3077 15.4996ZM52.821 12.7896C52.7763 10.769 53.7851 9.64836 55.1427 9.91536C56.5373 10.1902 56.8037 12.415 56.3255 13.1147C55.6918 14.0437 52.8656 14.7874 52.821 12.7896ZM57.6885 13.1186C57.1918 12.4118 57.4282 10.1651 58.8798 9.80542C60.383 9.43004 61.5804 10.5805 61.565 12.7896C61.5511 14.9664 58.3631 14.0782 57.6885 13.1186Z" fill="url(#paint8_linear_1452_616)"/>
<g style="mix-blend-mode:multiply" opacity="0.5">
<path d="M53.3281 10.7631C53.3659 11.5555 54.166 10.7725 54.8513 10.4152C55.5367 10.0579 56.2051 10.7584 56.2051 10.7584C56.2051 10.7584 54.8729 8.72368 53.3281 10.7631Z" fill="#D42F55"/>
</g>
<g style="mix-blend-mode:multiply" opacity="0.5">
<path d="M57.6562 11.1063C57.6971 12.5984 58.3039 11.2688 59.2834 10.4843C60.2629 9.69982 60.9875 10.5629 60.9875 10.5629C60.9875 10.5629 60.2945 9.4281 59.0578 9.76892C57.821 10.1097 57.6562 11.1063 57.6562 11.1063Z" fill="#D42F55"/>
</g>
<g style="mix-blend-mode:soft-light">
<path d="M60.9028 7.29102C58.4732 7.74021 53.9868 10.0231 52.5299 10.3286C51.6651 12.5588 51.8368 14.9838 52.543 15.5241C53.8174 16.4892 54.5344 15.4621 54.6791 16.0589C54.7477 16.329 54.5767 16.7036 54.3657 17.0303C55.9336 17.0036 57.9172 16.4413 59.6837 15.7848C59.9363 15.689 60.182 15.5924 60.4238 15.4997C61.4429 15.0968 62.4395 14.6373 63.4093 14.1231C63.7974 11.9832 62.995 8.85298 60.9028 7.29102ZM52.8233 12.7881C52.7786 10.7675 53.7874 9.64691 55.145 9.91391C56.5396 10.1888 56.806 12.4135 56.3278 13.1132C55.6941 14.0438 52.8679 14.7875 52.8233 12.7897V12.7881ZM56.0752 15.4369C55.6987 15.2163 56.5504 14.1875 56.9223 13.893C57.2996 13.5868 58.1937 15.071 58.3084 15.4982C58.4232 15.9254 56.3009 15.572 56.0752 15.4385V15.4369ZM57.6924 13.1172C57.1957 12.4104 57.4321 10.1636 58.8837 9.80397C60.3868 9.4286 61.5843 10.5791 61.5689 12.7881C61.5535 14.9665 58.3654 14.0784 57.6908 13.1187L57.6924 13.1172Z" fill="white"/>
</g>
<path d="M61.4294 7.79494C61.1637 7.52637 61.4086 9.11974 61.8914 9.57207C62.3742 10.0244 62.7162 9.57207 62.7162 9.57207C62.7162 9.57207 62.1779 8.54804 61.4294 7.79494Z" fill="white"/>
</g>
<defs>
<linearGradient id="paint0_linear_1452_616" x1="61.4902" y1="24.7454" x2="61.4902" y2="0.299805" gradientUnits="userSpaceOnUse">
<stop offset="0.05" stop-color="#FF3F00"/>
<stop offset="0.72" stop-color="#FF6A03"/>
<stop offset="1" stop-color="#FFFF04"/>
</linearGradient>
<linearGradient id="paint1_linear_1452_616" x1="59.9153" y1="25" x2="59.9153" y2="0" gradientUnits="userSpaceOnUse">
<stop offset="0.05" stop-color="#FF3F00"/>
<stop offset="0.72" stop-color="#FF6A03"/>
<stop offset="1" stop-color="#FFFF04"/>
</linearGradient>
<linearGradient id="paint2_linear_1452_616" x1="57.9453" y1="25" x2="57.9453" y2="0" gradientUnits="userSpaceOnUse">
<stop stop-color="#FFA900"/>
<stop offset="1" stop-color="#FF9600"/>
</linearGradient>
<linearGradient id="paint3_linear_1452_616" x1="57.8536" y1="21.0119" x2="57.8536" y2="4.58105" gradientUnits="userSpaceOnUse">
<stop stop-color="#FF7C04"/>
<stop offset="1" stop-color="#D92000"/>
</linearGradient>
<linearGradient id="paint4_linear_1452_616" x1="68.1009" y1="19.1985" x2="68.1009" y2="16.2222" gradientUnits="userSpaceOnUse">
<stop offset="0.04" stop-color="#EF6300"/>
<stop offset="1" stop-color="#E13E00"/>
</linearGradient>
<linearGradient id="paint5_linear_1452_616" x1="65.5145" y1="18.4974" x2="65.5145" y2="16.6237" gradientUnits="userSpaceOnUse">
<stop offset="0.04" stop-color="#EF6300"/>
<stop offset="1" stop-color="#E13E00"/>
</linearGradient>
<linearGradient id="paint6_linear_1452_616" x1="52.5784" y1="8.255" x2="52.5946" y2="6.73868" gradientUnits="userSpaceOnUse">
<stop offset="0.04" stop-color="#EF6300"/>
<stop offset="1" stop-color="#E13E00"/>
</linearGradient>
<linearGradient id="paint7_linear_1452_616" x1="60.5271" y1="18.6498" x2="56.147" y2="6.85015" gradientUnits="userSpaceOnUse">
<stop stop-color="#EA5104"/>
<stop offset="1" stop-color="#D92000"/>
</linearGradient>
<linearGradient id="paint8_linear_1452_616" x1="59.683" y1="18.4798" x2="55.3889" y2="6.90992" gradientUnits="userSpaceOnUse">
<stop stop-color="#FF9600"/>
<stop offset="1" stop-color="#FFA900"/>
</linearGradient>
<clipPath id="clip0_1452_616">
<rect width="25" height="25" fill="white" transform="translate(47)"/>
</clipPath>
</defs>
</svg>
