<svg width="60" height="34" viewBox="0 0 60 34" fill="none" xmlns="http://www.w3.org/2000/svg">
<path d="M60 1.03448V32.069C60 32.3433 59.891 32.6065 59.697 32.8005C59.503 32.9945 59.2399 33.1034 58.9655 33.1034H52.6552C52.413 33.0998 52.1795 33.0124 51.9945 32.856C51.8095 32.6997 51.6843 32.4841 51.6403 32.2459C51.4446 31.317 50.9354 30.4837 50.1982 29.8857C49.461 29.2877 48.5406 28.9614 47.5914 28.9614C46.6421 28.9614 45.7217 29.2877 44.9846 29.8857C44.2474 30.4837 43.7382 31.317 43.5424 32.2459C43.4984 32.4841 43.3733 32.6997 43.1883 32.856C43.0033 33.0124 42.7698 33.0998 42.5276 33.1034H1.03448C0.760121 33.1034 0.496996 32.9945 0.302993 32.8005C0.10899 32.6065 0 32.3433 0 32.069V1.03448C0 0.760121 0.10899 0.496996 0.302993 0.302993C0.496996 0.10899 0.760121 0 1.03448 0H42.5172C42.7594 0.00362756 42.9929 0.0910532 43.1779 0.247404C43.363 0.403756 43.4881 0.619376 43.5321 0.857587C43.7278 1.78642 44.237 2.6197 44.9742 3.21771C45.7114 3.81572 46.6318 4.14208 47.581 4.14208C48.5303 4.14208 49.4507 3.81572 50.1879 3.21771C50.925 2.6197 51.4342 1.78642 51.63 0.857587C51.6743 0.617649 51.801 0.400694 51.9881 0.244139C52.1753 0.0875837 52.4112 0.00124082 52.6552 0H58.9655C59.2399 0 59.503 0.10899 59.697 0.302993C59.891 0.496996 60 0.760121 60 1.03448Z" fill="#26C2E1"/>
<path d="M8.198 13.154V10.274H13.346V23H10.106V13.154H8.198ZM16.378 21.236C15.574 20.072 15.172 18.494 15.172 16.502C15.172 14.522 15.574 12.956 16.378 11.804C17.182 10.64 18.466 10.058 20.23 10.058C21.982 10.058 23.26 10.64 24.064 11.804C24.88 12.956 25.288 14.522 25.288 16.502C25.288 18.494 24.88 20.072 24.064 21.236C23.26 22.4 21.982 22.982 20.23 22.982C18.466 22.982 17.182 22.4 16.378 21.236ZM21.814 19.148C22.09 18.524 22.228 17.642 22.228 16.502C22.228 15.362 22.09 14.492 21.814 13.892C21.55 13.28 21.022 12.974 20.23 12.974C19.426 12.974 18.886 13.28 18.61 13.892C18.334 14.504 18.196 15.374 18.196 16.502C18.196 17.642 18.334 18.524 18.61 19.148C18.886 19.76 19.426 20.066 20.23 20.066C21.022 20.066 21.55 19.76 21.814 19.148ZM29.474 10.058C30.35 10.058 31.064 10.322 31.616 10.85C32.18 11.378 32.462 12.122 32.462 13.082C32.462 14.042 32.18 14.786 31.616 15.314C31.064 15.842 30.35 16.106 29.474 16.106C28.574 16.106 27.842 15.842 27.278 15.314C26.726 14.786 26.45 14.042 26.45 13.082C26.45 12.122 26.726 11.378 27.278 10.85C27.842 10.322 28.574 10.058 29.474 10.058ZM38.204 10.238L31.256 23H28.286L35.234 10.238H38.204ZM28.502 13.082C28.502 13.454 28.586 13.748 28.754 13.964C28.922 14.168 29.15 14.27 29.438 14.27C29.738 14.27 29.978 14.168 30.158 13.964C30.338 13.748 30.428 13.454 30.428 13.082C30.428 12.71 30.338 12.422 30.158 12.218C29.978 12.002 29.738 11.894 29.438 11.894C29.15 11.894 28.922 12.002 28.754 12.218C28.586 12.422 28.502 12.71 28.502 13.082ZM37.034 17.114C37.922 17.114 38.642 17.378 39.194 17.906C39.746 18.434 40.022 19.178 40.022 20.138C40.022 21.098 39.746 21.848 39.194 22.388C38.642 22.916 37.922 23.18 37.034 23.18C36.158 23.18 35.438 22.916 34.874 22.388C34.322 21.848 34.046 21.098 34.046 20.138C34.046 19.178 34.322 18.434 34.874 17.906C35.438 17.378 36.158 17.114 37.034 17.114ZM36.08 20.138C36.08 20.522 36.164 20.822 36.332 21.038C36.5 21.242 36.734 21.344 37.034 21.344C37.322 21.344 37.55 21.242 37.718 21.038C37.898 20.822 37.988 20.522 37.988 20.138C37.988 19.766 37.898 19.478 37.718 19.274C37.55 19.058 37.322 18.95 37.034 18.95C36.734 18.95 36.5 19.058 36.332 19.274C36.164 19.478 36.08 19.766 36.08 20.138Z" fill="white"/>
<path d="M47.5814 10.3447C47.307 10.3447 47.0439 10.2357 46.8499 10.0417C46.6559 9.84766 46.5469 9.58454 46.5469 9.31018V8.27569C46.5469 8.00133 46.6559 7.73821 46.8499 7.5442C47.0439 7.3502 47.307 7.24121 47.5814 7.24121C47.8557 7.24121 48.1188 7.3502 48.3128 7.5442C48.5069 7.73821 48.6158 8.00133 48.6158 8.27569V9.31018C48.6158 9.58454 48.5069 9.84766 48.3128 10.0417C48.1188 10.2357 47.8557 10.3447 47.5814 10.3447Z" fill="white"/>
<path d="M47.5814 15.5175C47.307 15.5175 47.0439 15.4085 46.8499 15.2145C46.6559 15.0205 46.5469 14.7574 46.5469 14.483V13.4485C46.5469 13.1742 46.6559 12.9111 46.8499 12.7171C47.0439 12.5231 47.307 12.4141 47.5814 12.4141C47.8557 12.4141 48.1188 12.5231 48.3128 12.7171C48.5069 12.9111 48.6158 13.1742 48.6158 13.4485V14.483C48.6158 14.7574 48.5069 15.0205 48.3128 15.2145C48.1188 15.4085 47.8557 15.5175 47.5814 15.5175Z" fill="white"/>
<path d="M47.5814 20.6894C47.307 20.6894 47.0439 20.5804 46.8499 20.3864C46.6559 20.1924 46.5469 19.9293 46.5469 19.6549V18.6204C46.5469 18.3461 46.6559 18.0829 46.8499 17.8889C47.0439 17.6949 47.307 17.5859 47.5814 17.5859C47.8557 17.5859 48.1188 17.6949 48.3128 17.8889C48.5069 18.0829 48.6158 18.3461 48.6158 18.6204V19.6549C48.6158 19.9293 48.5069 20.1924 48.3128 20.3864C48.1188 20.5804 47.8557 20.6894 47.5814 20.6894Z" fill="white"/>
<path d="M47.5814 25.8622C47.307 25.8622 47.0439 25.7532 46.8499 25.5592C46.6559 25.3652 46.5469 25.1021 46.5469 24.8278V23.7933C46.5469 23.5189 46.6559 23.2558 46.8499 23.0618C47.0439 22.8678 47.307 22.7588 47.5814 22.7588C47.8557 22.7588 48.1188 22.8678 48.3128 23.0618C48.5069 23.2558 48.6158 23.5189 48.6158 23.7933V24.8278C48.6158 25.1021 48.5069 25.3652 48.3128 25.5592C48.1188 25.7532 47.8557 25.8622 47.5814 25.8622Z" fill="white"/>
<path d="M40.3429 30.0001H5.17053C4.6218 30.0001 4.09555 29.7821 3.70755 29.3941C3.31954 29.0061 3.10156 28.4798 3.10156 27.9311V5.17248C3.10156 4.62376 3.31954 4.09751 3.70755 3.7095C4.09555 3.3215 4.6218 3.10352 5.17053 3.10352H40.3429C40.6173 3.10352 40.8804 3.2125 41.0744 3.40651C41.2684 3.60051 41.3774 3.86364 41.3774 4.138C41.3774 4.41236 41.2684 4.67549 41.0744 4.86949C40.8804 5.06349 40.6173 5.17248 40.3429 5.17248H5.17053V27.9311H40.3429C40.6173 27.9311 40.8804 28.0401 41.0744 28.2341C41.2684 28.4281 41.3774 28.6912 41.3774 28.9656C41.3774 29.2399 41.2684 29.5031 41.0744 29.6971C40.8804 29.8911 40.6173 30.0001 40.3429 30.0001Z" fill="white"/>
</svg>
