<svg width="60" height="34" viewBox="0 0 60 34" fill="none" xmlns="http://www.w3.org/2000/svg">
<path d="M60 1.03448V32.069C60 32.3433 59.891 32.6065 59.697 32.8005C59.503 32.9945 59.2399 33.1034 58.9655 33.1034H52.6552C52.413 33.0998 52.1795 33.0124 51.9945 32.856C51.8095 32.6997 51.6843 32.4841 51.6403 32.2459C51.4446 31.317 50.9354 30.4837 50.1982 29.8857C49.461 29.2877 48.5406 28.9614 47.5914 28.9614C46.6421 28.9614 45.7217 29.2877 44.9846 29.8857C44.2474 30.4837 43.7382 31.317 43.5424 32.2459C43.4984 32.4841 43.3733 32.6997 43.1883 32.856C43.0033 33.0124 42.7698 33.0998 42.5276 33.1034H1.03448C0.760121 33.1034 0.496996 32.9945 0.302993 32.8005C0.10899 32.6065 0 32.3433 0 32.069V1.03448C0 0.760121 0.10899 0.496996 0.302993 0.302993C0.496996 0.10899 0.760121 0 1.03448 0H42.5172C42.7594 0.00362756 42.9929 0.0910532 43.1779 0.247404C43.363 0.403756 43.4881 0.619376 43.5321 0.857587C43.7278 1.78642 44.237 2.6197 44.9742 3.21771C45.7114 3.81572 46.6318 4.14208 47.581 4.14208C48.5303 4.14208 49.4507 3.81572 50.1879 3.21771C50.925 2.6197 51.4342 1.78642 51.63 0.857587C51.6743 0.617649 51.801 0.400694 51.9881 0.244139C52.1753 0.0875837 52.4112 0.00124082 52.6552 0H58.9655C59.2399 0 59.503 0.10899 59.697 0.302993C59.891 0.496996 60 0.760121 60 1.03448Z" fill="#F36B25"/>
<path d="M8.198 13.154V10.274H13.346V23H10.106V13.154H8.198ZM24.568 12.668H18.844V15.242C19.096 14.954 19.444 14.732 19.888 14.576C20.344 14.408 20.836 14.324 21.364 14.324C22.216 14.324 22.93 14.516 23.506 14.9C24.082 15.272 24.508 15.776 24.784 16.412C25.06 17.048 25.198 17.75 25.198 18.518C25.198 19.91 24.808 21.014 24.028 21.83C23.248 22.634 22.15 23.036 20.734 23.036C19.774 23.036 18.94 22.868 18.232 22.532C17.524 22.184 16.978 21.704 16.594 21.092C16.21 20.48 16.006 19.772 15.982 18.968H18.988C19.048 19.376 19.21 19.712 19.474 19.976C19.75 20.24 20.122 20.372 20.59 20.372C21.13 20.372 21.532 20.198 21.796 19.85C22.072 19.502 22.21 19.04 22.21 18.464C22.21 17.912 22.066 17.486 21.778 17.186C21.49 16.886 21.088 16.736 20.572 16.736C20.176 16.736 19.846 16.826 19.582 17.006C19.318 17.174 19.138 17.396 19.042 17.672H16.054V9.968H24.568V12.668ZM29.4564 10.058C30.3324 10.058 31.0464 10.322 31.5984 10.85C32.1624 11.378 32.4444 12.122 32.4444 13.082C32.4444 14.042 32.1624 14.786 31.5984 15.314C31.0464 15.842 30.3324 16.106 29.4564 16.106C28.5564 16.106 27.8244 15.842 27.2604 15.314C26.7084 14.786 26.4324 14.042 26.4324 13.082C26.4324 12.122 26.7084 11.378 27.2604 10.85C27.8244 10.322 28.5564 10.058 29.4564 10.058ZM38.1864 10.238L31.2384 23H28.2684L35.2164 10.238H38.1864ZM28.4844 13.082C28.4844 13.454 28.5684 13.748 28.7364 13.964C28.9044 14.168 29.1324 14.27 29.4204 14.27C29.7204 14.27 29.9604 14.168 30.1404 13.964C30.3204 13.748 30.4104 13.454 30.4104 13.082C30.4104 12.71 30.3204 12.422 30.1404 12.218C29.9604 12.002 29.7204 11.894 29.4204 11.894C29.1324 11.894 28.9044 12.002 28.7364 12.218C28.5684 12.422 28.4844 12.71 28.4844 13.082ZM37.0164 17.114C37.9044 17.114 38.6244 17.378 39.1764 17.906C39.7284 18.434 40.0044 19.178 40.0044 20.138C40.0044 21.098 39.7284 21.848 39.1764 22.388C38.6244 22.916 37.9044 23.18 37.0164 23.18C36.1404 23.18 35.4204 22.916 34.8564 22.388C34.3044 21.848 34.0284 21.098 34.0284 20.138C34.0284 19.178 34.3044 18.434 34.8564 17.906C35.4204 17.378 36.1404 17.114 37.0164 17.114ZM36.0624 20.138C36.0624 20.522 36.1464 20.822 36.3144 21.038C36.4824 21.242 36.7164 21.344 37.0164 21.344C37.3044 21.344 37.5324 21.242 37.7004 21.038C37.8804 20.822 37.9704 20.522 37.9704 20.138C37.9704 19.766 37.8804 19.478 37.7004 19.274C37.5324 19.058 37.3044 18.95 37.0164 18.95C36.7164 18.95 36.4824 19.058 36.3144 19.274C36.1464 19.478 36.0624 19.766 36.0624 20.138Z" fill="white"/>
<path d="M47.5814 10.3447C47.307 10.3447 47.0439 10.2357 46.8499 10.0417C46.6559 9.84766 46.5469 9.58454 46.5469 9.31018V8.27569C46.5469 8.00133 46.6559 7.73821 46.8499 7.5442C47.0439 7.3502 47.307 7.24121 47.5814 7.24121C47.8557 7.24121 48.1188 7.3502 48.3128 7.5442C48.5069 7.73821 48.6158 8.00133 48.6158 8.27569V9.31018C48.6158 9.58454 48.5069 9.84766 48.3128 10.0417C48.1188 10.2357 47.8557 10.3447 47.5814 10.3447Z" fill="white"/>
<path d="M47.5814 15.5175C47.307 15.5175 47.0439 15.4085 46.8499 15.2145C46.6559 15.0205 46.5469 14.7574 46.5469 14.483V13.4485C46.5469 13.1742 46.6559 12.9111 46.8499 12.7171C47.0439 12.5231 47.307 12.4141 47.5814 12.4141C47.8557 12.4141 48.1188 12.5231 48.3128 12.7171C48.5069 12.9111 48.6158 13.1742 48.6158 13.4485V14.483C48.6158 14.7574 48.5069 15.0205 48.3128 15.2145C48.1188 15.4085 47.8557 15.5175 47.5814 15.5175Z" fill="white"/>
<path d="M47.5814 20.6894C47.307 20.6894 47.0439 20.5804 46.8499 20.3864C46.6559 20.1924 46.5469 19.9293 46.5469 19.6549V18.6204C46.5469 18.3461 46.6559 18.0829 46.8499 17.8889C47.0439 17.6949 47.307 17.5859 47.5814 17.5859C47.8557 17.5859 48.1188 17.6949 48.3128 17.8889C48.5069 18.0829 48.6158 18.3461 48.6158 18.6204V19.6549C48.6158 19.9293 48.5069 20.1924 48.3128 20.3864C48.1188 20.5804 47.8557 20.6894 47.5814 20.6894Z" fill="white"/>
<path d="M47.5814 25.8622C47.307 25.8622 47.0439 25.7532 46.8499 25.5592C46.6559 25.3652 46.5469 25.1021 46.5469 24.8278V23.7933C46.5469 23.5189 46.6559 23.2558 46.8499 23.0618C47.0439 22.8678 47.307 22.7588 47.5814 22.7588C47.8557 22.7588 48.1188 22.8678 48.3128 23.0618C48.5069 23.2558 48.6158 23.5189 48.6158 23.7933V24.8278C48.6158 25.1021 48.5069 25.3652 48.3128 25.5592C48.1188 25.7532 47.8557 25.8622 47.5814 25.8622Z" fill="white"/>
<path d="M40.3429 30.0001H5.17053C4.6218 30.0001 4.09555 29.7821 3.70755 29.3941C3.31954 29.0061 3.10156 28.4798 3.10156 27.9311V5.17248C3.10156 4.62376 3.31954 4.09751 3.70755 3.7095C4.09555 3.3215 4.6218 3.10352 5.17053 3.10352H40.3429C40.6173 3.10352 40.8804 3.2125 41.0744 3.40651C41.2684 3.60051 41.3774 3.86364 41.3774 4.138C41.3774 4.41236 41.2684 4.67549 41.0744 4.86949C40.8804 5.06349 40.6173 5.17248 40.3429 5.17248H5.17053V27.9311H40.3429C40.6173 27.9311 40.8804 28.0401 41.0744 28.2341C41.2684 28.4281 41.3774 28.6912 41.3774 28.9656C41.3774 29.2399 41.2684 29.5031 41.0744 29.6971C40.8804 29.8911 40.6173 30.0001 40.3429 30.0001Z" fill="white"/>
</svg>
