<svg width="60" height="34" viewBox="0 0 60 34" fill="none" xmlns="http://www.w3.org/2000/svg">
<path d="M60 1.03448V32.069C60 32.3433 59.891 32.6065 59.697 32.8005C59.503 32.9945 59.2399 33.1034 58.9655 33.1034H52.6552C52.413 33.0998 52.1795 33.0124 51.9945 32.856C51.8095 32.6997 51.6843 32.4841 51.6403 32.2459C51.4446 31.317 50.9354 30.4837 50.1982 29.8857C49.461 29.2877 48.5406 28.9614 47.5914 28.9614C46.6421 28.9614 45.7217 29.2877 44.9846 29.8857C44.2474 30.4837 43.7382 31.317 43.5424 32.2459C43.4984 32.4841 43.3733 32.6997 43.1883 32.856C43.0033 33.0124 42.7698 33.0998 42.5276 33.1034H1.03448C0.760121 33.1034 0.496996 32.9945 0.302993 32.8005C0.10899 32.6065 0 32.3433 0 32.069V1.03448C0 0.760121 0.10899 0.496996 0.302993 0.302993C0.496996 0.10899 0.760121 0 1.03448 0H42.5172C42.7594 0.00362756 42.9929 0.0910532 43.1779 0.247404C43.363 0.403756 43.4881 0.619376 43.5321 0.857587C43.7278 1.78642 44.237 2.6197 44.9742 3.21771C45.7114 3.81572 46.6318 4.14208 47.581 4.14208C48.5303 4.14208 49.4507 3.81572 50.1879 3.21771C50.925 2.6197 51.4342 1.78642 51.63 0.857587C51.6743 0.617649 51.801 0.400694 51.9881 0.244139C52.1753 0.0875837 52.4112 0.00124082 52.6552 0H58.9655C59.2399 0 59.503 0.10899 59.697 0.302993C59.891 0.496996 60 0.760121 60 1.03448Z" fill="#712D1A"/>
<path d="M8.612 20.552C12.428 17.828 14.336 15.662 14.336 14.054C14.336 13.07 13.91 12.578 13.058 12.578C12.578 12.578 12.224 12.746 11.996 13.082C11.78 13.418 11.66 13.94 11.636 14.648H8.63C8.702 13.1 9.17 11.936 10.034 11.156C10.898 10.376 11.99 9.986 13.31 9.986C14.69 9.986 15.728 10.334 16.424 11.03C17.132 11.726 17.486 12.632 17.486 13.748C17.486 14.984 17.012 16.196 16.064 17.384C15.116 18.56 13.982 19.556 12.662 20.372H17.684V22.856H8.612V20.552ZM20.1573 21.236C19.3533 20.072 18.9513 18.494 18.9513 16.502C18.9513 14.522 19.3533 12.956 20.1573 11.804C20.9613 10.64 22.2453 10.058 24.0093 10.058C25.7613 10.058 27.0393 10.64 27.8433 11.804C28.6593 12.956 29.0673 14.522 29.0673 16.502C29.0673 18.494 28.6593 20.072 27.8433 21.236C27.0393 22.4 25.7613 22.982 24.0093 22.982C22.2453 22.982 20.9613 22.4 20.1573 21.236ZM25.5933 19.148C25.8693 18.524 26.0073 17.642 26.0073 16.502C26.0073 15.362 25.8693 14.492 25.5933 13.892C25.3293 13.28 24.8013 12.974 24.0093 12.974C23.2053 12.974 22.6653 13.28 22.3893 13.892C22.1133 14.504 21.9753 15.374 21.9753 16.502C21.9753 17.642 22.1133 18.524 22.3893 19.148C22.6653 19.76 23.2053 20.066 24.0093 20.066C24.8013 20.066 25.3293 19.76 25.5933 19.148ZM33.2533 10.058C34.1293 10.058 34.8433 10.322 35.3953 10.85C35.9593 11.378 36.2413 12.122 36.2413 13.082C36.2413 14.042 35.9593 14.786 35.3953 15.314C34.8433 15.842 34.1293 16.106 33.2533 16.106C32.3533 16.106 31.6213 15.842 31.0573 15.314C30.5053 14.786 30.2293 14.042 30.2293 13.082C30.2293 12.122 30.5053 11.378 31.0573 10.85C31.6213 10.322 32.3533 10.058 33.2533 10.058ZM41.9833 10.238L35.0353 23H32.0653L39.0133 10.238H41.9833ZM32.2813 13.082C32.2813 13.454 32.3653 13.748 32.5333 13.964C32.7013 14.168 32.9293 14.27 33.2173 14.27C33.5173 14.27 33.7573 14.168 33.9373 13.964C34.1173 13.748 34.2073 13.454 34.2073 13.082C34.2073 12.71 34.1173 12.422 33.9373 12.218C33.7573 12.002 33.5173 11.894 33.2173 11.894C32.9293 11.894 32.7013 12.002 32.5333 12.218C32.3653 12.422 32.2813 12.71 32.2813 13.082ZM40.8133 17.114C41.7013 17.114 42.4213 17.378 42.9733 17.906C43.5253 18.434 43.8013 19.178 43.8013 20.138C43.8013 21.098 43.5253 21.848 42.9733 22.388C42.4213 22.916 41.7013 23.18 40.8133 23.18C39.9373 23.18 39.2173 22.916 38.6533 22.388C38.1013 21.848 37.8253 21.098 37.8253 20.138C37.8253 19.178 38.1013 18.434 38.6533 17.906C39.2173 17.378 39.9373 17.114 40.8133 17.114ZM39.8593 20.138C39.8593 20.522 39.9433 20.822 40.1113 21.038C40.2793 21.242 40.5133 21.344 40.8133 21.344C41.1013 21.344 41.3293 21.242 41.4973 21.038C41.6773 20.822 41.7673 20.522 41.7673 20.138C41.7673 19.766 41.6773 19.478 41.4973 19.274C41.3293 19.058 41.1013 18.95 40.8133 18.95C40.5133 18.95 40.2793 19.058 40.1113 19.274C39.9433 19.478 39.8593 19.766 39.8593 20.138Z" fill="white"/>
<path d="M47.5814 10.3447C47.307 10.3447 47.0439 10.2357 46.8499 10.0417C46.6559 9.84766 46.5469 9.58454 46.5469 9.31018V8.27569C46.5469 8.00133 46.6559 7.73821 46.8499 7.5442C47.0439 7.3502 47.307 7.24121 47.5814 7.24121C47.8557 7.24121 48.1188 7.3502 48.3128 7.5442C48.5069 7.73821 48.6158 8.00133 48.6158 8.27569V9.31018C48.6158 9.58454 48.5069 9.84766 48.3128 10.0417C48.1188 10.2357 47.8557 10.3447 47.5814 10.3447Z" fill="white"/>
<path d="M47.5814 15.5175C47.307 15.5175 47.0439 15.4085 46.8499 15.2145C46.6559 15.0205 46.5469 14.7574 46.5469 14.483V13.4485C46.5469 13.1742 46.6559 12.9111 46.8499 12.7171C47.0439 12.5231 47.307 12.4141 47.5814 12.4141C47.8557 12.4141 48.1188 12.5231 48.3128 12.7171C48.5069 12.9111 48.6158 13.1742 48.6158 13.4485V14.483C48.6158 14.7574 48.5069 15.0205 48.3128 15.2145C48.1188 15.4085 47.8557 15.5175 47.5814 15.5175Z" fill="white"/>
<path d="M47.5814 20.6894C47.307 20.6894 47.0439 20.5804 46.8499 20.3864C46.6559 20.1924 46.5469 19.9293 46.5469 19.6549V18.6204C46.5469 18.3461 46.6559 18.0829 46.8499 17.8889C47.0439 17.6949 47.307 17.5859 47.5814 17.5859C47.8557 17.5859 48.1188 17.6949 48.3128 17.8889C48.5069 18.0829 48.6158 18.3461 48.6158 18.6204V19.6549C48.6158 19.9293 48.5069 20.1924 48.3128 20.3864C48.1188 20.5804 47.8557 20.6894 47.5814 20.6894Z" fill="white"/>
<path d="M47.5814 25.8622C47.307 25.8622 47.0439 25.7532 46.8499 25.5592C46.6559 25.3652 46.5469 25.1021 46.5469 24.8278V23.7933C46.5469 23.5189 46.6559 23.2558 46.8499 23.0618C47.0439 22.8678 47.307 22.7588 47.5814 22.7588C47.8557 22.7588 48.1188 22.8678 48.3128 23.0618C48.5069 23.2558 48.6158 23.5189 48.6158 23.7933V24.8278C48.6158 25.1021 48.5069 25.3652 48.3128 25.5592C48.1188 25.7532 47.8557 25.8622 47.5814 25.8622Z" fill="white"/>
<path d="M40.3429 30.0001H5.17053C4.6218 30.0001 4.09555 29.7821 3.70755 29.3941C3.31954 29.0061 3.10156 28.4798 3.10156 27.9311V5.17248C3.10156 4.62376 3.31954 4.09751 3.70755 3.7095C4.09555 3.3215 4.6218 3.10352 5.17053 3.10352H40.3429C40.6173 3.10352 40.8804 3.2125 41.0744 3.40651C41.2684 3.60051 41.3774 3.86364 41.3774 4.138C41.3774 4.41236 41.2684 4.67549 41.0744 4.86949C40.8804 5.06349 40.6173 5.17248 40.3429 5.17248H5.17053V27.9311H40.3429C40.6173 27.9311 40.8804 28.0401 41.0744 28.2341C41.2684 28.4281 41.3774 28.6912 41.3774 28.9656C41.3774 29.2399 41.2684 29.5031 41.0744 29.6971C40.8804 29.8911 40.6173 30.0001 40.3429 30.0001Z" fill="white"/>
</svg>
