<svg width="373" height="48" viewBox="0 0 373 48" fill="none" xmlns="http://www.w3.org/2000/svg">
<path d="M0.801 38.296C14.369 28.6107 21.153 20.9093 21.153 15.192C21.153 11.6933 19.6383 9.944 16.609 9.944C14.9023 9.944 13.6437 10.5413 12.833 11.736C12.065 12.9307 11.6383 14.7867 11.553 17.304H0.865C1.121 11.8 2.785 7.66133 5.857 4.888C8.929 2.11466 12.8117 0.727997 17.505 0.727997C22.4117 0.727997 26.1023 1.96533 28.577 4.44C31.0943 6.91466 32.353 10.136 32.353 14.104C32.353 18.4987 30.6677 22.808 27.297 27.032C23.9263 31.2133 19.8943 34.7547 15.201 37.656H33.057V46.488H0.801V38.296ZM41.851 40.728C38.9923 36.5893 37.563 30.9787 37.563 23.896C37.563 16.856 38.9923 11.288 41.851 7.192C44.7097 3.05333 49.275 0.983997 55.547 0.983997C61.7763 0.983997 66.3203 3.05333 69.179 7.192C72.0803 11.288 73.531 16.856 73.531 23.896C73.531 30.9787 72.0803 36.5893 69.179 40.728C66.3203 44.8667 61.7763 46.936 55.547 46.936C49.275 46.936 44.7097 44.8667 41.851 40.728ZM61.179 33.304C62.1603 31.0853 62.651 27.9493 62.651 23.896C62.651 19.8427 62.1603 16.7493 61.179 14.616C60.2403 12.44 58.363 11.352 55.547 11.352C52.6883 11.352 50.7683 12.44 49.787 14.616C48.8057 16.792 48.315 19.8853 48.315 23.896C48.315 27.9493 48.8057 31.0853 49.787 33.304C50.7683 35.48 52.6883 36.568 55.547 36.568C58.363 36.568 60.2403 35.48 61.179 33.304ZM83.0385 40.728C80.1798 36.5893 78.7505 30.9787 78.7505 23.896C78.7505 16.856 80.1798 11.288 83.0385 7.192C85.8972 3.05333 90.4625 0.983997 96.7345 0.983997C102.964 0.983997 107.508 3.05333 110.367 7.192C113.268 11.288 114.719 16.856 114.719 23.896C114.719 30.9787 113.268 36.5893 110.367 40.728C107.508 44.8667 102.964 46.936 96.7345 46.936C90.4625 46.936 85.8972 44.8667 83.0385 40.728ZM102.367 33.304C103.348 31.0853 103.839 27.9493 103.839 23.896C103.839 19.8427 103.348 16.7493 102.367 14.616C101.428 12.44 99.5505 11.352 96.7345 11.352C93.8758 11.352 91.9558 12.44 90.9745 14.616C89.9932 16.792 89.5025 19.8853 89.5025 23.896C89.5025 27.9493 89.9932 31.0853 90.9745 33.304C91.9558 35.48 93.8758 36.568 96.7345 36.568C99.5505 36.568 101.428 35.48 102.367 33.304ZM124.226 40.728C121.367 36.5893 119.938 30.9787 119.938 23.896C119.938 16.856 121.367 11.288 124.226 7.192C127.085 3.05333 131.65 0.983997 137.922 0.983997C144.151 0.983997 148.695 3.05333 151.554 7.192C154.455 11.288 155.906 16.856 155.906 23.896C155.906 30.9787 154.455 36.5893 151.554 40.728C148.695 44.8667 144.151 46.936 137.922 46.936C131.65 46.936 127.085 44.8667 124.226 40.728ZM143.554 33.304C144.535 31.0853 145.026 27.9493 145.026 23.896C145.026 19.8427 144.535 16.7493 143.554 14.616C142.615 12.44 140.738 11.352 137.922 11.352C135.063 11.352 133.143 12.44 132.162 14.616C131.181 16.792 130.69 19.8853 130.69 23.896C130.69 27.9493 131.181 31.0853 132.162 33.304C133.143 35.48 135.063 36.568 137.922 36.568C140.738 36.568 142.615 35.48 143.554 33.304Z" fill="#0B2239"/>
<path d="M195.698 1.304C201.458 1.304 206.215 2.81866 209.97 5.848C213.767 8.87733 216.221 12.9733 217.33 18.136H205.746C204.893 16.0453 203.57 14.4027 201.778 13.208C200.029 12.0133 197.938 11.416 195.506 11.416C192.306 11.416 189.725 12.5893 187.762 14.936C185.799 17.2827 184.818 20.4187 184.818 24.344C184.818 28.2693 185.799 31.4053 187.762 33.752C189.725 36.056 192.306 37.208 195.506 37.208C197.938 37.208 200.029 36.6107 201.778 35.416C203.57 34.2213 204.893 32.6 205.746 30.552H217.33C216.221 35.672 213.767 39.768 209.97 42.84C206.215 45.8693 201.458 47.384 195.698 47.384C191.303 47.384 187.442 46.424 184.114 44.504C180.786 42.5413 178.205 39.8107 176.37 36.312C174.578 32.8133 173.682 28.824 173.682 24.344C173.682 19.864 174.578 15.8747 176.37 12.376C178.205 8.87733 180.786 6.168 184.114 4.248C187.442 2.28533 191.303 1.304 195.698 1.304ZM244.968 1.048C249.234 1.048 253.096 2.05066 256.552 4.056C260.05 6.01867 262.802 8.77067 264.808 12.312C266.813 15.8107 267.816 19.7787 267.816 24.216C267.816 28.6533 266.792 32.6427 264.744 36.184C262.738 39.7253 259.986 42.4987 256.488 44.504C253.032 46.4667 249.192 47.448 244.968 47.448C240.744 47.448 236.882 46.4667 233.384 44.504C229.928 42.4987 227.176 39.7253 225.128 36.184C223.122 32.6427 222.12 28.6533 222.12 24.216C222.12 19.7787 223.122 15.8107 225.128 12.312C227.176 8.77067 229.928 6.01867 233.384 4.056C236.882 2.05066 240.744 1.048 244.968 1.048ZM244.968 11.224C241.384 11.224 238.525 12.3973 236.392 14.744C234.301 17.048 233.256 20.2053 233.256 24.216C233.256 28.184 234.301 31.3413 236.392 33.688C238.525 36.0347 241.384 37.208 244.968 37.208C248.509 37.208 251.346 36.0347 253.479 33.688C255.613 31.3413 256.68 28.184 256.68 24.216C256.68 20.248 255.613 17.0907 253.479 14.744C251.389 12.3973 248.552 11.224 244.968 11.224ZM284.908 1.752V47H273.964V1.752H284.908ZM332.656 47H321.712L303.408 19.224V47H292.464V1.752H303.408L321.712 29.784V1.752H332.656V47ZM372.726 34.264C372.726 36.6533 372.107 38.8507 370.87 40.856C369.675 42.8613 367.883 44.4613 365.494 45.656C363.147 46.8507 360.288 47.448 356.918 47.448C351.84 47.448 347.659 46.2107 344.374 43.736C341.088 41.2613 339.296 37.8053 338.998 33.368H350.646C350.816 35.0747 351.414 36.4187 352.438 37.4C353.504 38.3813 354.848 38.872 356.47 38.872C357.878 38.872 358.987 38.488 359.798 37.72C360.608 36.952 361.014 35.928 361.014 34.648C361.014 33.496 360.63 32.536 359.862 31.768C359.136 31 358.219 30.3813 357.11 29.912C356 29.4 354.464 28.8027 352.502 28.12C349.643 27.1387 347.296 26.2 345.462 25.304C343.67 24.3653 342.112 23 340.79 21.208C339.51 19.3733 338.87 17.0053 338.87 14.104C338.87 11.416 339.552 9.09067 340.918 7.128C342.283 5.16533 344.16 3.672 346.55 2.648C348.982 1.58133 351.755 1.048 354.87 1.048C359.904 1.048 363.894 2.24266 366.838 4.632C369.824 7.02133 371.51 10.3067 371.894 14.488H360.054C359.84 12.9947 359.286 11.8213 358.39 10.968C357.536 10.072 356.363 9.624 354.87 9.624C353.59 9.624 352.544 9.96533 351.734 10.648C350.966 11.3307 350.582 12.3333 350.582 13.656C350.582 14.7227 350.923 15.64 351.606 16.408C352.331 17.1333 353.227 17.7307 354.294 18.2C355.36 18.6693 356.896 19.2667 358.902 19.992C361.803 20.9733 364.171 21.9547 366.006 22.936C367.84 23.8747 369.419 25.2613 370.742 27.096C372.064 28.9307 372.726 31.32 372.726 34.264Z" fill="#F36B25"/>
</svg>
