<svg width="60" height="34" viewBox="0 0 60 34" fill="none" xmlns="http://www.w3.org/2000/svg">
<path d="M60 1.03448V32.069C60 32.3433 59.891 32.6065 59.697 32.8005C59.503 32.9945 59.2399 33.1034 58.9655 33.1034H52.6552C52.413 33.0998 52.1795 33.0124 51.9945 32.856C51.8095 32.6997 51.6843 32.4841 51.6403 32.2459C51.4446 31.317 50.9354 30.4837 50.1982 29.8857C49.461 29.2877 48.5406 28.9614 47.5914 28.9614C46.6421 28.9614 45.7217 29.2877 44.9846 29.8857C44.2474 30.4837 43.7382 31.317 43.5424 32.2459C43.4984 32.4841 43.3733 32.6997 43.1883 32.856C43.0033 33.0124 42.7698 33.0998 42.5276 33.1034H1.03448C0.760121 33.1034 0.496996 32.9945 0.302993 32.8005C0.10899 32.6065 0 32.3433 0 32.069V1.03448C0 0.760121 0.10899 0.496996 0.302993 0.302993C0.496996 0.10899 0.760121 0 1.03448 0H42.5172C42.7594 0.00362756 42.9929 0.0910532 43.1779 0.247404C43.363 0.403756 43.4881 0.619376 43.5321 0.857587C43.7278 1.78642 44.237 2.6197 44.9742 3.21771C45.7114 3.81572 46.6318 4.14208 47.581 4.14208C48.5303 4.14208 49.4507 3.81572 50.1879 3.21771C50.925 2.6197 51.4342 1.78642 51.63 0.857587C51.6743 0.617649 51.801 0.400694 51.9881 0.244139C52.1753 0.0875837 52.4112 0.00124082 52.6552 0H58.9655C59.2399 0 59.503 0.10899 59.697 0.302993C59.891 0.496996 60 0.760121 60 1.03448Z" fill="#539415"/>
<path d="M21.152 12.668H15.428V15.242C15.68 14.954 16.028 14.732 16.472 14.576C16.928 14.408 17.42 14.324 17.948 14.324C18.8 14.324 19.514 14.516 20.09 14.9C20.666 15.272 21.092 15.776 21.368 16.412C21.644 17.048 21.782 17.75 21.782 18.518C21.782 19.91 21.392 21.014 20.612 21.83C19.832 22.634 18.734 23.036 17.318 23.036C16.358 23.036 15.524 22.868 14.816 22.532C14.108 22.184 13.562 21.704 13.178 21.092C12.794 20.48 12.59 19.772 12.566 18.968H15.572C15.632 19.376 15.794 19.712 16.058 19.976C16.334 20.24 16.706 20.372 17.174 20.372C17.714 20.372 18.116 20.198 18.38 19.85C18.656 19.502 18.794 19.04 18.794 18.464C18.794 17.912 18.65 17.486 18.362 17.186C18.074 16.886 17.672 16.736 17.156 16.736C16.76 16.736 16.43 16.826 16.166 17.006C15.902 17.174 15.722 17.396 15.626 17.672H12.638V9.968H21.152V12.668ZM26.0404 10.058C26.9164 10.058 27.6304 10.322 28.1824 10.85C28.7464 11.378 29.0284 12.122 29.0284 13.082C29.0284 14.042 28.7464 14.786 28.1824 15.314C27.6304 15.842 26.9164 16.106 26.0404 16.106C25.1404 16.106 24.4084 15.842 23.8444 15.314C23.2924 14.786 23.0164 14.042 23.0164 13.082C23.0164 12.122 23.2924 11.378 23.8444 10.85C24.4084 10.322 25.1404 10.058 26.0404 10.058ZM34.7704 10.238L27.8224 23H24.8524L31.8004 10.238H34.7704ZM25.0684 13.082C25.0684 13.454 25.1524 13.748 25.3204 13.964C25.4884 14.168 25.7164 14.27 26.0044 14.27C26.3044 14.27 26.5444 14.168 26.7244 13.964C26.9044 13.748 26.9944 13.454 26.9944 13.082C26.9944 12.71 26.9044 12.422 26.7244 12.218C26.5444 12.002 26.3044 11.894 26.0044 11.894C25.7164 11.894 25.4884 12.002 25.3204 12.218C25.1524 12.422 25.0684 12.71 25.0684 13.082ZM33.6004 17.114C34.4884 17.114 35.2084 17.378 35.7604 17.906C36.3124 18.434 36.5884 19.178 36.5884 20.138C36.5884 21.098 36.3124 21.848 35.7604 22.388C35.2084 22.916 34.4884 23.18 33.6004 23.18C32.7244 23.18 32.0044 22.916 31.4404 22.388C30.8884 21.848 30.6124 21.098 30.6124 20.138C30.6124 19.178 30.8884 18.434 31.4404 17.906C32.0044 17.378 32.7244 17.114 33.6004 17.114ZM32.6464 20.138C32.6464 20.522 32.7304 20.822 32.8984 21.038C33.0664 21.242 33.3004 21.344 33.6004 21.344C33.8884 21.344 34.1164 21.242 34.2844 21.038C34.4644 20.822 34.5544 20.522 34.5544 20.138C34.5544 19.766 34.4644 19.478 34.2844 19.274C34.1164 19.058 33.8884 18.95 33.6004 18.95C33.3004 18.95 33.0664 19.058 32.8984 19.274C32.7304 19.478 32.6464 19.766 32.6464 20.138Z" fill="white"/>
<path d="M47.5814 10.3447C47.307 10.3447 47.0439 10.2357 46.8499 10.0417C46.6559 9.84766 46.5469 9.58454 46.5469 9.31018V8.27569C46.5469 8.00133 46.6559 7.73821 46.8499 7.5442C47.0439 7.3502 47.307 7.24121 47.5814 7.24121C47.8557 7.24121 48.1188 7.3502 48.3128 7.5442C48.5069 7.73821 48.6158 8.00133 48.6158 8.27569V9.31018C48.6158 9.58454 48.5069 9.84766 48.3128 10.0417C48.1188 10.2357 47.8557 10.3447 47.5814 10.3447Z" fill="white"/>
<path d="M47.5814 15.5175C47.307 15.5175 47.0439 15.4085 46.8499 15.2145C46.6559 15.0205 46.5469 14.7574 46.5469 14.483V13.4485C46.5469 13.1742 46.6559 12.9111 46.8499 12.7171C47.0439 12.5231 47.307 12.4141 47.5814 12.4141C47.8557 12.4141 48.1188 12.5231 48.3128 12.7171C48.5069 12.9111 48.6158 13.1742 48.6158 13.4485V14.483C48.6158 14.7574 48.5069 15.0205 48.3128 15.2145C48.1188 15.4085 47.8557 15.5175 47.5814 15.5175Z" fill="white"/>
<path d="M47.5814 20.6894C47.307 20.6894 47.0439 20.5804 46.8499 20.3864C46.6559 20.1924 46.5469 19.9293 46.5469 19.6549V18.6204C46.5469 18.3461 46.6559 18.0829 46.8499 17.8889C47.0439 17.6949 47.307 17.5859 47.5814 17.5859C47.8557 17.5859 48.1188 17.6949 48.3128 17.8889C48.5069 18.0829 48.6158 18.3461 48.6158 18.6204V19.6549C48.6158 19.9293 48.5069 20.1924 48.3128 20.3864C48.1188 20.5804 47.8557 20.6894 47.5814 20.6894Z" fill="white"/>
<path d="M47.5814 25.8622C47.307 25.8622 47.0439 25.7532 46.8499 25.5592C46.6559 25.3652 46.5469 25.1021 46.5469 24.8278V23.7933C46.5469 23.5189 46.6559 23.2558 46.8499 23.0618C47.0439 22.8678 47.307 22.7588 47.5814 22.7588C47.8557 22.7588 48.1188 22.8678 48.3128 23.0618C48.5069 23.2558 48.6158 23.5189 48.6158 23.7933V24.8278C48.6158 25.1021 48.5069 25.3652 48.3128 25.5592C48.1188 25.7532 47.8557 25.8622 47.5814 25.8622Z" fill="white"/>
<path d="M40.3429 30.0001H5.17053C4.6218 30.0001 4.09555 29.7821 3.70755 29.3941C3.31954 29.0061 3.10156 28.4798 3.10156 27.9311V5.17248C3.10156 4.62376 3.31954 4.09751 3.70755 3.7095C4.09555 3.3215 4.6218 3.10352 5.17053 3.10352H40.3429C40.6173 3.10352 40.8804 3.2125 41.0744 3.40651C41.2684 3.60051 41.3774 3.86364 41.3774 4.138C41.3774 4.41236 41.2684 4.67549 41.0744 4.86949C40.8804 5.06349 40.6173 5.17248 40.3429 5.17248H5.17053V27.9311H40.3429C40.6173 27.9311 40.8804 28.0401 41.0744 28.2341C41.2684 28.4281 41.3774 28.6912 41.3774 28.9656C41.3774 29.2399 41.2684 29.5031 41.0744 29.6971C40.8804 29.8911 40.6173 30.0001 40.3429 30.0001Z" fill="white"/>
</svg>
