<svg width="50" height="50" viewBox="0 0 50 50" fill="none" xmlns="http://www.w3.org/2000/svg">
<path d="M49.9742 26.0394C49.8469 29.2304 49.1724 32.374 47.9814 35.3277C47.6193 36.2339 47.2022 37.1161 46.7324 37.9693H46.7247C45.8054 39.6844 44.6853 41.2792 43.3889 42.7187L43.3396 42.7658C42.7905 43.3749 42.2079 43.9517 41.5947 44.4934L41.53 44.5531C40.6731 45.3027 39.7596 45.9823 38.7979 46.5854C38.7711 46.6049 38.7428 46.6223 38.7132 46.6372H38.7055C35.8806 48.3994 32.6548 49.3818 29.3449 49.4878H29.2833C29.1293 49.4878 28.9753 49.4878 28.8213 49.4878C28.5872 49.4878 28.3454 49.4878 28.1113 49.4752L27.7325 49.4548C27.6216 49.4548 27.5046 49.4422 27.3952 49.4296C27.2859 49.4171 27.1396 49.4108 27.0087 49.3967C26.9332 49.3967 26.8546 49.3778 26.7807 49.3715C25.6756 49.2502 24.5837 49.0257 23.5188 48.7009C22.8277 48.4913 22.1485 48.2428 21.4844 47.9565C13.8918 44.6395 8.27826 36.2135 7.98873 26.0394C7.93716 24.2808 8.04958 22.5212 8.32447 20.7843C9.66741 12.272 14.7928 5.18091 21.7493 2.15917C23.3117 1.47352 24.9582 1.00752 26.6437 0.773941L26.8238 0.751953C26.8628 0.742866 26.9025 0.737607 26.9424 0.736247C27.6305 0.652744 28.3225 0.607132 29.0154 0.599609H29.1571C29.2849 0.599609 29.4204 0.599609 29.5467 0.607462C35.4467 0.728395 40.7122 3.68103 44.4146 8.32202C44.487 8.40368 44.5424 8.47907 44.5794 8.52147C44.6163 8.56388 44.6502 8.611 44.6502 8.611C48.2232 13.2206 50.2515 19.3881 49.9742 26.0394Z" fill="url(#paint0_linear_622_67535)"/>
<path d="M30.1766 49.4253L29.348 49.4834H29.2864L24.908 49.7739H24.8125L22.8689 49.9027H22.8412L21.5675 49.986H21.4844V49.8886V49.496V48.8316V47.9458L21.6384 20.2099L21.74 2.14852L21.7477 0.915632V0.0345522V0L24.5938 0.219877L29.522 0.599951V0.628221V0.992589V1.09939L29.5328 1.59882V1.84069V1.90194L29.6868 14.7538L30.098 46.581L30.118 48.1516V48.3086V48.3667L30.1273 48.9745V49.2588L30.1766 49.4253Z" fill="url(#paint1_linear_622_67535)"/>
<path d="M43.3616 26.0398C43.2701 29.3219 42.6063 32.5612 41.4011 35.606C41.4007 35.6154 41.398 35.6246 41.3934 35.6327C41.3857 35.6327 41.3857 35.6327 41.3934 35.6405C41.3564 35.7411 41.2394 36.052 41.0238 36.5106C40.9329 36.7399 40.8282 36.9614 40.725 37.1765C39.757 39.2342 38.513 41.1444 37.0288 42.8525C36.8235 43.0891 36.6181 43.3195 36.4128 43.5436C34.6244 45.4485 32.5095 47.0038 30.1724 48.1327C29.0902 48.6525 27.9619 49.0659 26.8027 49.3672C26.4855 49.4504 26.1682 49.5242 25.8448 49.5996H25.8371C25.5691 49.6577 25.2996 49.7095 25.0239 49.7472L24.9208 49.7677C23.9613 49.9199 22.9918 49.9971 22.0208 49.9985C21.8668 49.9985 21.7128 49.9985 21.5665 49.9985H21.4833C19.5652 49.9378 17.6672 49.5803 15.8543 48.9384C15.6141 48.8599 15.38 48.7814 15.1521 48.695C15.0996 48.6813 15.0482 48.664 14.9981 48.6431C12.9505 47.811 11.0445 46.6544 9.3506 45.2162C9.3506 45.2036 9.33057 45.1974 9.32288 45.1911C7.96583 44.0353 6.74092 42.7271 5.67136 41.2914V41.2835C2.62817 37.1907 0.670735 31.9042 0.435104 26.0398C0.246477 21.8664 0.984568 17.7035 2.59429 13.8617C2.59429 13.8617 2.64819 13.7235 2.7714 13.4753C5.38798 7.55122 9.98973 2.98405 15.6403 1.03185C15.656 1.0308 15.6713 1.02596 15.6849 1.01772C16.0191 0.896785 16.3626 0.789988 16.7045 0.703607C16.8908 0.650209 17.0695 0.604663 17.2496 0.559117C17.5777 0.475877 17.898 0.402061 18.2199 0.347092C18.4062 0.309399 18.6003 0.277988 18.7866 0.248147C19.7688 0.0843997 20.7623 0.0014168 21.7574 5.12069e-08C22.7102 -7.08239e-05 23.6616 0.0734317 24.6035 0.219877C25.3894 0.337599 26.1664 0.510243 26.929 0.736589C26.9628 0.735831 26.9962 0.743943 27.026 0.760147C27.3186 0.843387 27.6097 0.934479 27.9008 1.03971C27.9179 1.04623 27.9354 1.05148 27.9532 1.05541C28.4891 1.24545 29.0312 1.45747 29.5471 1.69148C37.9744 5.49693 43.6973 15.1244 43.3616 26.0398Z" fill="url(#paint2_linear_622_67535)"/>
<g style="mix-blend-mode:multiply" opacity="0.2">
<path d="M34.9732 7.01542C34.8192 8.04099 32.9465 11.4884 29.7231 14.7472C27.5932 16.9005 24.8765 18.9736 21.6454 20.2222C20.2375 20.7746 18.7669 21.144 17.2685 21.3216C13.5446 21.7613 10.5892 21.4425 8.3222 20.7829C4.06544 19.5264 2.18655 17.0136 2.26817 15.8969C3.43725 12.9869 5.0064 10.2614 6.92844 7.80227C9.06914 5.07736 11.9676 2.37915 15.6483 1.03162C15.6641 1.03057 15.6794 1.02572 15.693 1.01748C16.0272 0.896548 16.3706 0.789751 16.7125 0.70337C16.8327 0.665677 16.9589 0.627984 17.0852 0.596573C17.1384 0.579782 17.1924 0.56563 17.2469 0.554168C17.575 0.470929 17.8953 0.397113 18.2172 0.342143C18.4035 0.30445 18.5976 0.273039 18.7839 0.243199C19.7684 0.0954756 20.7629 0.0292961 21.7578 0.0453091C23.3726 0.061627 24.978 0.296648 26.532 0.744205C26.5709 0.747445 26.609 0.757542 26.6445 0.774045C27.6493 1.06231 28.6283 1.43746 29.5706 1.89542C29.9957 2.09174 30.3961 2.31162 30.775 2.52364C31.1969 2.77179 31.6482 3.06548 32.1225 3.39687C34.0338 4.79937 35.0902 6.25684 34.9732 7.01542Z" fill="#F42774"/>
</g>
<g style="mix-blend-mode:soft-light">
<path d="M2.73397 35.3721C3.6842 36.8971 17.8098 30.5254 24.4367 28.6281C31.1052 26.7183 41.4545 28.7444 42.3786 27.9716C43.3026 27.1989 42.6127 15.9035 38.8364 10.3815C35.0001 4.75103 35.0247 10.683 31.0205 13.444C27.0595 16.1768 11.0242 20.9654 7.59753 20.6073C4.17086 20.2492 3.01272 18.7148 1.73446 18.8954C0.456198 19.076 -1.87394 27.9716 2.73397 35.3721Z" fill="white"/>
</g>
<path d="M35.6598 26.0399C35.5058 34.5695 29.8522 41.3779 22.8248 41.9762C22.4845 42.0045 22.1457 42.0218 21.7991 42.0218C14.2959 42.0218 8.01239 34.9763 7.75828 26.0399C7.49184 16.8349 13.6906 9.16113 21.619 9.16113C21.9839 9.16113 22.3428 9.18155 22.697 9.21296C30.1155 9.87887 35.8154 17.2668 35.6598 26.0399Z" fill="url(#paint3_linear_622_67535)"/>
<path d="M35.6572 26.0398C35.5032 34.5695 29.8496 41.3778 22.8222 41.9762C15.7902 41.3841 10.0719 34.5757 9.85786 26.0398C9.63609 17.2604 15.2943 9.87252 22.7036 9.21289C30.1129 9.8788 35.8127 17.2667 35.6572 26.0398Z" fill="#FF6B04"/>
<path d="M1.36373 32.0674C0.727682 29.1227 7.36079 32.8527 2.91767 36.3331C2.22102 34.9857 1.69869 33.5519 1.36373 32.0674Z" fill="white"/>
<g style="mix-blend-mode:soft-light">
<path d="M29.1539 0.598677C27.3597 0.430628 38.111 4.56746 40.7353 12.0637C43.2964 19.3762 48.5419 17.0361 48.5419 17.0361C48.5419 17.0361 44.048 1.23789 29.1539 0.598677Z" fill="white"/>
</g>
<g style="mix-blend-mode:multiply" opacity="0.7">
<path d="M47.9841 35.3281C47.8178 35.9642 47.3681 36.8987 46.7351 37.9698H46.7274C45.6416 39.7975 44.3803 41.5105 42.9619 43.0835L42.9404 43.1023C42.4999 43.5829 42.0548 44.0447 41.5974 44.4766L41.5327 44.5363C40.7085 45.3269 39.7907 46.0096 38.8006 46.5686C38.7738 46.5881 38.7455 46.6054 38.7159 46.6204H38.7082C35.7143 48.1988 32.3339 48.9165 30.1701 49.2322C29.1906 49.3736 28.459 49.438 28.1202 49.4647C27.9832 49.4647 27.9061 49.4772 27.9061 49.4772C27.8506 49.4696 27.7956 49.4585 27.7414 49.4442C27.6883 49.4367 27.6365 49.4219 27.5874 49.4003C27.381 49.2573 28.4791 49.0642 30.1608 48.3401C33.1008 47.0837 37.8612 44.2206 40.7196 37.1704C40.7196 37.1704 46.4887 34.2036 47.8655 34.4612C48.1012 34.5146 48.1319 34.8271 47.9841 35.3281Z" fill="#DE376D"/>
</g>
<path d="M27.875 1.03027C27.875 1.03027 40.308 3.8981 43.5838 19.0759C46.6978 33.525 35.5754 44.6963 35.5754 44.6963C35.5754 44.6963 43.6407 34.5616 42.3209 20.6041C40.9333 5.96809 27.875 1.03027 27.875 1.03027Z" fill="#FFE016"/>
<path d="M43.3183 19.3C42.4558 17.9996 40.446 25.0451 42.884 26.3675C44.0698 27.0208 44.9769 21.8035 43.3183 19.3Z" fill="white"/>
<g style="mix-blend-mode:soft-light" opacity="0.5">
<path d="M41.387 35.6514C41.3501 35.7519 41.233 36.0629 41.0174 36.5215C39.9641 38.807 38.6176 40.9396 37.0132 42.8633C35.2914 44.9176 33.026 46.9593 30.1537 48.2943C29.1443 48.7636 28.0927 49.1318 27.0135 49.3937C26.7655 49.4518 26.5176 49.5099 26.2619 49.5508C26.2509 49.5544 26.2391 49.5544 26.2281 49.5508C25.8338 49.6277 25.4272 49.6937 25.0068 49.7377C24.9411 49.75 24.8747 49.7589 24.8081 49.7643L24.6418 49.7832C24.0365 49.8413 23.4359 49.879 22.8645 49.8931H22.8368C22.3748 49.9057 21.9205 49.8931 21.48 49.8931C19.3207 49.8311 17.1844 49.4241 15.1488 48.687C15.0963 48.6733 15.0449 48.656 14.9948 48.6351C11.5974 47.3677 9.68766 45.5458 9.35192 45.216C9.35192 45.2035 9.3319 45.1972 9.3242 45.1909C9.31814 45.1811 9.31089 45.1721 9.30264 45.1642C8.82522 44.7449 11.6405 46.8274 15.9126 48.0477C17.7258 48.5753 19.6021 48.8433 21.4877 48.844C22.1685 48.8376 22.8483 48.7904 23.5237 48.7027C23.7023 48.676 23.8887 48.6508 24.0689 48.6178C26.1814 48.2574 28.2273 47.5688 30.1352 46.5761C37.1472 42.9434 41.0621 36.2136 41.387 35.6514Z" fill="white"/>
</g>
<path d="M12.4141 37.7764C12.4141 37.7764 22.6479 45.6433 30.7071 38.213C30.7071 38.213 21.8824 47.4306 12.4141 37.7764Z" fill="#FFE016"/>
<g style="mix-blend-mode:multiply" opacity="0.5">
<path d="M8.22656 20.7472C8.74403 23.5585 11.031 14.5309 19.8587 11.7212C28.7665 8.88479 35.1563 21.289 35.1563 21.289C35.1563 21.289 33.5993 9.10938 21.2772 9.10938C11.6424 9.10938 8.22656 20.7472 8.22656 20.7472Z" fill="#D42F55"/>
</g>
<g style="mix-blend-mode:soft-light">
<path d="M31.8246 47.6133C30.9945 48.1127 35.6563 48.2007 37.5814 47.1782C39.5064 46.1558 42.277 44.1062 42.6805 42.8498C43.084 41.5933 40.4367 41.8336 38.8304 42.2216C37.2241 42.6095 35.7317 45.2684 31.8246 47.6133Z" fill="white"/>
</g>
<path d="M42.9902 32.4943C41.4501 32.0027 39.3402 35.1643 40.4814 37.8028C41.6226 40.4413 46.5216 33.6094 42.9902 32.4943Z" fill="url(#paint4_linear_622_67535)"/>
<g style="mix-blend-mode:multiply" opacity="0.7">
<path d="M40.6136 34.7295C40.4966 36.6503 42.8175 36.7712 43.6938 35.7661C44.5701 34.7609 44.5054 32.4993 42.7944 32.4538C41.0834 32.4082 40.6136 34.7295 40.6136 34.7295Z" fill="#DE376D"/>
</g>
<path d="M40.1641 36.3888C40.6523 35.2345 42.0276 36.6511 42.8638 36.7155C43.7001 36.7799 42.2909 38.674 41.3237 38.3944C40.3566 38.1149 40.1641 36.3888 40.1641 36.3888Z" fill="#FF9500"/>
<path d="M37.8884 33.3133C36.3329 32.8327 34.8082 35.1147 35.472 36.6507C36.1358 38.1867 40.5974 34.1519 37.8884 33.3133Z" fill="url(#paint5_linear_622_67535)"/>
<g style="mix-blend-mode:multiply" opacity="0.7">
<path d="M37.1951 33.2471C36.1263 33.5502 35.7829 35.1318 36.2095 35.6029C36.6361 36.0741 38.6736 35.4993 38.7398 34.4219C38.806 33.3445 37.6186 33.1277 37.1951 33.2471Z" fill="#DE376D"/>
</g>
<path d="M35.2969 36.1089C35.5679 34.6954 36.1609 36.1089 36.991 36.2659C37.8211 36.423 35.3616 37.9888 35.2969 36.1089Z" fill="#FF9500"/>
<path d="M11.8045 13.5369C10.5724 13.1349 9.43736 14.9693 9.99948 16.2194C10.5616 17.4696 13.9482 14.2358 11.8045 13.5369Z" fill="url(#paint6_linear_622_67535)"/>
<g style="mix-blend-mode:multiply" opacity="0.7">
<path d="M11.2728 13.478C10.4443 13.7136 10.2163 14.9952 10.5613 15.3784C10.9063 15.7616 12.4895 15.3156 12.5126 14.4361C12.5357 13.5565 11.6008 13.3838 11.2728 13.478Z" fill="#DE376D"/>
</g>
<path d="M9.85938 15.7776C10.0365 14.6405 10.5355 15.7776 11.1946 15.9205C11.8538 16.0634 9.95332 17.3026 9.85938 15.7776Z" fill="#FF9500"/>
<g style="mix-blend-mode:multiply" opacity="0.8">
<path d="M44.5773 8.52173C44.5234 8.45419 44.4664 8.3898 44.4141 8.32227L44.5773 8.52173Z" fill="#D42F55"/>
</g>
<g style="mix-blend-mode:multiply" opacity="0.8">
<path d="M44.4218 8.32393C43.9474 7.76324 42.7277 6.44869 40.6763 5.06346C40.6686 5.06346 40.6609 5.06346 40.6548 5.04775C38.1907 3.38297 34.5268 1.6318 29.557 0.989449C29.4878 0.975031 29.4179 0.964544 29.3475 0.958038C28.6083 0.866946 27.8383 0.800982 27.0451 0.761719C26.9733 0.757799 26.9013 0.757799 26.8295 0.761719C26.731 0.761719 26.6339 0.761719 26.5369 0.761719C25.2477 0.717358 23.9571 0.747771 22.6713 0.852811C22.3633 0.874798 22.0645 0.906209 21.7658 0.943903C14.6691 1.72918 9.90718 4.85458 6.93175 7.81978C4.47533 10.2416 3.21247 12.5786 2.78125 13.4753C5.39938 7.55122 10.0011 2.98405 15.6517 1.03185C15.6674 1.0308 15.6827 1.02596 15.6963 1.01772C16.0305 0.896786 16.374 0.789989 16.7158 0.703608C16.836 0.665915 16.9623 0.628222 17.0885 0.596811C17.1443 0.579768 17.2008 0.565615 17.258 0.554406C17.586 0.471166 17.9063 0.397351 18.2282 0.342381C18.4145 0.304688 18.6086 0.273277 18.7949 0.243436C19.7782 0.0810992 20.7727 -0.000308518 21.7688 8.78582e-07C22.7216 -6.99965e-05 23.673 0.0734325 24.6149 0.219878L29.5431 0.599952V0.607804C35.457 0.727166 40.7164 3.68137 44.4218 8.32393Z" fill="#D42F55"/>
</g>
<g style="mix-blend-mode:multiply" opacity="0.8">
<path d="M43.3375 42.7595C42.7884 43.3686 42.2058 43.9454 41.5926 44.4871L41.5279 44.5468C40.7036 45.3374 39.7858 46.0201 38.7958 46.5791C38.769 46.5986 38.7407 46.616 38.7111 46.6309H38.7034C35.8785 48.3931 32.6527 49.3755 29.3428 49.4814H29.2812L24.9028 49.772C23.9493 49.9217 22.986 49.9973 22.0213 49.9982C21.8673 49.9982 21.7133 49.9982 21.567 49.9982H21.4838C19.5657 49.9374 17.6677 49.58 15.8548 48.938C15.6146 48.8595 15.3805 48.781 15.1526 48.6946C15.1001 48.6809 15.0487 48.6636 14.9986 48.6428C11.5965 47.3675 9.68685 45.5456 9.35111 45.2158C9.35111 45.2033 9.33109 45.197 9.32339 45.1907C7.96635 44.0349 6.74144 42.7267 5.67188 41.291C5.86746 41.4826 9.89784 45.6744 15.9118 48.0444C17.7023 48.7658 19.5741 49.2565 21.4838 49.505C22.9215 49.6933 24.3747 49.7259 25.8191 49.6024H25.8268L26.2273 49.5631C26.2383 49.5667 26.2501 49.5667 26.2611 49.5631C26.6477 49.5317 27.0312 49.4862 27.3993 49.4343L27.5856 49.4155C28.4819 49.293 29.3459 49.1375 30.1683 48.9632C37.1972 47.4743 41.5649 44.2515 42.9355 43.1113L42.9571 43.0924C43.1357 42.937 43.2651 42.8254 43.3375 42.7595Z" fill="#D42F55"/>
</g>
<path d="M33.174 1.69566C30.5728 1.58258 36.0154 5.67073 38.1577 7.43446C40.2999 9.19819 43.819 7.95431 43.9299 7.78155C44.0408 7.60879 38.4303 1.92182 33.174 1.69566Z" fill="white"/>
<path d="M20.6548 13.1046C10.8676 14.2621 10.2393 29.1242 12.7049 31.0183C15.2199 32.9423 16.6445 30.8974 16.9309 32.0847C17.2174 33.2721 15.1952 35.4599 15.1952 35.4599C15.3585 36.9142 21.8176 38.0041 22.0132 37.6775C22.2087 37.3508 22.9372 35.1567 22.9372 35.1567C22.9372 35.1567 21.5804 37.6413 21.8145 37.8063C22.0486 37.9712 29.4856 36.743 29.4548 36.3331C29.424 35.9232 26.7366 32.8355 26.8475 31.4282C26.9583 30.021 34.0073 32.7789 34.611 29.9912C35.227 27.1611 34.9144 11.4178 20.6548 13.1046ZM13.2625 25.5748C13.1839 21.5542 15.1922 19.3224 17.8827 19.8611C20.644 20.403 21.16 24.8304 20.2144 26.2219C18.9469 28.0767 13.3472 29.5499 13.2686 25.5748H13.2625ZM19.6923 30.8503C18.9469 30.409 20.6394 28.3672 21.3756 27.7751C22.1117 27.183 23.8921 30.1168 24.12 30.9696C24.3479 31.8225 20.1435 31.1188 19.6984 30.8503H19.6923ZM22.9095 26.2281C21.9315 24.8256 22.4105 20.3543 25.2889 19.6318C28.2674 18.8827 30.6345 21.1694 30.5929 25.5654C30.5513 29.9127 24.2447 28.1442 22.9095 26.2281Z" fill="url(#paint7_linear_622_67535)"/>
<path d="M27.8004 14.5817C25.5934 12.9295 22.6796 12.1631 19.0681 13.0473C14.9099 14.0587 12.3734 17.2391 11.0597 20.6566C9.33024 25.117 9.67368 29.9668 11.0859 31.0474C13.6347 32.9776 15.0686 30.9233 15.3581 32.1169C15.4952 32.6572 15.1533 33.4064 14.7313 34.0597C14.4004 34.5734 14.029 35.0587 13.6209 35.5109C13.7749 36.9684 20.3002 38.0646 20.5081 37.7348C20.716 37.405 21.4321 35.1999 21.4321 35.1999C21.4321 35.1999 21.5723 37.6406 21.8064 37.8086C22.0405 37.9767 27.2274 36.5239 27.1966 36.1124C27.1658 35.7009 25.364 33.0121 25.3655 31.5688C25.3655 31.528 25.3655 31.4997 25.3732 31.4589C25.4009 31.0191 26.0062 30.9516 26.8455 30.9987C28.6936 31.0882 31.6921 31.6709 32.3898 29.8224C32.5807 29.3139 32.7236 28.788 32.8164 28.2518C33.5895 23.9658 31.9847 17.7055 27.8004 14.5817ZM22.6149 30.9987C22.8613 31.8641 18.5969 31.1432 18.1487 30.8762C17.3956 30.4349 19.0989 28.3774 19.8428 27.7885C20.5959 27.1713 22.3839 30.1396 22.6149 30.9987ZM11.6419 25.5787C11.5526 21.5377 13.5701 19.2965 16.2852 19.8305C19.0743 20.3802 19.6072 24.8296 18.6508 26.2289C17.3833 28.0869 11.7312 29.5742 11.6419 25.5787ZM21.3767 26.2368C20.3834 24.8233 20.8562 20.3299 23.7592 19.6106C26.7654 18.8599 29.1602 21.1608 29.1294 25.5787C29.1017 29.9323 22.7258 28.156 21.3767 26.2368Z" fill="url(#paint8_linear_622_67535)"/>
<g style="mix-blend-mode:multiply" opacity="0.5">
<path d="M12.6562 21.5261C12.7317 23.1108 14.3319 21.545 15.7025 20.8304C17.0732 20.1158 18.41 21.5167 18.41 21.5167C18.41 21.5167 15.7456 17.4474 12.6562 21.5261Z" fill="#D42F55"/>
</g>
<g style="mix-blend-mode:multiply" opacity="0.5">
<path d="M21.3125 22.2125C21.3941 25.1965 22.6077 22.5376 24.5667 20.9686C26.5257 19.3996 27.9749 21.1257 27.9749 21.1257C27.9749 21.1257 26.5888 18.8562 24.1154 19.5378C21.6421 20.2195 21.3125 22.2125 21.3125 22.2125Z" fill="#D42F55"/>
</g>
<g style="mix-blend-mode:soft-light">
<path d="M27.805 14.5811C22.946 15.4794 13.9736 20.045 11.0597 20.656C9.33024 25.1163 9.67368 29.9662 11.0859 31.0467C13.6347 32.9769 15.0686 30.9227 15.3581 32.1163C15.4952 32.6565 15.1533 33.4057 14.7313 34.059C17.8669 34.0056 21.8341 32.8811 25.367 31.5681C25.8722 31.3765 26.3635 31.1834 26.847 30.998C28.8852 30.1922 30.8784 29.2731 32.8179 28.2449C33.5941 23.9651 31.9894 17.7049 27.805 14.5811ZM11.6465 25.5749C11.5572 21.5339 13.5747 19.2927 16.2898 19.8267C19.0789 20.3764 19.6118 24.8258 18.6554 26.2251C17.3879 28.0862 11.7358 29.5735 11.6465 25.5781V25.5749ZM18.1502 30.8724C17.3972 30.4311 19.1005 28.3736 19.8443 27.7847C20.599 27.1722 22.387 30.1405 22.6165 30.9949C22.8459 31.8493 18.6015 31.1425 18.1502 30.8755V30.8724ZM21.3844 26.233C20.3911 24.8195 20.8639 20.3261 23.7669 19.6068C26.7731 18.8561 29.1679 21.157 29.1371 25.5749C29.1063 29.9316 22.7304 28.1553 21.3813 26.2361L21.3844 26.233Z" fill="white"/>
</g>
<path d="M28.8588 15.5899C28.3274 15.0528 28.8172 18.2394 29.7828 19.144C30.7484 20.0487 31.4322 19.144 31.4322 19.144C31.4322 19.144 30.3557 17.096 28.8588 15.5899Z" fill="white"/>
<defs>
<linearGradient id="paint0_linear_622_67535" x1="28.9876" y1="49.4893" x2="28.9876" y2="0.599609" gradientUnits="userSpaceOnUse">
<stop offset="0.05" stop-color="#FF3F00"/>
<stop offset="0.72" stop-color="#FF6A03"/>
<stop offset="1" stop-color="#FFFF04"/>
</linearGradient>
<linearGradient id="paint1_linear_622_67535" x1="25.8305" y1="49.9985" x2="25.8305" y2="0" gradientUnits="userSpaceOnUse">
<stop offset="0.05" stop-color="#FF3F00"/>
<stop offset="0.72" stop-color="#FF6A03"/>
<stop offset="1" stop-color="#FFFF04"/>
</linearGradient>
<linearGradient id="paint2_linear_622_67535" x1="21.8899" y1="49.9985" x2="21.8899" y2="0" gradientUnits="userSpaceOnUse">
<stop stop-color="#FFA900"/>
<stop offset="1" stop-color="#FF9600"/>
</linearGradient>
<linearGradient id="paint3_linear_622_67535" x1="21.7067" y1="42.0218" x2="21.7067" y2="9.16113" gradientUnits="userSpaceOnUse">
<stop stop-color="#FF7C04"/>
<stop offset="1" stop-color="#D92000"/>
</linearGradient>
<linearGradient id="paint4_linear_622_67535" x1="42.2017" y1="38.3949" x2="42.2017" y2="32.4425" gradientUnits="userSpaceOnUse">
<stop offset="0.04" stop-color="#EF6300"/>
<stop offset="1" stop-color="#E13E00"/>
</linearGradient>
<linearGradient id="paint5_linear_622_67535" x1="37.029" y1="36.9946" x2="37.029" y2="33.2473" gradientUnits="userSpaceOnUse">
<stop offset="0.04" stop-color="#EF6300"/>
<stop offset="1" stop-color="#E13E00"/>
</linearGradient>
<linearGradient id="paint6_linear_622_67535" x1="11.1645" y1="16.5099" x2="11.1969" y2="13.4774" gradientUnits="userSpaceOnUse">
<stop offset="0.04" stop-color="#EF6300"/>
<stop offset="1" stop-color="#E13E00"/>
</linearGradient>
<linearGradient id="paint7_linear_622_67535" x1="27.0538" y1="37.299" x2="18.2938" y2="13.7003" gradientUnits="userSpaceOnUse">
<stop stop-color="#EA5104"/>
<stop offset="1" stop-color="#D92000"/>
</linearGradient>
<linearGradient id="paint8_linear_622_67535" x1="25.3655" y1="36.9589" x2="16.7776" y2="13.8198" gradientUnits="userSpaceOnUse">
<stop stop-color="#FF9600"/>
<stop offset="1" stop-color="#FFA900"/>
</linearGradient>
</defs>
</svg>
