<svg width="194" height="46" viewBox="0 0 194 46" fill="none" xmlns="http://www.w3.org/2000/svg">
<g filter="url(#filter0_i_622_24948)">
<path d="M49.0016 15.874H68.8009V19.3998H61.0158V39.2199H56.7348V19.3998H48.9844V15.874H49.0016ZM67.955 22.316H71.6146V25.5782H71.6835C71.8043 25.1168 72.0288 24.6721 72.3568 24.2437C72.6848 23.8153 73.0817 23.4035 73.5478 23.0574C74.0139 22.695 74.5317 22.4149 75.1014 22.1843C75.6711 21.9701 76.2579 21.8548 76.8449 21.8548C77.2936 21.8548 77.6216 21.8712 77.7942 21.8878C77.9669 21.9042 78.1395 21.9371 78.3294 21.9535V25.5452C78.0532 25.4959 77.777 25.4629 77.4835 25.4299C77.19 25.397 76.9139 25.3806 76.6377 25.3806C75.9817 25.3806 75.3604 25.5123 74.7734 25.7594C74.1866 26.0066 73.6859 26.3856 73.2543 26.8633C72.8229 27.3576 72.4776 27.9507 72.2187 28.6756C71.9597 29.4005 71.8389 30.2243 71.8389 31.1634V39.2035H67.9377V22.316H67.955ZM96.2642 39.2199H92.4321V36.864H92.3631C91.8798 37.7208 91.172 38.3961 90.2227 38.907C89.2733 39.4177 88.3066 39.6813 87.3227 39.6813C84.9924 39.6813 83.3007 39.1376 82.2651 38.0337C81.2292 36.9299 80.7115 35.2658 80.7115 33.0417V22.316H84.6126V32.6791C84.6126 34.162 84.9061 35.2164 85.5101 35.826C86.0971 36.4356 86.9429 36.7487 88.0132 36.7487C88.8417 36.7487 89.5149 36.6332 90.0673 36.3861C90.6198 36.1391 91.0684 35.826 91.3965 35.414C91.7417 35.0186 91.9834 34.5245 92.1386 33.9642C92.294 33.4042 92.3631 32.7946 92.3631 32.1354V22.3325H96.2642V39.2199ZM102.91 33.7996C103.031 34.8869 103.462 35.6448 104.205 36.0896C104.964 36.518 105.862 36.7487 106.915 36.7487C107.277 36.7487 107.692 36.7157 108.158 36.6662C108.624 36.6169 109.072 36.5016 109.47 36.3533C109.884 36.2049 110.212 35.9743 110.488 35.6778C110.747 35.3812 110.868 35.0022 110.85 34.5245C110.833 34.0466 110.643 33.6511 110.298 33.3546C109.953 33.0417 109.521 32.811 108.986 32.6133C108.451 32.4321 107.847 32.2673 107.156 32.1354C106.466 32.0037 105.775 31.8555 105.068 31.707C104.343 31.5588 103.635 31.3612 102.962 31.147C102.289 30.9328 101.684 30.6363 101.149 30.2572C100.614 29.8948 100.183 29.417 99.872 28.8404C99.544 28.2638 99.3886 27.5553 99.3886 26.6985C99.3886 25.776 99.6303 25.0181 100.096 24.3919C100.562 23.7659 101.167 23.2716 101.874 22.8926C102.599 22.5138 103.393 22.2502 104.274 22.0854C105.154 21.9371 106 21.8548 106.794 21.8548C107.709 21.8548 108.589 21.9535 109.418 22.1347C110.246 22.316 111.006 22.6127 111.679 23.041C112.352 23.4528 112.905 23.9965 113.353 24.6555C113.802 25.3146 114.078 26.1219 114.199 27.061H110.125C109.935 26.1714 109.521 25.5618 108.848 25.2651C108.175 24.9522 107.398 24.8039 106.535 24.8039C106.259 24.8039 105.931 24.8203 105.551 24.8697C105.171 24.9192 104.826 25.0015 104.481 25.1168C104.153 25.2323 103.877 25.4135 103.635 25.6441C103.411 25.8747 103.29 26.1714 103.29 26.5502C103.29 27.0116 103.462 27.374 103.79 27.6542C104.118 27.9343 104.55 28.1649 105.085 28.3625C105.62 28.5439 106.224 28.7085 106.915 28.8404C107.605 28.9721 108.313 29.1205 109.038 29.2688C109.746 29.417 110.436 29.6147 111.127 29.8289C111.817 30.043 112.421 30.3396 112.956 30.7186C113.491 31.0976 113.923 31.5588 114.251 32.119C114.579 32.6791 114.752 33.3876 114.752 34.2114C114.752 35.2164 114.51 36.0566 114.027 36.7651C113.543 37.457 112.922 38.0337 112.162 38.4621C111.403 38.8904 110.54 39.2199 109.608 39.4177C108.675 39.6153 107.743 39.7142 106.828 39.7142C105.707 39.7142 104.671 39.599 103.721 39.3518C102.772 39.1046 101.943 38.7422 101.253 38.2644C100.562 37.7701 100.01 37.1605 99.613 36.4356C99.216 35.7107 99.0088 34.8374 98.9743 33.8326H102.91V33.7996ZM115.787 22.316H118.739V17.2415H122.64V22.316H126.162V25.1004H122.64V34.1291C122.64 34.5245 122.657 34.854 122.692 35.1505C122.726 35.4306 122.813 35.6778 122.934 35.8754C123.054 36.0732 123.244 36.2214 123.503 36.3203C123.762 36.4191 124.09 36.4686 124.539 36.4686C124.815 36.4686 125.091 36.4686 125.368 36.452C125.644 36.4356 125.92 36.4027 126.196 36.3367V39.2199C125.765 39.2695 125.333 39.3024 124.936 39.3518C124.522 39.4012 124.107 39.4177 123.676 39.4177C122.64 39.4177 121.812 39.3188 121.19 39.1376C120.569 38.9564 120.068 38.6763 119.723 38.3138C119.361 37.9514 119.136 37.5066 118.998 36.9629C118.877 36.4191 118.791 35.7931 118.774 35.1011V25.1334H115.822V22.316H115.787ZM128.924 22.316H132.617V24.6061H132.687C133.239 23.6177 133.998 22.9256 134.982 22.4974C135.966 22.069 137.019 21.8548 138.176 21.8548C139.574 21.8548 140.782 22.0854 141.818 22.5631C142.854 23.0245 143.717 23.667 144.407 24.4908C145.098 25.3146 145.598 26.2701 145.943 27.3576C146.289 28.445 146.461 29.6147 146.461 30.8504C146.461 31.9872 146.306 33.0911 145.995 34.1455C145.685 35.2164 145.219 36.1555 144.597 36.9793C143.976 37.8031 143.182 38.4457 142.215 38.9398C141.248 39.4341 140.126 39.6813 138.814 39.6813C138.245 39.6813 137.675 39.6319 137.106 39.533C136.536 39.4341 135.983 39.2695 135.466 39.0553C134.948 38.8411 134.447 38.561 134.016 38.2149C133.567 37.869 133.204 37.4736 132.894 37.0287H132.825V45.4643H128.924V22.316ZM142.56 30.7845C142.56 30.0267 142.457 29.2852 142.25 28.5603C142.042 27.8354 141.732 27.2092 141.317 26.6491C140.903 26.0889 140.385 25.6441 139.781 25.3146C139.16 24.9852 138.452 24.8039 137.658 24.8039C136.018 24.8039 134.775 25.3476 133.947 26.4349C133.118 27.5223 132.704 28.9721 132.704 30.7845C132.704 31.6413 132.807 32.4321 133.032 33.157C133.256 33.8819 133.567 34.5079 134.016 35.0352C134.447 35.5625 134.965 35.9743 135.569 36.2708C136.173 36.5839 136.881 36.7321 137.675 36.7321C138.573 36.7321 139.315 36.5509 139.936 36.2049C140.558 35.859 141.059 35.3976 141.455 34.854C141.852 34.2937 142.146 33.6677 142.319 32.9592C142.474 32.2509 142.56 31.5258 142.56 30.7845ZM149.448 15.874H153.349V19.3998H149.448V15.874ZM149.448 22.316H153.349V39.2199H149.448V22.316ZM156.836 15.874H160.737V39.2199H156.836V15.874ZM172.7 39.6813C171.283 39.6813 170.024 39.4507 168.919 39.0057C167.815 38.561 166.881 37.935 166.104 37.1605C165.345 36.3697 164.758 35.4306 164.362 34.3433C163.964 33.2557 163.758 32.0531 163.758 30.7516C163.758 29.4664 163.964 28.2802 164.362 27.1928C164.758 26.1055 165.345 25.1664 166.104 24.3755C166.865 23.5847 167.815 22.9751 168.919 22.5302C170.024 22.0854 171.283 21.8548 172.7 21.8548C174.114 21.8548 175.374 22.0854 176.478 22.5302C177.585 22.9751 178.517 23.6011 179.294 24.3755C180.053 25.1664 180.639 26.1055 181.036 27.1928C181.434 28.2802 181.64 29.4664 181.64 30.7516C181.64 32.0531 181.434 33.2557 181.036 34.3433C180.639 35.4306 180.053 36.3697 179.294 37.1605C178.534 37.9514 177.585 38.561 176.478 39.0057C175.374 39.4507 174.114 39.6813 172.7 39.6813ZM172.7 36.7321C173.561 36.7321 174.322 36.5509 174.96 36.2049C175.599 35.859 176.117 35.3976 176.531 34.8374C176.945 34.2773 177.24 33.6348 177.446 32.9262C177.636 32.2179 177.74 31.4928 177.74 30.7516C177.74 30.0267 177.636 29.3181 177.446 28.5933C177.255 27.8684 176.945 27.2422 176.531 26.6821C176.117 26.1219 175.599 25.6771 174.96 25.331C174.322 24.9852 173.561 24.8039 172.7 24.8039C171.837 24.8039 171.076 24.9852 170.438 25.331C169.798 25.6771 169.28 26.1384 168.866 26.6821C168.453 27.2422 168.158 27.8684 167.952 28.5933C167.762 29.3181 167.658 30.0267 167.658 30.7516C167.658 31.4928 167.762 32.2179 167.952 32.9262C168.142 33.6348 168.453 34.2773 168.866 34.8374C169.28 35.3976 169.798 35.859 170.438 36.2049C171.076 36.5675 171.837 36.7321 172.7 36.7321ZM182.78 22.316H185.732V17.2415H189.633V22.316H193.154V25.1004H189.633V34.1291C189.633 34.5245 189.65 34.854 189.685 35.1505C189.719 35.4306 189.805 35.6778 189.927 35.8754C190.047 36.0732 190.237 36.2214 190.496 36.3203C190.755 36.4191 191.082 36.4686 191.532 36.4686C191.808 36.4686 192.085 36.4686 192.36 36.452C192.636 36.4356 192.913 36.4027 193.189 36.3367V39.2199C192.758 39.2695 192.326 39.3024 191.928 39.3518C191.514 39.4012 191.1 39.4177 190.668 39.4177C189.633 39.4177 188.805 39.3188 188.183 39.1376C187.561 38.9564 187.061 38.6763 186.715 38.3138C186.352 37.9514 186.129 37.5066 185.991 36.9629C185.87 36.4191 185.783 35.7931 185.766 35.1011V25.1334H182.815V22.316H182.78Z" fill="#0B2239"/>
<path d="M44.4481 15.8739H26.5651L21.0414 -0.371094L15.5004 15.8739L-2.38281 15.8573L12.0997 25.9074L6.55868 42.1358L21.0414 32.1023L35.5066 42.1358L29.9829 25.9074L44.4481 15.8739Z" fill="#00B67A"/>
<path d="M31.2234 29.5814L29.9806 25.9072L21.0391 32.102L31.2234 29.5814Z" fill="#005128"/>
</g>
<defs>
<filter id="filter0_i_622_24948" x="-2.38281" y="-0.371094" width="195.57" height="45.835" filterUnits="userSpaceOnUse" color-interpolation-filters="sRGB">
<feFlood flood-opacity="0" result="BackgroundImageFix"/>
<feBlend mode="normal" in="SourceGraphic" in2="BackgroundImageFix" result="shape"/>
<feColorMatrix in="SourceAlpha" type="matrix" values="0 0 0 0 0 0 0 0 0 0 0 0 0 0 0 0 0 0 127 0" result="hardAlpha"/>
<feOffset/>
<feGaussianBlur stdDeviation="5"/>
<feComposite in2="hardAlpha" operator="arithmetic" k2="-1" k3="1"/>
<feColorMatrix type="matrix" values="0 0 0 0 0 0 0 0 0 0 0 0 0 0 0 0 0 0 0.1 0"/>
<feBlend mode="normal" in2="shape" result="effect1_innerShadow_622_24948"/>
</filter>
</defs>
</svg>
