<svg width="106" height="88" viewBox="0 0 106 88" fill="none" xmlns="http://www.w3.org/2000/svg">
<g clip-path="url(#clip0_696_62)">
<path d="M99.0459 27.8456L99.046 27.8458C100.641 34.882 102.79 44.3912 102.835 52.5193C102.858 56.5849 102.35 60.1506 101.092 62.84C99.8674 65.4591 97.9397 67.248 94.9503 67.9256C91.7464 68.6517 89.0754 67.7 86.7044 65.5376C84.2721 63.3193 82.2006 59.8518 80.4335 55.7163L80.0229 54.7553L78.9791 54.8075C78.8492 54.8141 78.7688 54.8199 78.7071 54.8244C78.6296 54.83 78.5815 54.8335 78.5018 54.8335H78.501C77.2449 54.8342 76.0016 54.5802 74.8464 54.0869L74.2573 55.4664L74.8464 54.0869C73.6912 53.5936 72.648 52.8713 71.7798 51.9635L71.3367 51.5002H70.6957H61.3078H60.6667L60.2236 51.9636C59.3555 52.8715 58.3123 53.594 57.1571 54.0874C56.0019 54.5808 54.7587 54.8349 53.5025 54.8343H53.5018C53.4222 54.8343 53.3727 54.8307 53.2929 54.825C53.2313 54.8205 53.1516 54.8148 53.0258 54.8084L51.9811 54.7552L51.5701 55.7171C49.8031 59.8525 47.7316 63.32 45.2994 65.5384C42.9285 67.7007 40.2575 68.6525 37.0534 67.9264C34.064 67.2487 32.1363 65.4596 30.9114 62.8404C29.6536 60.1509 29.1458 56.5851 29.1687 52.5195C29.2144 44.3912 31.3634 34.8819 32.9577 27.8457L32.9577 27.8456C33.5187 25.3692 34.8007 23.1144 36.6419 21.3658C38.4831 19.6172 40.8011 18.4533 43.3032 18.0208C45.8053 17.5884 48.3794 17.9068 50.7007 18.936C53.022 19.9651 54.9864 21.6588 56.3461 23.8034L56.7878 24.5002H57.6129H74.3909H75.216L75.6577 23.8034C77.0173 21.6588 78.9817 19.9651 81.303 18.9359C83.6243 17.9068 86.1985 17.5883 88.7006 18.0208C91.2027 18.4532 93.5206 19.6172 95.3618 21.3658C97.203 23.1143 98.485 25.3691 99.0459 27.8456Z" fill="#12293F" stroke="#0B2239" stroke-width="3"/>
<path d="M50.1678 27.998H47.6694V25.5C47.6694 24.837 47.406 24.2011 46.9371 23.7322C46.4683 23.2634 45.8324 23 45.1694 23C44.5063 23 43.8704 23.2634 43.4016 23.7322C42.9328 24.2011 42.6694 24.837 42.6694 25.5V27.998H40.1719C39.5088 27.998 38.8729 28.2614 38.4041 28.7302C37.9353 29.199 37.6719 29.8349 37.6719 30.498C37.6719 31.161 37.9353 31.7969 38.4041 32.2657C38.8729 32.7346 39.5088 32.998 40.1719 32.998H42.6694V35.4964C42.6694 36.1594 42.9328 36.7953 43.4016 37.2642C43.8704 37.733 44.5063 37.9964 45.1694 37.9964C45.8324 37.9964 46.4683 37.733 46.9371 37.2642C47.406 36.7953 47.6694 36.1594 47.6694 35.4964V32.998H50.1678C50.8309 32.998 51.4667 32.7346 51.9356 32.2657C52.4044 31.7969 52.6678 31.161 52.6678 30.498C52.6678 29.8349 52.4044 29.199 51.9356 28.7302C51.4667 28.2614 50.8309 27.998 50.1678 27.998Z" fill="white"/>
<path d="M86.832 28C88.2127 28 89.332 26.8807 89.332 25.5C89.332 24.1193 88.2127 23 86.832 23C85.4513 23 84.332 24.1193 84.332 25.5C84.332 26.8807 85.4513 28 86.832 28Z" fill="#539415"/>
<path d="M86.5 38C87.8807 38 89 36.8807 89 35.5C89 34.1193 87.8807 33 86.5 33C85.1193 33 84 34.1193 84 35.5C84 36.8807 85.1193 38 86.5 38Z" fill="#539415"/>
<path d="M91.5 33C92.8807 33 94 31.8807 94 30.5C94 29.1193 92.8807 28 91.5 28C90.1193 28 89 29.1193 89 30.5C89 31.8807 90.1193 33 91.5 33Z" fill="#539415"/>
<path d="M81.832 33C83.2127 33 84.332 31.8807 84.332 30.5C84.332 29.1193 83.2127 28 81.832 28C80.4513 28 79.332 29.1193 79.332 30.5C79.332 31.8807 80.4513 33 81.832 33Z" fill="#539415"/>
<path d="M53.5012 51.3336C56.7229 51.3336 59.3345 48.7219 59.3345 45.5003C59.3345 42.2786 56.7229 39.667 53.5012 39.667C50.2796 39.667 47.668 42.2786 47.668 45.5003C47.668 48.7219 50.2796 51.3336 53.5012 51.3336Z" fill="#8FA5A5"/>
<path d="M53.5012 51.3336C56.7229 51.3336 59.3345 48.7219 59.3345 45.5003C59.3345 42.2786 56.7229 39.667 53.5012 39.667C50.2796 39.667 47.668 42.2786 47.668 45.5003C47.668 48.7219 50.2796 51.3336 53.5012 51.3336Z" fill="#FFCD36"/>
<path d="M78.5013 51.3336C81.7229 51.3336 84.3345 48.7219 84.3345 45.5003C84.3345 42.2786 81.7229 39.667 78.5013 39.667C75.2796 39.667 72.668 42.2786 72.668 45.5003C72.668 48.7219 75.2796 51.3336 78.5013 51.3336Z" fill="#FFCD36"/>
<g clip-path="url(#clip1_696_62)">
<path d="M54.3633 13.2231L57.5451 16.314C61.936 12.0485 69.0633 12.0485 73.4542 16.314L76.636 13.2231C70.4872 7.24986 60.5122 7.24986 54.3633 13.2231Z" fill="#539415"/>
<path d="M48 7.04148L51.1818 10.1324C59.0887 2.45148 71.9114 2.45148 79.8182 10.1324L83.0001 7.04148C73.3352 -2.34716 57.6648 -2.34716 48 7.04148Z" fill="#539415"/>
</g>
</g>
<circle cx="23.5" cy="64.5" r="23.5" fill="#F8FBFF"/>
<g filter="url(#filter0_d_696_62)">
<circle cx="23" cy="63" r="20" fill="url(#paint0_radial_696_62)"/>
<circle cx="23" cy="63" r="19.6667" stroke="url(#paint1_linear_696_62)" stroke-width="0.666667"/>
</g>
<path d="M18.596 58.5385V54.6985H25.46V71.6665H21.14V58.5385H18.596Z" fill="#0B2239"/>
<defs>
<filter id="filter0_d_696_62" x="3" y="43" width="40" height="41.3333" filterUnits="userSpaceOnUse" color-interpolation-filters="sRGB">
<feFlood flood-opacity="0" result="BackgroundImageFix"/>
<feColorMatrix in="SourceAlpha" type="matrix" values="0 0 0 0 0 0 0 0 0 0 0 0 0 0 0 0 0 0 127 0" result="hardAlpha"/>
<feOffset dy="1.33333"/>
<feComposite in2="hardAlpha" operator="out"/>
<feColorMatrix type="matrix" values="0 0 0 0 0.895833 0 0 0 0 0.676908 0 0 0 0 0.0111979 0 0 0 1 0"/>
<feBlend mode="normal" in2="BackgroundImageFix" result="effect1_dropShadow_696_62"/>
<feBlend mode="normal" in="SourceGraphic" in2="effect1_dropShadow_696_62" result="shape"/>
</filter>
<radialGradient id="paint0_radial_696_62" cx="0" cy="0" r="1" gradientUnits="userSpaceOnUse" gradientTransform="translate(23 63) rotate(90) scale(20)">
<stop stop-color="#FFDB6F"/>
<stop offset="1" stop-color="#FFC924"/>
</radialGradient>
<linearGradient id="paint1_linear_696_62" x1="9.66667" y1="48" x2="23" y2="83" gradientUnits="userSpaceOnUse">
<stop stop-color="#FFD75C"/>
<stop offset="1" stop-color="white" stop-opacity="0"/>
</linearGradient>
<clipPath id="clip0_696_62">
<rect width="80" height="83" fill="white" transform="translate(26)"/>
</clipPath>
<clipPath id="clip1_696_62">
<rect width="35" height="34" fill="white" transform="translate(48 -11)"/>
</clipPath>
</defs>
</svg>
