<svg width="104" height="88" viewBox="0 0 104 88" fill="none" xmlns="http://www.w3.org/2000/svg">
<g clip-path="url(#clip0_696_64)">
<path d="M54.712 70.3539C55.2558 66.999 52.977 63.8384 49.6222 63.2946C46.2673 62.7507 43.1067 65.0295 42.5629 68.3844C42.019 71.7393 44.2978 74.8999 47.6527 75.4437C51.0076 75.9876 54.1681 73.7088 54.712 70.3539Z" fill="#FFCD36"/>
<path fill-rule="evenodd" clip-rule="evenodd" d="M48.6476 63.2246C52.0467 63.2246 54.8021 65.98 54.8021 69.3792C54.8021 72.7783 52.0467 75.5338 48.6476 75.5338C48.3886 75.5338 48.1334 75.5176 47.8828 75.4865C50.9209 75.1099 53.2726 72.5192 53.2726 69.3792C53.2726 66.2392 50.9209 63.6484 47.8828 63.2719C48.1334 63.2407 48.3886 63.2246 48.6476 63.2246Z" fill="#FFCD36"/>
<path d="M97.2198 70.3715C97.7637 67.0166 95.4849 63.856 92.13 63.3122C88.7751 62.7683 85.6145 65.0471 85.0707 68.402C84.5268 71.7569 86.8056 74.9174 90.1605 75.4613C93.5154 76.0051 96.676 73.7263 97.2198 70.3715Z" fill="#FFCD36"/>
<path fill-rule="evenodd" clip-rule="evenodd" d="M91.1634 63.2393C94.5623 63.2393 97.3179 65.9948 97.3179 69.3938C97.3179 72.793 94.5623 75.5484 91.1634 75.5484C90.9044 75.5484 90.649 75.5323 90.3984 75.5011C93.4366 75.1246 95.7883 72.5339 95.7883 69.3938C95.7883 66.2537 93.4366 63.6631 90.3984 63.2866C90.649 63.2556 90.9042 63.2393 91.1634 63.2393Z" fill="#FFCD36"/>
<path fill-rule="evenodd" clip-rule="evenodd" d="M100.772 16.373C101.786 16.373 102.607 17.1949 102.607 18.2085C102.607 18.4124 102.574 18.6085 102.513 18.7917L96.0496 45.3084C95.6961 46.7593 94.8889 47.98 93.7968 48.8379C92.6992 49.7001 91.3225 50.1977 89.8364 50.1977C74.9638 50.1977 60.0912 50.1977 45.2187 50.1977C42.5338 38.9228 39.8489 27.6479 37.1641 16.373H100.772Z" fill="#FFCD36"/>
<path fill-rule="evenodd" clip-rule="evenodd" d="M100.771 16.373C101.785 16.373 102.606 17.1949 102.606 18.2085C102.606 18.4124 102.573 18.6085 102.512 18.7917L96.0487 45.3084C95.6951 46.7593 94.888 47.98 93.7959 48.8379C92.6983 49.7001 91.3216 50.1977 89.8354 50.1977C74.9629 50.1977 60.0902 50.1977 45.2177 50.1977L44.125 45.609H83.7171C85.2034 45.609 86.5801 45.1114 87.6775 44.2492C88.7696 43.3913 89.5768 42.1706 89.9303 40.7197L95.8644 16.373H100.771Z" fill="#D6E4EA"/>
<path fill-rule="evenodd" clip-rule="evenodd" d="M91.3173 73.911C88.8534 73.911 86.8495 71.9071 86.8495 69.4439C86.8495 66.98 88.8534 64.976 91.3173 64.976C93.7805 64.976 95.7859 66.98 95.7859 69.4439C95.7859 71.9071 93.7803 73.911 91.3173 73.911ZM48.5058 73.911C46.0425 73.911 44.0379 71.9071 44.0379 69.4439C44.0379 66.98 46.0425 64.976 48.5058 64.976C50.969 64.976 52.9736 66.98 52.9736 69.4439C52.9736 71.9071 50.969 73.911 48.5058 73.911ZM44.6091 50.9591H90.7985C93.8626 50.9591 96.509 48.8806 97.2323 45.9061L103.957 18.3208C104.091 17.7549 103.964 17.1563 103.606 16.6986C103.241 16.2409 102.689 15.9733 102.108 15.9733H40.221L37.5483 4.75113C37.3441 3.89604 36.5799 3.29297 35.7024 3.29297H27.7538C26.7049 3.29297 25.8557 4.14284 25.8557 5.19109C25.8557 6.23998 26.7047 7.08984 27.7538 7.08984H34.2025L36.3175 15.9733H24.8903C23.8414 15.9733 22.9922 16.8223 22.9922 17.8714C22.9922 18.9196 23.8413 19.7701 24.8903 19.7701H99.6922L93.5418 45.007C93.2279 46.2953 92.1254 47.1622 90.7984 47.1622H44.6091C40.5654 47.1622 37.2748 50.4514 37.2748 54.4951C37.2748 58.5388 40.5654 61.8278 44.6091 61.8278H45.2957C42.3278 63.0839 40.2411 66.0251 40.2411 69.4439C40.2411 74.0012 43.9492 77.7078 48.5058 77.7078C53.0615 77.7078 56.7697 74.0011 56.7697 69.4439C56.7697 66.0249 54.6838 63.0839 51.7151 61.8278H88.107C85.1391 63.0839 83.0524 66.0251 83.0524 69.4439C83.0524 74.0012 86.7591 77.7078 91.3171 77.7078C95.8751 77.7078 99.5802 74.0011 99.5802 69.4439C99.5802 66.0249 97.4929 63.0839 94.5256 61.8278H97.2393C98.2904 61.8278 99.1403 60.9779 99.1403 59.9291C99.1403 58.8824 98.2904 58.0309 97.2393 58.0309H44.6091C42.6587 58.0309 41.0716 56.4459 41.0716 54.4949C41.0716 52.5441 42.6587 50.9591 44.6091 50.9591Z" fill="#0B2239"/>
<path d="M24.9854 41H49.0216C50.1184 41 51.0062 40.1018 51.0064 38.994C51.0064 37.8854 50.1184 36.9873 49.0216 36.9873H24.9854C23.8887 36.9873 23 37.8854 23 38.994C23 40.1018 23.8887 41 24.9854 41Z" fill="#539415"/>
<path d="M33.7839 28.006C33.7839 29.1146 34.6725 30.0128 35.7686 30.0128H60.0154C61.1122 30.0128 62 29.1146 62 28.006C62 26.8982 61.1122 26 60.0154 26H35.7686C34.6725 26 33.7839 26.8982 33.7839 28.006Z" fill="#539415"/>
</g>
<circle cx="23.5" cy="64.5" r="23.5" fill="#F8FBFF"/>
<g filter="url(#filter0_d_696_64)">
<circle cx="23" cy="64" r="20" fill="url(#paint0_radial_696_64)"/>
<circle cx="23" cy="64" r="19.6667" stroke="url(#paint1_linear_696_64)" stroke-width="0.666667"/>
</g>
<path d="M23.58 55.9545C24.764 55.9545 25.78 56.1625 26.628 56.5785C27.476 56.9785 28.116 57.5385 28.548 58.2585C28.996 58.9625 29.22 59.7625 29.22 60.6585C29.22 61.7625 28.932 62.6505 28.356 63.3225C27.796 63.9945 27.092 64.4185 26.244 64.5945V64.7145C28.436 65.4185 29.532 66.7865 29.532 68.8185C29.532 69.7945 29.308 70.6665 28.86 71.4345C28.412 72.1865 27.756 72.7785 26.892 73.2105C26.044 73.6265 25.02 73.8345 23.82 73.8345C21.868 73.8345 20.316 73.3545 19.164 72.3945C18.028 71.4345 17.412 69.9705 17.316 68.0025H21.324C21.356 68.7545 21.564 69.3465 21.948 69.7785C22.332 70.2105 22.892 70.4265 23.628 70.4265C24.22 70.4265 24.684 70.2505 25.02 69.8985C25.372 69.5465 25.548 69.0905 25.548 68.5305C25.548 67.1385 24.54 66.4425 22.524 66.4425H21.756V63.1065H22.5C24.308 63.1385 25.212 62.4905 25.212 61.1625C25.212 60.5865 25.052 60.1465 24.732 59.8425C24.428 59.5225 24.012 59.3625 23.484 59.3625C22.908 59.3625 22.452 59.5625 22.116 59.9625C21.78 60.3465 21.588 60.8665 21.54 61.5225H17.532C17.612 59.7305 18.172 58.3545 19.212 57.3945C20.252 56.4345 21.708 55.9545 23.58 55.9545Z" fill="#0B2239"/>
<defs>
<filter id="filter0_d_696_64" x="3" y="44" width="40" height="41.3333" filterUnits="userSpaceOnUse" color-interpolation-filters="sRGB">
<feFlood flood-opacity="0" result="BackgroundImageFix"/>
<feColorMatrix in="SourceAlpha" type="matrix" values="0 0 0 0 0 0 0 0 0 0 0 0 0 0 0 0 0 0 127 0" result="hardAlpha"/>
<feOffset dy="1.33333"/>
<feComposite in2="hardAlpha" operator="out"/>
<feColorMatrix type="matrix" values="0 0 0 0 0.895833 0 0 0 0 0.676908 0 0 0 0 0.0111979 0 0 0 1 0"/>
<feBlend mode="normal" in2="BackgroundImageFix" result="effect1_dropShadow_696_64"/>
<feBlend mode="normal" in="SourceGraphic" in2="effect1_dropShadow_696_64" result="shape"/>
</filter>
<radialGradient id="paint0_radial_696_64" cx="0" cy="0" r="1" gradientUnits="userSpaceOnUse" gradientTransform="translate(23 64) rotate(90) scale(20)">
<stop stop-color="#FFDB6F"/>
<stop offset="1" stop-color="#FFC924"/>
</radialGradient>
<linearGradient id="paint1_linear_696_64" x1="9.66667" y1="49" x2="23" y2="84" gradientUnits="userSpaceOnUse">
<stop stop-color="#FFD75C"/>
<stop offset="1" stop-color="white" stop-opacity="0"/>
</linearGradient>
<clipPath id="clip0_696_64">
<rect width="81" height="81" fill="white" transform="translate(23)"/>
</clipPath>
</defs>
</svg>
