<svg width="104" height="88" viewBox="0 0 104 88" fill="none" xmlns="http://www.w3.org/2000/svg">
<path d="M26.5 30H101.5V77.5H26.5V30Z" fill="#203D5B"/>
<path d="M69 53.75L101.5 30L64 2.5L26.5 30L59 53.75H69Z" fill="#FFCD36"/>
<path d="M59 53.75L37.75 38.2212V12.5H90.25V38.2212L69 53.75H59Z" fill="#ECF4FF"/>
<path d="M81.51 44.6087V12.5H37.75V38.2212L53.875 50H74.125L81.51 44.6087Z" fill="white"/>
<path d="M26.5 77.5L64 50L101.5 77.5" fill="#0B2239"/>
<path d="M64 39.5C69.5228 39.5 74 35.0228 74 29.5C74 23.9772 69.5228 19.5 64 19.5C58.4772 19.5 54 23.9772 54 29.5C54 35.0228 58.4772 39.5 64 39.5Z" fill="#539415"/>
<path d="M61.5009 34.5C61.1694 34.4999 60.8516 34.3681 60.6172 34.1337L58.1172 31.6337L59.8847 29.8662L61.5009 31.4825L68.1172 24.8662L69.8847 26.6337L62.3847 34.1337C62.1503 34.3681 61.8324 34.4999 61.5009 34.5Z" fill="#F2F2F2"/>
<path d="M50.25 43H70.25V45.5H50.25V43Z" fill="#0B2239"/>
<path d="M72.75 43H77.75V45.5H72.75V43Z" fill="#0B2239"/>
<circle cx="23.5" cy="64.5" r="23.5" fill="#F8FBFF"/>
<g filter="url(#filter0_d_696_65)">
<circle cx="24" cy="64" r="20" fill="url(#paint0_radial_696_65)"/>
<circle cx="24" cy="64" r="19.6667" stroke="url(#paint1_linear_696_65)" stroke-width="0.666667"/>
</g>
<path d="M17.388 69.5465V66.1145L25.14 55.4825H29.556V65.9705H31.596V69.5465H29.556V72.6665H25.404V69.5465H17.388ZM25.74 60.2345L21.564 65.9705H25.74V60.2345Z" fill="#0B2239"/>
<defs>
<filter id="filter0_d_696_65" x="4" y="44" width="40" height="41.3333" filterUnits="userSpaceOnUse" color-interpolation-filters="sRGB">
<feFlood flood-opacity="0" result="BackgroundImageFix"/>
<feColorMatrix in="SourceAlpha" type="matrix" values="0 0 0 0 0 0 0 0 0 0 0 0 0 0 0 0 0 0 127 0" result="hardAlpha"/>
<feOffset dy="1.33333"/>
<feComposite in2="hardAlpha" operator="out"/>
<feColorMatrix type="matrix" values="0 0 0 0 0.895833 0 0 0 0 0.676908 0 0 0 0 0.0111979 0 0 0 1 0"/>
<feBlend mode="normal" in2="BackgroundImageFix" result="effect1_dropShadow_696_65"/>
<feBlend mode="normal" in="SourceGraphic" in2="effect1_dropShadow_696_65" result="shape"/>
</filter>
<radialGradient id="paint0_radial_696_65" cx="0" cy="0" r="1" gradientUnits="userSpaceOnUse" gradientTransform="translate(24 64) rotate(90) scale(20)">
<stop stop-color="#FFDB6F"/>
<stop offset="1" stop-color="#FFC924"/>
</radialGradient>
<linearGradient id="paint1_linear_696_65" x1="10.6667" y1="49" x2="24" y2="84" gradientUnits="userSpaceOnUse">
<stop stop-color="#FFD75C"/>
<stop offset="1" stop-color="white" stop-opacity="0"/>
</linearGradient>
</defs>
</svg>
