<svg width="50" height="50" viewBox="0 0 50 50" fill="none" xmlns="http://www.w3.org/2000/svg">
<path d="M48.8539 9.17949C47.9932 8.23077 46.7412 7.69231 45.4631 7.69231H13.2503L12.2852 4.82051C11.294 1.94872 8.58139 0 5.47748 0H1.95624C0.88683 0 0 0.871795 0 1.92308C0 2.97436 0.88683 3.84615 1.95624 3.84615H5.47748C6.88598 3.84615 8.13797 4.71795 8.58139 6.02564L9.93772 10.0256L11.9983 28.3333C12.3895 31.9231 15.4674 34.6154 19.119 34.6154H41.0811C44.7328 34.6154 47.8106 31.9231 48.2018 28.3333L49.9755 12.6667C50.1059 11.4103 49.7147 10.1282 48.8278 9.17949H48.8539ZM44.3415 27.9231C44.1589 29.5385 42.7765 30.7692 41.1072 30.7692H19.1451C17.4758 30.7692 16.0934 29.5385 15.9108 27.9231L14.0589 11.5385H45.4631C45.7239 11.5385 45.8804 11.6667 45.9587 11.7436C46.0369 11.8205 46.1413 12 46.1152 12.2308L44.3415 27.8974V27.9231Z" fill="#0B2239"/>
<path d="M18.3687 38.4614C15.1344 38.4614 12.5 41.0512 12.5 44.2307C12.5 47.4101 15.1344 49.9999 18.3687 49.9999C21.6031 49.9999 24.2375 47.4101 24.2375 44.2307C24.2375 41.0512 21.6031 38.4614 18.3687 38.4614ZM18.3687 46.1537C17.2993 46.1537 16.4125 45.2819 16.4125 44.2307C16.4125 43.1794 17.2993 42.3076 18.3687 42.3076C19.4381 42.3076 20.325 43.1794 20.325 44.2307C20.325 45.2819 19.4381 46.1537 18.3687 46.1537Z" fill="#F36B25"/>
<path d="M41.8375 38.4614C38.6032 38.4614 35.9688 41.0512 35.9688 44.2307C35.9688 47.4101 38.6032 49.9999 41.8375 49.9999C45.0718 49.9999 47.7062 47.4101 47.7062 44.2307C47.7062 41.0512 45.0718 38.4614 41.8375 38.4614ZM41.8375 46.1537C40.7681 46.1537 39.8812 45.2819 39.8812 44.2307C39.8812 43.1794 40.7681 42.3076 41.8375 42.3076C42.9069 42.3076 43.7937 43.1794 43.7937 44.2307C43.7937 45.2819 42.9069 46.1537 41.8375 46.1537Z" fill="#F36B25"/>
</svg>
