<svg width="51" height="51" viewBox="0 0 51 51" fill="none" xmlns="http://www.w3.org/2000/svg">
<path fill-rule="evenodd" clip-rule="evenodd" d="M7.54167 0.875C3.85977 0.875 0.875 3.85977 0.875 7.54167V33.375C0.875 34.2955 1.62119 35.0417 2.54167 35.0417C3.46214 35.0417 4.20833 34.2955 4.20833 33.375V12.5417H39.2083C43.8107 12.5417 47.5417 16.2727 47.5417 20.875V21.7083H44.2083C39.606 21.7083 35.875 25.4393 35.875 30.0417C35.875 34.644 39.606 38.375 44.2083 38.375H47.5417V39.2083C47.5417 43.8107 43.8107 47.5417 39.2083 47.5417H17.5417C16.6212 47.5417 15.875 48.2878 15.875 49.2083C15.875 50.1288 16.6212 50.875 17.5417 50.875H39.2083C45.6517 50.875 50.875 45.6517 50.875 39.2083V20.875C50.875 14.4317 45.6517 9.20833 39.2083 9.20833H33.4094L31.0595 5.85127C28.8763 2.73246 25.3088 0.875 21.5017 0.875H7.54167ZM44.2083 25.0417H47.5417V35.0417H44.2083C41.4469 35.0417 39.2083 32.8031 39.2083 30.0417C39.2083 27.2802 41.4469 25.0417 44.2083 25.0417ZM29.3406 9.20833L28.3287 7.76283C26.7693 5.53509 24.2211 4.20833 21.5017 4.20833H7.54167C5.70072 4.20833 4.20833 5.70072 4.20833 7.54167V9.20833H29.3406Z" fill="#0B2239"/>
<path d="M11.2202 37.1967C10.5693 36.5458 9.514 36.5458 8.86317 37.1967C8.21225 37.8475 8.21225 38.9028 8.86317 39.5537L10.1847 40.8752H2.54167C1.62119 40.8752 0.875 41.6213 0.875 42.5419C0.875 43.4623 1.62119 44.2085 2.54167 44.2085H10.1847L8.86317 45.53C8.21225 46.1809 8.21225 47.2362 8.86317 47.887C9.514 48.5379 10.5693 48.5379 11.2202 47.887L15.3868 43.7203C16.0377 43.0695 16.0377 42.0142 15.3868 41.3633L11.2202 37.1967Z" fill="#F36B25"/>
</svg>
