<svg width="52" height="52" viewBox="0 0 52 52" fill="none" xmlns="http://www.w3.org/2000/svg">
<path d="M50.8654 1.13461C51.7115 1.98075 51.7115 3.35261 50.8653 4.19874L4.19873 50.8654C3.3526 51.7115 1.98076 51.7115 1.13461 50.8654C1.13461 50.8654 1.1346 50.8654 1.13459 50.8653M50.8654 1.13461L1.13459 50.8653M50.8654 1.13461C50.0193 0.288466 48.6474 0.288462 47.8013 1.1346M50.8654 1.13461L47.8013 1.1346M1.13459 50.8653C0.288466 50.0192 0.28847 48.6473 1.1346 47.8013L1.13461 47.8012M1.13459 50.8653L1.13461 47.8012M1.13461 47.8012L47.8012 1.13461M1.13461 47.8012L47.8012 1.13461M47.8012 1.13461C47.8012 1.13461 47.8013 1.13461 47.8013 1.1346M47.8012 1.13461L47.8013 1.1346" fill="#F36B25" stroke="#F36B25"/>
<path d="M11.8333 0.5C5.57411 0.5 0.5 5.57411 0.5 11.8333C0.5 18.0926 5.57411 23.1667 11.8333 23.1667C18.0926 23.1667 23.1667 18.0926 23.1667 11.8333C23.1667 5.57411 18.0926 0.5 11.8333 0.5ZM4.83333 11.8333C4.83333 7.96731 7.96731 4.83333 11.8333 4.83333C15.6994 4.83333 18.8333 7.96731 18.8333 11.8333C18.8333 15.6994 15.6994 18.8333 11.8333 18.8333C7.96731 18.8333 4.83333 15.6994 4.83333 11.8333Z" fill="#F36B25" stroke="#F36B25"/>
<path d="M40.1693 28.8335C33.91 28.8335 28.8359 33.9076 28.8359 40.1668C28.8359 46.426 33.91 51.5002 40.1693 51.5002C46.4285 51.5002 51.5026 46.426 51.5026 40.1668C51.5026 33.9076 46.4285 28.8335 40.1693 28.8335ZM33.1693 40.1668C33.1693 36.3008 36.3032 33.1668 40.1693 33.1668C44.0353 33.1668 47.1693 36.3008 47.1693 40.1668C47.1693 44.0328 44.0353 47.1668 40.1693 47.1668C36.3032 47.1668 33.1693 44.0328 33.1693 40.1668Z" fill="#F36B25" stroke="#F36B25"/>
</svg>
