<svg width="50" height="50" viewBox="0 0 50 50" fill="none" xmlns="http://www.w3.org/2000/svg">
<g filter="url(#filter0_i_1109_62)">
<rect width="50" height="50" rx="25" fill="#0B2239"/>
</g>
<rect x="0.5" y="0.5" width="49" height="49" rx="24.5" stroke="#85919C"/>
<g clip-path="url(#clip0_1109_62)">
<path d="M29.1266 32.8516C27.8725 32.8516 26.672 32.3169 25.8329 31.3847L25.5711 31.0938H24.4367L24.1749 31.3847C23.3359 32.3169 22.1353 32.8516 20.8812 32.8516H20.6094V34.6094H20.8812C22.4071 34.6094 23.876 34.0428 25.0039 33.0361C26.1318 34.0428 27.6007 34.6094 29.1266 34.6094H29.3984V32.8516H29.1266Z" fill="white"/>
<path d="M22.3672 25.8203H20.6094V27.5781H22.3672V25.8203Z" fill="white"/>
<path d="M40 16.1523V15.2734H39.1211C35.5013 15.2734 31.893 13.9137 28.961 11.4445C27.8548 10.513 26.4481 10 25 10C23.5519 10 22.1452 10.513 21.039 11.4445C18.107 13.9137 14.4987 15.2734 10.8789 15.2734H10V16.1523C10 19.5971 12.23 22.5341 15.332 23.6169V24.0625C13.3935 24.0625 11.8164 25.6396 11.8164 27.5781C11.8164 29.5166 13.3935 31.0938 15.332 31.0938H15.3716C15.8083 36.0067 19.9261 40 25 40C30.0723 40 34.1915 36.0085 34.6284 31.0938H34.668C36.6065 31.0938 38.1836 29.5166 38.1836 27.5781C38.1836 25.6396 36.6065 24.0625 34.668 24.0625V23.6169C37.77 22.5341 40 19.5971 40 16.1523ZM15.332 29.3359C14.3628 29.3359 13.5742 28.5474 13.5742 27.5781C13.5742 26.6089 14.3628 25.8203 15.332 25.8203V29.3359ZM25 38.2422C20.6383 38.2422 17.0898 34.6411 17.0898 30.2148V24.0625V24.0142C17.3785 24.0457 17.6717 24.0625 17.9688 24.0625H22.9761L25.9596 26.0515C25.9071 26.2588 25.8789 26.4758 25.8789 26.6992C25.8789 28.1531 27.0617 29.3359 28.5156 29.3359C29.1078 29.3359 29.6549 29.1396 30.0955 28.8088L32.8968 30.6763C32.6603 34.8887 29.209 38.2422 25 38.2422ZM27.6367 26.6992C27.6367 26.2146 28.031 25.8203 28.5156 25.8203C29.0003 25.8203 29.3945 26.2146 29.3945 26.6992C29.3945 27.1838 29.0003 27.5781 28.5156 27.5781C28.031 27.5781 27.6367 27.1838 27.6367 26.6992ZM32.9102 24.0625V28.5726L31.0716 27.3469C31.1242 27.1396 31.1523 26.9226 31.1523 26.6992C31.1523 25.2453 29.9695 24.0625 28.5156 24.0625C27.9235 24.0625 27.3763 24.2588 26.9357 24.5896L26.145 24.0625H28.5156H32.0312C32.3283 24.0625 32.6215 24.0457 32.9102 24.0142V24.0625ZM36.4258 27.5781C36.4258 28.5474 35.6372 29.3359 34.668 29.3359V25.8203C35.6372 25.8203 36.4258 26.6089 36.4258 27.5781ZM32.0312 22.3047H17.9688C14.8359 22.3047 12.2372 19.9948 11.8171 17.0042C15.5303 16.7901 19.1748 15.3125 22.1713 12.7891C22.961 12.124 23.9656 11.7578 25 11.7578C26.0344 11.7578 27.039 12.124 27.8287 12.7891C30.8252 15.3125 34.4697 16.7901 38.1828 17.0042C37.7628 19.9948 35.1642 22.3047 32.0312 22.3047Z" fill="white"/>
<path d="M28.1054 15.1668L26.8625 13.9238L24.998 15.7883L23.1336 13.9238L21.8906 15.1668L23.7551 17.0312L21.8906 18.8957L23.1336 20.1386L24.998 18.2742L26.8625 20.1386L28.1054 18.8957L26.241 17.0312L28.1054 15.1668Z" fill="white"/>
</g>
<defs>
<filter id="filter0_i_1109_62" x="0" y="0" width="50" height="50" filterUnits="userSpaceOnUse" color-interpolation-filters="sRGB">
<feFlood flood-opacity="0" result="BackgroundImageFix"/>
<feBlend mode="normal" in="SourceGraphic" in2="BackgroundImageFix" result="shape"/>
<feColorMatrix in="SourceAlpha" type="matrix" values="0 0 0 0 0 0 0 0 0 0 0 0 0 0 0 0 0 0 127 0" result="hardAlpha"/>
<feOffset dy="-5"/>
<feComposite in2="hardAlpha" operator="arithmetic" k2="-1" k3="1"/>
<feColorMatrix type="matrix" values="0 0 0 0 0.0423264 0 0 0 0 0.11526 0 0 0 0 0.191667 0 0 0 1 0"/>
<feBlend mode="normal" in2="shape" result="effect1_innerShadow_1109_62"/>
</filter>
<clipPath id="clip0_1109_62">
<rect width="30" height="30" fill="white" transform="translate(10 10)"/>
</clipPath>
</defs>
</svg>
