<svg width="18" height="22" viewBox="0 0 18 22" fill="none" xmlns="http://www.w3.org/2000/svg">
<g clip-path="url(#clip0_622_65151)">
<path d="M17.0047 8.64677L16.7025 6.60049C16.6433 6.20097 16.2917 5.90012 15.8835 5.90012C15.844 5.90012 15.8033 5.90256 15.7638 5.90865L15.4135 5.95859C15.3691 5.93179 15.3222 5.90865 15.2754 5.88794C15.0743 4.30694 14.3108 2.85018 13.1081 1.76492C11.8463 0.627284 10.2119 0 8.50604 0C6.80014 0 5.16702 0.627284 3.90518 1.76736C2.70377 2.85262 1.94025 4.30816 1.73796 5.89038C1.69109 5.91108 1.64422 5.93544 1.59981 5.96102L1.2495 5.91108C1.21003 5.90499 1.16933 5.90256 1.12986 5.90256C0.721575 5.90256 0.370034 6.20341 0.310828 6.60171L0.00862601 8.64799C-0.0567482 9.09379 0.256555 9.51035 0.708007 9.57491L0.775848 9.58465L0.556289 13.4275C0.53532 13.8015 0.664835 14.1596 0.922632 14.4348C1.18043 14.7101 1.53074 14.8672 1.91065 14.8758C3.41795 14.9099 7.07768 14.9903 8.50604 14.9903C9.93441 14.9903 13.5941 14.9099 15.1014 14.8758C15.4813 14.8672 15.8317 14.7101 16.0895 14.4348C16.3472 14.1596 16.4768 13.8015 16.4558 13.4275L16.2362 9.58465L16.3053 9.57491C16.7568 9.50914 17.0701 9.09379 17.0047 8.64677Z" fill="#85919C"/>
<path d="M8.50475 12.8943C11.9484 12.8943 14.74 10.1377 14.74 6.7372C14.74 3.33672 11.9484 0.580078 8.50475 0.580078C5.06113 0.580078 2.26953 3.33672 2.26953 6.7372C2.26953 10.1377 5.06113 12.8943 8.50475 12.8943Z" fill="#85919C"/>
<path d="M15.4836 7.09652C15.4601 6.6897 15.1296 6.36692 14.7176 6.34987C13.2239 6.28897 9.8318 6.02344 8.49471 6.02344C7.15762 6.02344 3.76556 6.28897 2.27182 6.34987C1.85984 6.36692 1.52927 6.6897 1.50584 7.09652L1.14196 13.3267C1.11606 13.7737 1.47007 14.1525 1.92275 14.1623C3.53984 14.1988 7.08731 14.2768 8.49471 14.2768C9.90211 14.2768 13.4483 14.1988 15.0667 14.1623C15.5194 14.1513 15.8721 13.7725 15.8475 13.3267L15.4836 7.09652Z" fill="#0B2239"/>
<path d="M15.5033 7.09633C15.4799 6.6895 15.1481 6.36673 14.7361 6.34967C13.2399 6.28877 9.8429 6.15723 8.50458 6.15723C7.16626 6.15723 3.76803 6.28877 2.27306 6.34967C1.86108 6.36673 1.52927 6.6895 1.50584 7.09633L1.14196 13.4605C1.11606 13.9075 1.47007 14.2863 1.92398 14.2961C3.54354 14.3326 7.09595 14.4106 8.50581 14.4106C9.91444 14.4106 13.4669 14.3326 15.0876 14.2961C15.5403 14.2851 15.8943 13.9063 15.8697 13.4605L15.5033 7.09633Z" fill="#85919C"/>
<path d="M14.9813 9.03388H2.03351C1.978 9.03388 1.93359 8.99003 1.93359 8.93522V8.55276C1.93359 8.49795 1.978 8.4541 2.03351 8.4541H14.9801C15.0356 8.4541 15.08 8.49795 15.08 8.55276V8.93522C15.0812 8.99003 15.0368 9.03388 14.9813 9.03388Z" fill="#0B2239"/>
<path d="M14.9813 10.7292H2.03351C1.978 10.7292 1.93359 10.6853 1.93359 10.6305V10.2481C1.93359 10.1933 1.978 10.1494 2.03351 10.1494H14.9801C15.0356 10.1494 15.08 10.1933 15.08 10.2481V10.6305C15.0812 10.6853 15.0368 10.7292 14.9813 10.7292Z" fill="#0B2239"/>
<path d="M1.45195 9.09534L0.730362 8.99181C0.632918 8.97841 0.56631 8.88828 0.579878 8.79327L0.900582 6.62396C0.91415 6.52774 1.00543 6.46197 1.10164 6.47536L1.82322 6.5789C1.92067 6.59229 1.98727 6.68243 1.97371 6.77744L1.653 8.94674C1.63943 9.04296 1.54939 9.10996 1.45195 9.09534Z" fill="#85919C"/>
<path d="M15.5587 9.09534L16.2803 8.99181C16.3777 8.97841 16.4443 8.88828 16.4307 8.79327L16.11 6.62396C16.0965 6.52774 16.0052 6.46197 15.909 6.47536L15.1874 6.5789C15.0899 6.59229 15.0233 6.68243 15.0369 6.77744L15.3576 8.94674C15.3724 9.04296 15.4625 9.10996 15.5587 9.09534Z" fill="#85919C"/>
<path d="M8.50639 11.4219C7.09406 11.4219 2.83857 11.378 2.79663 11.3768C2.43399 11.3768 2.13672 11.0833 2.13672 10.7227V8.19534C2.13672 7.83602 2.43029 7.54369 2.79293 7.54126C2.96808 7.53273 7.11256 7.31836 8.50762 7.31836C9.90268 7.31836 14.0472 7.53273 14.2223 7.54126C14.585 7.54491 14.8785 7.83724 14.8785 8.19534V10.7227C14.8785 11.0833 14.5813 11.3768 14.2161 11.3768C14.1742 11.378 9.91872 11.4219 8.50639 11.4219Z" fill="#0B2239"/>
<path d="M8.48374 5.68808C8.65813 5.68808 8.79951 5.54848 8.79951 5.37627C8.79951 5.20406 8.65813 5.06445 8.48374 5.06445C8.30934 5.06445 8.16797 5.20406 8.16797 5.37627C8.16797 5.54848 8.30934 5.68808 8.48374 5.68808Z" fill="#85919C"/>
<path d="M8.48374 5.64316C8.65813 5.64316 8.79951 5.50356 8.79951 5.33135C8.79951 5.15914 8.65813 5.01953 8.48374 5.01953C8.30934 5.01953 8.16797 5.15914 8.16797 5.33135C8.16797 5.50356 8.30934 5.64316 8.48374 5.64316Z" fill="#0B2239"/>
<path d="M3.46497 5.89939C3.49015 5.72898 3.41056 5.57644 3.28721 5.55866C3.16385 5.54088 3.04344 5.66461 3.01825 5.83501C2.99307 6.00542 3.07266 6.15797 3.19601 6.17574C3.31937 6.19352 3.43978 6.06979 3.46497 5.89939Z" fill="#85919C"/>
<path d="M3.422 5.85447C3.44718 5.68406 3.36759 5.53151 3.24424 5.51374C3.12088 5.49596 3.00047 5.61969 2.97528 5.79009C2.9501 5.96049 3.02969 6.11304 3.15304 6.13082C3.2764 6.1486 3.39681 6.02487 3.422 5.85447Z" fill="#0B2239"/>
<path d="M13.9942 6.17572C14.1176 6.15794 14.1972 6.00539 14.172 5.83499C14.1468 5.66459 14.0264 5.54086 13.903 5.55863C13.7797 5.57641 13.7001 5.72896 13.7253 5.89936C13.7505 6.06976 13.8709 6.19349 13.9942 6.17572Z" fill="#85919C"/>
<path d="M14.0411 6.12982C14.1645 6.11204 14.2441 5.95949 14.2189 5.78909C14.1937 5.61869 14.0733 5.49496 13.9499 5.51274C13.8266 5.53051 13.747 5.68306 13.7722 5.85346C13.7973 6.02387 13.9178 6.14759 14.0411 6.12982Z" fill="#0B2239"/>
<path d="M14.2914 4.97316C13.5279 2.53467 11.2225 0.758789 8.50643 0.758789C5.96301 0.758789 3.78222 2.31543 2.88672 4.51397C2.96566 4.48473 3.03967 4.44576 3.10751 4.39582C3.65024 3.99387 4.1461 3.05721 4.96019 3.10227C5.77182 3.1449 7.17305 2.52127 7.35313 2.25331C7.53446 1.98534 9.56722 1.53954 9.79295 2.34222C10.0187 3.1449 11.8257 3.50179 12.1871 3.45794C12.5485 3.41287 13.317 4.35075 13.7684 4.70763C13.9535 4.85258 14.1373 4.93053 14.2914 4.97316Z" fill="#85919C"/>
<path d="M15.3645 7.82315L15.3238 7.10573C15.3053 6.78904 15.0499 6.54057 14.7305 6.52839C13.307 6.46992 9.85085 6.33594 8.50636 6.33594C7.16187 6.33594 3.70567 6.47114 2.28224 6.52839C1.96154 6.54178 1.70621 6.79026 1.68894 7.10573L1.66797 7.4821C1.86656 7.38831 2.07132 7.26895 2.11449 7.16054C2.20453 6.93764 2.92735 6.66968 3.10867 6.71474C3.28999 6.75981 3.28999 6.71474 3.28999 6.71474C3.28999 6.71474 3.6514 6.84873 4.05845 6.71474C4.46549 6.58076 4.64558 6.44678 5.23271 6.58076C5.81985 6.71474 6.54267 6.62583 6.90407 6.53569C7.26548 6.44678 7.94266 6.44678 8.25966 6.53569C8.57543 6.62461 9.84098 6.58076 9.93102 6.53569C10.0211 6.49063 10.8352 6.58076 10.9252 6.62461C11.0152 6.66846 12.6422 6.66968 12.7779 6.57954C12.9136 6.49063 13.5463 6.49063 14.3136 6.84751C15.082 7.20439 15.3077 7.60634 15.3521 7.78417C15.3546 7.79879 15.3596 7.81219 15.3645 7.82315Z" fill="#85919C"/>
<path d="M8.50579 7.58496C7.09469 7.58496 2.8429 7.80542 2.7985 7.80786C2.58264 7.80786 2.40625 7.98082 2.40625 8.19519V9.01005C2.43955 8.97473 2.46422 8.93819 2.47409 8.90165C2.51973 8.7226 2.60977 8.23295 2.60977 8.18788C2.60977 8.14282 2.56413 7.831 2.88114 7.91992C3.19814 8.00883 3.73964 7.831 3.82968 7.831C3.91973 7.831 3.91972 7.831 3.91972 7.831C3.91972 7.831 4.14545 7.91992 4.41682 7.91992C4.68818 7.91992 5.50104 7.87485 5.59108 7.831C5.68113 7.78594 6.53963 7.78594 6.53963 7.78594C6.53963 7.78594 7.39813 7.65195 7.44377 7.65195C7.4894 7.65195 8.0309 7.69702 8.0309 7.69702C8.0309 7.69702 9.16077 7.56304 9.38649 7.65195C9.61222 7.74087 9.61222 7.78594 9.61222 7.78594C9.61222 7.78594 10.0193 7.831 10.1994 7.78594C10.3807 7.74087 10.5151 7.78594 10.5151 7.78594H10.9666C10.9666 7.78594 11.5093 7.831 11.735 7.78594C11.9608 7.74087 12.1421 7.831 12.1865 7.78594C12.2309 7.74087 12.9549 7.87485 13.0906 7.831C13.2263 7.78594 13.4064 7.87607 13.5877 7.91992C13.769 7.96499 13.9035 7.91992 13.9035 7.91992H14.3105L14.3956 7.85414C14.3401 7.82491 14.2772 7.80786 14.2094 7.80786C14.1687 7.80542 9.91689 7.58496 8.50579 7.58496Z" fill="#85919C"/>
<path d="M14.5757 10.7574C14.5227 10.6514 14.2674 10.7294 14.1107 10.7964C13.9541 10.8634 13.5445 11.0412 13.3176 10.8634C13.0919 10.6843 12.5491 10.8634 12.4591 10.9084C12.369 10.9535 11.4649 10.9084 11.0134 10.9084C10.562 10.9084 10.3363 10.9084 10.1549 10.9084C9.97362 10.9084 10.1549 10.9084 9.88358 11.0424C9.61222 11.1764 9.11512 10.9535 8.57363 10.9084C8.0309 10.8634 7.85081 10.9084 7.44377 10.9535C7.03672 10.9986 6.58527 10.9986 6.2695 11.0424C5.95373 11.0863 5.59232 10.9535 5.32095 10.9084C5.04959 10.8634 4.59814 10.9084 4.32677 10.9084C4.05541 10.9084 2.92678 10.9535 2.74546 10.9084C2.56413 10.8634 2.60977 10.7294 2.60977 10.4176C2.60977 10.3043 2.51973 10.2032 2.40625 10.1191V10.7221C2.40625 10.9352 2.5814 11.1094 2.7985 11.1094C2.84167 11.1094 7.09469 11.1545 8.50579 11.1545C9.91688 11.1545 14.1699 11.1106 14.2131 11.1094C14.4006 11.1094 14.5572 10.9791 14.5955 10.8061C14.5868 10.783 14.5794 10.7671 14.5757 10.7574Z" fill="#85919C"/>
<path d="M1.13156 6.57129C1.05755 6.57129 0.993413 6.6261 0.983545 6.69796L0.681344 8.74425C0.669009 8.82586 0.726982 8.90137 0.808392 8.91234L0.981078 8.9367C0.960109 8.78079 0.930506 8.592 0.986012 8.45436C1.07606 8.23146 0.986012 8.14254 0.986012 7.91843C0.986012 7.69431 0.895968 7.69553 1.16733 7.47263C1.4387 7.24973 1.52874 7.07068 1.52874 7.07068C1.52874 7.07068 1.4387 6.89163 1.4831 6.7138C1.49297 6.67604 1.49544 6.64559 1.4942 6.62123L1.15376 6.57251C1.14636 6.57129 1.13896 6.57129 1.13156 6.57129Z" fill="#85919C"/>
<path d="M16.03 6.69796C16.0189 6.6261 15.956 6.57129 15.882 6.57129C15.8746 6.57129 15.8672 6.57129 15.8597 6.57251L15.2627 6.65899C15.2615 6.65899 15.2603 6.6602 15.2578 6.6602C15.2775 6.74059 15.3072 6.82342 15.3491 6.89407C15.4848 7.11697 15.4391 6.93913 15.6649 7.07312C15.8906 7.2071 15.9362 7.02805 15.9806 7.47507C16.0263 7.92086 16.0263 8.09991 15.9806 8.27774C15.935 8.45679 16.1163 8.81368 16.1163 8.81368C16.1163 8.81368 15.935 8.81368 15.8449 8.94766C15.84 8.95497 15.8363 8.96106 15.8326 8.96837L16.2027 8.91477C16.2853 8.90259 16.342 8.82707 16.3297 8.74668L16.03 6.69796Z" fill="#85919C"/>
<mask id="mask0_622_65151" style="mask-type:luminance" maskUnits="userSpaceOnUse" x="15" y="6" width="2" height="4">
<path d="M15.5587 9.09534L16.2803 8.99181C16.3777 8.97841 16.4443 8.88828 16.4307 8.79327L16.11 6.62396C16.0965 6.52774 16.0052 6.46197 15.909 6.47536L15.1874 6.5789C15.0899 6.59229 15.0233 6.68243 15.0369 6.77744L15.3576 8.94674C15.3724 9.04296 15.4625 9.10996 15.5587 9.09534Z" fill="white"/>
</mask>
<g mask="url(#mask0_622_65151)">
<path d="M16.3236 6.53837L15.9584 6.44336L15.5625 7.40682L16.3236 6.53837Z" fill="#0B2239"/>
</g>
<mask id="mask1_622_65151" style="mask-type:luminance" maskUnits="userSpaceOnUse" x="0" y="6" width="2" height="4">
<path d="M1.45195 9.09534L0.730362 8.99181C0.632918 8.97841 0.56631 8.88828 0.579878 8.79327L0.900582 6.62396C0.91415 6.52774 1.00543 6.46197 1.10164 6.47536L1.82322 6.5789C1.92067 6.59229 1.98727 6.68243 1.97371 6.77744L1.653 8.94674C1.63943 9.04296 1.54939 9.10996 1.45195 9.09534Z" fill="white"/>
</mask>
<g mask="url(#mask1_622_65151)">
<path d="M0.201274 8.39648L0.191406 8.78016L1.26576 8.94338L0.201274 8.39648Z" fill="#0B2239"/>
</g>
<path d="M2.88281 9.21327V8.27661L7.76244 8.05371C7.76244 8.05371 5.67047 8.50316 5.1117 8.48002C4.55417 8.45566 3.83136 8.36674 3.74131 8.54458C3.65127 8.72363 3.63647 8.98063 3.48598 9.03057C3.33426 9.07929 2.88281 9.21327 2.88281 9.21327Z" fill="#85919C"/>
<path d="M14.0648 10.1625L14.087 10.6412L11.6016 10.7276C11.6016 10.7276 12.1443 10.5961 12.4144 10.5961C12.6846 10.5961 12.6401 10.417 12.8215 10.3732C13.0028 10.3281 13.1829 10.4183 13.3642 10.3732C13.5455 10.3281 13.7737 10.1734 13.8169 10.1613C13.8601 10.1491 13.9513 10.1052 13.9513 10.1052L14.087 9.5498L14.0648 10.1625Z" fill="#85919C"/>
<path d="M1.88234 18.1612C1.87 18.6058 1.85767 19.0503 1.84533 19.4949C1.50736 19.2671 1.17679 19.015 0.867188 18.7519C0.867188 17.5619 0.867188 16.3719 0.867188 15.1807C1.91318 15.1807 2.9604 15.1807 4.00638 15.1807C4.15687 15.4182 4.23088 15.54 4.38136 15.7921C4.34929 16.6654 4.31722 17.5388 4.28638 18.4121C4.1174 18.6204 4.03352 18.719 3.86577 18.909C3.18736 18.6947 2.53238 18.4474 1.88234 18.1612ZM3.10965 17.4742C3.15035 17.4279 3.17132 17.4048 3.21326 17.3585C3.22559 17.0442 3.23053 16.8871 3.24286 16.5729C3.20586 16.512 3.18736 16.4815 3.14912 16.4218C2.7433 16.3707 2.33749 16.3134 1.93414 16.2489C1.92428 16.6118 1.91934 16.7933 1.90947 17.1551C2.30542 17.2732 2.70753 17.3804 3.10965 17.4742Z" fill="#85919C"/>
<path d="M5.95469 15.1807C5.91522 16.6472 5.87698 18.1137 5.83751 19.5802C5.87698 19.6545 5.89672 19.691 5.93619 19.7653C6.31363 19.8335 6.69724 19.8859 7.07839 19.9237C7.12156 19.8591 7.14253 19.8262 7.18446 19.7604C7.20667 18.2343 7.22887 16.7069 7.25107 15.1807C7.69389 15.1807 7.91592 15.1807 8.35873 15.1807C8.35257 17.0796 8.34763 18.9797 8.34147 20.8786C8.17248 21.1563 8.08737 21.2939 7.91468 21.5643C6.9316 21.4864 6.0028 21.3171 5.05672 21.0455C4.9013 20.7373 4.82483 20.5838 4.67188 20.2818C4.72985 18.5814 4.78906 16.881 4.84703 15.1807C5.29108 15.1807 5.51187 15.1807 5.95469 15.1807Z" fill="#85919C"/>
<path d="M12.5191 18.3595C12.5413 19.0038 12.5635 19.6481 12.5857 20.2925C12.4328 20.5946 12.355 20.748 12.1996 21.0562C11.1018 21.368 10.0151 21.541 8.87418 21.5848C8.86924 19.4508 8.86431 17.3156 8.85938 15.1816C9.9103 15.1816 10.9625 15.1816 12.0134 15.1816C12.1799 15.4399 12.2638 15.5665 12.4328 15.8126C12.455 16.4569 12.4772 17.1013 12.4994 17.7456C12.4093 17.8832 12.3637 17.9527 12.2736 18.0927C12.3711 18.2011 12.4204 18.2547 12.5191 18.3595ZM9.99171 17.709C10.416 17.6896 10.8428 17.6591 11.2659 17.6189C11.3041 17.5483 11.3239 17.5129 11.3621 17.4423C11.3559 17.2048 11.3522 17.0866 11.3461 16.8503C11.3041 16.7858 11.2832 16.7541 11.2412 16.6896C10.8206 16.7151 10.3988 16.7334 9.9769 16.7456C9.98431 17.1305 9.98677 17.3229 9.99171 17.709ZM10.0225 19.9417C10.4592 19.8966 10.8872 19.8406 11.3214 19.7724C11.3609 19.6981 11.3806 19.6615 11.4201 19.5872C11.4139 19.3497 11.4102 19.2316 11.404 18.9953C11.3609 18.9344 11.3399 18.9039 11.298 18.843C10.8724 18.9039 10.4395 18.949 10.0102 18.9782C10.0139 19.3631 10.0176 19.5556 10.0225 19.9417Z" fill="#85919C"/>
<path d="M14.8329 18.0223C14.8181 17.5838 14.8107 17.3646 14.7947 16.9249C15.3424 16.8006 15.8876 16.6691 16.4291 16.5144C16.4291 17.2598 16.4291 18.0053 16.4291 18.7507C15.5225 19.484 14.5702 20.0796 13.5082 20.5704C13.3417 20.4023 13.2566 20.3134 13.0876 20.1259C13.0345 18.6813 12.9815 17.2355 12.9297 15.7909C13.0802 15.54 13.1542 15.417 13.3047 15.1807C14.2803 15.1807 15.2548 15.1807 16.2305 15.1807C16.2329 15.5485 16.2342 15.7312 16.2366 16.0991C15.5434 16.2209 14.849 16.3268 14.1508 16.4194C14.1138 16.4791 14.0953 16.5095 14.0571 16.5704C14.0855 17.3305 14.1151 18.0905 14.1434 18.8506C14.1841 18.892 14.2051 18.9115 14.2458 18.9517C14.6504 18.7848 15.0414 18.6106 15.4349 18.4194C15.4275 18.1709 15.425 18.0467 15.4176 17.7982C15.1857 17.8932 15.0698 17.9383 14.8329 18.0223Z" fill="#85919C"/>
<path d="M3.91491 15.3408H1.02734V16.7111C1.12726 16.6478 1.21977 16.582 1.29624 16.5126C1.78223 16.0729 1.09395 15.7123 2.14734 15.7123C3.20073 15.7123 3.24143 15.5917 3.72866 15.7123C3.96178 15.7696 4.06539 16.0083 4.20231 16.2117L4.21588 15.8341C4.10117 15.6417 4.02962 15.5247 3.91491 15.3408Z" fill="#85919C"/>
<path d="M5.77421 15.9961L5.79148 15.3408H5.00699L4.96875 16.4651C5.4091 16.3201 5.60399 16.1057 5.77421 15.9961Z" fill="#85919C"/>
<path d="M7.41447 15.3401L7.39844 16.4351C7.76231 16.4692 8.07808 16.4132 8.16936 16.2463C8.17676 16.2317 8.18663 16.2183 8.19773 16.2049L8.2002 15.3389H7.41447V15.3401Z" fill="#85919C"/>
<path d="M11.9219 15.3398H9.01953L9.02077 15.9513C9.32173 15.9415 9.63627 15.9842 9.84966 16.0719C10.3357 16.2716 11.1066 15.7515 11.5926 15.6711C12.0465 15.5968 11.5839 15.8283 12.2796 16.173L12.2685 15.8624C12.1353 15.6651 12.0539 15.5433 11.9219 15.3398Z" fill="#85919C"/>
<path d="M13.3947 15.3398C13.2862 15.5116 13.2146 15.6285 13.0938 15.8319L13.1135 16.3715C13.5094 16.3204 13.7228 15.9988 14.2298 15.8319C14.717 15.6711 15.5274 15.8137 16.0738 15.9391L16.0701 15.3411H13.3947V15.3398Z" fill="#85919C"/>
<path d="M1.33695 18.2331C1.41836 18.5133 1.30611 18.5851 1.66628 18.6692C1.67985 18.6728 1.69219 18.674 1.70452 18.6765L1.72549 17.9176L1.94752 18.0151C2.4187 18.2221 2.88866 18.4073 3.37342 18.5766C3.59791 18.5279 3.5165 18.3525 3.93218 18.5863C3.99139 18.5169 4.04936 18.4463 4.1246 18.3537L4.20231 16.2112C4.06663 16.009 3.96302 15.7703 3.72866 15.7118C3.24267 15.5912 3.20196 15.7118 2.14734 15.7118C1.09395 15.7118 1.78223 16.0723 1.29624 16.512C1.21977 16.5815 1.12726 16.6485 1.02734 16.7106V18.0175C1.19633 18.0882 1.31721 18.1625 1.33695 18.2331ZM1.7773 16.0602L1.95985 16.0894C2.35826 16.1527 2.76531 16.2112 3.16866 16.2611L3.24637 16.2709L3.28707 16.3366C3.32408 16.3975 3.34381 16.428 3.38082 16.4889L3.40549 16.5303L3.37218 17.4207L3.33518 17.4633C3.29324 17.5108 3.27227 17.534 3.23033 17.5815L3.16619 17.6533L3.07245 17.6314C2.6654 17.5364 2.25835 17.428 1.86241 17.3086L1.74399 17.2733L1.7773 16.0602Z" fill="#85919C"/>
<path d="M7.25787 20.8343C7.58844 20.8343 7.92888 20.8136 8.18421 20.7929L8.19778 16.2058C8.18668 16.2192 8.17681 16.2326 8.16941 16.2472C8.07813 16.4141 7.7636 16.4701 7.39849 16.436L7.34915 19.8075L7.32448 19.8465C7.28131 19.9123 7.26034 19.9452 7.21717 20.011L7.16413 20.0926L7.06545 20.0828C6.67937 20.0451 6.29082 19.9915 5.90968 19.9233L5.83197 19.9086L5.67779 19.6175L5.774 15.9951C5.60255 16.1047 5.40766 16.3191 4.96854 16.4641L4.87109 19.2935C5.03021 19.4714 5.16096 19.6675 5.39162 19.9537C5.87884 20.5542 6.60906 20.8343 7.25787 20.8343Z" fill="#85919C"/>
<path d="M11.1448 20.8341C11.5087 20.7622 12.1316 20.6063 12.2562 20.5759C12.3055 20.4784 12.3548 20.3798 12.4178 20.2568L12.3548 18.4249C12.2821 18.3469 12.2315 18.2921 12.1476 18.1983L12.0662 18.1082L12.1316 18.0059C12.213 17.8804 12.2574 17.811 12.3302 17.7001L12.2784 16.1739C11.5827 15.8292 12.0452 15.5978 11.5913 15.6721C11.1053 15.7525 10.3344 16.2726 9.84843 16.0728C9.63504 15.9851 9.3205 15.9437 9.01953 15.9523L9.03063 20.6551C9.16385 20.666 9.31927 20.7147 9.48332 20.8365C9.96931 21.1946 10.7402 20.9145 11.1448 20.8341ZM11.5605 18.9425L11.579 19.6246L11.4236 19.9182L11.3434 19.9303C10.9055 19.9998 10.4775 20.0558 10.0359 20.1009L9.85953 20.1191L9.84226 18.828L9.99521 18.8183C10.4208 18.7903 10.85 18.744 11.2706 18.6843L11.3705 18.6697L11.4273 18.7525C11.4692 18.8134 11.4902 18.8439 11.5334 18.9035L11.5605 18.9425ZM9.97054 16.5844C10.3887 16.5722 10.8118 16.554 11.2287 16.5284L11.3237 16.5223L11.3755 16.6015C11.4174 16.666 11.4384 16.6977 11.4803 16.7622L11.505 16.8L11.5223 17.4809L11.3644 17.7696L11.278 17.7781C10.8537 17.8195 10.422 17.8499 9.99521 17.8694L9.82746 17.8767L9.81019 16.5893L9.97054 16.5844Z" fill="#85919C"/>
<path d="M14.8784 18.9941C15.0807 18.7542 15.5272 18.7542 15.8923 18.714C16.2574 18.6738 15.954 18.5861 16.2673 18.01V16.7274C15.8849 16.8333 15.4705 16.9357 14.9623 17.0526L14.9882 17.7968C15.1066 17.7529 15.2065 17.714 15.357 17.6531L15.5741 17.5654L15.6 18.5203L15.5062 18.5654C15.109 18.7578 14.7168 18.9332 14.3085 19.1013L14.2086 19.1427L14.1321 19.0684C14.0902 19.0282 14.0692 19.0075 14.0285 18.9649L13.9841 18.921L13.8941 16.5313L13.9187 16.4899C13.9557 16.4277 13.9755 16.3973 14.0125 16.3376L14.0532 16.273L14.1297 16.2633C14.7809 16.1768 15.4347 16.0769 16.0736 15.9673V15.9417C15.5272 15.8175 14.7168 15.675 14.2296 15.8346C13.7226 16.0014 13.5092 16.323 13.1133 16.3741L13.2477 20.066C13.2539 20.0733 13.2601 20.0794 13.2662 20.0867C13.3624 20.0465 13.4661 20.0039 13.5808 19.9576C14.6761 19.5142 14.6761 19.2341 14.8784 18.9941Z" fill="#85919C"/>
<path d="M3.37109 18.5758C3.51664 18.6269 3.66343 18.6756 3.81144 18.7232C3.85462 18.6732 3.89285 18.6294 3.93109 18.5855C3.51418 18.3517 3.59559 18.5271 3.37109 18.5758Z" fill="#85919C"/>
<path d="M1.68972 19.1908L1.70452 18.6756C1.69219 18.6743 1.67985 18.6719 1.66628 18.6682C1.30611 18.5842 1.41836 18.5123 1.33695 18.2322C1.31598 18.1603 1.1951 18.0872 1.02734 18.0166V18.6768C1.24074 18.857 1.46276 19.0288 1.68972 19.1908Z" fill="#85919C"/>
<path d="M5.16898 20.9054L5.17144 20.9103C6.04968 21.1587 6.92175 21.3183 7.83082 21.3963C7.95786 21.1941 8.03927 21.0637 8.17989 20.8335V20.7933C7.92456 20.814 7.58412 20.8347 7.25355 20.8347C6.60474 20.8347 5.87576 20.5546 5.38853 19.9541C5.15664 19.6679 5.02589 19.473 4.86801 19.2939L4.83594 20.2452C4.96545 20.5022 5.04069 20.6533 5.16898 20.9054Z" fill="#85919C"/>
<path d="M12.0829 20.9209C12.1507 20.7869 12.2025 20.6821 12.2568 20.5762C12.1322 20.6078 11.5093 20.7625 11.1454 20.8344C10.7396 20.9148 9.96993 21.1949 9.48394 20.8344C9.31988 20.7126 9.16447 20.6639 9.03125 20.6529L9.03248 21.4154C10.076 21.3642 11.0764 21.2022 12.0829 20.9209Z" fill="#85919C"/>
<path d="M16.2667 18.675V18.0088C15.9534 18.5849 16.2556 18.6726 15.8917 18.7128C15.5266 18.753 15.0813 18.753 14.8778 18.993C14.6755 19.2329 14.6755 19.5131 13.5802 19.954C13.4654 20.0003 13.3618 20.0429 13.2656 20.0831C13.3705 20.2 13.4445 20.2768 13.5419 20.3766C14.5213 19.915 15.4143 19.3571 16.2667 18.675Z" fill="#85919C"/>
<path d="M1.1108 14.8906L0.925781 15.1805L1.72384 15.9162L1.1108 14.8906Z" fill="#0B2239"/>
<path d="M6.31452 18.9894L5.97038 18.959L5.67188 19.9955L6.31452 18.9894Z" fill="#0B2239"/>
<path d="M10.2617 16.7937L10.522 17.0191L11.3829 16.3564L10.2617 16.7937Z" fill="#0B2239"/>
<path d="M7.68255 14.7383L7.45312 14.9941L8.1192 15.8479L7.68255 14.7383Z" fill="#0B2239"/>
<path d="M12.4298 21.3336L12.531 21.0072L11.5664 20.5029L12.4298 21.3336Z" fill="#0B2239"/>
<path d="M16.5458 15.0085L16.2325 14.8623L15.5898 15.7332L16.5458 15.0085Z" fill="#0B2239"/>
<path d="M12.8069 19.3115L12.7539 19.6501L13.7814 20.0119L12.8069 19.3115Z" fill="#0B2239"/>
</g>
<defs>
<clipPath id="clip0_622_65151">
<rect width="17.0133" height="22" fill="white"/>
</clipPath>
</defs>
</svg>
