<svg width="20" height="20" viewBox="0 0 20 20" fill="none" xmlns="http://www.w3.org/2000/svg">
<path d="M10 20C15.5228 20 20 15.5228 20 10C20 4.47715 15.5228 0 10 0C4.47715 0 0 4.47715 0 10C0 15.5228 4.47715 20 10 20Z" fill="#BD7D00"/>
<path d="M10 20C15.5228 20 20 15.5228 20 10C20 4.47715 15.5228 0 10 0C4.47715 0 0 4.47715 0 10C0 15.5228 4.47715 20 10 20Z" fill="#FFBB00"/>
<path d="M16.858 2.72363C18.5466 4.51422 19.582 6.92755 19.582 9.58297C19.582 15.1058 15.1048 19.583 9.58199 19.583C6.92657 19.583 4.51324 18.5475 2.72266 16.859C4.54607 18.7925 7.13124 19.9996 9.99866 19.9996C15.5215 19.9996 19.9987 15.5225 19.9987 9.99963C19.9987 7.13222 18.7915 4.54705 16.858 2.72363Z" fill="#BD7D00"/>
<path d="M10.0004 17.6062C14.2009 17.6062 17.6062 14.2009 17.6062 10.0004C17.6062 5.79978 14.2009 2.39453 10.0004 2.39453C5.79978 2.39453 2.39453 5.79978 2.39453 10.0004C2.39453 14.2009 5.79978 17.6062 10.0004 17.6062Z" fill="#FFCD43"/>
<path d="M12.7433 12.9754C14.2717 12.2333 15.2986 10.8557 15.2986 9.27868C15.2986 6.91567 12.9932 5.00004 10.1493 5H10.1493H10.1492C7.30537 5.00004 5 6.91563 5 9.27868C5 10.8557 6.02689 12.2333 7.55524 12.9754C7.68924 13.0404 7.75589 13.1836 7.71385 13.3185L7.42443 14.247C7.39426 14.3079 7.37764 14.3738 7.37764 14.4427C7.37764 14.7504 7.70711 14.9999 8.11356 14.9999C8.4189 14.9999 8.68073 14.8591 8.79215 14.6586C8.90357 14.8591 9.1654 14.9999 9.47074 14.9999C9.77604 14.9999 10.0379 14.8591 10.1493 14.6587C10.2607 14.8591 10.5225 14.9999 10.8278 14.9999C11.1332 14.9999 11.395 14.8591 11.5064 14.6586C11.6178 14.8591 11.8797 14.9999 12.185 14.9999C12.5915 14.9999 12.9209 14.7504 12.9209 14.4427C12.9209 14.3738 12.9043 14.3079 12.8741 14.247L12.5847 13.3185C12.5427 13.1836 12.6093 13.0404 12.7433 12.9754Z" fill="white"/>
<path d="M12.5847 13.3184L12.8741 14.247C12.9042 14.3078 12.921 14.3737 12.921 14.4428C12.921 14.7506 12.5914 14.9998 12.1851 14.9998C12.0445 14.9998 11.9131 14.97 11.8014 14.918C12.0398 14.8049 12.1978 14.6041 12.1978 14.3752C12.1978 14.2961 12.1789 14.2201 12.144 14.1501L11.8112 13.0828C11.763 12.9277 11.8395 12.763 11.9937 12.6882C13.7509 11.835 14.9317 10.2511 14.9317 8.43805C14.9317 8.10607 14.8921 7.78212 14.8168 7.46875C15.1257 8.01839 15.2985 8.6318 15.2985 9.27857C15.2985 10.8557 14.2716 12.2334 12.7433 12.9753C12.6094 13.0405 12.5427 13.1835 12.5847 13.3184Z" fill="#EAEAEA"/>
<path d="M10.7388 12.3622C10.7049 12.0211 10.1494 11.666 10.1494 11.666H10.1491C10.1491 11.666 9.59363 12.0211 9.55978 12.3622C9.54083 12.5531 9.75111 12.724 10.0407 12.7533C10.0748 12.7568 10.2238 12.7568 10.2578 12.7533C10.5474 12.724 10.7577 12.5531 10.7388 12.3622Z" fill="#FFCD43"/>
<path d="M8.15585 11.466C8.97542 11.466 9.63982 10.8016 9.63982 9.98202C9.63982 9.16244 8.97542 8.49805 8.15585 8.49805C7.33627 8.49805 6.67188 9.16244 6.67188 9.98202C6.67188 10.8016 7.33627 11.466 8.15585 11.466Z" fill="#FFCD43"/>
<path d="M12.1441 11.466C12.9637 11.466 13.6281 10.8016 13.6281 9.98202C13.6281 9.16244 12.9637 8.49805 12.1441 8.49805C11.3246 8.49805 10.6602 9.16244 10.6602 9.98202C10.6602 10.8016 11.3246 11.466 12.1441 11.466Z" fill="#FFCD43"/>
<path d="M9.6384 9.98322C9.6384 10.8028 8.97419 11.4673 8.15464 11.4673C7.83009 11.4673 7.52941 11.3627 7.28516 11.1858C7.41894 11.2254 7.56041 11.2466 7.70719 11.2466C8.52673 11.2466 9.19125 10.5824 9.19125 9.76288C9.19125 9.26819 8.94906 8.82993 8.57694 8.56055C9.19068 8.74221 9.6384 9.31041 9.6384 9.98322Z" fill="#BD7D00"/>
<path d="M13.627 9.98322C13.627 10.8028 12.9625 11.4673 12.1429 11.4673C11.8181 11.4673 11.5177 11.3627 11.2734 11.1858C11.4072 11.2254 11.549 11.2466 11.6958 11.2466C12.5153 11.2466 13.1795 10.5824 13.1795 9.76288C13.1795 9.26819 12.9376 8.82993 12.5652 8.56055C13.1793 8.74221 13.627 9.31041 13.627 9.98322Z" fill="#BD7D00"/>
<path d="M2.89323 10.1671C2.80123 10.1671 2.72656 10.0924 2.72656 10.0004C2.72656 7.06989 4.47456 4.43856 7.17973 3.29664C7.26473 3.26081 7.36231 3.30064 7.39815 3.38539C7.4339 3.47022 7.39423 3.56789 7.3094 3.60372C4.7279 4.69331 3.0599 7.20422 3.0599 10.0004C3.0599 10.0924 2.98523 10.1671 2.89323 10.1671ZM7.8699 3.38714C7.79923 3.38714 7.73365 3.34181 7.71106 3.27081C7.68323 3.18306 7.73173 3.08939 7.8194 3.06147L7.8394 3.05522C7.9274 3.02822 8.02056 3.07772 8.04765 3.16572C8.07465 3.25372 8.02515 3.34689 7.93715 3.37389L7.9204 3.37914C7.90365 3.38447 7.88665 3.38714 7.8699 3.38714Z" fill="#FFBB00"/>
<path d="M9.9987 2.13276C9.9067 2.13276 9.83203 2.05809 9.83203 1.96609V1.12467C9.83203 1.03267 9.9067 0.958008 9.9987 0.958008C10.0907 0.958008 10.1654 1.03267 10.1654 1.12467V1.96609C10.1654 2.05809 10.0907 2.13276 9.9987 2.13276Z" fill="#BD7D00"/>
<path d="M9.9987 19.041C9.9067 19.041 9.83203 18.9663 9.83203 18.8743V18.0329C9.83203 17.9409 9.9067 17.8662 9.9987 17.8662C10.0907 17.8662 10.1654 17.9409 10.1654 18.0329V18.8743C10.1654 18.9663 10.0907 19.041 9.9987 19.041Z" fill="#BD7D00"/>
<path d="M1.96511 10.1663H1.1237C1.0317 10.1663 0.957031 10.0917 0.957031 9.99967C0.957031 9.90767 1.0317 9.83301 1.1237 9.83301H1.96511C2.05711 9.83301 2.13178 9.90767 2.13178 9.99967C2.13178 10.0917 2.0572 10.1663 1.96511 10.1663Z" fill="#BD7D00"/>
<path d="M18.8753 10.1663H18.0339C17.9419 10.1663 17.8672 10.0917 17.8672 9.99967C17.8672 9.90767 17.9419 9.83301 18.0339 9.83301H18.8753C18.9673 9.83301 19.0419 9.90767 19.0419 9.99967C19.0419 10.0917 18.9673 10.1663 18.8753 10.1663Z" fill="#BD7D00"/>
<path d="M17.7564 8.08736C17.6828 8.08736 17.6155 8.03819 17.5956 7.96378C17.5717 7.87494 17.6245 7.78353 17.7134 7.75969L18.5262 7.54194C18.6148 7.51786 18.7065 7.57086 18.7302 7.65978C18.7541 7.74861 18.7013 7.84003 18.6124 7.86386L17.7997 8.08161C17.7852 8.08544 17.7707 8.08736 17.7564 8.08736Z" fill="#BD7D00"/>
<path d="M1.42437 12.4634C1.35079 12.4634 1.28345 12.4142 1.26354 12.3398C1.2397 12.2509 1.29245 12.1595 1.38137 12.1357L2.19412 11.9179C2.28287 11.8938 2.37437 11.9469 2.3982 12.0358C2.42204 12.1246 2.36929 12.216 2.28037 12.2399L1.46762 12.4576C1.4532 12.4615 1.4387 12.4634 1.42437 12.4634Z" fill="#BD7D00"/>
<path d="M7.91946 2.40699C7.84588 2.40699 7.77855 2.35783 7.75863 2.28341L7.54088 1.47066C7.51705 1.38183 7.5698 1.29041 7.65872 1.26658C7.74738 1.24241 7.83905 1.29558 7.8628 1.38441L8.08055 2.19716C8.10438 2.28599 8.05163 2.37741 7.96272 2.40124C7.9483 2.40508 7.9338 2.40699 7.91946 2.40699Z" fill="#BD7D00"/>
<path d="M12.2945 18.739C12.2209 18.739 12.1535 18.6898 12.1336 18.6154L11.9159 17.8027C11.892 17.7138 11.9448 17.6224 12.0337 17.5986C12.1225 17.5745 12.214 17.6275 12.2378 17.7164L12.4555 18.5292C12.4794 18.618 12.4266 18.7094 12.3377 18.7333C12.3233 18.7372 12.3087 18.739 12.2945 18.739Z" fill="#BD7D00"/>
<path d="M16.9559 6.1496C16.8983 6.1496 16.8423 6.11976 16.8114 6.06626C16.7654 5.9866 16.7927 5.88459 16.8724 5.83859L17.6011 5.41784C17.6808 5.37184 17.7827 5.39918 17.8288 5.47884C17.8748 5.55851 17.8475 5.66051 17.7678 5.70651L17.0391 6.12726C17.0128 6.14243 16.9843 6.1496 16.9559 6.1496Z" fill="#BD7D00"/>
<path d="M2.31139 14.6037C2.2538 14.6037 2.1978 14.5739 2.16689 14.5204C2.12089 14.4407 2.14814 14.3387 2.22789 14.2927L2.95655 13.872C3.03639 13.826 3.13814 13.8532 3.18422 13.933C3.23022 14.0126 3.20297 14.1146 3.12322 14.1606L2.39455 14.5814C2.3683 14.5965 2.33964 14.6037 2.31139 14.6037Z" fill="#BD7D00"/>
<path d="M5.98205 3.20946C5.92447 3.20946 5.86839 3.17963 5.83755 3.12613L5.41689 2.39746C5.37089 2.31771 5.39814 2.2158 5.47789 2.1698C5.55755 2.1238 5.65955 2.15113 5.70555 2.2308L6.12622 2.95946C6.17222 3.03921 6.14497 3.14113 6.06522 3.18713C6.03897 3.2023 6.01039 3.20946 5.98205 3.20946Z" fill="#BD7D00"/>
<path d="M14.4352 17.853C14.3776 17.853 14.3215 17.8232 14.2907 17.7697L13.87 17.041C13.824 16.9613 13.8513 16.8594 13.931 16.8134C14.0108 16.7674 14.1127 16.7946 14.1587 16.8744L14.5793 17.603C14.6253 17.6828 14.5981 17.7847 14.5183 17.8307C14.4921 17.846 14.4634 17.853 14.4352 17.853Z" fill="#BD7D00"/>
<path d="M15.6784 4.48593C15.6357 4.48593 15.593 4.46968 15.5605 4.4371C15.4954 4.37201 15.4954 4.26651 15.5605 4.20143L16.1555 3.60643C16.2205 3.54135 16.3262 3.54135 16.3912 3.60643C16.4563 3.67151 16.4563 3.77701 16.3912 3.8421L15.7962 4.4371C15.7637 4.46968 15.721 4.48593 15.6784 4.48593Z" fill="#BD7D00"/>
<path d="M3.72133 16.442C3.67867 16.442 3.636 16.4257 3.6035 16.3931C3.53842 16.3281 3.53842 16.2226 3.6035 16.1575L4.1985 15.5625C4.2635 15.4974 4.36917 15.4974 4.43417 15.5625C4.49925 15.6276 4.49925 15.7331 4.43417 15.7982L3.83917 16.3931C3.80667 16.4256 3.764 16.442 3.72133 16.442Z" fill="#BD7D00"/>
<path d="M4.31633 4.48593C4.27367 4.48593 4.23108 4.46968 4.1985 4.4371L3.6035 3.8421C3.53842 3.77701 3.53842 3.67151 3.6035 3.60643C3.6685 3.54135 3.77408 3.54135 3.83917 3.60643L4.43417 4.20143C4.49925 4.26651 4.49925 4.37201 4.43417 4.4371C4.40167 4.46968 4.359 4.48593 4.31633 4.48593Z" fill="#BD7D00"/>
<path d="M16.2734 16.442C16.2307 16.442 16.1881 16.4257 16.1555 16.3931L15.5605 15.7982C15.4954 15.7331 15.4954 15.6276 15.5605 15.5625C15.6255 15.4974 15.7311 15.4974 15.7962 15.5625L16.3912 16.1575C16.4563 16.2226 16.4563 16.3281 16.3912 16.3931C16.3587 16.4256 16.316 16.442 16.2734 16.442Z" fill="#BD7D00"/>
<path d="M14.0142 3.20946C13.9859 3.20946 13.9573 3.2023 13.931 3.18713C13.8513 3.14105 13.824 3.03921 13.87 2.95946L14.2907 2.2308C14.3366 2.15113 14.4386 2.1238 14.5183 2.1698C14.5981 2.21588 14.6253 2.31771 14.5793 2.39746L14.1587 3.12613C14.1278 3.17955 14.0718 3.20946 14.0142 3.20946Z" fill="#BD7D00"/>
<path d="M5.56105 17.853C5.5328 17.853 5.50414 17.8459 5.47789 17.8307C5.39814 17.7846 5.37089 17.6828 5.41689 17.603L5.83755 16.8744C5.88355 16.7946 5.98555 16.7674 6.06522 16.8134C6.14497 16.8595 6.17222 16.9613 6.12622 17.041L5.70555 17.7697C5.67472 17.8232 5.61864 17.853 5.56105 17.853Z" fill="#BD7D00"/>
<path d="M3.0398 6.1496C3.01155 6.1496 2.98289 6.14243 2.95664 6.12726L2.22789 5.70651C2.14814 5.66043 2.12089 5.55859 2.16689 5.47884C2.21289 5.39918 2.3148 5.37184 2.39455 5.41784L3.1233 5.83859C3.20305 5.88468 3.2303 5.98651 3.1843 6.06626C3.15347 6.11968 3.09739 6.1496 3.0398 6.1496Z" fill="#BD7D00"/>
<path d="M17.6843 14.6037C17.6561 14.6037 17.6274 14.5965 17.6012 14.5814L16.8724 14.1606C16.7927 14.1145 16.7654 14.0127 16.8114 13.933C16.8574 13.8532 16.9593 13.826 17.0391 13.872L17.7678 14.2927C17.8476 14.3388 17.8748 14.4406 17.8288 14.5204C17.798 14.5739 17.7419 14.6037 17.6843 14.6037Z" fill="#BD7D00"/>
<path d="M12.077 2.40703C12.0627 2.40703 12.0481 2.40519 12.0337 2.40128C11.9448 2.37744 11.892 2.28603 11.9159 2.19719L12.1336 1.38444C12.1575 1.29553 12.2486 1.24236 12.3377 1.26661C12.4266 1.29044 12.4794 1.38186 12.4555 1.47069L12.2378 2.28344C12.2179 2.35786 12.1505 2.40703 12.077 2.40703Z" fill="#BD7D00"/>
<path d="M7.70196 18.739C7.68771 18.739 7.67313 18.7372 7.65872 18.7333C7.5698 18.7094 7.51705 18.618 7.54088 18.5292L7.75863 17.7164C7.78246 17.6275 7.87363 17.5745 7.96272 17.5986C8.05163 17.6224 8.10438 17.7138 8.08055 17.8027L7.8628 18.6154C7.84288 18.6898 7.77555 18.739 7.70196 18.739Z" fill="#BD7D00"/>
<path d="M2.23737 8.08739C2.22312 8.08739 2.20854 8.08556 2.19412 8.08164L1.38137 7.86389C1.29245 7.84006 1.2397 7.74864 1.26354 7.65981C1.28737 7.57089 1.37854 7.51781 1.46762 7.54197L2.28037 7.75972C2.36929 7.78356 2.42204 7.87497 2.3982 7.96381C2.37829 8.03822 2.31095 8.08739 2.23737 8.08739Z" fill="#BD7D00"/>
<path d="M18.5694 12.4634C18.5552 12.4634 18.5406 12.4616 18.5262 12.4576L17.7134 12.2399C17.6245 12.2161 17.5717 12.1246 17.5956 12.0358C17.6193 11.9469 17.7107 11.8937 17.7997 11.918L18.6124 12.1357C18.7013 12.1596 18.7541 12.251 18.7302 12.3398C18.7102 12.4143 18.6429 12.4634 18.5694 12.4634Z" fill="#BD7D00"/>
</svg>
