<svg width="70" height="70" viewBox="0 0 70 70" fill="none" xmlns="http://www.w3.org/2000/svg">
<path d="M14.8891 56.2305C14.6019 56.2305 14.3145 56.1208 14.0954 55.9017C8.51217 50.3185 5.4375 42.8953 5.4375 34.9995C5.4375 27.1038 8.5123 19.6806 14.0955 14.0974C19.6787 8.51426 27.1017 5.43945 34.9975 5.43945C35.6173 5.43945 36.1201 5.94217 36.1201 6.56205C36.1201 7.18193 35.6173 7.68465 34.9975 7.68465C27.7013 7.68465 20.842 10.5258 15.6829 15.685C10.5238 20.8442 7.68242 27.7034 7.68242 34.9995C7.68242 42.2957 10.5237 49.155 15.6828 54.3141C16.1213 54.7524 16.1213 55.4632 15.6828 55.9015C15.4638 56.1208 15.1764 56.2305 14.8891 56.2305Z" fill="#85919C"/>
<path d="M34.9975 64.5604C34.3774 64.5604 33.875 64.0577 33.875 63.4378C33.875 62.818 34.3776 62.3152 34.9975 62.3152C42.2935 62.3152 49.1529 59.4741 54.312 54.3149C59.4711 49.1557 62.3125 42.2965 62.3125 35.0003C62.3125 27.7042 59.4712 20.8449 54.312 15.6858C53.8737 15.2475 53.8737 14.5367 54.312 14.0984C54.7505 13.6599 55.461 13.6599 55.8994 14.0984C61.4826 19.6816 64.5574 27.1047 64.5574 35.0005C64.5574 42.8963 61.4826 50.3194 55.8994 55.9026C50.3162 61.4858 42.8932 64.5604 34.9975 64.5604Z" fill="#85919C"/>
<path d="M58.3146 37.4377L54.2762 38.7838C53.8289 40.8134 53.0303 42.7112 51.9457 44.409L53.8498 48.217C54.0604 48.6381 53.9778 49.1467 53.6449 49.4796L51.6662 51.4584C51.4562 51.6684 51.1763 51.7781 50.8925 51.7781V51.7787H46.5175V51.7781C46.3515 51.7781 46.184 51.741 46.0286 51.6632L44.5041 50.901C43.3848 51.4165 42.2021 51.8182 40.9704 52.0896L39.6242 56.128C39.4754 56.5746 39.0574 56.8758 38.5867 56.8758H31.4133C30.9426 56.8758 30.5245 56.5746 30.3758 56.128L29.0296 52.0896C27.7979 51.8182 26.6152 51.4165 25.4959 50.901L23.9714 51.6632C23.816 51.7408 23.6487 51.7781 23.4825 51.7781V51.7787H19.1075V51.7781C18.8237 51.7781 18.5438 51.6684 18.3338 51.4584L16.3551 49.4796C16.0222 49.1467 15.9396 48.6381 16.1502 48.217L18.0543 44.409C16.9697 42.7112 16.171 40.8136 15.7238 38.7838L11.6854 37.4377C11.2387 37.2888 10.9375 36.8709 10.9375 36.4V33.6017C10.9375 33.1309 11.2387 32.713 11.6854 32.5641L15.7238 31.218C16.1711 29.1884 16.9697 27.2906 18.0543 25.5928L16.1502 21.7848C15.9396 21.3637 16.0222 20.8551 16.3551 20.5222L18.3338 18.5435C18.5438 18.3335 18.8238 18.2237 19.1075 18.2237V18.2231H23.4825V18.2237C23.6485 18.2237 23.8159 18.2609 23.9713 18.3387L25.4957 19.1009C26.615 18.5853 27.7978 18.1836 29.0295 17.9122L30.3756 13.8738C30.5245 13.4272 30.9425 13.126 31.4132 13.126H38.5865C39.0573 13.126 39.4753 13.4272 39.6241 13.8738L40.9702 17.9122C42.2019 18.1836 43.3847 18.5853 44.504 19.1009L46.0284 18.3387C46.1839 18.261 46.3512 18.2237 46.5172 18.2237V18.2231H50.8922V18.2237C51.176 18.2237 51.4559 18.3335 51.6659 18.5435L53.6446 20.5222C53.9775 20.8551 54.0601 21.3637 53.8496 21.7848L51.9455 25.5928C53.0301 27.2906 53.8288 29.1882 54.276 31.218L58.3144 32.5641C58.761 32.713 59.0622 33.1309 59.0622 33.6017V36.4C59.0625 36.8709 58.7613 37.2888 58.3146 37.4377Z" fill="#0087A3"/>
<path d="M53.9396 37.4369L49.9012 38.783C49.4539 40.8126 48.6553 42.7104 47.5707 44.4082L49.4748 48.2162C49.6854 48.6373 49.6028 49.1459 49.2699 49.4788L47.2912 51.4575C46.9582 51.7904 46.4496 51.873 46.0286 51.6625L42.2205 49.7584C40.5228 50.843 38.6251 51.6417 36.5954 52.0889L35.2492 56.1273C35.1004 56.5739 34.6824 56.8751 34.2117 56.8751H31.4133C30.9426 56.8751 30.5245 56.5739 30.3758 56.1273L29.0296 52.0889C27 51.6417 25.1024 50.843 23.4045 49.7584L19.5964 51.6625C19.1754 51.873 18.6668 51.7906 18.3338 51.4575L16.3551 49.4788C16.0222 49.1459 15.9396 48.6373 16.1502 48.2162L18.0543 44.4082C16.9697 42.7104 16.171 40.8127 15.7238 38.783L11.6854 37.4369C11.2387 37.288 10.9375 36.87 10.9375 36.3992V33.6008C10.9375 33.1301 11.2387 32.7121 11.6854 32.5633L15.7238 31.2171C16.1711 29.1875 16.9697 27.2897 18.0543 25.592L16.1502 21.7839C15.9396 21.3629 16.0222 20.8543 16.3551 20.5213L18.3338 18.5426C18.6668 18.2097 19.1754 18.1271 19.5964 18.3377L23.4045 20.2418C25.1022 19.1572 26.9999 18.3585 29.0296 17.9113L30.3758 13.8729C30.5246 13.4262 30.9426 13.125 31.4133 13.125H34.2117C34.6824 13.125 35.1005 13.4262 35.2492 13.8729L36.5954 17.9113C38.625 18.3585 40.5226 19.1572 42.2205 20.2418L46.0286 18.3377C46.4496 18.1271 46.9582 18.2097 47.2912 18.5426L49.2699 20.5213C49.6028 20.8543 49.6854 21.3629 49.4748 21.7839L47.5707 25.592C48.6553 27.2897 49.454 29.1874 49.9012 31.2171L53.9396 32.5633C54.3863 32.7121 54.6875 33.1301 54.6875 33.6008V36.3992C54.6875 36.87 54.3863 37.288 53.9396 37.4369Z" fill="#27C2E2"/>
<path d="M35 45.9375H30.625C24.5844 45.9375 19.6875 41.0406 19.6875 35C19.6875 28.9594 24.5844 24.0625 30.625 24.0625H35C41.0406 24.0625 45.9375 28.9594 45.9375 35C45.9375 41.0406 41.0406 45.9375 35 45.9375Z" fill="#FE9923"/>
<path d="M30.625 45.9375C36.6656 45.9375 41.5625 41.0406 41.5625 35C41.5625 28.9594 36.6656 24.0625 30.625 24.0625C24.5844 24.0625 19.6875 28.9594 19.6875 35C19.6875 41.0406 24.5844 45.9375 30.625 45.9375Z" fill="#FFC924"/>
<path d="M33.9062 33.9062C34.5103 33.9062 35 33.4165 35 32.8125V32.0738C35 30.1886 33.5578 28.6338 31.7188 28.4547V27.3438C31.7188 26.7397 31.229 26.25 30.625 26.25C30.021 26.25 29.5312 26.7397 29.5312 27.3438V28.4547C27.6922 28.6338 26.25 30.1886 26.25 32.0738C26.25 33.6414 27.2493 35.0276 28.7364 35.5234L31.8218 36.5519C32.4144 36.7493 32.8125 37.3015 32.8125 37.9262C32.8125 38.725 32.1627 39.375 31.3638 39.375H29.8862C29.0873 39.375 28.4375 38.725 28.4375 37.9262V37.1875C28.4375 36.5835 27.9478 36.0938 27.3438 36.0938C26.7397 36.0938 26.25 36.5835 26.25 37.1875V37.9262C26.25 39.8114 27.6922 41.3662 29.5312 41.5453V42.6562C29.5312 43.2603 30.021 43.75 30.625 43.75C31.229 43.75 31.7188 43.2603 31.7188 42.6562V41.5453C33.5578 41.3662 35 39.8114 35 37.9262C35 36.3586 34.0007 34.9724 32.5136 34.4766L29.4282 33.4481C28.8356 33.2507 28.4375 32.6985 28.4375 32.0738C28.4375 31.275 29.0873 30.625 29.8862 30.625H31.3638C32.1627 30.625 32.8125 31.275 32.8125 32.0738V32.8125C32.8125 33.4165 33.3022 33.9062 33.9062 33.9062Z" fill="#FE9923"/>
<path d="M35 9.84375C36.8122 9.84375 38.2812 8.37468 38.2812 6.5625C38.2812 4.75032 36.8122 3.28125 35 3.28125C33.1878 3.28125 31.7188 4.75032 31.7188 6.5625C31.7188 8.37468 33.1878 9.84375 35 9.84375Z" fill="#0B2239"/>
<path d="M35 10.9375C32.5876 10.9375 30.625 8.9749 30.625 6.5625C30.625 4.1501 32.5876 2.1875 35 2.1875C37.4124 2.1875 39.375 4.1501 39.375 6.5625C39.375 8.9749 37.4124 10.9375 35 10.9375ZM35 4.375C33.7939 4.375 32.8125 5.35637 32.8125 6.5625C32.8125 7.76863 33.7939 8.75 35 8.75C36.2061 8.75 37.1875 7.76863 37.1875 6.5625C37.1875 5.35637 36.2061 4.375 35 4.375Z" fill="#85919C"/>
<path d="M31.7188 7.65625C31.1147 7.65625 30.625 7.16652 30.625 6.5625C30.625 4.1501 32.5876 2.1875 35 2.1875C35.604 2.1875 36.0938 2.67723 36.0938 3.28125C36.0938 3.88527 35.604 4.375 35 4.375C33.7939 4.375 32.8125 5.35637 32.8125 6.5625C32.8125 7.16652 32.3228 7.65625 31.7188 7.65625Z" fill="#85919C"/>
<path d="M35 66.7188C36.8122 66.7188 38.2812 65.2497 38.2812 63.4375C38.2812 61.6253 36.8122 60.1562 35 60.1562C33.1878 60.1562 31.7188 61.6253 31.7188 63.4375C31.7188 65.2497 33.1878 66.7188 35 66.7188Z" fill="#0B2239"/>
<path d="M35 67.8125C32.5876 67.8125 30.625 65.8499 30.625 63.4375C30.625 61.0251 32.5876 59.0625 35 59.0625C37.4124 59.0625 39.375 61.0251 39.375 63.4375C39.375 65.8499 37.4124 67.8125 35 67.8125ZM35 61.25C33.7939 61.25 32.8125 62.2314 32.8125 63.4375C32.8125 64.6436 33.7939 65.625 35 65.625C36.2061 65.625 37.1875 64.6436 37.1875 63.4375C37.1875 62.2314 36.2061 61.25 35 61.25Z" fill="#85919C"/>
<path d="M31.7188 64.5312C31.1147 64.5312 30.625 64.0415 30.625 63.4375C30.625 61.0251 32.5876 59.0625 35 59.0625C35.604 59.0625 36.0938 59.5522 36.0938 60.1562C36.0938 60.7603 35.604 61.25 35 61.25C33.7939 61.25 32.8125 62.2314 32.8125 63.4375C32.8125 64.0415 32.3228 64.5312 31.7188 64.5312Z" fill="#85919C"/>
</svg>
