<svg width="60" height="59" viewBox="0 0 60 59" fill="none" xmlns="http://www.w3.org/2000/svg">
<path d="M59.3913 46.5978C59.1796 48.5282 57.6161 50.0363 55.6785 50.172C55.5182 50.1834 55.359 50.1946 55.1997 50.2049C54.0184 50.2851 53.0998 51.2662 53.0998 52.4506V56.9278C53.0998 58.4339 51.376 59.2886 50.178 58.3764C47.9919 56.7111 45.0834 54.2342 43.299 51.6657C42.8768 51.0575 42.1792 50.7031 41.4385 50.7072C35.9443 50.735 30.4501 50.5583 24.9559 50.172C23.4241 50.0651 22.1235 49.1025 21.5441 47.7485C21.39 47.3931 21.2872 47.0088 21.243 46.6072C20.4294 39.1744 20.4294 31.7406 21.243 24.3067C21.4547 22.3783 23.0193 20.8774 24.9537 20.7418C33.1385 20.1674 41.3224 20.0525 49.5062 20.3965C51.5629 20.4818 53.6207 20.5968 55.6774 20.7418C57.6129 20.8774 59.1786 22.3783 59.3902 24.3067C60.204 31.7373 60.204 39.1671 59.3913 46.5978Z" fill="#27C2E2"/>
<circle cx="34.7132" cy="36.429" r="2.1429" fill="white"/>
<circle cx="41.5726" cy="36.429" r="2.1429" fill="white"/>
<circle cx="48.4242" cy="36.429" r="2.1429" fill="white"/>
<path d="M23.3395 24.1021C22.5062 31.7127 22.5062 39.324 23.3395 46.9331C23.3847 47.345 23.49 47.7378 23.6476 48.1023C24.0508 49.0448 24.7954 49.8021 25.7238 50.2243C25.4679 50.2077 25.2121 50.1902 24.9562 50.1721C23.4243 50.0652 22.1236 49.1027 21.5445 47.7482C21.3901 47.3926 21.2871 47.0084 21.2435 46.6068C20.4293 39.1745 20.4293 31.7405 21.2435 24.3065C21.455 22.3785 23.0194 20.8774 24.9537 20.7421C25.3315 20.7159 25.7094 20.6898 26.088 20.666C24.6148 21.1729 23.5162 22.4925 23.3395 24.1021Z" fill="#0090AE"/>
<path d="M0.585949 25.3805C0.789391 27.2366 2.29294 28.6869 4.15614 28.8173C4.31024 28.8282 4.46341 28.839 4.61646 28.8489C5.7525 28.9259 6.63564 29.8694 6.63564 31.0084V35.3135C6.63564 36.7617 8.29329 37.5836 9.44515 36.7064C11.5473 35.1051 14.3439 32.7234 16.0599 30.2537C16.466 29.6689 17.1367 29.328 17.849 29.332C23.1321 29.3587 28.4151 29.1888 33.6983 28.8173C35.1711 28.7145 36.4218 27.789 36.979 26.4869C37.1271 26.145 37.2259 25.7756 37.2685 25.3894C38.0508 18.2422 38.0508 11.094 37.2685 3.94574C37.0649 2.09157 35.5604 0.648256 33.7003 0.517824C25.8298 -0.0342578 17.9605 -0.144885 10.0911 0.185942C8.11341 0.267975 6.13465 0.378602 4.15696 0.517824C2.29587 0.648256 0.790446 2.09157 0.586887 3.94586C-0.195473 11.091 -0.195473 18.2353 0.585949 25.3805Z" fill="#FFC924"/>
<path d="M2.60264 3.7496C1.80141 11.0678 1.80141 18.3866 2.60264 25.7032C2.64612 26.0993 2.74737 26.477 2.8989 26.8274C3.28656 27.7338 4.00259 28.462 4.89523 28.868C4.64924 28.852 4.40314 28.8351 4.15716 28.8177C2.68409 28.7149 1.43344 27.7895 0.876668 26.487C0.728189 26.145 0.629163 25.7755 0.587209 25.3894C-0.195736 18.2427 -0.195736 11.0944 0.587209 3.94601C0.790534 2.09206 2.2949 0.648754 4.15494 0.518439C4.51823 0.49336 4.88163 0.468165 5.24562 0.445312C3.82892 0.932939 2.77245 2.20187 2.60264 3.7496Z" fill="#DCA600"/>
<circle cx="15.0023" cy="14.1429" r="2.1429" fill="white"/>
<circle cx="21.8538" cy="14.1429" r="2.1429" fill="white"/>
<circle cx="28.7132" cy="14.1429" r="2.1429" fill="white"/>
</svg>
