<svg width="70" height="70" viewBox="0 0 70 70" fill="none" xmlns="http://www.w3.org/2000/svg">
<path fill-rule="evenodd" clip-rule="evenodd" d="M35.4516 26.4622C33.6979 23.4242 39.1816 16.9783 47.6991 12.0594C56.2128 7.14454 64.5396 5.61753 66.2932 8.65555C67.2635 10.3376 68.2336 12.0197 69.2079 13.7057C70.9616 16.7397 65.4779 23.1856 56.9603 28.1045C48.4428 33.0194 40.1199 34.5464 38.3663 31.5123C37.3962 29.8263 36.4219 28.1443 35.4516 26.4622Z" fill="#FE9923"/>
<path fill-rule="evenodd" clip-rule="evenodd" d="M47.6991 12.0594C56.2128 7.14454 64.5396 5.61753 66.2932 8.65555C68.0469 11.6896 62.5632 18.1355 54.0456 23.0544C45.5281 27.9732 37.2053 29.4963 35.4516 26.4622C33.6979 23.4242 39.1816 16.9783 47.6991 12.0594Z" fill="#FFC924"/>
<path fill-rule="evenodd" clip-rule="evenodd" d="M49.1795 14.6278C55.9554 10.7189 62.2025 8.858 63.137 10.4724C64.0714 12.0909 59.3355 16.5724 52.5594 20.4851C45.7835 24.398 39.5325 26.259 38.602 24.6405C37.6676 23.0222 42.4036 18.5407 49.1795 14.6278Z" fill="#FEA832"/>
<path d="M65.6514 17.1815L67.2022 19.8696C67.572 19.4162 67.906 18.9709 68.1923 18.5334L66.9676 16.418L65.6514 17.1815ZM64.3231 22.844C63.9494 23.178 63.5556 23.516 63.1501 23.8501L61.6708 21.2853L62.987 20.5298L64.3231 22.844ZM59.9331 26.24C59.5195 26.5223 59.0941 26.8007 58.6607 27.0751L57.249 24.6296L58.5652 23.8741L59.9331 26.24ZM55.213 29.0632C54.7557 29.3058 54.3025 29.5324 53.8531 29.7552L52.4811 27.3851L53.8013 26.6217L55.213 29.0632ZM50.1748 31.3418C49.6778 31.5287 49.1926 31.6997 48.7155 31.8547L47.3754 29.5405L48.6955 28.781L50.1748 31.3418ZM44.6992 32.8607C44.1227 32.9562 43.5698 33.0199 43.0489 33.0516L41.8281 30.9361L43.1483 30.1727L44.6992 32.8607Z" fill="#C85929"/>
<path fill-rule="evenodd" clip-rule="evenodd" d="M34.1532 39.6439C35.9067 36.6098 30.4232 30.16 21.9056 25.2451C13.392 20.3262 5.06518 18.8032 3.31162 21.8372C2.34133 23.5193 1.37118 25.2053 0.396917 26.8873C-1.35677 29.9214 4.12688 36.3712 12.6445 41.2861C21.162 46.205 29.4849 47.7281 31.2385 44.694C32.2126 43.0121 33.1828 41.3259 34.1532 39.6439Z" fill="#FE9923"/>
<path fill-rule="evenodd" clip-rule="evenodd" d="M21.9037 25.2451C13.39 20.3262 5.06319 18.8032 3.30963 21.8372C1.56004 24.8752 7.04356 31.3211 15.5572 36.236C24.0748 41.1549 32.4016 42.6779 34.1512 39.6439C35.9049 36.6098 30.4212 30.16 21.9037 25.2451Z" fill="#FFC924"/>
<path fill-rule="evenodd" clip-rule="evenodd" d="M20.4188 27.8136C13.6469 23.9007 7.39584 22.0398 6.46137 23.6582C5.52689 25.2727 10.2628 29.7581 17.0387 33.6669C23.8147 37.5798 30.0657 39.4407 31.0002 37.8224C31.9307 36.208 27.1948 31.7265 20.4188 27.8136Z" fill="#FEA832"/>
<path d="M3.9432 30.3632L2.3924 33.0512C2.02258 32.5979 1.69254 32.1526 1.40625 31.719L2.62701 29.5996L3.9432 30.3632ZM5.27129 36.0257C5.64508 36.3597 6.03869 36.6978 6.44434 37.0318L7.9235 34.4709L6.6073 33.7114L5.27129 36.0257ZM9.66133 39.4256C10.0749 39.7039 10.5004 39.9823 10.9377 40.2567L12.3494 37.8112L11.0292 37.0557L9.66133 39.4256ZM14.3814 42.2488C14.8387 42.4874 15.2921 42.718 15.7454 42.9368L17.1133 40.5668L15.7932 39.8033L14.3814 42.2488ZM19.4236 44.5234C19.9167 44.7103 20.4018 44.8813 20.8829 45.0364L22.2191 42.7221L20.8989 41.9666L19.4236 44.5234ZM24.8952 46.0463C25.4759 46.1378 26.0245 46.2014 26.5454 46.2332L27.7662 44.1178L26.45 43.3543L24.8952 46.0463Z" fill="#C85929"/>
<path fill-rule="evenodd" clip-rule="evenodd" d="M32.927 56.2943C31.1773 53.2602 36.657 46.8144 45.1746 41.8955C53.6921 36.9806 62.015 35.4536 63.7686 38.4876C64.7428 40.1737 65.7131 41.8557 66.6833 43.5378C68.437 46.5758 62.9533 53.0217 54.4397 57.9405C45.9221 62.8554 37.5953 64.3825 35.8417 61.3444C34.8716 59.6624 33.9013 57.9803 32.927 56.2943Z" fill="#FE9923"/>
<path fill-rule="evenodd" clip-rule="evenodd" d="M45.1746 41.8955C53.6921 36.9806 62.015 35.4536 63.7686 38.4876C65.5223 41.5257 60.0386 47.9716 51.521 52.8904C43.0074 57.8053 34.6807 59.3323 32.927 56.2943C31.1773 53.2604 36.657 46.8145 45.1746 41.8955Z" fill="#FFC924"/>
<path fill-rule="evenodd" clip-rule="evenodd" d="M46.656 44.4643C53.432 40.5514 59.683 38.6944 60.6135 40.3089C61.548 41.9272 56.8121 46.4088 50.036 50.3216C43.2601 54.2306 37.013 56.0914 36.0785 54.4771C35.1442 52.8586 39.8801 48.3771 46.656 44.4643Z" fill="#FEA832"/>
<path d="M63.1318 47.0164L64.6865 49.7045C65.0564 49.2512 65.3864 48.8019 65.6727 48.3684L64.4519 46.2529L63.1318 47.0164ZM61.8075 52.6749C61.4298 53.0128 61.0401 53.3469 60.6305 53.681L59.1512 51.1201L60.4714 50.3646L61.8075 52.6749ZM57.4175 56.0748C56.9999 56.3571 56.5745 56.6355 56.1411 56.9099L54.7295 54.4644L56.0496 53.7049L57.4175 56.0748ZM52.6934 58.898C52.2401 59.1366 51.7829 59.3673 51.3335 59.586L49.9655 57.216L51.2817 56.4526L52.6934 58.898ZM47.6552 61.1766C47.1622 61.3595 46.673 61.5304 46.1959 61.6896L44.8597 59.3712L46.1759 58.6157L47.6552 61.1766ZM42.1836 62.6957C41.6029 62.7911 41.0502 62.8507 40.5333 62.8826L39.3125 60.7671L40.6287 60.0037L42.1836 62.6957Z" fill="#C85929"/>
<path d="M29.5123 14.2188V16.4814H31.7748V18.4458H29.5123V20.7123H27.5479V18.4458H25.2812V16.4814H27.5479V14.2188H29.5123Z" fill="#27C2E2"/>
<path d="M22.5082 50.5117V52.7744H24.7747V54.7387H22.5082V57.0053H20.5438V54.7387H18.2812V52.7744H20.5438V50.5117H22.5082Z" fill="#27C2E2"/>
<path d="M67.6646 28.3193V30.5819H69.9311V32.5464H67.6646V34.8129H65.7001V32.5464H63.4375V30.5819H65.7001V28.3193H67.6646Z" fill="#27C2E2"/>
</svg>
