<svg width="109" height="26" viewBox="0 0 109 26" fill="none" xmlns="http://www.w3.org/2000/svg">
<g filter="url(#filter0_i_622_55340)">
<path d="M28.6385 9.05371H39.6732V11.0187H35.3343V22.065H32.9485V11.0187H28.6289V9.05371H28.6385ZM39.2018 12.644H41.2414V14.4621H41.2798C41.3471 14.205 41.4722 13.9571 41.655 13.7184C41.8378 13.4796 42.059 13.2501 42.3188 13.0572C42.5786 12.8552 42.8671 12.6991 43.1847 12.5706C43.5022 12.4512 43.8292 12.387 44.1563 12.387C44.4064 12.387 44.5892 12.3961 44.6854 12.4053C44.7817 12.4145 44.8779 12.4328 44.9837 12.442V14.4437C44.8298 14.4162 44.6758 14.3979 44.5122 14.3795C44.3487 14.3611 44.1948 14.352 44.0409 14.352C43.6753 14.352 43.329 14.4254 43.0018 14.5631C42.6748 14.7009 42.3958 14.9121 42.1552 15.1784C41.9148 15.4539 41.7224 15.7844 41.578 16.1884C41.4337 16.5924 41.3664 17.0515 41.3664 17.5749V22.0559H39.1921V12.644H39.2018ZM54.9793 22.065H52.8435V20.752H52.8051C52.5358 21.2295 52.1413 21.6059 51.6122 21.8906C51.0831 22.1753 50.5443 22.3222 49.9959 22.3222C48.6972 22.3222 47.7544 22.0192 47.1772 21.4039C46.5999 20.7888 46.3113 19.8613 46.3113 18.6217V12.644H48.4855V18.4196C48.4855 19.2461 48.6491 19.8338 48.9857 20.1735C49.3129 20.5133 49.7842 20.6878 50.3808 20.6878C50.8425 20.6878 51.2177 20.6234 51.5256 20.4857C51.8335 20.348 52.0835 20.1735 52.2663 19.9439C52.4588 19.7235 52.5935 19.4481 52.68 19.1359C52.7666 18.8238 52.8051 18.484 52.8051 18.1166V12.6532H54.9793V22.065ZM58.6832 19.0441C58.7506 19.6501 58.991 20.0725 59.4048 20.3204C59.828 20.5592 60.3282 20.6878 60.9152 20.6878C61.1171 20.6878 61.348 20.6694 61.6078 20.6418C61.8675 20.6143 62.1177 20.55 62.339 20.4674C62.5698 20.3847 62.7526 20.2561 62.9066 20.0909C63.0509 19.9256 63.1182 19.7144 63.1086 19.4481C63.099 19.1818 62.9932 18.9614 62.8007 18.7961C62.6083 18.6217 62.3678 18.4931 62.0696 18.383C61.7714 18.282 61.4346 18.1901 61.0498 18.1166C60.665 18.0433 60.2801 17.9606 59.8857 17.8779C59.4817 17.7953 59.0872 17.6851 58.7121 17.5658C58.3368 17.4464 58.0001 17.2811 57.7019 17.0699C57.4036 16.8679 57.1632 16.6016 56.99 16.2802C56.8072 15.9589 56.7206 15.564 56.7206 15.0865C56.7206 14.5723 56.8553 14.15 57.1151 13.801C57.3748 13.4521 57.7115 13.1766 58.1059 12.9654C58.51 12.7542 58.9525 12.6073 59.4432 12.5155C59.9338 12.4328 60.4052 12.387 60.8478 12.387C61.3577 12.387 61.8483 12.442 62.3101 12.543C62.7719 12.644 63.1952 12.8093 63.5704 13.0481C63.9456 13.2776 64.2534 13.5806 64.5036 13.9479C64.7537 14.3152 64.9076 14.7651 64.9749 15.2885H62.7045C62.5987 14.7927 62.3678 14.453 61.9926 14.2876C61.6174 14.1132 61.1845 14.0306 60.7035 14.0306C60.5495 14.0306 60.3667 14.0397 60.1551 14.0672C59.9435 14.0949 59.751 14.1407 59.5586 14.205C59.3759 14.2693 59.2219 14.3703 59.0872 14.4989C58.9622 14.6274 58.8948 14.7927 58.8948 15.0039C58.8948 15.261 58.991 15.463 59.1738 15.6191C59.3566 15.7752 59.5971 15.9037 59.8954 16.0139C60.1936 16.115 60.5303 16.2067 60.9152 16.2802C61.2999 16.3536 61.6944 16.4364 62.0984 16.519C62.4929 16.6016 62.8777 16.7118 63.2626 16.8311C63.6473 16.9505 63.9841 17.1158 64.2823 17.327C64.5805 17.5382 64.8211 17.7953 65.0038 18.1075C65.1866 18.4196 65.2828 18.8145 65.2828 19.2736C65.2828 19.8338 65.1481 20.302 64.8787 20.6969C64.6094 21.0825 64.263 21.4039 63.8398 21.6427C63.4164 21.8814 62.9354 22.065 62.4159 22.1753C61.8964 22.2854 61.3769 22.3405 60.867 22.3405C60.2417 22.3405 59.6644 22.2763 59.1353 22.1385C58.6063 22.0008 58.1444 21.7988 57.7596 21.5325C57.3748 21.257 57.067 20.9173 56.8457 20.5133C56.6244 20.1093 56.5089 19.6225 56.4897 19.0625H58.6832V19.0441ZM65.86 12.644H67.5051V9.81584H69.6793V12.644H71.642V14.1959H69.6793V19.2278C69.6793 19.4481 69.689 19.6318 69.7082 19.797C69.7274 19.9531 69.7756 20.0909 69.8429 20.201C69.9103 20.3113 70.0161 20.3939 70.1603 20.449C70.3046 20.504 70.4875 20.5316 70.7376 20.5316C70.8916 20.5316 71.0454 20.5316 71.1994 20.5224C71.3533 20.5133 71.5073 20.4949 71.6612 20.4582V22.065C71.4207 22.0927 71.1801 22.111 70.9588 22.1385C70.728 22.166 70.4971 22.1753 70.2565 22.1753C69.6793 22.1753 69.2176 22.1202 68.8712 22.0192C68.5249 21.9182 68.2459 21.762 68.0535 21.56C67.8515 21.358 67.7264 21.1101 67.6495 20.8071C67.5821 20.504 67.534 20.1551 67.5244 19.7695V14.2142H65.8793V12.644H65.86ZM73.1812 12.644H75.24V13.9204H75.2785C75.5863 13.3695 76.0096 12.9837 76.558 12.7451C77.1063 12.5063 77.6932 12.387 78.3378 12.387C79.117 12.387 79.7905 12.5155 80.3677 12.7817C80.9449 13.0389 81.4259 13.397 81.8107 13.8561C82.1956 14.3152 82.4745 14.8477 82.6669 15.4539C82.8594 16.0599 82.9556 16.7118 82.9556 17.4005C82.9556 18.034 82.869 18.6493 82.6958 19.2369C82.5226 19.8338 82.2629 20.3572 81.9165 20.8163C81.5703 21.2754 81.1277 21.6335 80.589 21.9089C80.0501 22.1844 79.4248 22.3222 78.6937 22.3222C78.3763 22.3222 78.0587 22.2947 77.7413 22.2395C77.4238 22.1844 77.1159 22.0926 76.8274 21.9733C76.5387 21.8539 76.2598 21.6978 76.0192 21.5049C75.7691 21.3121 75.567 21.0918 75.3939 20.8438H75.3554V25.5452H73.1812V12.644ZM80.7814 17.3637C80.7814 16.9414 80.7237 16.5281 80.6082 16.1241C80.4927 15.7201 80.3195 15.3711 80.0886 15.059C79.8578 14.7467 79.5692 14.4989 79.2325 14.3152C78.8861 14.1316 78.4917 14.0306 78.0491 14.0306C77.1352 14.0306 76.4425 14.3336 75.9808 14.9396C75.5189 15.5456 75.2881 16.3536 75.2881 17.3637C75.2881 17.8412 75.3458 18.282 75.4709 18.686C75.5959 19.09 75.7691 19.4389 76.0192 19.7328C76.2598 20.0266 76.5483 20.2561 76.8851 20.4214C77.2218 20.5959 77.6162 20.6785 78.0587 20.6785C78.5591 20.6785 78.9727 20.5775 79.319 20.3847C79.6654 20.1919 79.9444 19.9348 80.1656 19.6318C80.3869 19.3195 80.5505 18.9706 80.6467 18.5758C80.7333 18.181 80.7814 17.7769 80.7814 17.3637ZM84.6199 9.05371H86.7942V11.0187H84.6199V9.05371ZM84.6199 12.644H86.7942V22.065H84.6199V12.644ZM88.7378 9.05371H90.9115V22.065H88.7378V9.05371ZM97.579 22.3222C96.7896 22.3222 96.0876 22.1937 95.472 21.9457C94.8564 21.6978 94.3361 21.3489 93.9031 20.9173C93.4799 20.4765 93.153 19.9531 92.9321 19.3471C92.7102 18.741 92.5953 18.0708 92.5953 17.3454C92.5953 16.6291 92.7102 15.968 92.9321 15.362C93.153 14.756 93.4799 14.2326 93.9031 13.7918C94.3272 13.3511 94.8564 13.0113 95.472 12.7634C96.0876 12.5155 96.7896 12.387 97.579 12.387C98.3674 12.387 99.0694 12.5155 99.6849 12.7634C100.302 13.0113 100.821 13.3602 101.254 13.7918C101.677 14.2326 102.004 14.756 102.225 15.362C102.447 15.968 102.562 16.6291 102.562 17.3454C102.562 18.0708 102.447 18.741 102.225 19.3471C102.004 19.9531 101.677 20.4765 101.254 20.9173C100.831 21.358 100.302 21.6978 99.6849 21.9457C99.0694 22.1937 98.3674 22.3222 97.579 22.3222ZM97.579 20.6785C98.0591 20.6785 98.4832 20.5775 98.8386 20.3847C99.195 20.1919 99.4837 19.9348 99.7144 19.6225C99.9451 19.3104 100.109 18.9523 100.224 18.5574C100.33 18.1626 100.388 17.7585 100.388 17.3454C100.388 16.9414 100.33 16.5465 100.224 16.1425C100.118 15.7385 99.9451 15.3895 99.7144 15.0774C99.4837 14.7651 99.195 14.5172 98.8386 14.3244C98.4832 14.1316 98.0591 14.0306 97.579 14.0306C97.0979 14.0306 96.6738 14.1316 96.3184 14.3244C95.962 14.5172 95.6733 14.7744 95.4426 15.0774C95.2118 15.3895 95.0479 15.7385 94.933 16.1425C94.827 16.5465 94.7691 16.9414 94.7691 17.3454C94.7691 17.7585 94.827 18.1626 94.933 18.5574C95.0391 18.9523 95.2118 19.3104 95.4426 19.6225C95.6733 19.9348 95.962 20.1919 96.3184 20.3847C96.6738 20.5868 97.0979 20.6785 97.579 20.6785ZM103.197 12.644H104.842V9.81584H107.016V12.644H108.979V14.1959H107.016V19.2278C107.016 19.4481 107.026 19.6318 107.046 19.797C107.064 19.9531 107.112 20.0909 107.18 20.201C107.247 20.3113 107.353 20.3939 107.497 20.449C107.641 20.504 107.824 20.5316 108.074 20.5316C108.229 20.5316 108.383 20.5316 108.536 20.5224C108.69 20.5133 108.844 20.4949 108.998 20.4582V22.065C108.758 22.0927 108.517 22.111 108.295 22.1385C108.065 22.166 107.834 22.1753 107.593 22.1753C107.016 22.1753 106.555 22.1202 106.208 22.0192C105.861 21.9182 105.583 21.762 105.39 21.56C105.188 21.358 105.063 21.1101 104.987 20.8071C104.919 20.504 104.871 20.1551 104.861 19.7695V14.2142H103.216V12.644H103.197Z" fill="#0B2239"/>
<path d="M26.1002 9.05379H16.1335L13.055 0L9.96679 9.05379L0 9.04456L8.07151 14.6457L4.98335 23.6903L13.055 18.0984L21.1169 23.6903L18.0383 14.6457L26.1002 9.05379Z" fill="#00B67A"/>
<path d="M18.7307 16.6932L18.038 14.6455L13.0547 18.098L18.7307 16.6932Z" fill="#005128"/>
</g>
<defs>
<filter id="filter0_i_622_55340" x="0" y="0" width="109" height="25.5454" filterUnits="userSpaceOnUse" color-interpolation-filters="sRGB">
<feFlood flood-opacity="0" result="BackgroundImageFix"/>
<feBlend mode="normal" in="SourceGraphic" in2="BackgroundImageFix" result="shape"/>
<feColorMatrix in="SourceAlpha" type="matrix" values="0 0 0 0 0 0 0 0 0 0 0 0 0 0 0 0 0 0 127 0" result="hardAlpha"/>
<feOffset/>
<feGaussianBlur stdDeviation="5"/>
<feComposite in2="hardAlpha" operator="arithmetic" k2="-1" k3="1"/>
<feColorMatrix type="matrix" values="0 0 0 0 0 0 0 0 0 0 0 0 0 0 0 0 0 0 0.1 0"/>
<feBlend mode="normal" in2="shape" result="effect1_innerShadow_622_55340"/>
</filter>
</defs>
</svg>
